M48
; DRILL file {KiCad (6.0.9)} date Tue Jan 31 02:57:37 2023
; FORMAT={-:-/ absolute / metric / decimal}
; #@! TF.CreationDate,2023-01-31T02:57:37+02:00
; #@! TF.GenerationSoftware,Kicad,Pcbnew,(6.0.9)
; #@! TF.FileFunction,Plated,1,2,PTH
FMAT,2
METRIC
; #@! TA.AperFunction,Plated,PTH,ViaDrill
T1C0.400
; #@! TA.AperFunction,Plated,PTH,ComponentDrill
T2C0.700
; #@! TA.AperFunction,Plated,PTH,ComponentDrill
T3C0.800
; #@! TA.AperFunction,Plated,PTH,ComponentDrill
T4C1.000
; #@! TA.AperFunction,Plated,PTH,ComponentDrill
T5C1.100
; #@! TA.AperFunction,Plated,PTH,ComponentDrill
T6C1.500
; #@! TA.AperFunction,Plated,PTH,ComponentDrill
T7C1.540
%
G90
G05
T1
X125.288Y-81.546
X128.488Y-118.746
T2
X125.348Y-94.796
X130.428Y-94.796
X132.748Y-94.796
X137.828Y-94.796
X146.048Y-116.346
X146.048Y-118.946
X151.128Y-116.346
X151.128Y-118.946
T3
X124.988Y-88.446
X129.188Y-80.346
X129.188Y-85.346
X129.988Y-88.446
T4
X106.458Y-122.396
X108.998Y-122.396
X111.538Y-122.396
X112.653Y-100.44
X112.653Y-111.56
X114.078Y-122.396
X116.618Y-122.396
X117.733Y-98.38
X117.733Y-113.62
X120.273Y-98.38
X120.273Y-113.62
X122.813Y-98.38
X122.813Y-113.62
X125.353Y-98.38
X125.353Y-113.62
X127.59Y-122.435
X127.893Y-98.38
X127.893Y-113.62
X130.13Y-122.435
X130.433Y-98.38
X130.433Y-113.62
X132.67Y-122.435
X132.973Y-98.38
X132.973Y-113.62
X135.21Y-122.435
X135.513Y-98.38
X135.513Y-113.62
X137.75Y-122.435
X138.053Y-98.38
X138.053Y-113.62
X140.593Y-98.38
X140.593Y-113.62
X146.043Y-122.138
X146.043Y-124.678
X146.043Y-127.218
X146.043Y-129.758
X146.043Y-132.298
X146.043Y-134.838
X146.043Y-137.378
X146.043Y-139.918
X146.043Y-142.458
X146.043Y-144.998
X146.043Y-147.538
T5
X117.788Y-83.766
X117.788Y-93.926
T6
X167.5Y-69.3
X167.5Y-140.7
T7
X136.688Y-84.946
X136.988Y-62.046
X140.088Y-84.946
X147.688Y-84.946
X151.188Y-62.046
X151.188Y-84.946
T0
M30
