G04 #@! TF.GenerationSoftware,KiCad,Pcbnew,(6.0.9)*
G04 #@! TF.CreationDate,2023-02-04T16:03:44+02:00*
G04 #@! TF.ProjectId,Schematics,53636865-6d61-4746-9963-732e6b696361,rev?*
G04 #@! TF.SameCoordinates,Original*
G04 #@! TF.FileFunction,Legend,Bot*
G04 #@! TF.FilePolarity,Positive*
%FSLAX46Y46*%
G04 Gerber Fmt 4.6, Leading zero omitted, Abs format (unit mm)*
G04 Created by KiCad (PCBNEW (6.0.9)) date 2023-02-04 16:03:44*
%MOMM*%
%LPD*%
G01*
G04 APERTURE LIST*
%ADD10C,2.500000*%
%ADD11O,3.000000X7.000000*%
%ADD12C,1.600000*%
%ADD13R,1.900000X1.900000*%
%ADD14C,1.900000*%
%ADD15R,2.000000X2.000000*%
%ADD16O,2.000000X2.000000*%
%ADD17C,3.000000*%
%ADD18O,3.500000X3.500000*%
%ADD19C,1.400000*%
%ADD20O,1.400000X1.400000*%
%ADD21C,2.000000*%
%ADD22R,2.800000X2.800000*%
%ADD23R,2.200000X2.200000*%
%ADD24O,2.200000X2.200000*%
G04 APERTURE END LIST*
%LPC*%
D10*
X104000000Y-146000000D03*
X104000000Y-64000000D03*
D11*
X152500000Y-106000000D03*
D12*
X124988000Y-88446000D03*
X129988000Y-88446000D03*
D13*
X146043000Y-122138000D03*
D14*
X146043000Y-124678000D03*
X146043000Y-127218000D03*
X146043000Y-129758000D03*
X146043000Y-132298000D03*
X146043000Y-134838000D03*
X146043000Y-137378000D03*
X146043000Y-139918000D03*
X146043000Y-142458000D03*
X146043000Y-144998000D03*
X146043000Y-147538000D03*
D15*
X137750000Y-122435500D03*
D16*
X135210000Y-122435500D03*
X132670000Y-122435500D03*
X130130000Y-122435500D03*
X127590000Y-122435500D03*
D17*
X167500000Y-78000000D03*
X167500000Y-132000000D03*
D18*
X167500000Y-69300000D03*
X167500000Y-140700000D03*
D10*
X181000000Y-146000000D03*
D19*
X151128000Y-118946000D03*
D20*
X146048000Y-118946000D03*
D10*
X181000000Y-64000000D03*
D19*
X137828000Y-94796000D03*
D20*
X132748000Y-94796000D03*
D19*
X125348000Y-94796000D03*
D20*
X130428000Y-94796000D03*
D21*
X130433000Y-98380000D03*
X135513000Y-113620000D03*
X138053000Y-113620000D03*
X117733000Y-113620000D03*
X120273000Y-113620000D03*
X122813000Y-113620000D03*
X125353000Y-113620000D03*
X127893000Y-113620000D03*
X130433000Y-113620000D03*
X127893000Y-98380000D03*
X125353000Y-98380000D03*
X132973000Y-113620000D03*
X138053000Y-98380000D03*
X135513000Y-98380000D03*
X132973000Y-98380000D03*
X140593000Y-113620000D03*
X140593000Y-98380000D03*
X122813000Y-98380000D03*
X120273000Y-98380000D03*
X112653000Y-100440000D03*
X112653000Y-111560000D03*
X117733000Y-98380000D03*
D15*
X116618000Y-122396000D03*
D16*
X114078000Y-122396000D03*
X111538000Y-122396000D03*
X108998000Y-122396000D03*
X106458000Y-122396000D03*
D22*
X151188000Y-62046000D03*
X136988000Y-62046000D03*
X151188000Y-84946000D03*
X147688000Y-84946000D03*
X140088000Y-84946000D03*
X136688000Y-84946000D03*
D12*
X129188000Y-85346000D03*
X129188000Y-80346000D03*
D19*
X146048000Y-116346000D03*
D20*
X151128000Y-116346000D03*
D23*
X117788000Y-83766000D03*
D24*
X117788000Y-93926000D03*
M02*
