G04 #@! TF.GenerationSoftware,KiCad,Pcbnew,(6.0.9)*
G04 #@! TF.CreationDate,2023-02-04T16:03:44+02:00*
G04 #@! TF.ProjectId,Schematics,53636865-6d61-4746-9963-732e6b696361,rev?*
G04 #@! TF.SameCoordinates,Original*
G04 #@! TF.FileFunction,Copper,L2,Bot*
G04 #@! TF.FilePolarity,Positive*
%FSLAX46Y46*%
G04 Gerber Fmt 4.6, Leading zero omitted, Abs format (unit mm)*
G04 Created by KiCad (PCBNEW (6.0.9)) date 2023-02-04 16:03:44*
%MOMM*%
%LPD*%
G01*
G04 APERTURE LIST*
G04 #@! TA.AperFunction,ComponentPad*
%ADD10C,1.600000*%
G04 #@! TD*
G04 #@! TA.AperFunction,ComponentPad*
%ADD11R,1.900000X1.900000*%
G04 #@! TD*
G04 #@! TA.AperFunction,ComponentPad*
%ADD12C,1.900000*%
G04 #@! TD*
G04 #@! TA.AperFunction,ComponentPad*
%ADD13R,2.000000X2.000000*%
G04 #@! TD*
G04 #@! TA.AperFunction,ComponentPad*
%ADD14O,2.000000X2.000000*%
G04 #@! TD*
G04 #@! TA.AperFunction,ComponentPad*
%ADD15O,3.500000X3.500000*%
G04 #@! TD*
G04 #@! TA.AperFunction,ComponentPad*
%ADD16C,1.400000*%
G04 #@! TD*
G04 #@! TA.AperFunction,ComponentPad*
%ADD17O,1.400000X1.400000*%
G04 #@! TD*
G04 #@! TA.AperFunction,ComponentPad*
%ADD18C,2.000000*%
G04 #@! TD*
G04 #@! TA.AperFunction,ComponentPad*
%ADD19R,2.800000X2.800000*%
G04 #@! TD*
G04 #@! TA.AperFunction,ComponentPad*
%ADD20R,2.200000X2.200000*%
G04 #@! TD*
G04 #@! TA.AperFunction,ComponentPad*
%ADD21O,2.200000X2.200000*%
G04 #@! TD*
G04 #@! TA.AperFunction,ViaPad*
%ADD22C,0.800000*%
G04 #@! TD*
G04 #@! TA.AperFunction,Conductor*
%ADD23C,0.800000*%
G04 #@! TD*
G04 APERTURE END LIST*
D10*
X124988000Y-88446000D03*
X129988000Y-88446000D03*
D11*
X146043000Y-122138000D03*
D12*
X146043000Y-124678000D03*
X146043000Y-127218000D03*
X146043000Y-129758000D03*
X146043000Y-132298000D03*
X146043000Y-134838000D03*
X146043000Y-137378000D03*
X146043000Y-139918000D03*
X146043000Y-142458000D03*
X146043000Y-144998000D03*
X146043000Y-147538000D03*
D13*
X137750000Y-122435500D03*
D14*
X135210000Y-122435500D03*
X132670000Y-122435500D03*
X130130000Y-122435500D03*
X127590000Y-122435500D03*
D15*
X167500000Y-69300000D03*
X167500000Y-140700000D03*
D16*
X151128000Y-118946000D03*
D17*
X146048000Y-118946000D03*
D16*
X137828000Y-94796000D03*
D17*
X132748000Y-94796000D03*
D16*
X125348000Y-94796000D03*
D17*
X130428000Y-94796000D03*
D18*
X130433000Y-98380000D03*
X135513000Y-113620000D03*
X138053000Y-113620000D03*
X117733000Y-113620000D03*
X120273000Y-113620000D03*
X122813000Y-113620000D03*
X125353000Y-113620000D03*
X127893000Y-113620000D03*
X130433000Y-113620000D03*
X127893000Y-98380000D03*
X125353000Y-98380000D03*
X132973000Y-113620000D03*
X138053000Y-98380000D03*
X135513000Y-98380000D03*
X132973000Y-98380000D03*
X140593000Y-113620000D03*
X140593000Y-98380000D03*
X122813000Y-98380000D03*
X120273000Y-98380000D03*
X112653000Y-100440000D03*
X112653000Y-111560000D03*
X117733000Y-98380000D03*
D13*
X116618000Y-122396000D03*
D14*
X114078000Y-122396000D03*
X111538000Y-122396000D03*
X108998000Y-122396000D03*
X106458000Y-122396000D03*
D19*
X151188000Y-62046000D03*
X136988000Y-62046000D03*
X151188000Y-84946000D03*
X147688000Y-84946000D03*
X140088000Y-84946000D03*
X136688000Y-84946000D03*
D10*
X129188000Y-85346000D03*
X129188000Y-80346000D03*
D16*
X146048000Y-116346000D03*
D17*
X151128000Y-116346000D03*
D20*
X117788000Y-83766000D03*
D21*
X117788000Y-93926000D03*
D22*
X125288000Y-81546000D03*
X128488000Y-118746000D03*
D23*
X127590000Y-122435500D02*
X127590000Y-119644000D01*
X127590000Y-119644000D02*
X128488000Y-118746000D01*
G04 #@! TA.AperFunction,Conductor*
G36*
X135098849Y-60319407D02*
G01*
X135134813Y-60368907D01*
X135133358Y-60434251D01*
X135096823Y-60531710D01*
X135093971Y-60543702D01*
X135088289Y-60596009D01*
X135088000Y-60601343D01*
X135088000Y-61780320D01*
X135092122Y-61793005D01*
X135096243Y-61796000D01*
X138872320Y-61796000D01*
X138885005Y-61791878D01*
X138888000Y-61787757D01*
X138888000Y-60601343D01*
X138887711Y-60596009D01*
X138882029Y-60543702D01*
X138879177Y-60531710D01*
X138842642Y-60434251D01*
X138839920Y-60373127D01*
X138873646Y-60322076D01*
X138935342Y-60300500D01*
X149469531Y-60300500D01*
X149527722Y-60319407D01*
X149563686Y-60368907D01*
X149563686Y-60430093D01*
X149546282Y-60458522D01*
X149547381Y-60459274D01*
X149542214Y-60466821D01*
X149535759Y-60473287D01*
X149490494Y-60575673D01*
X149487500Y-60601354D01*
X149487500Y-63490646D01*
X149490618Y-63516846D01*
X149536061Y-63619153D01*
X149615287Y-63698241D01*
X149623645Y-63701936D01*
X149710864Y-63740496D01*
X149710866Y-63740496D01*
X149717673Y-63743506D01*
X149725067Y-63744368D01*
X149740378Y-63746153D01*
X149743354Y-63746500D01*
X152632646Y-63746500D01*
X152650561Y-63744368D01*
X152651469Y-63744260D01*
X152651470Y-63744260D01*
X152658846Y-63743382D01*
X152761153Y-63697939D01*
X152840241Y-63618713D01*
X152885506Y-63516327D01*
X152888500Y-63490646D01*
X152888500Y-60601354D01*
X152885382Y-60575154D01*
X152839939Y-60472847D01*
X152833469Y-60466388D01*
X152828292Y-60458855D01*
X152830432Y-60457384D01*
X152808827Y-60415076D01*
X152818343Y-60354636D01*
X152861568Y-60311331D01*
X152906594Y-60300500D01*
X180965047Y-60300500D01*
X180982236Y-60302004D01*
X181000000Y-60305136D01*
X181008529Y-60303632D01*
X181008530Y-60303632D01*
X181009613Y-60303441D01*
X181031662Y-60302055D01*
X181237897Y-60312187D01*
X181357764Y-60318076D01*
X181367432Y-60319029D01*
X181716922Y-60370871D01*
X181726451Y-60372766D01*
X182069188Y-60458617D01*
X182078485Y-60461437D01*
X182411158Y-60580470D01*
X182420134Y-60584188D01*
X182739538Y-60735254D01*
X182748106Y-60739834D01*
X183051166Y-60921481D01*
X183059235Y-60926873D01*
X183343036Y-61137355D01*
X183350546Y-61143518D01*
X183612338Y-61380792D01*
X183619208Y-61387662D01*
X183856482Y-61649454D01*
X183862645Y-61656964D01*
X184073127Y-61940765D01*
X184078519Y-61948834D01*
X184157769Y-62081054D01*
X184260166Y-62251894D01*
X184264746Y-62260462D01*
X184415812Y-62579866D01*
X184419530Y-62588842D01*
X184538563Y-62921515D01*
X184541383Y-62930812D01*
X184627234Y-63273549D01*
X184629129Y-63283078D01*
X184680971Y-63632568D01*
X184681924Y-63642236D01*
X184686893Y-63743382D01*
X184696848Y-63946000D01*
X184697945Y-63968334D01*
X184696559Y-63990387D01*
X184694864Y-64000000D01*
X184696368Y-64008528D01*
X184697996Y-64017761D01*
X184699500Y-64034953D01*
X184699500Y-145965047D01*
X184697996Y-145982236D01*
X184694864Y-146000000D01*
X184696368Y-146008529D01*
X184696368Y-146008530D01*
X184696559Y-146009613D01*
X184697945Y-146031662D01*
X184690711Y-146178914D01*
X184681924Y-146357764D01*
X184680971Y-146367432D01*
X184629129Y-146716922D01*
X184627234Y-146726451D01*
X184541383Y-147069188D01*
X184538563Y-147078485D01*
X184419530Y-147411158D01*
X184415812Y-147420134D01*
X184264746Y-147739538D01*
X184260166Y-147748106D01*
X184252945Y-147760154D01*
X184078519Y-148051166D01*
X184073127Y-148059235D01*
X183862645Y-148343036D01*
X183856482Y-148350546D01*
X183619208Y-148612338D01*
X183612338Y-148619208D01*
X183350546Y-148856482D01*
X183343036Y-148862645D01*
X183059235Y-149073127D01*
X183051166Y-149078519D01*
X182879348Y-149181503D01*
X182748106Y-149260166D01*
X182739538Y-149264746D01*
X182420134Y-149415812D01*
X182411158Y-149419530D01*
X182078485Y-149538563D01*
X182069188Y-149541383D01*
X181726451Y-149627234D01*
X181716922Y-149629129D01*
X181367432Y-149680971D01*
X181357764Y-149681924D01*
X181237897Y-149687813D01*
X181031662Y-149697945D01*
X181009613Y-149696559D01*
X181008530Y-149696368D01*
X181008529Y-149696368D01*
X181000000Y-149694864D01*
X180982236Y-149697996D01*
X180965047Y-149699500D01*
X104034953Y-149699500D01*
X104017764Y-149697996D01*
X104000000Y-149694864D01*
X103991471Y-149696368D01*
X103991470Y-149696368D01*
X103990387Y-149696559D01*
X103968338Y-149697945D01*
X103762103Y-149687813D01*
X103642236Y-149681924D01*
X103632568Y-149680971D01*
X103283078Y-149629129D01*
X103273549Y-149627234D01*
X102930812Y-149541383D01*
X102921515Y-149538563D01*
X102588842Y-149419530D01*
X102579866Y-149415812D01*
X102260462Y-149264746D01*
X102251894Y-149260166D01*
X102120652Y-149181503D01*
X101948834Y-149078519D01*
X101940765Y-149073127D01*
X101656964Y-148862645D01*
X101649454Y-148856482D01*
X101387662Y-148619208D01*
X101380792Y-148612338D01*
X101143518Y-148350546D01*
X101137355Y-148343036D01*
X100926873Y-148059235D01*
X100921481Y-148051166D01*
X100747055Y-147760154D01*
X100739834Y-147748106D01*
X100735254Y-147739538D01*
X100584188Y-147420134D01*
X100580470Y-147411158D01*
X100461437Y-147078485D01*
X100458617Y-147069188D01*
X100372766Y-146726451D01*
X100370871Y-146716922D01*
X100319029Y-146367432D01*
X100318076Y-146357764D01*
X100309289Y-146178914D01*
X100303167Y-146054288D01*
X102445404Y-146054288D01*
X102445861Y-146058236D01*
X102445861Y-146058241D01*
X102471834Y-146282723D01*
X102474081Y-146302140D01*
X102475161Y-146305958D01*
X102475162Y-146305961D01*
X102516878Y-146453380D01*
X102542017Y-146542219D01*
X102543695Y-146545818D01*
X102543696Y-146545820D01*
X102645780Y-146764742D01*
X102645783Y-146764747D01*
X102647462Y-146768348D01*
X102649697Y-146771637D01*
X102649700Y-146771642D01*
X102662896Y-146791059D01*
X102787706Y-146974710D01*
X102959138Y-147155994D01*
X103157349Y-147307538D01*
X103160852Y-147309416D01*
X103160853Y-147309417D01*
X103359138Y-147415737D01*
X103377239Y-147425443D01*
X103613152Y-147506674D01*
X103794511Y-147538000D01*
X103855942Y-147548611D01*
X103855944Y-147548611D01*
X103859017Y-147549142D01*
X103881989Y-147550185D01*
X103887818Y-147550450D01*
X103887824Y-147550450D01*
X103888922Y-147550500D01*
X104062691Y-147550500D01*
X104064665Y-147550341D01*
X104064669Y-147550341D01*
X104218057Y-147538000D01*
X144787723Y-147538000D01*
X144806793Y-147755977D01*
X144863425Y-147967330D01*
X144955898Y-148165638D01*
X145081402Y-148344877D01*
X145236123Y-148499598D01*
X145351004Y-148580039D01*
X145406944Y-148619208D01*
X145415361Y-148625102D01*
X145613670Y-148717575D01*
X145700220Y-148740766D01*
X145820846Y-148773088D01*
X145820848Y-148773088D01*
X145825023Y-148774207D01*
X146043000Y-148793277D01*
X146260977Y-148774207D01*
X146265152Y-148773088D01*
X146265154Y-148773088D01*
X146385780Y-148740766D01*
X146472330Y-148717575D01*
X146670639Y-148625102D01*
X146679057Y-148619208D01*
X146734996Y-148580039D01*
X146849877Y-148499598D01*
X147004598Y-148344877D01*
X147130102Y-148165638D01*
X147222575Y-147967330D01*
X147279207Y-147755977D01*
X147298277Y-147538000D01*
X147279207Y-147320023D01*
X147222575Y-147108670D01*
X147130102Y-146910362D01*
X147004598Y-146731123D01*
X146849877Y-146576402D01*
X146670639Y-146450898D01*
X146472330Y-146358425D01*
X146473056Y-146356868D01*
X146430168Y-146323360D01*
X146413303Y-146264545D01*
X146434230Y-146207050D01*
X146472954Y-146178914D01*
X146472330Y-146177575D01*
X146670639Y-146085102D01*
X146709001Y-146058241D01*
X146714646Y-146054288D01*
X179445404Y-146054288D01*
X179445861Y-146058236D01*
X179445861Y-146058241D01*
X179471834Y-146282723D01*
X179474081Y-146302140D01*
X179475161Y-146305958D01*
X179475162Y-146305961D01*
X179516878Y-146453380D01*
X179542017Y-146542219D01*
X179543695Y-146545818D01*
X179543696Y-146545820D01*
X179645780Y-146764742D01*
X179645783Y-146764747D01*
X179647462Y-146768348D01*
X179649697Y-146771637D01*
X179649700Y-146771642D01*
X179662896Y-146791059D01*
X179787706Y-146974710D01*
X179959138Y-147155994D01*
X180157349Y-147307538D01*
X180160852Y-147309416D01*
X180160853Y-147309417D01*
X180359138Y-147415737D01*
X180377239Y-147425443D01*
X180613152Y-147506674D01*
X180794511Y-147538000D01*
X180855942Y-147548611D01*
X180855944Y-147548611D01*
X180859017Y-147549142D01*
X180881989Y-147550185D01*
X180887818Y-147550450D01*
X180887824Y-147550450D01*
X180888922Y-147550500D01*
X181062691Y-147550500D01*
X181064665Y-147550341D01*
X181064669Y-147550341D01*
X181244742Y-147535853D01*
X181244747Y-147535852D01*
X181248702Y-147535534D01*
X181252562Y-147534586D01*
X181487140Y-147476968D01*
X181487145Y-147476966D01*
X181491006Y-147476018D01*
X181494667Y-147474464D01*
X181494670Y-147474463D01*
X181717014Y-147380084D01*
X181717016Y-147380083D01*
X181720677Y-147378529D01*
X181931808Y-147245573D01*
X181934788Y-147242946D01*
X181934793Y-147242942D01*
X182115982Y-147083202D01*
X182115983Y-147083201D01*
X182118965Y-147080572D01*
X182277334Y-146887770D01*
X182348938Y-146764742D01*
X182400840Y-146675565D01*
X182400842Y-146675561D01*
X182402840Y-146672128D01*
X182492255Y-146439195D01*
X182509267Y-146357764D01*
X182542464Y-146198859D01*
X182542465Y-146198855D01*
X182543278Y-146194961D01*
X182544068Y-146177575D01*
X182551694Y-146009613D01*
X182554596Y-145945712D01*
X182538781Y-145809018D01*
X182526376Y-145701807D01*
X182526375Y-145701803D01*
X182525919Y-145697860D01*
X182504372Y-145621713D01*
X182459065Y-145461604D01*
X182459064Y-145461602D01*
X182457983Y-145457781D01*
X182456304Y-145454180D01*
X182354220Y-145235258D01*
X182354217Y-145235253D01*
X182352538Y-145231652D01*
X182350303Y-145228363D01*
X182350300Y-145228358D01*
X182214530Y-145028580D01*
X182214529Y-145028579D01*
X182212294Y-145025290D01*
X182040862Y-144844006D01*
X181842651Y-144692462D01*
X181839147Y-144690583D01*
X181626260Y-144576433D01*
X181626258Y-144576432D01*
X181622761Y-144574557D01*
X181386848Y-144493326D01*
X181198500Y-144460793D01*
X181144058Y-144451389D01*
X181144056Y-144451389D01*
X181140983Y-144450858D01*
X181118011Y-144449815D01*
X181112182Y-144449550D01*
X181112176Y-144449550D01*
X181111078Y-144449500D01*
X180937309Y-144449500D01*
X180935335Y-144449659D01*
X180935331Y-144449659D01*
X180755258Y-144464147D01*
X180755253Y-144464148D01*
X180751298Y-144464466D01*
X180747439Y-144465414D01*
X180747438Y-144465414D01*
X180512860Y-144523032D01*
X180512855Y-144523034D01*
X180508994Y-144523982D01*
X180505333Y-144525536D01*
X180505330Y-144525537D01*
X180389846Y-144574557D01*
X180279323Y-144621471D01*
X180068192Y-144754427D01*
X180065212Y-144757054D01*
X180065207Y-144757058D01*
X179884018Y-144916798D01*
X179881035Y-144919428D01*
X179722666Y-145112230D01*
X179597160Y-145327872D01*
X179507745Y-145560805D01*
X179456722Y-145805039D01*
X179445404Y-146054288D01*
X146714646Y-146054288D01*
X146779995Y-146008530D01*
X146849877Y-145959598D01*
X147004598Y-145804877D01*
X147130102Y-145625638D01*
X147222575Y-145427330D01*
X147279207Y-145215977D01*
X147298277Y-144998000D01*
X147279207Y-144780023D01*
X147222575Y-144568670D01*
X147130102Y-144370362D01*
X147004598Y-144191123D01*
X146849877Y-144036402D01*
X146670639Y-143910898D01*
X146472330Y-143818425D01*
X146473056Y-143816868D01*
X146430168Y-143783360D01*
X146413303Y-143724545D01*
X146434230Y-143667050D01*
X146472954Y-143638914D01*
X146472330Y-143637575D01*
X146670639Y-143545102D01*
X146849877Y-143419598D01*
X147004598Y-143264877D01*
X147130102Y-143085638D01*
X147222575Y-142887330D01*
X147267710Y-142718886D01*
X147278088Y-142680154D01*
X147278088Y-142680152D01*
X147279207Y-142675977D01*
X147298277Y-142458000D01*
X147279207Y-142240023D01*
X147222575Y-142028670D01*
X147130102Y-141830362D01*
X147004598Y-141651123D01*
X146849877Y-141496402D01*
X146670639Y-141370898D01*
X146472330Y-141278425D01*
X146473056Y-141276868D01*
X146430168Y-141243360D01*
X146413303Y-141184545D01*
X146434230Y-141127050D01*
X146472954Y-141098914D01*
X146472330Y-141097575D01*
X146628379Y-141024808D01*
X146670639Y-141005102D01*
X146849877Y-140879598D01*
X147004598Y-140724877D01*
X147037088Y-140678477D01*
X165444822Y-140678477D01*
X165445016Y-140681842D01*
X165445016Y-140681846D01*
X165460722Y-140954234D01*
X165460916Y-140957596D01*
X165514741Y-141231948D01*
X165605303Y-141496457D01*
X165730925Y-141746228D01*
X165889282Y-141976639D01*
X165891552Y-141979133D01*
X165891553Y-141979135D01*
X165940424Y-142032843D01*
X166077444Y-142183427D01*
X166291930Y-142362765D01*
X166528771Y-142511335D01*
X166531839Y-142512720D01*
X166531846Y-142512724D01*
X166697358Y-142587455D01*
X166783583Y-142626387D01*
X166786805Y-142627341D01*
X166786812Y-142627344D01*
X167001263Y-142690867D01*
X167051652Y-142705793D01*
X167054977Y-142706302D01*
X167054978Y-142706302D01*
X167324684Y-142747573D01*
X167324687Y-142747573D01*
X167328018Y-142748083D01*
X167331389Y-142748136D01*
X167331390Y-142748136D01*
X167379571Y-142748893D01*
X167607566Y-142752474D01*
X167610903Y-142752070D01*
X167610907Y-142752070D01*
X167881779Y-142719291D01*
X167881784Y-142719290D01*
X167885123Y-142718886D01*
X168155554Y-142647940D01*
X168321590Y-142579165D01*
X168410746Y-142542236D01*
X168410749Y-142542235D01*
X168413855Y-142540948D01*
X168416760Y-142539251D01*
X168416763Y-142539249D01*
X168652329Y-142401595D01*
X168655245Y-142399891D01*
X168875258Y-142227379D01*
X169069823Y-142026603D01*
X169106526Y-141976639D01*
X169136843Y-141935366D01*
X169235340Y-141801280D01*
X169266864Y-141743221D01*
X169367136Y-141558541D01*
X169368745Y-141555578D01*
X169437592Y-141373380D01*
X169466380Y-141297194D01*
X169466381Y-141297190D01*
X169467570Y-141294044D01*
X169512568Y-141097575D01*
X169529234Y-141024808D01*
X169529235Y-141024801D01*
X169529987Y-141021518D01*
X169542653Y-140879598D01*
X169554668Y-140744973D01*
X169554668Y-140744967D01*
X169554840Y-140743043D01*
X169555291Y-140700000D01*
X169536275Y-140421065D01*
X169479579Y-140147292D01*
X169477052Y-140140154D01*
X169387377Y-139886921D01*
X169386253Y-139883746D01*
X169374542Y-139861056D01*
X169259573Y-139638308D01*
X169259570Y-139638302D01*
X169258022Y-139635304D01*
X169154967Y-139488670D01*
X169099200Y-139409322D01*
X169097261Y-139406563D01*
X169079512Y-139387462D01*
X168909238Y-139204226D01*
X168906944Y-139201757D01*
X168690591Y-139024675D01*
X168452208Y-138878594D01*
X168449126Y-138877241D01*
X168199288Y-138767569D01*
X168199284Y-138767567D01*
X168196205Y-138766216D01*
X168093178Y-138736868D01*
X167930571Y-138690548D01*
X167930566Y-138690547D01*
X167927319Y-138689622D01*
X167650526Y-138650229D01*
X167647159Y-138650211D01*
X167647154Y-138650211D01*
X167522187Y-138649557D01*
X167370947Y-138648765D01*
X167093757Y-138685257D01*
X167090506Y-138686146D01*
X167090503Y-138686147D01*
X167027584Y-138703360D01*
X166824083Y-138759032D01*
X166566917Y-138868722D01*
X166327018Y-139012299D01*
X166108823Y-139187106D01*
X165916371Y-139389908D01*
X165914406Y-139392643D01*
X165914404Y-139392645D01*
X165842405Y-139492843D01*
X165753223Y-139616952D01*
X165622398Y-139864038D01*
X165526317Y-140126592D01*
X165466757Y-140399757D01*
X165444822Y-140678477D01*
X147037088Y-140678477D01*
X147130102Y-140545638D01*
X147222575Y-140347330D01*
X147279207Y-140135977D01*
X147298277Y-139918000D01*
X147279207Y-139700023D01*
X147262671Y-139638308D01*
X147223693Y-139492843D01*
X147222575Y-139488670D01*
X147130102Y-139290362D01*
X147004598Y-139111123D01*
X146849877Y-138956402D01*
X146724657Y-138868722D01*
X146674184Y-138833380D01*
X146674182Y-138833379D01*
X146670639Y-138830898D01*
X146472330Y-138738425D01*
X146473056Y-138736868D01*
X146430168Y-138703360D01*
X146413303Y-138644545D01*
X146434230Y-138587050D01*
X146472954Y-138558914D01*
X146472330Y-138557575D01*
X146670639Y-138465102D01*
X146849877Y-138339598D01*
X147004598Y-138184877D01*
X147130102Y-138005638D01*
X147222575Y-137807330D01*
X147279207Y-137595977D01*
X147298277Y-137378000D01*
X147279207Y-137160023D01*
X147222575Y-136948670D01*
X147130102Y-136750362D01*
X147004598Y-136571123D01*
X146849877Y-136416402D01*
X146670639Y-136290898D01*
X146472330Y-136198425D01*
X146473056Y-136196868D01*
X146430168Y-136163360D01*
X146413303Y-136104545D01*
X146434230Y-136047050D01*
X146472954Y-136018914D01*
X146472330Y-136017575D01*
X146670639Y-135925102D01*
X146849877Y-135799598D01*
X147004598Y-135644877D01*
X147130102Y-135465638D01*
X147222575Y-135267330D01*
X147279207Y-135055977D01*
X147298277Y-134838000D01*
X147279207Y-134620023D01*
X147222575Y-134408670D01*
X147130102Y-134210362D01*
X147004598Y-134031123D01*
X146849877Y-133876402D01*
X146670639Y-133750898D01*
X146472330Y-133658425D01*
X146473056Y-133656868D01*
X146430168Y-133623360D01*
X146413303Y-133564545D01*
X146434230Y-133507050D01*
X146472954Y-133478914D01*
X146472330Y-133477575D01*
X146493779Y-133467573D01*
X146670639Y-133385102D01*
X146849877Y-133259598D01*
X147004598Y-133104877D01*
X147130102Y-132925638D01*
X147222575Y-132727330D01*
X147279207Y-132515977D01*
X147298277Y-132298000D01*
X147281849Y-132110226D01*
X165697819Y-132110226D01*
X165733907Y-132375395D01*
X165808792Y-132632317D01*
X165920831Y-132875348D01*
X165922842Y-132878415D01*
X165922844Y-132878419D01*
X165956127Y-132929183D01*
X166067562Y-133099149D01*
X166245760Y-133298803D01*
X166451512Y-133469925D01*
X166680298Y-133608756D01*
X166927091Y-133712245D01*
X166930653Y-133713150D01*
X166930654Y-133713150D01*
X166983830Y-133726655D01*
X167186470Y-133778119D01*
X167190123Y-133778487D01*
X167190124Y-133778487D01*
X167264629Y-133785989D01*
X167408741Y-133800500D01*
X167567944Y-133800500D01*
X167646649Y-133794651D01*
X167763223Y-133785989D01*
X167763229Y-133785988D01*
X167766877Y-133785717D01*
X168027891Y-133726655D01*
X168031308Y-133725326D01*
X168031312Y-133725325D01*
X168273889Y-133630992D01*
X168277309Y-133629662D01*
X168509650Y-133496868D01*
X168532425Y-133478914D01*
X168651424Y-133385102D01*
X168719811Y-133331190D01*
X168722325Y-133328517D01*
X168722331Y-133328512D01*
X168900661Y-133138941D01*
X168903175Y-133136269D01*
X169055714Y-132916385D01*
X169174076Y-132676371D01*
X169255662Y-132421497D01*
X169275073Y-132302309D01*
X169298089Y-132160983D01*
X169298089Y-132160978D01*
X169298678Y-132157364D01*
X169302181Y-131889774D01*
X169298776Y-131864750D01*
X169266587Y-131628237D01*
X169266093Y-131624605D01*
X169191208Y-131367683D01*
X169079169Y-131124652D01*
X169075087Y-131118425D01*
X168934449Y-130903918D01*
X168934448Y-130903916D01*
X168932438Y-130900851D01*
X168884314Y-130846932D01*
X168756683Y-130703934D01*
X168756682Y-130703933D01*
X168754240Y-130701197D01*
X168548488Y-130530075D01*
X168319702Y-130391244D01*
X168072909Y-130287755D01*
X168021407Y-130274675D01*
X167951595Y-130256945D01*
X167813530Y-130221881D01*
X167809877Y-130221513D01*
X167809876Y-130221513D01*
X167718366Y-130212299D01*
X167591259Y-130199500D01*
X167432056Y-130199500D01*
X167353351Y-130205349D01*
X167236777Y-130214011D01*
X167236771Y-130214012D01*
X167233123Y-130214283D01*
X166972109Y-130273345D01*
X166968692Y-130274674D01*
X166968688Y-130274675D01*
X166726111Y-130369008D01*
X166722691Y-130370338D01*
X166490350Y-130503132D01*
X166487460Y-130505410D01*
X166487459Y-130505411D01*
X166416519Y-130561336D01*
X166280189Y-130668810D01*
X166277675Y-130671483D01*
X166277669Y-130671488D01*
X166235285Y-130716544D01*
X166096825Y-130863731D01*
X165944286Y-131083615D01*
X165825924Y-131323629D01*
X165744338Y-131578503D01*
X165701322Y-131842636D01*
X165701274Y-131846301D01*
X165700981Y-131868670D01*
X165697819Y-132110226D01*
X147281849Y-132110226D01*
X147279207Y-132080023D01*
X147222575Y-131868670D01*
X147130102Y-131670362D01*
X147004598Y-131491123D01*
X146849877Y-131336402D01*
X146670639Y-131210898D01*
X146472330Y-131118425D01*
X146473056Y-131116868D01*
X146430168Y-131083360D01*
X146413303Y-131024545D01*
X146434230Y-130967050D01*
X146472954Y-130938914D01*
X146472330Y-130937575D01*
X146670639Y-130845102D01*
X146849877Y-130719598D01*
X147004598Y-130564877D01*
X147126177Y-130391244D01*
X147127620Y-130389183D01*
X147127621Y-130389181D01*
X147130102Y-130385638D01*
X147222575Y-130187330D01*
X147279207Y-129975977D01*
X147298277Y-129758000D01*
X147279207Y-129540023D01*
X147222575Y-129328670D01*
X147130102Y-129130362D01*
X147004598Y-128951123D01*
X146849877Y-128796402D01*
X146670639Y-128670898D01*
X146472330Y-128578425D01*
X146473056Y-128576868D01*
X146430168Y-128543360D01*
X146413303Y-128484545D01*
X146434230Y-128427050D01*
X146472954Y-128398914D01*
X146472330Y-128397575D01*
X146670639Y-128305102D01*
X146849877Y-128179598D01*
X147004598Y-128024877D01*
X147130102Y-127845638D01*
X147222575Y-127647330D01*
X147279207Y-127435977D01*
X147298277Y-127218000D01*
X147279207Y-127000023D01*
X147222575Y-126788670D01*
X147130102Y-126590362D01*
X147004598Y-126411123D01*
X146849877Y-126256402D01*
X146685662Y-126141417D01*
X146648840Y-126092552D01*
X146647772Y-126031376D01*
X146682866Y-125981256D01*
X146698892Y-125971416D01*
X146784359Y-125929547D01*
X146791314Y-125925400D01*
X146863492Y-125873916D01*
X146871426Y-125863194D01*
X146871433Y-125862331D01*
X146867817Y-125856371D01*
X146054086Y-125042639D01*
X146042203Y-125036585D01*
X146037172Y-125037381D01*
X145217500Y-125857053D01*
X145211446Y-125868936D01*
X145211886Y-125871717D01*
X145212072Y-125871949D01*
X145391072Y-125976548D01*
X145431775Y-126022231D01*
X145437852Y-126083114D01*
X145406982Y-126135941D01*
X145397915Y-126143115D01*
X145236123Y-126256402D01*
X145081402Y-126411123D01*
X144955898Y-126590362D01*
X144863425Y-126788670D01*
X144806793Y-127000023D01*
X144787723Y-127218000D01*
X144806793Y-127435977D01*
X144863425Y-127647330D01*
X144955898Y-127845638D01*
X145081402Y-128024877D01*
X145236123Y-128179598D01*
X145415361Y-128305102D01*
X145613670Y-128397575D01*
X145612944Y-128399132D01*
X145655832Y-128432640D01*
X145672697Y-128491455D01*
X145651770Y-128548950D01*
X145613046Y-128577086D01*
X145613670Y-128578425D01*
X145415362Y-128670898D01*
X145236123Y-128796402D01*
X145081402Y-128951123D01*
X144955898Y-129130362D01*
X144863425Y-129328670D01*
X144806793Y-129540023D01*
X144787723Y-129758000D01*
X144806793Y-129975977D01*
X144863425Y-130187330D01*
X144955898Y-130385638D01*
X144958379Y-130389181D01*
X144958380Y-130389183D01*
X144959823Y-130391244D01*
X145081402Y-130564877D01*
X145236123Y-130719598D01*
X145415361Y-130845102D01*
X145613670Y-130937575D01*
X145612944Y-130939132D01*
X145655832Y-130972640D01*
X145672697Y-131031455D01*
X145651770Y-131088950D01*
X145613046Y-131117086D01*
X145613670Y-131118425D01*
X145415362Y-131210898D01*
X145236123Y-131336402D01*
X145081402Y-131491123D01*
X144955898Y-131670362D01*
X144863425Y-131868670D01*
X144806793Y-132080023D01*
X144787723Y-132298000D01*
X144806793Y-132515977D01*
X144863425Y-132727330D01*
X144955898Y-132925638D01*
X145081402Y-133104877D01*
X145236123Y-133259598D01*
X145415361Y-133385102D01*
X145592221Y-133467573D01*
X145613670Y-133477575D01*
X145612944Y-133479132D01*
X145655832Y-133512640D01*
X145672697Y-133571455D01*
X145651770Y-133628950D01*
X145613046Y-133657086D01*
X145613670Y-133658425D01*
X145415362Y-133750898D01*
X145236123Y-133876402D01*
X145081402Y-134031123D01*
X144955898Y-134210362D01*
X144863425Y-134408670D01*
X144806793Y-134620023D01*
X144787723Y-134838000D01*
X144806793Y-135055977D01*
X144863425Y-135267330D01*
X144955898Y-135465638D01*
X145081402Y-135644877D01*
X145236123Y-135799598D01*
X145415361Y-135925102D01*
X145613670Y-136017575D01*
X145612944Y-136019132D01*
X145655832Y-136052640D01*
X145672697Y-136111455D01*
X145651770Y-136168950D01*
X145613046Y-136197086D01*
X145613670Y-136198425D01*
X145415362Y-136290898D01*
X145236123Y-136416402D01*
X145081402Y-136571123D01*
X144955898Y-136750362D01*
X144863425Y-136948670D01*
X144806793Y-137160023D01*
X144787723Y-137378000D01*
X144806793Y-137595977D01*
X144863425Y-137807330D01*
X144955898Y-138005638D01*
X145081402Y-138184877D01*
X145236123Y-138339598D01*
X145415361Y-138465102D01*
X145613670Y-138557575D01*
X145612944Y-138559132D01*
X145655832Y-138592640D01*
X145672697Y-138651455D01*
X145651770Y-138708950D01*
X145613046Y-138737086D01*
X145613670Y-138738425D01*
X145415362Y-138830898D01*
X145411819Y-138833379D01*
X145411817Y-138833380D01*
X145358866Y-138870457D01*
X145236123Y-138956402D01*
X145081402Y-139111123D01*
X144955898Y-139290362D01*
X144863425Y-139488670D01*
X144862307Y-139492843D01*
X144823330Y-139638308D01*
X144806793Y-139700023D01*
X144787723Y-139918000D01*
X144806793Y-140135977D01*
X144863425Y-140347330D01*
X144955898Y-140545638D01*
X145081402Y-140724877D01*
X145236123Y-140879598D01*
X145415361Y-141005102D01*
X145457621Y-141024808D01*
X145613670Y-141097575D01*
X145612944Y-141099132D01*
X145655832Y-141132640D01*
X145672697Y-141191455D01*
X145651770Y-141248950D01*
X145613046Y-141277086D01*
X145613670Y-141278425D01*
X145415362Y-141370898D01*
X145236123Y-141496402D01*
X145081402Y-141651123D01*
X144955898Y-141830362D01*
X144863425Y-142028670D01*
X144806793Y-142240023D01*
X144787723Y-142458000D01*
X144806793Y-142675977D01*
X144807912Y-142680152D01*
X144807912Y-142680154D01*
X144818290Y-142718886D01*
X144863425Y-142887330D01*
X144955898Y-143085638D01*
X145081402Y-143264877D01*
X145236123Y-143419598D01*
X145415361Y-143545102D01*
X145613670Y-143637575D01*
X145612944Y-143639132D01*
X145655832Y-143672640D01*
X145672697Y-143731455D01*
X145651770Y-143788950D01*
X145613046Y-143817086D01*
X145613670Y-143818425D01*
X145415362Y-143910898D01*
X145236123Y-144036402D01*
X145081402Y-144191123D01*
X144955898Y-144370362D01*
X144863425Y-144568670D01*
X144806793Y-144780023D01*
X144787723Y-144998000D01*
X144806793Y-145215977D01*
X144863425Y-145427330D01*
X144955898Y-145625638D01*
X145081402Y-145804877D01*
X145236123Y-145959598D01*
X145306005Y-146008530D01*
X145377000Y-146058241D01*
X145415361Y-146085102D01*
X145613670Y-146177575D01*
X145612944Y-146179132D01*
X145655832Y-146212640D01*
X145672697Y-146271455D01*
X145651770Y-146328950D01*
X145613046Y-146357086D01*
X145613670Y-146358425D01*
X145415362Y-146450898D01*
X145236123Y-146576402D01*
X145081402Y-146731123D01*
X144955898Y-146910362D01*
X144863425Y-147108670D01*
X144806793Y-147320023D01*
X144787723Y-147538000D01*
X104218057Y-147538000D01*
X104244742Y-147535853D01*
X104244747Y-147535852D01*
X104248702Y-147535534D01*
X104252562Y-147534586D01*
X104487140Y-147476968D01*
X104487145Y-147476966D01*
X104491006Y-147476018D01*
X104494667Y-147474464D01*
X104494670Y-147474463D01*
X104717014Y-147380084D01*
X104717016Y-147380083D01*
X104720677Y-147378529D01*
X104931808Y-147245573D01*
X104934788Y-147242946D01*
X104934793Y-147242942D01*
X105115982Y-147083202D01*
X105115983Y-147083201D01*
X105118965Y-147080572D01*
X105277334Y-146887770D01*
X105348938Y-146764742D01*
X105400840Y-146675565D01*
X105400842Y-146675561D01*
X105402840Y-146672128D01*
X105492255Y-146439195D01*
X105509267Y-146357764D01*
X105542464Y-146198859D01*
X105542465Y-146198855D01*
X105543278Y-146194961D01*
X105544068Y-146177575D01*
X105551694Y-146009613D01*
X105554596Y-145945712D01*
X105538781Y-145809018D01*
X105526376Y-145701807D01*
X105526375Y-145701803D01*
X105525919Y-145697860D01*
X105504372Y-145621713D01*
X105459065Y-145461604D01*
X105459064Y-145461602D01*
X105457983Y-145457781D01*
X105456304Y-145454180D01*
X105354220Y-145235258D01*
X105354217Y-145235253D01*
X105352538Y-145231652D01*
X105350303Y-145228363D01*
X105350300Y-145228358D01*
X105214530Y-145028580D01*
X105214529Y-145028579D01*
X105212294Y-145025290D01*
X105040862Y-144844006D01*
X104842651Y-144692462D01*
X104839147Y-144690583D01*
X104626260Y-144576433D01*
X104626258Y-144576432D01*
X104622761Y-144574557D01*
X104386848Y-144493326D01*
X104198500Y-144460793D01*
X104144058Y-144451389D01*
X104144056Y-144451389D01*
X104140983Y-144450858D01*
X104118011Y-144449815D01*
X104112182Y-144449550D01*
X104112176Y-144449550D01*
X104111078Y-144449500D01*
X103937309Y-144449500D01*
X103935335Y-144449659D01*
X103935331Y-144449659D01*
X103755258Y-144464147D01*
X103755253Y-144464148D01*
X103751298Y-144464466D01*
X103747439Y-144465414D01*
X103747438Y-144465414D01*
X103512860Y-144523032D01*
X103512855Y-144523034D01*
X103508994Y-144523982D01*
X103505333Y-144525536D01*
X103505330Y-144525537D01*
X103389846Y-144574557D01*
X103279323Y-144621471D01*
X103068192Y-144754427D01*
X103065212Y-144757054D01*
X103065207Y-144757058D01*
X102884018Y-144916798D01*
X102881035Y-144919428D01*
X102722666Y-145112230D01*
X102597160Y-145327872D01*
X102507745Y-145560805D01*
X102456722Y-145805039D01*
X102445404Y-146054288D01*
X100303167Y-146054288D01*
X100302055Y-146031662D01*
X100303441Y-146009613D01*
X100303632Y-146008530D01*
X100303632Y-146008529D01*
X100305136Y-146000000D01*
X100302004Y-145982236D01*
X100300500Y-145965047D01*
X100300500Y-124646504D01*
X144588699Y-124646504D01*
X144601958Y-124876444D01*
X144603083Y-124884450D01*
X144653717Y-125109130D01*
X144656140Y-125116864D01*
X144742785Y-125330245D01*
X144746439Y-125337479D01*
X144845977Y-125499908D01*
X144855663Y-125508181D01*
X144863849Y-125503597D01*
X145678361Y-124689086D01*
X145683603Y-124678797D01*
X146401585Y-124678797D01*
X146402381Y-124683828D01*
X147218759Y-125500205D01*
X147230642Y-125506259D01*
X147231587Y-125506110D01*
X147236759Y-125501669D01*
X147287784Y-125430660D01*
X147291951Y-125423723D01*
X147393996Y-125217252D01*
X147396976Y-125209728D01*
X147463930Y-124989355D01*
X147465640Y-124981442D01*
X147495887Y-124751694D01*
X147496297Y-124746430D01*
X147497904Y-124680641D01*
X147497753Y-124675371D01*
X147478765Y-124444413D01*
X147477443Y-124436427D01*
X147421336Y-124213059D01*
X147418723Y-124205383D01*
X147326891Y-123994183D01*
X147323058Y-123987036D01*
X147239053Y-123857183D01*
X147228863Y-123848902D01*
X147221288Y-123853266D01*
X146407639Y-124666914D01*
X146401585Y-124678797D01*
X145683603Y-124678797D01*
X145684415Y-124677203D01*
X145683619Y-124672172D01*
X144867209Y-123855763D01*
X144855326Y-123849709D01*
X144855027Y-123849756D01*
X144849100Y-123854972D01*
X144780202Y-123955972D01*
X144776200Y-123963018D01*
X144679234Y-124171915D01*
X144676436Y-124179520D01*
X144614891Y-124401442D01*
X144613370Y-124409416D01*
X144588897Y-124638413D01*
X144588699Y-124646504D01*
X100300500Y-124646504D01*
X100300500Y-122659014D01*
X104979573Y-122659014D01*
X105020841Y-122842134D01*
X105023264Y-122849868D01*
X105113001Y-123070864D01*
X105116658Y-123078104D01*
X105241285Y-123281476D01*
X105246075Y-123288021D01*
X105402242Y-123468305D01*
X105408036Y-123473979D01*
X105591564Y-123626347D01*
X105598194Y-123630989D01*
X105804146Y-123751337D01*
X105811441Y-123754833D01*
X106034279Y-123839926D01*
X106042060Y-123842187D01*
X106192634Y-123872822D01*
X106205846Y-123871316D01*
X106208000Y-123863136D01*
X106208000Y-123860632D01*
X106708000Y-123860632D01*
X106712122Y-123873317D01*
X106713650Y-123874428D01*
X106718884Y-123874918D01*
X106766904Y-123868767D01*
X106774834Y-123867081D01*
X107003294Y-123798539D01*
X107010842Y-123795581D01*
X107225050Y-123690643D01*
X107232005Y-123686496D01*
X107426198Y-123547980D01*
X107432382Y-123542754D01*
X107601347Y-123374378D01*
X107606592Y-123368215D01*
X107745787Y-123174505D01*
X107749956Y-123167566D01*
X107758972Y-123149324D01*
X107801705Y-123105535D01*
X107862016Y-123095226D01*
X107916868Y-123122336D01*
X107928816Y-123136400D01*
X107997953Y-123235139D01*
X108158861Y-123396047D01*
X108162399Y-123398524D01*
X108162401Y-123398526D01*
X108341721Y-123524086D01*
X108345266Y-123526568D01*
X108551504Y-123622739D01*
X108622589Y-123641786D01*
X108767131Y-123680516D01*
X108767133Y-123680516D01*
X108771308Y-123681635D01*
X108998000Y-123701468D01*
X109224692Y-123681635D01*
X109228867Y-123680516D01*
X109228869Y-123680516D01*
X109373411Y-123641786D01*
X109444496Y-123622739D01*
X109650734Y-123526568D01*
X109654279Y-123524086D01*
X109833599Y-123398526D01*
X109833601Y-123398524D01*
X109837139Y-123396047D01*
X109998047Y-123235139D01*
X110000527Y-123231598D01*
X110126086Y-123052279D01*
X110126087Y-123052277D01*
X110128568Y-123048734D01*
X110178277Y-122942134D01*
X110220004Y-122897387D01*
X110280065Y-122885713D01*
X110335518Y-122911571D01*
X110357723Y-122942134D01*
X110407432Y-123048734D01*
X110409913Y-123052277D01*
X110409914Y-123052279D01*
X110535474Y-123231598D01*
X110537953Y-123235139D01*
X110698861Y-123396047D01*
X110702399Y-123398524D01*
X110702401Y-123398526D01*
X110881721Y-123524086D01*
X110885266Y-123526568D01*
X111091504Y-123622739D01*
X111162589Y-123641786D01*
X111307131Y-123680516D01*
X111307133Y-123680516D01*
X111311308Y-123681635D01*
X111538000Y-123701468D01*
X111764692Y-123681635D01*
X111768867Y-123680516D01*
X111768869Y-123680516D01*
X111913411Y-123641786D01*
X111984496Y-123622739D01*
X112190734Y-123526568D01*
X112194279Y-123524086D01*
X112373599Y-123398526D01*
X112373601Y-123398524D01*
X112377139Y-123396047D01*
X112538047Y-123235139D01*
X112540527Y-123231598D01*
X112666086Y-123052279D01*
X112666087Y-123052277D01*
X112668568Y-123048734D01*
X112718277Y-122942134D01*
X112760004Y-122897387D01*
X112820065Y-122885713D01*
X112875518Y-122911571D01*
X112897723Y-122942134D01*
X112947432Y-123048734D01*
X112949913Y-123052277D01*
X112949914Y-123052279D01*
X113075474Y-123231598D01*
X113077953Y-123235139D01*
X113238861Y-123396047D01*
X113242399Y-123398524D01*
X113242401Y-123398526D01*
X113421721Y-123524086D01*
X113425266Y-123526568D01*
X113631504Y-123622739D01*
X113702589Y-123641786D01*
X113847131Y-123680516D01*
X113847133Y-123680516D01*
X113851308Y-123681635D01*
X114078000Y-123701468D01*
X114304692Y-123681635D01*
X114308867Y-123680516D01*
X114308869Y-123680516D01*
X114453411Y-123641786D01*
X114524496Y-123622739D01*
X114730734Y-123526568D01*
X114734279Y-123524086D01*
X114913599Y-123398526D01*
X114913601Y-123398524D01*
X114917139Y-123396047D01*
X115078047Y-123235139D01*
X115129374Y-123161836D01*
X115137404Y-123150368D01*
X115186269Y-123113546D01*
X115247445Y-123112478D01*
X115297565Y-123147572D01*
X115317500Y-123207152D01*
X115317500Y-123440646D01*
X115320618Y-123466846D01*
X115366061Y-123569153D01*
X115372529Y-123575610D01*
X115372530Y-123575611D01*
X115397259Y-123600297D01*
X115445287Y-123648241D01*
X115453645Y-123651936D01*
X115540864Y-123690496D01*
X115540866Y-123690496D01*
X115547673Y-123693506D01*
X115555067Y-123694368D01*
X115570378Y-123696153D01*
X115573354Y-123696500D01*
X117662646Y-123696500D01*
X117680561Y-123694368D01*
X117681469Y-123694260D01*
X117681470Y-123694260D01*
X117688846Y-123693382D01*
X117791153Y-123647939D01*
X117808074Y-123630989D01*
X117851507Y-123587480D01*
X117870241Y-123568713D01*
X117908109Y-123483058D01*
X117912496Y-123473136D01*
X117912496Y-123473134D01*
X117915506Y-123466327D01*
X117918500Y-123440646D01*
X117918500Y-122435500D01*
X126284532Y-122435500D01*
X126304365Y-122662192D01*
X126363261Y-122881996D01*
X126459432Y-123088234D01*
X126461913Y-123091777D01*
X126461914Y-123091779D01*
X126587474Y-123271098D01*
X126589953Y-123274639D01*
X126750861Y-123435547D01*
X126754399Y-123438024D01*
X126754401Y-123438026D01*
X126883467Y-123528398D01*
X126937266Y-123566068D01*
X127143504Y-123662239D01*
X127214589Y-123681286D01*
X127359131Y-123720016D01*
X127359133Y-123720016D01*
X127363308Y-123721135D01*
X127590000Y-123740968D01*
X127816692Y-123721135D01*
X127820867Y-123720016D01*
X127820869Y-123720016D01*
X127965411Y-123681286D01*
X128036496Y-123662239D01*
X128242734Y-123566068D01*
X128296533Y-123528398D01*
X128425599Y-123438026D01*
X128425601Y-123438024D01*
X128429139Y-123435547D01*
X128590047Y-123274639D01*
X128592527Y-123271098D01*
X128650135Y-123188824D01*
X128660672Y-123173775D01*
X128709536Y-123136953D01*
X128770712Y-123135885D01*
X128820833Y-123170979D01*
X128826179Y-123178832D01*
X128913285Y-123320976D01*
X128918075Y-123327521D01*
X129074242Y-123507805D01*
X129080036Y-123513479D01*
X129263564Y-123665847D01*
X129270194Y-123670489D01*
X129476146Y-123790837D01*
X129483441Y-123794333D01*
X129706279Y-123879426D01*
X129714060Y-123881687D01*
X129864634Y-123912322D01*
X129877846Y-123910816D01*
X129880000Y-123902636D01*
X129880000Y-123900132D01*
X130380000Y-123900132D01*
X130384122Y-123912817D01*
X130385650Y-123913928D01*
X130390884Y-123914418D01*
X130438904Y-123908267D01*
X130446834Y-123906581D01*
X130675294Y-123838039D01*
X130682842Y-123835081D01*
X130897050Y-123730143D01*
X130904005Y-123725996D01*
X131098198Y-123587480D01*
X131104382Y-123582254D01*
X131273347Y-123413878D01*
X131278592Y-123407715D01*
X131417787Y-123214005D01*
X131421956Y-123207066D01*
X131430972Y-123188824D01*
X131473705Y-123145035D01*
X131534016Y-123134726D01*
X131588868Y-123161836D01*
X131600816Y-123175900D01*
X131669953Y-123274639D01*
X131830861Y-123435547D01*
X131834399Y-123438024D01*
X131834401Y-123438026D01*
X131963467Y-123528398D01*
X132017266Y-123566068D01*
X132223504Y-123662239D01*
X132294589Y-123681286D01*
X132439131Y-123720016D01*
X132439133Y-123720016D01*
X132443308Y-123721135D01*
X132670000Y-123740968D01*
X132896692Y-123721135D01*
X132900867Y-123720016D01*
X132900869Y-123720016D01*
X133045411Y-123681286D01*
X133116496Y-123662239D01*
X133322734Y-123566068D01*
X133376533Y-123528398D01*
X133505599Y-123438026D01*
X133505601Y-123438024D01*
X133509139Y-123435547D01*
X133670047Y-123274639D01*
X133672527Y-123271098D01*
X133798086Y-123091779D01*
X133798087Y-123091777D01*
X133800568Y-123088234D01*
X133850277Y-122981634D01*
X133892004Y-122936887D01*
X133952065Y-122925213D01*
X134007518Y-122951071D01*
X134029723Y-122981634D01*
X134079432Y-123088234D01*
X134081913Y-123091777D01*
X134081914Y-123091779D01*
X134207474Y-123271098D01*
X134209953Y-123274639D01*
X134370861Y-123435547D01*
X134374399Y-123438024D01*
X134374401Y-123438026D01*
X134503467Y-123528398D01*
X134557266Y-123566068D01*
X134763504Y-123662239D01*
X134834589Y-123681286D01*
X134979131Y-123720016D01*
X134979133Y-123720016D01*
X134983308Y-123721135D01*
X135210000Y-123740968D01*
X135436692Y-123721135D01*
X135440867Y-123720016D01*
X135440869Y-123720016D01*
X135585411Y-123681286D01*
X135656496Y-123662239D01*
X135862734Y-123566068D01*
X135916533Y-123528398D01*
X136045599Y-123438026D01*
X136045601Y-123438024D01*
X136049139Y-123435547D01*
X136210047Y-123274639D01*
X136252503Y-123214005D01*
X136269404Y-123189868D01*
X136318269Y-123153046D01*
X136379445Y-123151978D01*
X136429565Y-123187072D01*
X136449500Y-123246652D01*
X136449500Y-123480146D01*
X136452618Y-123506346D01*
X136498061Y-123608653D01*
X136504529Y-123615110D01*
X136504530Y-123615111D01*
X136515786Y-123626347D01*
X136577287Y-123687741D01*
X136592277Y-123694368D01*
X136672864Y-123729996D01*
X136672866Y-123729996D01*
X136679673Y-123733006D01*
X136687067Y-123733868D01*
X136702378Y-123735653D01*
X136705354Y-123736000D01*
X138794646Y-123736000D01*
X138812561Y-123733868D01*
X138813469Y-123733760D01*
X138813470Y-123733760D01*
X138820846Y-123732882D01*
X138923153Y-123687439D01*
X138940074Y-123670489D01*
X138979505Y-123630989D01*
X139002241Y-123608213D01*
X139016845Y-123575179D01*
X139044496Y-123512636D01*
X139044496Y-123512634D01*
X139047506Y-123505827D01*
X139050500Y-123480146D01*
X139050500Y-123132646D01*
X144792500Y-123132646D01*
X144795618Y-123158846D01*
X144841061Y-123261153D01*
X144847529Y-123267610D01*
X144847530Y-123267611D01*
X144857630Y-123277693D01*
X144920287Y-123340241D01*
X144928645Y-123343936D01*
X145015864Y-123382496D01*
X145015866Y-123382496D01*
X145022673Y-123385506D01*
X145030067Y-123386368D01*
X145045378Y-123388153D01*
X145048354Y-123388500D01*
X145115029Y-123388500D01*
X145173220Y-123407407D01*
X145209184Y-123456907D01*
X145214017Y-123485945D01*
X145214139Y-123493706D01*
X145217252Y-123498698D01*
X146031914Y-124313361D01*
X146043797Y-124319415D01*
X146048828Y-124318619D01*
X146866780Y-123500666D01*
X146879363Y-123475969D01*
X146884656Y-123442553D01*
X146927922Y-123399290D01*
X146972865Y-123388500D01*
X147037646Y-123388500D01*
X147055561Y-123386368D01*
X147056469Y-123386260D01*
X147056470Y-123386260D01*
X147063846Y-123385382D01*
X147166153Y-123339939D01*
X147178550Y-123327521D01*
X147206024Y-123299998D01*
X147245241Y-123260713D01*
X147268920Y-123207152D01*
X147287496Y-123165136D01*
X147287496Y-123165134D01*
X147290506Y-123158327D01*
X147293500Y-123132646D01*
X147293500Y-121143354D01*
X147290382Y-121117154D01*
X147244939Y-121014847D01*
X147209612Y-120979581D01*
X147172179Y-120942214D01*
X147165713Y-120935759D01*
X147129138Y-120919589D01*
X147070136Y-120893504D01*
X147070134Y-120893504D01*
X147063327Y-120890494D01*
X147049322Y-120888861D01*
X147040494Y-120887832D01*
X147040493Y-120887832D01*
X147037646Y-120887500D01*
X145048354Y-120887500D01*
X145031951Y-120889452D01*
X145029531Y-120889740D01*
X145029530Y-120889740D01*
X145022154Y-120890618D01*
X144919847Y-120936061D01*
X144840759Y-121015287D01*
X144837064Y-121023645D01*
X144798892Y-121109988D01*
X144795494Y-121117673D01*
X144792500Y-121143354D01*
X144792500Y-123132646D01*
X139050500Y-123132646D01*
X139050500Y-121390854D01*
X139047382Y-121364654D01*
X139001939Y-121262347D01*
X138971184Y-121231645D01*
X138948259Y-121208761D01*
X138922713Y-121183259D01*
X138888522Y-121168143D01*
X138827136Y-121141004D01*
X138827134Y-121141004D01*
X138820327Y-121137994D01*
X138806322Y-121136361D01*
X138797494Y-121135332D01*
X138797493Y-121135332D01*
X138794646Y-121135000D01*
X136705354Y-121135000D01*
X136688951Y-121136952D01*
X136686531Y-121137240D01*
X136686530Y-121137240D01*
X136679154Y-121138118D01*
X136576847Y-121183561D01*
X136497759Y-121262787D01*
X136494064Y-121271145D01*
X136459863Y-121348506D01*
X136452494Y-121365173D01*
X136449500Y-121390854D01*
X136449500Y-121624348D01*
X136430593Y-121682539D01*
X136381093Y-121718503D01*
X136319907Y-121718503D01*
X136269404Y-121681132D01*
X136241746Y-121641632D01*
X136210047Y-121596361D01*
X136049139Y-121435453D01*
X135997089Y-121399007D01*
X135866279Y-121307414D01*
X135866277Y-121307413D01*
X135862734Y-121304932D01*
X135656496Y-121208761D01*
X135547531Y-121179564D01*
X135440869Y-121150984D01*
X135440867Y-121150984D01*
X135436692Y-121149865D01*
X135210000Y-121130032D01*
X134983308Y-121149865D01*
X134979133Y-121150984D01*
X134979131Y-121150984D01*
X134872469Y-121179564D01*
X134763504Y-121208761D01*
X134557266Y-121304932D01*
X134553723Y-121307413D01*
X134553721Y-121307414D01*
X134422912Y-121399007D01*
X134370861Y-121435453D01*
X134209953Y-121596361D01*
X134207476Y-121599899D01*
X134207474Y-121599901D01*
X134142216Y-121693100D01*
X134079432Y-121782766D01*
X134033891Y-121880429D01*
X134029724Y-121889365D01*
X133987996Y-121934113D01*
X133927935Y-121945787D01*
X133872482Y-121919929D01*
X133850276Y-121889365D01*
X133846109Y-121880429D01*
X133800568Y-121782766D01*
X133737784Y-121693100D01*
X133672526Y-121599901D01*
X133672524Y-121599899D01*
X133670047Y-121596361D01*
X133509139Y-121435453D01*
X133457089Y-121399007D01*
X133326279Y-121307414D01*
X133326277Y-121307413D01*
X133322734Y-121304932D01*
X133116496Y-121208761D01*
X133007531Y-121179564D01*
X132900869Y-121150984D01*
X132900867Y-121150984D01*
X132896692Y-121149865D01*
X132670000Y-121130032D01*
X132443308Y-121149865D01*
X132439133Y-121150984D01*
X132439131Y-121150984D01*
X132332469Y-121179564D01*
X132223504Y-121208761D01*
X132017266Y-121304932D01*
X132013723Y-121307413D01*
X132013721Y-121307414D01*
X131882912Y-121399007D01*
X131830861Y-121435453D01*
X131669953Y-121596361D01*
X131627999Y-121656278D01*
X131600341Y-121695778D01*
X131551477Y-121732600D01*
X131490301Y-121733668D01*
X131440180Y-121698574D01*
X131436123Y-121692768D01*
X131324717Y-121520559D01*
X131319771Y-121514137D01*
X131159241Y-121337718D01*
X131153315Y-121332191D01*
X130966120Y-121184353D01*
X130959376Y-121179873D01*
X130750550Y-121064595D01*
X130743158Y-121061273D01*
X130518318Y-120981652D01*
X130510479Y-120979581D01*
X130395436Y-120959089D01*
X130382226Y-120960922D01*
X130381805Y-120961326D01*
X130380000Y-120968540D01*
X130380000Y-123900132D01*
X129880000Y-123900132D01*
X129880000Y-120971894D01*
X129875878Y-120959209D01*
X129874877Y-120958481D01*
X129868549Y-120957966D01*
X129785207Y-120970720D01*
X129777321Y-120972599D01*
X129550591Y-121046705D01*
X129543134Y-121049840D01*
X129331551Y-121159983D01*
X129324695Y-121164301D01*
X129133951Y-121307515D01*
X129127887Y-121312899D01*
X128963097Y-121485343D01*
X128957994Y-121491644D01*
X128821288Y-121692048D01*
X128819568Y-121690875D01*
X128780192Y-121726901D01*
X128719395Y-121733780D01*
X128666165Y-121703610D01*
X128658111Y-121693567D01*
X128621746Y-121641632D01*
X128590047Y-121596361D01*
X128429139Y-121435453D01*
X128425599Y-121432974D01*
X128425594Y-121432970D01*
X128332717Y-121367938D01*
X128295894Y-121319074D01*
X128290500Y-121286842D01*
X128290500Y-119975164D01*
X128309407Y-119916973D01*
X128319496Y-119905160D01*
X128630837Y-119593820D01*
X128960814Y-119263843D01*
X128966522Y-119258567D01*
X129002888Y-119227508D01*
X129002891Y-119227505D01*
X129007423Y-119223634D01*
X129041139Y-119176714D01*
X129047112Y-119168402D01*
X129049601Y-119165087D01*
X129087901Y-119116240D01*
X129091584Y-119111543D01*
X129094041Y-119106102D01*
X129096476Y-119102081D01*
X129100602Y-119094935D01*
X129102879Y-119090794D01*
X129106361Y-119085947D01*
X129131739Y-119022817D01*
X129133357Y-119019024D01*
X129158897Y-118962462D01*
X129158899Y-118962455D01*
X129161355Y-118957016D01*
X129162443Y-118951143D01*
X129163875Y-118946574D01*
X129166155Y-118938725D01*
X129167376Y-118934169D01*
X129168263Y-118931963D01*
X145042757Y-118931963D01*
X145047374Y-118986944D01*
X145057837Y-119111543D01*
X145059175Y-119127483D01*
X145060508Y-119132131D01*
X145060508Y-119132132D01*
X145110269Y-119305666D01*
X145113258Y-119316091D01*
X145115473Y-119320401D01*
X145200731Y-119486296D01*
X145200734Y-119486300D01*
X145202944Y-119490601D01*
X145324818Y-119644369D01*
X145328505Y-119647507D01*
X145328507Y-119647509D01*
X145470550Y-119768397D01*
X145470555Y-119768400D01*
X145474238Y-119771535D01*
X145478460Y-119773895D01*
X145478465Y-119773898D01*
X145519838Y-119797020D01*
X145645513Y-119867257D01*
X145746549Y-119900086D01*
X145827513Y-119926393D01*
X145827516Y-119926394D01*
X145832118Y-119927889D01*
X146026946Y-119951121D01*
X146031768Y-119950750D01*
X146031771Y-119950750D01*
X146217748Y-119936440D01*
X146217753Y-119936439D01*
X146222576Y-119936068D01*
X146411556Y-119883303D01*
X146415869Y-119881124D01*
X146415875Y-119881122D01*
X146582368Y-119797020D01*
X146582370Y-119797018D01*
X146586689Y-119794837D01*
X146613490Y-119773898D01*
X146737487Y-119677022D01*
X146737491Y-119677018D01*
X146741303Y-119674040D01*
X146749306Y-119664769D01*
X146866345Y-119529177D01*
X146866347Y-119529175D01*
X146869509Y-119525511D01*
X146871902Y-119521299D01*
X146964036Y-119359115D01*
X146964037Y-119359112D01*
X146966425Y-119354909D01*
X146977905Y-119320401D01*
X147026831Y-119173323D01*
X147026831Y-119173321D01*
X147028358Y-119168732D01*
X147052949Y-118974071D01*
X147053341Y-118946000D01*
X147052990Y-118942415D01*
X147051965Y-118931963D01*
X150122757Y-118931963D01*
X150127374Y-118986944D01*
X150137837Y-119111543D01*
X150139175Y-119127483D01*
X150140508Y-119132131D01*
X150140508Y-119132132D01*
X150190269Y-119305666D01*
X150193258Y-119316091D01*
X150195473Y-119320401D01*
X150280731Y-119486296D01*
X150280734Y-119486300D01*
X150282944Y-119490601D01*
X150404818Y-119644369D01*
X150408505Y-119647507D01*
X150408507Y-119647509D01*
X150550550Y-119768397D01*
X150550555Y-119768400D01*
X150554238Y-119771535D01*
X150558460Y-119773895D01*
X150558465Y-119773898D01*
X150599838Y-119797020D01*
X150725513Y-119867257D01*
X150826549Y-119900086D01*
X150907513Y-119926393D01*
X150907516Y-119926394D01*
X150912118Y-119927889D01*
X151106946Y-119951121D01*
X151111768Y-119950750D01*
X151111771Y-119950750D01*
X151297748Y-119936440D01*
X151297753Y-119936439D01*
X151302576Y-119936068D01*
X151491556Y-119883303D01*
X151495869Y-119881124D01*
X151495875Y-119881122D01*
X151662368Y-119797020D01*
X151662370Y-119797018D01*
X151666689Y-119794837D01*
X151693490Y-119773898D01*
X151817487Y-119677022D01*
X151817491Y-119677018D01*
X151821303Y-119674040D01*
X151829306Y-119664769D01*
X151946345Y-119529177D01*
X151946347Y-119529175D01*
X151949509Y-119525511D01*
X151951902Y-119521299D01*
X152044036Y-119359115D01*
X152044037Y-119359112D01*
X152046425Y-119354909D01*
X152057905Y-119320401D01*
X152106831Y-119173323D01*
X152106831Y-119173321D01*
X152108358Y-119168732D01*
X152132949Y-118974071D01*
X152133341Y-118946000D01*
X152132990Y-118942415D01*
X152115612Y-118765194D01*
X152114194Y-118750728D01*
X152057484Y-118562894D01*
X151965370Y-118389653D01*
X151907442Y-118318625D01*
X151844422Y-118241355D01*
X151844421Y-118241354D01*
X151841361Y-118237602D01*
X151690180Y-118112535D01*
X151577004Y-118051341D01*
X151521839Y-118021513D01*
X151521838Y-118021513D01*
X151517585Y-118019213D01*
X151330152Y-117961193D01*
X151325342Y-117960687D01*
X151325340Y-117960687D01*
X151139835Y-117941189D01*
X151139833Y-117941189D01*
X151135019Y-117940683D01*
X151070891Y-117946519D01*
X150944438Y-117958027D01*
X150944435Y-117958028D01*
X150939618Y-117958466D01*
X150934976Y-117959832D01*
X150934972Y-117959833D01*
X150756040Y-118012496D01*
X150756037Y-118012497D01*
X150751393Y-118013864D01*
X150577512Y-118104767D01*
X150573743Y-118107797D01*
X150573742Y-118107798D01*
X150565231Y-118114641D01*
X150424600Y-118227711D01*
X150398186Y-118259190D01*
X150301589Y-118374310D01*
X150301586Y-118374314D01*
X150298480Y-118378016D01*
X150203956Y-118549954D01*
X150202492Y-118554568D01*
X150202491Y-118554571D01*
X150162515Y-118680590D01*
X150144628Y-118736978D01*
X150144088Y-118741790D01*
X150144088Y-118741791D01*
X150143254Y-118749231D01*
X150122757Y-118931963D01*
X147051965Y-118931963D01*
X147035612Y-118765194D01*
X147034194Y-118750728D01*
X146977484Y-118562894D01*
X146885370Y-118389653D01*
X146827442Y-118318625D01*
X146764422Y-118241355D01*
X146764421Y-118241354D01*
X146761361Y-118237602D01*
X146610180Y-118112535D01*
X146497004Y-118051341D01*
X146441839Y-118021513D01*
X146441838Y-118021513D01*
X146437585Y-118019213D01*
X146250152Y-117961193D01*
X146245342Y-117960687D01*
X146245340Y-117960687D01*
X146059835Y-117941189D01*
X146059833Y-117941189D01*
X146055019Y-117940683D01*
X145990891Y-117946519D01*
X145864438Y-117958027D01*
X145864435Y-117958028D01*
X145859618Y-117958466D01*
X145854976Y-117959832D01*
X145854972Y-117959833D01*
X145676040Y-118012496D01*
X145676037Y-118012497D01*
X145671393Y-118013864D01*
X145497512Y-118104767D01*
X145493743Y-118107797D01*
X145493742Y-118107798D01*
X145485231Y-118114641D01*
X145344600Y-118227711D01*
X145318186Y-118259190D01*
X145221589Y-118374310D01*
X145221586Y-118374314D01*
X145218480Y-118378016D01*
X145123956Y-118549954D01*
X145122492Y-118554568D01*
X145122491Y-118554571D01*
X145082515Y-118680590D01*
X145064628Y-118736978D01*
X145064088Y-118741790D01*
X145064088Y-118741791D01*
X145063254Y-118749231D01*
X145042757Y-118931963D01*
X129168263Y-118931963D01*
X129169601Y-118928634D01*
X129179187Y-118861280D01*
X129179857Y-118857188D01*
X129191163Y-118796182D01*
X129192252Y-118790308D01*
X129191908Y-118784344D01*
X129192206Y-118779609D01*
X129192789Y-118765705D01*
X129193490Y-118760778D01*
X129193645Y-118746000D01*
X129186479Y-118686786D01*
X129185926Y-118680590D01*
X129182836Y-118626999D01*
X129182493Y-118621041D01*
X129178547Y-118608214D01*
X129174888Y-118591001D01*
X129173992Y-118583601D01*
X129173276Y-118577680D01*
X129169440Y-118567526D01*
X129152190Y-118521877D01*
X129150176Y-118515993D01*
X129134396Y-118464701D01*
X129132639Y-118458989D01*
X129125747Y-118447474D01*
X129118090Y-118431633D01*
X129115457Y-118424664D01*
X129115453Y-118424657D01*
X129113345Y-118419077D01*
X129079556Y-118369914D01*
X129076198Y-118364682D01*
X129048634Y-118318625D01*
X129048631Y-118318621D01*
X129045569Y-118313505D01*
X129036131Y-118303968D01*
X129024910Y-118290404D01*
X129020696Y-118284272D01*
X129020693Y-118284268D01*
X129017312Y-118279349D01*
X128972782Y-118239674D01*
X128968272Y-118235394D01*
X128930507Y-118197231D01*
X128930506Y-118197230D01*
X128926310Y-118192990D01*
X128914868Y-118185978D01*
X128900741Y-118175487D01*
X128899723Y-118174580D01*
X128890721Y-118166560D01*
X128885454Y-118163771D01*
X128885448Y-118163767D01*
X128837996Y-118138642D01*
X128832596Y-118135562D01*
X128786836Y-118107521D01*
X128786835Y-118107521D01*
X128781746Y-118104402D01*
X128768960Y-118100321D01*
X128752742Y-118093503D01*
X128746157Y-118090017D01*
X128746155Y-118090016D01*
X128740881Y-118087224D01*
X128691825Y-118074902D01*
X128683031Y-118072693D01*
X128677050Y-118070989D01*
X128625914Y-118054669D01*
X128625909Y-118054668D01*
X128620225Y-118052854D01*
X128614274Y-118052448D01*
X128614272Y-118052448D01*
X128606843Y-118051942D01*
X128589454Y-118049188D01*
X128582227Y-118047372D01*
X128582223Y-118047372D01*
X128576441Y-118045919D01*
X128544770Y-118045753D01*
X128516786Y-118045606D01*
X128510572Y-118045378D01*
X128488897Y-118043901D01*
X128451070Y-118041322D01*
X128445199Y-118042347D01*
X128445194Y-118042347D01*
X128437858Y-118043628D01*
X128420314Y-118045102D01*
X128406895Y-118045031D01*
X128401093Y-118046424D01*
X128401092Y-118046424D01*
X128348890Y-118058956D01*
X128342802Y-118060217D01*
X128314551Y-118065148D01*
X128284047Y-118070472D01*
X128278578Y-118072873D01*
X128278577Y-118072873D01*
X128271758Y-118075866D01*
X128255085Y-118081478D01*
X128242032Y-118084612D01*
X128216799Y-118097636D01*
X128189040Y-118111963D01*
X128183431Y-118114639D01*
X128128798Y-118138621D01*
X128118146Y-118146795D01*
X128103294Y-118156220D01*
X128091369Y-118162375D01*
X128056275Y-118192990D01*
X128046422Y-118201585D01*
X128041609Y-118205524D01*
X128027892Y-118216049D01*
X128027883Y-118216057D01*
X128025322Y-118218022D01*
X128012273Y-118231071D01*
X128007349Y-118235670D01*
X127963604Y-118273831D01*
X127960176Y-118278709D01*
X127960172Y-118278713D01*
X127954561Y-118286697D01*
X127943568Y-118299776D01*
X127114266Y-119129077D01*
X127109342Y-119133676D01*
X127065604Y-119171831D01*
X127029197Y-119223634D01*
X127028903Y-119224052D01*
X127025818Y-119228205D01*
X126986416Y-119278457D01*
X126983958Y-119283900D01*
X126983958Y-119283901D01*
X126982633Y-119286835D01*
X126973398Y-119303028D01*
X126968113Y-119310547D01*
X126965946Y-119316106D01*
X126965944Y-119316109D01*
X126944922Y-119370027D01*
X126942914Y-119374803D01*
X126916645Y-119432984D01*
X126915558Y-119438851D01*
X126914969Y-119442026D01*
X126909867Y-119459938D01*
X126906524Y-119468513D01*
X126903617Y-119490601D01*
X126898192Y-119531808D01*
X126897384Y-119536914D01*
X126885748Y-119599692D01*
X126886092Y-119605654D01*
X126889336Y-119661924D01*
X126889500Y-119667622D01*
X126889500Y-121286842D01*
X126870593Y-121345033D01*
X126847283Y-121367938D01*
X126754406Y-121432970D01*
X126754401Y-121432974D01*
X126750861Y-121435453D01*
X126589953Y-121596361D01*
X126587476Y-121599899D01*
X126587474Y-121599901D01*
X126522216Y-121693100D01*
X126459432Y-121782766D01*
X126363261Y-121989004D01*
X126362143Y-121993177D01*
X126321875Y-122143461D01*
X126304365Y-122208808D01*
X126284532Y-122435500D01*
X117918500Y-122435500D01*
X117918500Y-121351354D01*
X117915382Y-121325154D01*
X117869939Y-121222847D01*
X117855829Y-121208761D01*
X117816259Y-121169261D01*
X117790713Y-121143759D01*
X117748433Y-121125067D01*
X117695136Y-121101504D01*
X117695134Y-121101504D01*
X117688327Y-121098494D01*
X117674322Y-121096861D01*
X117665494Y-121095832D01*
X117665493Y-121095832D01*
X117662646Y-121095500D01*
X115573354Y-121095500D01*
X115556951Y-121097452D01*
X115554531Y-121097740D01*
X115554530Y-121097740D01*
X115547154Y-121098618D01*
X115444847Y-121144061D01*
X115365759Y-121223287D01*
X115362064Y-121231645D01*
X115328522Y-121307515D01*
X115320494Y-121325673D01*
X115317500Y-121351354D01*
X115317500Y-121584848D01*
X115298593Y-121643039D01*
X115249093Y-121679003D01*
X115187907Y-121679003D01*
X115137404Y-121641632D01*
X115105705Y-121596361D01*
X115078047Y-121556861D01*
X114917139Y-121395953D01*
X114905790Y-121388006D01*
X114734279Y-121267914D01*
X114734277Y-121267913D01*
X114730734Y-121265432D01*
X114524496Y-121169261D01*
X114417180Y-121140506D01*
X114308869Y-121111484D01*
X114308867Y-121111484D01*
X114304692Y-121110365D01*
X114078000Y-121090532D01*
X113851308Y-121110365D01*
X113847133Y-121111484D01*
X113847131Y-121111484D01*
X113738820Y-121140506D01*
X113631504Y-121169261D01*
X113425266Y-121265432D01*
X113421723Y-121267913D01*
X113421721Y-121267914D01*
X113250211Y-121388006D01*
X113238861Y-121395953D01*
X113077953Y-121556861D01*
X113075476Y-121560399D01*
X113075474Y-121560401D01*
X112954074Y-121733780D01*
X112947432Y-121743266D01*
X112897724Y-121849865D01*
X112855996Y-121894613D01*
X112795935Y-121906287D01*
X112740482Y-121880429D01*
X112718276Y-121849865D01*
X112668568Y-121743266D01*
X112661926Y-121733780D01*
X112540526Y-121560401D01*
X112540524Y-121560399D01*
X112538047Y-121556861D01*
X112377139Y-121395953D01*
X112365790Y-121388006D01*
X112194279Y-121267914D01*
X112194277Y-121267913D01*
X112190734Y-121265432D01*
X111984496Y-121169261D01*
X111877180Y-121140506D01*
X111768869Y-121111484D01*
X111768867Y-121111484D01*
X111764692Y-121110365D01*
X111538000Y-121090532D01*
X111311308Y-121110365D01*
X111307133Y-121111484D01*
X111307131Y-121111484D01*
X111198820Y-121140506D01*
X111091504Y-121169261D01*
X110885266Y-121265432D01*
X110881723Y-121267913D01*
X110881721Y-121267914D01*
X110710211Y-121388006D01*
X110698861Y-121395953D01*
X110537953Y-121556861D01*
X110535476Y-121560399D01*
X110535474Y-121560401D01*
X110414074Y-121733780D01*
X110407432Y-121743266D01*
X110357724Y-121849865D01*
X110315996Y-121894613D01*
X110255935Y-121906287D01*
X110200482Y-121880429D01*
X110178276Y-121849865D01*
X110128568Y-121743266D01*
X110121926Y-121733780D01*
X110000526Y-121560401D01*
X110000524Y-121560399D01*
X109998047Y-121556861D01*
X109837139Y-121395953D01*
X109825790Y-121388006D01*
X109654279Y-121267914D01*
X109654277Y-121267913D01*
X109650734Y-121265432D01*
X109444496Y-121169261D01*
X109337180Y-121140506D01*
X109228869Y-121111484D01*
X109228867Y-121111484D01*
X109224692Y-121110365D01*
X108998000Y-121090532D01*
X108771308Y-121110365D01*
X108767133Y-121111484D01*
X108767131Y-121111484D01*
X108658820Y-121140506D01*
X108551504Y-121169261D01*
X108345266Y-121265432D01*
X108341723Y-121267913D01*
X108341721Y-121267914D01*
X108170211Y-121388006D01*
X108158861Y-121395953D01*
X107997953Y-121556861D01*
X107967816Y-121599902D01*
X107928341Y-121656278D01*
X107879477Y-121693100D01*
X107818301Y-121694168D01*
X107768180Y-121659074D01*
X107764123Y-121653268D01*
X107652717Y-121481059D01*
X107647771Y-121474637D01*
X107487241Y-121298218D01*
X107481315Y-121292691D01*
X107294120Y-121144853D01*
X107287376Y-121140373D01*
X107078550Y-121025095D01*
X107071158Y-121021773D01*
X106846318Y-120942152D01*
X106838479Y-120940081D01*
X106723436Y-120919589D01*
X106710226Y-120921422D01*
X106709805Y-120921826D01*
X106708000Y-120929040D01*
X106708000Y-123860632D01*
X106208000Y-123860632D01*
X106208000Y-122661680D01*
X106203878Y-122648995D01*
X106199757Y-122646000D01*
X104992320Y-122646000D01*
X104979990Y-122650006D01*
X104979573Y-122659014D01*
X100300500Y-122659014D01*
X100300500Y-122130407D01*
X104977762Y-122130407D01*
X104980512Y-122143461D01*
X104982327Y-122145100D01*
X104986542Y-122146000D01*
X106192320Y-122146000D01*
X106205005Y-122141878D01*
X106208000Y-122137757D01*
X106208000Y-120932394D01*
X106203878Y-120919709D01*
X106202877Y-120918981D01*
X106196549Y-120918466D01*
X106113207Y-120931220D01*
X106105321Y-120933099D01*
X105878591Y-121007205D01*
X105871134Y-121010340D01*
X105659551Y-121120483D01*
X105652695Y-121124801D01*
X105461951Y-121268015D01*
X105455887Y-121273399D01*
X105291097Y-121445843D01*
X105285994Y-121452144D01*
X105151578Y-121649190D01*
X105147576Y-121656236D01*
X105047148Y-121872591D01*
X105044349Y-121880196D01*
X104980605Y-122110051D01*
X104979087Y-122118004D01*
X104977762Y-122130407D01*
X100300500Y-122130407D01*
X100300500Y-119034953D01*
X100302004Y-119017761D01*
X100303632Y-119008528D01*
X100305136Y-119000000D01*
X100303632Y-118991470D01*
X100303632Y-118986944D01*
X100302711Y-118969093D01*
X100317293Y-118765194D01*
X100319304Y-118751212D01*
X100319410Y-118750728D01*
X100367837Y-118528116D01*
X100371815Y-118514565D01*
X100451606Y-118300636D01*
X100457474Y-118287787D01*
X100566897Y-118087396D01*
X100574533Y-118075514D01*
X100711358Y-117892736D01*
X100720608Y-117882060D01*
X100882060Y-117720608D01*
X100892736Y-117711358D01*
X101075514Y-117574533D01*
X101087396Y-117566897D01*
X101287787Y-117457474D01*
X101300636Y-117451606D01*
X101431516Y-117402791D01*
X101514568Y-117371814D01*
X101528116Y-117367837D01*
X101751215Y-117319304D01*
X101765191Y-117317293D01*
X101847107Y-117311435D01*
X101969093Y-117302711D01*
X101986944Y-117303632D01*
X101991470Y-117303632D01*
X102000000Y-117305136D01*
X102017764Y-117302004D01*
X102034953Y-117300500D01*
X108965047Y-117300500D01*
X108982236Y-117302004D01*
X109000000Y-117305136D01*
X109003721Y-117304480D01*
X109129915Y-117296847D01*
X109274811Y-117288082D01*
X109274813Y-117288082D01*
X109277801Y-117287901D01*
X109551552Y-117237734D01*
X109817260Y-117154937D01*
X109829531Y-117149414D01*
X110068325Y-117041942D01*
X110068333Y-117041938D01*
X110071050Y-117040715D01*
X110309222Y-116896735D01*
X110317052Y-116890601D01*
X110525948Y-116726940D01*
X110528302Y-116725096D01*
X110725096Y-116528302D01*
X110870082Y-116343242D01*
X110878919Y-116331963D01*
X145042757Y-116331963D01*
X145059175Y-116527483D01*
X145060508Y-116532131D01*
X145060508Y-116532132D01*
X145108501Y-116699500D01*
X145113258Y-116716091D01*
X145115473Y-116720401D01*
X145200731Y-116886296D01*
X145200734Y-116886300D01*
X145202944Y-116890601D01*
X145324818Y-117044369D01*
X145328505Y-117047507D01*
X145328507Y-117047509D01*
X145470550Y-117168397D01*
X145470555Y-117168400D01*
X145474238Y-117171535D01*
X145478460Y-117173895D01*
X145478465Y-117173898D01*
X145519838Y-117197020D01*
X145645513Y-117267257D01*
X145746549Y-117300086D01*
X145827513Y-117326393D01*
X145827516Y-117326394D01*
X145832118Y-117327889D01*
X146026946Y-117351121D01*
X146031768Y-117350750D01*
X146031771Y-117350750D01*
X146217748Y-117336440D01*
X146217753Y-117336439D01*
X146222576Y-117336068D01*
X146411556Y-117283303D01*
X146415869Y-117281124D01*
X146415875Y-117281122D01*
X146582368Y-117197020D01*
X146582370Y-117197018D01*
X146586689Y-117194837D01*
X146613490Y-117173898D01*
X146737487Y-117077022D01*
X146737491Y-117077018D01*
X146741303Y-117074040D01*
X146766915Y-117044369D01*
X146866345Y-116929177D01*
X146866347Y-116929175D01*
X146869509Y-116925511D01*
X146885856Y-116896735D01*
X146964036Y-116759115D01*
X146964037Y-116759112D01*
X146966425Y-116754909D01*
X146976343Y-116725096D01*
X147026831Y-116573323D01*
X147026831Y-116573321D01*
X147028358Y-116568732D01*
X147033466Y-116528302D01*
X147052601Y-116376824D01*
X147052949Y-116374071D01*
X147053341Y-116346000D01*
X147052438Y-116336783D01*
X147051965Y-116331963D01*
X150122757Y-116331963D01*
X150139175Y-116527483D01*
X150140508Y-116532131D01*
X150140508Y-116532132D01*
X150188501Y-116699500D01*
X150193258Y-116716091D01*
X150195473Y-116720401D01*
X150280731Y-116886296D01*
X150280734Y-116886300D01*
X150282944Y-116890601D01*
X150404818Y-117044369D01*
X150408505Y-117047507D01*
X150408507Y-117047509D01*
X150550550Y-117168397D01*
X150550555Y-117168400D01*
X150554238Y-117171535D01*
X150558460Y-117173895D01*
X150558465Y-117173898D01*
X150599838Y-117197020D01*
X150725513Y-117267257D01*
X150826549Y-117300086D01*
X150907513Y-117326393D01*
X150907516Y-117326394D01*
X150912118Y-117327889D01*
X151106946Y-117351121D01*
X151111768Y-117350750D01*
X151111771Y-117350750D01*
X151297748Y-117336440D01*
X151297753Y-117336439D01*
X151302576Y-117336068D01*
X151491556Y-117283303D01*
X151495869Y-117281124D01*
X151495875Y-117281122D01*
X151662368Y-117197020D01*
X151662370Y-117197018D01*
X151666689Y-117194837D01*
X151693490Y-117173898D01*
X151817487Y-117077022D01*
X151817491Y-117077018D01*
X151821303Y-117074040D01*
X151846915Y-117044369D01*
X151946345Y-116929177D01*
X151946347Y-116929175D01*
X151949509Y-116925511D01*
X151965856Y-116896735D01*
X152044036Y-116759115D01*
X152044037Y-116759112D01*
X152046425Y-116754909D01*
X152056343Y-116725096D01*
X152106831Y-116573323D01*
X152106831Y-116573321D01*
X152108358Y-116568732D01*
X152113466Y-116528302D01*
X152132601Y-116376824D01*
X152132949Y-116374071D01*
X152133341Y-116346000D01*
X152132438Y-116336783D01*
X152114666Y-116155546D01*
X152114194Y-116150728D01*
X152057484Y-115962894D01*
X152008664Y-115871078D01*
X151967643Y-115793927D01*
X151967641Y-115793923D01*
X151965370Y-115789653D01*
X151841361Y-115637602D01*
X151690180Y-115512535D01*
X151517585Y-115419213D01*
X151330152Y-115361193D01*
X151325342Y-115360687D01*
X151325340Y-115360687D01*
X151139835Y-115341189D01*
X151139833Y-115341189D01*
X151135019Y-115340683D01*
X151070891Y-115346519D01*
X150944438Y-115358027D01*
X150944435Y-115358028D01*
X150939618Y-115358466D01*
X150934976Y-115359832D01*
X150934972Y-115359833D01*
X150756040Y-115412496D01*
X150756037Y-115412497D01*
X150751393Y-115413864D01*
X150577512Y-115504767D01*
X150573743Y-115507797D01*
X150573742Y-115507798D01*
X150564016Y-115515618D01*
X150424600Y-115627711D01*
X150398186Y-115659190D01*
X150301589Y-115774310D01*
X150301586Y-115774314D01*
X150298480Y-115778016D01*
X150203956Y-115949954D01*
X150202492Y-115954568D01*
X150202491Y-115954571D01*
X150166406Y-116068325D01*
X150144628Y-116136978D01*
X150144088Y-116141790D01*
X150144088Y-116141791D01*
X150125596Y-116306656D01*
X150122757Y-116331963D01*
X147051965Y-116331963D01*
X147034666Y-116155546D01*
X147034194Y-116150728D01*
X146977484Y-115962894D01*
X146928664Y-115871078D01*
X146887643Y-115793927D01*
X146887641Y-115793923D01*
X146885370Y-115789653D01*
X146761361Y-115637602D01*
X146610180Y-115512535D01*
X146437585Y-115419213D01*
X146250152Y-115361193D01*
X146245342Y-115360687D01*
X146245340Y-115360687D01*
X146059835Y-115341189D01*
X146059833Y-115341189D01*
X146055019Y-115340683D01*
X145990891Y-115346519D01*
X145864438Y-115358027D01*
X145864435Y-115358028D01*
X145859618Y-115358466D01*
X145854976Y-115359832D01*
X145854972Y-115359833D01*
X145676040Y-115412496D01*
X145676037Y-115412497D01*
X145671393Y-115413864D01*
X145497512Y-115504767D01*
X145493743Y-115507797D01*
X145493742Y-115507798D01*
X145484016Y-115515618D01*
X145344600Y-115627711D01*
X145318186Y-115659190D01*
X145221589Y-115774310D01*
X145221586Y-115774314D01*
X145218480Y-115778016D01*
X145123956Y-115949954D01*
X145122492Y-115954568D01*
X145122491Y-115954571D01*
X145086406Y-116068325D01*
X145064628Y-116136978D01*
X145064088Y-116141790D01*
X145064088Y-116141791D01*
X145045596Y-116306656D01*
X145042757Y-116331963D01*
X110878919Y-116331963D01*
X110894888Y-116311580D01*
X110894891Y-116311576D01*
X110896735Y-116309222D01*
X111040715Y-116071050D01*
X111041938Y-116068333D01*
X111041942Y-116068325D01*
X111153711Y-115819984D01*
X111154937Y-115817260D01*
X111237734Y-115551552D01*
X111287901Y-115277801D01*
X111299196Y-115091083D01*
X111303964Y-115012255D01*
X111303964Y-115012254D01*
X111304480Y-115003721D01*
X111305136Y-115000000D01*
X111302004Y-114982236D01*
X111300500Y-114965047D01*
X111300500Y-113620000D01*
X116427532Y-113620000D01*
X116447365Y-113846692D01*
X116506261Y-114066496D01*
X116602432Y-114272734D01*
X116604913Y-114276277D01*
X116604914Y-114276279D01*
X116685636Y-114391562D01*
X116732953Y-114459139D01*
X116893861Y-114620047D01*
X117080266Y-114750568D01*
X117286504Y-114846739D01*
X117317294Y-114854989D01*
X117502131Y-114904516D01*
X117502133Y-114904516D01*
X117506308Y-114905635D01*
X117733000Y-114925468D01*
X117959692Y-114905635D01*
X117963867Y-114904516D01*
X117963869Y-114904516D01*
X118148706Y-114854989D01*
X118179496Y-114846739D01*
X118385734Y-114750568D01*
X118572139Y-114620047D01*
X118733047Y-114459139D01*
X118780365Y-114391562D01*
X118861086Y-114276279D01*
X118861087Y-114276277D01*
X118863568Y-114272734D01*
X118913277Y-114166134D01*
X118955004Y-114121387D01*
X119015065Y-114109713D01*
X119070518Y-114135571D01*
X119092723Y-114166134D01*
X119142432Y-114272734D01*
X119144913Y-114276277D01*
X119144914Y-114276279D01*
X119225636Y-114391562D01*
X119272953Y-114459139D01*
X119433861Y-114620047D01*
X119620266Y-114750568D01*
X119826504Y-114846739D01*
X119857294Y-114854989D01*
X120042131Y-114904516D01*
X120042133Y-114904516D01*
X120046308Y-114905635D01*
X120273000Y-114925468D01*
X120499692Y-114905635D01*
X120503867Y-114904516D01*
X120503869Y-114904516D01*
X120688706Y-114854989D01*
X120719496Y-114846739D01*
X120925734Y-114750568D01*
X121112139Y-114620047D01*
X121273047Y-114459139D01*
X121320365Y-114391562D01*
X121401086Y-114276279D01*
X121401087Y-114276277D01*
X121403568Y-114272734D01*
X121453277Y-114166134D01*
X121495004Y-114121387D01*
X121555065Y-114109713D01*
X121610518Y-114135571D01*
X121632723Y-114166134D01*
X121682432Y-114272734D01*
X121684913Y-114276277D01*
X121684914Y-114276279D01*
X121765636Y-114391562D01*
X121812953Y-114459139D01*
X121973861Y-114620047D01*
X122160266Y-114750568D01*
X122366504Y-114846739D01*
X122397294Y-114854989D01*
X122582131Y-114904516D01*
X122582133Y-114904516D01*
X122586308Y-114905635D01*
X122813000Y-114925468D01*
X123039692Y-114905635D01*
X123043867Y-114904516D01*
X123043869Y-114904516D01*
X123228706Y-114854989D01*
X123259496Y-114846739D01*
X123465734Y-114750568D01*
X123652139Y-114620047D01*
X123813047Y-114459139D01*
X123860365Y-114391562D01*
X123941086Y-114276279D01*
X123941087Y-114276277D01*
X123943568Y-114272734D01*
X123993277Y-114166134D01*
X124035004Y-114121387D01*
X124095065Y-114109713D01*
X124150518Y-114135571D01*
X124172723Y-114166134D01*
X124222432Y-114272734D01*
X124224913Y-114276277D01*
X124224914Y-114276279D01*
X124305636Y-114391562D01*
X124352953Y-114459139D01*
X124513861Y-114620047D01*
X124700266Y-114750568D01*
X124906504Y-114846739D01*
X124937294Y-114854989D01*
X125122131Y-114904516D01*
X125122133Y-114904516D01*
X125126308Y-114905635D01*
X125353000Y-114925468D01*
X125579692Y-114905635D01*
X125583867Y-114904516D01*
X125583869Y-114904516D01*
X125768706Y-114854989D01*
X125799496Y-114846739D01*
X126005734Y-114750568D01*
X126192139Y-114620047D01*
X126353047Y-114459139D01*
X126400365Y-114391562D01*
X126481086Y-114276279D01*
X126481087Y-114276277D01*
X126483568Y-114272734D01*
X126533277Y-114166134D01*
X126575004Y-114121387D01*
X126635065Y-114109713D01*
X126690518Y-114135571D01*
X126712723Y-114166134D01*
X126762432Y-114272734D01*
X126764913Y-114276277D01*
X126764914Y-114276279D01*
X126845636Y-114391562D01*
X126892953Y-114459139D01*
X127053861Y-114620047D01*
X127240266Y-114750568D01*
X127446504Y-114846739D01*
X127477294Y-114854989D01*
X127662131Y-114904516D01*
X127662133Y-114904516D01*
X127666308Y-114905635D01*
X127893000Y-114925468D01*
X128119692Y-114905635D01*
X128123867Y-114904516D01*
X128123869Y-114904516D01*
X128308706Y-114854989D01*
X128339496Y-114846739D01*
X128545734Y-114750568D01*
X128732139Y-114620047D01*
X128893047Y-114459139D01*
X128940365Y-114391562D01*
X129021086Y-114276279D01*
X129021087Y-114276277D01*
X129023568Y-114272734D01*
X129073277Y-114166134D01*
X129115004Y-114121387D01*
X129175065Y-114109713D01*
X129230518Y-114135571D01*
X129252723Y-114166134D01*
X129302432Y-114272734D01*
X129304913Y-114276277D01*
X129304914Y-114276279D01*
X129385636Y-114391562D01*
X129432953Y-114459139D01*
X129593861Y-114620047D01*
X129780266Y-114750568D01*
X129986504Y-114846739D01*
X130017294Y-114854989D01*
X130202131Y-114904516D01*
X130202133Y-114904516D01*
X130206308Y-114905635D01*
X130433000Y-114925468D01*
X130659692Y-114905635D01*
X130663867Y-114904516D01*
X130663869Y-114904516D01*
X130848706Y-114854989D01*
X130879496Y-114846739D01*
X131085734Y-114750568D01*
X131272139Y-114620047D01*
X131433047Y-114459139D01*
X131480365Y-114391562D01*
X131561086Y-114276279D01*
X131561087Y-114276277D01*
X131563568Y-114272734D01*
X131613277Y-114166134D01*
X131655004Y-114121387D01*
X131715065Y-114109713D01*
X131770518Y-114135571D01*
X131792723Y-114166134D01*
X131842432Y-114272734D01*
X131844913Y-114276277D01*
X131844914Y-114276279D01*
X131925636Y-114391562D01*
X131972953Y-114459139D01*
X132133861Y-114620047D01*
X132320266Y-114750568D01*
X132526504Y-114846739D01*
X132557294Y-114854989D01*
X132742131Y-114904516D01*
X132742133Y-114904516D01*
X132746308Y-114905635D01*
X132973000Y-114925468D01*
X133199692Y-114905635D01*
X133203867Y-114904516D01*
X133203869Y-114904516D01*
X133388706Y-114854989D01*
X133419496Y-114846739D01*
X133625734Y-114750568D01*
X133812139Y-114620047D01*
X133973047Y-114459139D01*
X134020365Y-114391562D01*
X134101086Y-114276279D01*
X134101087Y-114276277D01*
X134103568Y-114272734D01*
X134153277Y-114166134D01*
X134195004Y-114121387D01*
X134255065Y-114109713D01*
X134310518Y-114135571D01*
X134332723Y-114166134D01*
X134382432Y-114272734D01*
X134384913Y-114276277D01*
X134384914Y-114276279D01*
X134465636Y-114391562D01*
X134512953Y-114459139D01*
X134673861Y-114620047D01*
X134860266Y-114750568D01*
X135066504Y-114846739D01*
X135097294Y-114854989D01*
X135282131Y-114904516D01*
X135282133Y-114904516D01*
X135286308Y-114905635D01*
X135513000Y-114925468D01*
X135739692Y-114905635D01*
X135743867Y-114904516D01*
X135743869Y-114904516D01*
X135928706Y-114854989D01*
X135959496Y-114846739D01*
X136165734Y-114750568D01*
X136352139Y-114620047D01*
X136513047Y-114459139D01*
X136560365Y-114391562D01*
X136641086Y-114276279D01*
X136641087Y-114276277D01*
X136643568Y-114272734D01*
X136693277Y-114166134D01*
X136735004Y-114121387D01*
X136795065Y-114109713D01*
X136850518Y-114135571D01*
X136872723Y-114166134D01*
X136922432Y-114272734D01*
X136924913Y-114276277D01*
X136924914Y-114276279D01*
X137005636Y-114391562D01*
X137052953Y-114459139D01*
X137213861Y-114620047D01*
X137400266Y-114750568D01*
X137606504Y-114846739D01*
X137637294Y-114854989D01*
X137822131Y-114904516D01*
X137822133Y-114904516D01*
X137826308Y-114905635D01*
X138053000Y-114925468D01*
X138279692Y-114905635D01*
X138283867Y-114904516D01*
X138283869Y-114904516D01*
X138468706Y-114854989D01*
X138499496Y-114846739D01*
X138500126Y-114846445D01*
X139725937Y-114846445D01*
X139726377Y-114849224D01*
X139728178Y-114851476D01*
X139733195Y-114854989D01*
X139939146Y-114975337D01*
X139946441Y-114978833D01*
X140169279Y-115063926D01*
X140177060Y-115066187D01*
X140410805Y-115113743D01*
X140418844Y-115114702D01*
X140657225Y-115123443D01*
X140665301Y-115123077D01*
X140901915Y-115092765D01*
X140909824Y-115091083D01*
X141138294Y-115022539D01*
X141145842Y-115019581D01*
X141360050Y-114914643D01*
X141367005Y-114910496D01*
X141449342Y-114851765D01*
X141457276Y-114841043D01*
X141457283Y-114840180D01*
X141453667Y-114834220D01*
X140604086Y-113984639D01*
X140592203Y-113978585D01*
X140587172Y-113979381D01*
X139731991Y-114834562D01*
X139725937Y-114846445D01*
X138500126Y-114846445D01*
X138705734Y-114750568D01*
X138892139Y-114620047D01*
X139053047Y-114459139D01*
X139100365Y-114391562D01*
X139123672Y-114358275D01*
X139172536Y-114321453D01*
X139233712Y-114320385D01*
X139283833Y-114355479D01*
X139289179Y-114363332D01*
X139359613Y-114478270D01*
X139369301Y-114486544D01*
X139377487Y-114481960D01*
X140228361Y-113631086D01*
X140233603Y-113620797D01*
X140951585Y-113620797D01*
X140952381Y-113625828D01*
X141804587Y-114478034D01*
X141816470Y-114484088D01*
X141817417Y-114483938D01*
X141822585Y-114479500D01*
X141880787Y-114398505D01*
X141884959Y-114391562D01*
X141990645Y-114177721D01*
X141993625Y-114170197D01*
X142062969Y-113941958D01*
X142064679Y-113934045D01*
X142095999Y-113696145D01*
X142096409Y-113690881D01*
X142098076Y-113622641D01*
X142097925Y-113617371D01*
X142078263Y-113378218D01*
X142076941Y-113370232D01*
X142018832Y-113138891D01*
X142016219Y-113131215D01*
X141921108Y-112912474D01*
X141917275Y-112905327D01*
X141825214Y-112763021D01*
X141815024Y-112754740D01*
X141807449Y-112759104D01*
X140957639Y-113608914D01*
X140951585Y-113620797D01*
X140233603Y-113620797D01*
X140234415Y-113619203D01*
X140233619Y-113614172D01*
X139381226Y-112761779D01*
X139369343Y-112755725D01*
X139369044Y-112755772D01*
X139363118Y-112760988D01*
X139284288Y-112876548D01*
X139282568Y-112875375D01*
X139243192Y-112911401D01*
X139182395Y-112918280D01*
X139129165Y-112888110D01*
X139121111Y-112878067D01*
X139096693Y-112843194D01*
X139053047Y-112780861D01*
X138892139Y-112619953D01*
X138705734Y-112489432D01*
X138510677Y-112398475D01*
X139728400Y-112398475D01*
X139728423Y-112399992D01*
X139731537Y-112404984D01*
X140581914Y-113255361D01*
X140593797Y-113261415D01*
X140598828Y-113260619D01*
X141452381Y-112407066D01*
X141458435Y-112395183D01*
X141458096Y-112393043D01*
X141455062Y-112389342D01*
X141429118Y-112368853D01*
X141422378Y-112364374D01*
X141213550Y-112249095D01*
X141206158Y-112245773D01*
X140981318Y-112166152D01*
X140973479Y-112164081D01*
X140738637Y-112122250D01*
X140730594Y-112121489D01*
X140492069Y-112118575D01*
X140483990Y-112119140D01*
X140248207Y-112155220D01*
X140240321Y-112157099D01*
X140013591Y-112231205D01*
X140006134Y-112234340D01*
X139794551Y-112344483D01*
X139787695Y-112348801D01*
X139736070Y-112387562D01*
X139728400Y-112398475D01*
X138510677Y-112398475D01*
X138499496Y-112393261D01*
X138391688Y-112364374D01*
X138283869Y-112335484D01*
X138283867Y-112335484D01*
X138279692Y-112334365D01*
X138053000Y-112314532D01*
X137826308Y-112334365D01*
X137822133Y-112335484D01*
X137822131Y-112335484D01*
X137714312Y-112364374D01*
X137606504Y-112393261D01*
X137400266Y-112489432D01*
X137213861Y-112619953D01*
X137052953Y-112780861D01*
X137050476Y-112784399D01*
X137050474Y-112784401D01*
X137007598Y-112845635D01*
X136922432Y-112967266D01*
X136920604Y-112971187D01*
X136872724Y-113073865D01*
X136830996Y-113118613D01*
X136770935Y-113130287D01*
X136715482Y-113104429D01*
X136693276Y-113073865D01*
X136645396Y-112971187D01*
X136643568Y-112967266D01*
X136558402Y-112845635D01*
X136515526Y-112784401D01*
X136515524Y-112784399D01*
X136513047Y-112780861D01*
X136352139Y-112619953D01*
X136165734Y-112489432D01*
X135959496Y-112393261D01*
X135851688Y-112364374D01*
X135743869Y-112335484D01*
X135743867Y-112335484D01*
X135739692Y-112334365D01*
X135513000Y-112314532D01*
X135286308Y-112334365D01*
X135282133Y-112335484D01*
X135282131Y-112335484D01*
X135174312Y-112364374D01*
X135066504Y-112393261D01*
X134860266Y-112489432D01*
X134673861Y-112619953D01*
X134512953Y-112780861D01*
X134510476Y-112784399D01*
X134510474Y-112784401D01*
X134467598Y-112845635D01*
X134382432Y-112967266D01*
X134380604Y-112971187D01*
X134332724Y-113073865D01*
X134290996Y-113118613D01*
X134230935Y-113130287D01*
X134175482Y-113104429D01*
X134153276Y-113073865D01*
X134105396Y-112971187D01*
X134103568Y-112967266D01*
X134018402Y-112845635D01*
X133975526Y-112784401D01*
X133975524Y-112784399D01*
X133973047Y-112780861D01*
X133812139Y-112619953D01*
X133625734Y-112489432D01*
X133419496Y-112393261D01*
X133311688Y-112364374D01*
X133203869Y-112335484D01*
X133203867Y-112335484D01*
X133199692Y-112334365D01*
X132973000Y-112314532D01*
X132746308Y-112334365D01*
X132742133Y-112335484D01*
X132742131Y-112335484D01*
X132634312Y-112364374D01*
X132526504Y-112393261D01*
X132320266Y-112489432D01*
X132133861Y-112619953D01*
X131972953Y-112780861D01*
X131970476Y-112784399D01*
X131970474Y-112784401D01*
X131927598Y-112845635D01*
X131842432Y-112967266D01*
X131840604Y-112971187D01*
X131792724Y-113073865D01*
X131750996Y-113118613D01*
X131690935Y-113130287D01*
X131635482Y-113104429D01*
X131613276Y-113073865D01*
X131565396Y-112971187D01*
X131563568Y-112967266D01*
X131478402Y-112845635D01*
X131435526Y-112784401D01*
X131435524Y-112784399D01*
X131433047Y-112780861D01*
X131272139Y-112619953D01*
X131085734Y-112489432D01*
X130879496Y-112393261D01*
X130771688Y-112364374D01*
X130663869Y-112335484D01*
X130663867Y-112335484D01*
X130659692Y-112334365D01*
X130433000Y-112314532D01*
X130206308Y-112334365D01*
X130202133Y-112335484D01*
X130202131Y-112335484D01*
X130094312Y-112364374D01*
X129986504Y-112393261D01*
X129780266Y-112489432D01*
X129593861Y-112619953D01*
X129432953Y-112780861D01*
X129430476Y-112784399D01*
X129430474Y-112784401D01*
X129387598Y-112845635D01*
X129302432Y-112967266D01*
X129300604Y-112971187D01*
X129252724Y-113073865D01*
X129210996Y-113118613D01*
X129150935Y-113130287D01*
X129095482Y-113104429D01*
X129073276Y-113073865D01*
X129025396Y-112971187D01*
X129023568Y-112967266D01*
X128938402Y-112845635D01*
X128895526Y-112784401D01*
X128895524Y-112784399D01*
X128893047Y-112780861D01*
X128732139Y-112619953D01*
X128545734Y-112489432D01*
X128339496Y-112393261D01*
X128231688Y-112364374D01*
X128123869Y-112335484D01*
X128123867Y-112335484D01*
X128119692Y-112334365D01*
X127893000Y-112314532D01*
X127666308Y-112334365D01*
X127662133Y-112335484D01*
X127662131Y-112335484D01*
X127554312Y-112364374D01*
X127446504Y-112393261D01*
X127240266Y-112489432D01*
X127053861Y-112619953D01*
X126892953Y-112780861D01*
X126890476Y-112784399D01*
X126890474Y-112784401D01*
X126847598Y-112845635D01*
X126762432Y-112967266D01*
X126760604Y-112971187D01*
X126712724Y-113073865D01*
X126670996Y-113118613D01*
X126610935Y-113130287D01*
X126555482Y-113104429D01*
X126533276Y-113073865D01*
X126485396Y-112971187D01*
X126483568Y-112967266D01*
X126398402Y-112845635D01*
X126355526Y-112784401D01*
X126355524Y-112784399D01*
X126353047Y-112780861D01*
X126192139Y-112619953D01*
X126005734Y-112489432D01*
X125799496Y-112393261D01*
X125691688Y-112364374D01*
X125583869Y-112335484D01*
X125583867Y-112335484D01*
X125579692Y-112334365D01*
X125353000Y-112314532D01*
X125126308Y-112334365D01*
X125122133Y-112335484D01*
X125122131Y-112335484D01*
X125014312Y-112364374D01*
X124906504Y-112393261D01*
X124700266Y-112489432D01*
X124513861Y-112619953D01*
X124352953Y-112780861D01*
X124350476Y-112784399D01*
X124350474Y-112784401D01*
X124307598Y-112845635D01*
X124222432Y-112967266D01*
X124220604Y-112971187D01*
X124172724Y-113073865D01*
X124130996Y-113118613D01*
X124070935Y-113130287D01*
X124015482Y-113104429D01*
X123993276Y-113073865D01*
X123945396Y-112971187D01*
X123943568Y-112967266D01*
X123858402Y-112845635D01*
X123815526Y-112784401D01*
X123815524Y-112784399D01*
X123813047Y-112780861D01*
X123652139Y-112619953D01*
X123465734Y-112489432D01*
X123259496Y-112393261D01*
X123151688Y-112364374D01*
X123043869Y-112335484D01*
X123043867Y-112335484D01*
X123039692Y-112334365D01*
X122813000Y-112314532D01*
X122586308Y-112334365D01*
X122582133Y-112335484D01*
X122582131Y-112335484D01*
X122474312Y-112364374D01*
X122366504Y-112393261D01*
X122160266Y-112489432D01*
X121973861Y-112619953D01*
X121812953Y-112780861D01*
X121810476Y-112784399D01*
X121810474Y-112784401D01*
X121767598Y-112845635D01*
X121682432Y-112967266D01*
X121680604Y-112971187D01*
X121632724Y-113073865D01*
X121590996Y-113118613D01*
X121530935Y-113130287D01*
X121475482Y-113104429D01*
X121453276Y-113073865D01*
X121405396Y-112971187D01*
X121403568Y-112967266D01*
X121318402Y-112845635D01*
X121275526Y-112784401D01*
X121275524Y-112784399D01*
X121273047Y-112780861D01*
X121112139Y-112619953D01*
X120925734Y-112489432D01*
X120719496Y-112393261D01*
X120611688Y-112364374D01*
X120503869Y-112335484D01*
X120503867Y-112335484D01*
X120499692Y-112334365D01*
X120273000Y-112314532D01*
X120046308Y-112334365D01*
X120042133Y-112335484D01*
X120042131Y-112335484D01*
X119934312Y-112364374D01*
X119826504Y-112393261D01*
X119620266Y-112489432D01*
X119433861Y-112619953D01*
X119272953Y-112780861D01*
X119270476Y-112784399D01*
X119270474Y-112784401D01*
X119227598Y-112845635D01*
X119142432Y-112967266D01*
X119140604Y-112971187D01*
X119092724Y-113073865D01*
X119050996Y-113118613D01*
X118990935Y-113130287D01*
X118935482Y-113104429D01*
X118913276Y-113073865D01*
X118865396Y-112971187D01*
X118863568Y-112967266D01*
X118778402Y-112845635D01*
X118735526Y-112784401D01*
X118735524Y-112784399D01*
X118733047Y-112780861D01*
X118572139Y-112619953D01*
X118385734Y-112489432D01*
X118179496Y-112393261D01*
X118071688Y-112364374D01*
X117963869Y-112335484D01*
X117963867Y-112335484D01*
X117959692Y-112334365D01*
X117733000Y-112314532D01*
X117506308Y-112334365D01*
X117502133Y-112335484D01*
X117502131Y-112335484D01*
X117394312Y-112364374D01*
X117286504Y-112393261D01*
X117080266Y-112489432D01*
X116893861Y-112619953D01*
X116732953Y-112780861D01*
X116730476Y-112784399D01*
X116730474Y-112784401D01*
X116687598Y-112845635D01*
X116602432Y-112967266D01*
X116506261Y-113173504D01*
X116447365Y-113393308D01*
X116427532Y-113620000D01*
X111300500Y-113620000D01*
X111300500Y-112183359D01*
X111319407Y-112125168D01*
X111368907Y-112089204D01*
X111430093Y-112089204D01*
X111479593Y-112125168D01*
X111489222Y-112141516D01*
X111522432Y-112212734D01*
X111524913Y-112216277D01*
X111524914Y-112216279D01*
X111648685Y-112393043D01*
X111652953Y-112399139D01*
X111813861Y-112560047D01*
X112000266Y-112690568D01*
X112206504Y-112786739D01*
X112295563Y-112810602D01*
X112422131Y-112844516D01*
X112422133Y-112844516D01*
X112426308Y-112845635D01*
X112653000Y-112865468D01*
X112879692Y-112845635D01*
X112883867Y-112844516D01*
X112883869Y-112844516D01*
X113010437Y-112810602D01*
X113099496Y-112786739D01*
X113305734Y-112690568D01*
X113492139Y-112560047D01*
X113653047Y-112399139D01*
X113657316Y-112393043D01*
X113781086Y-112216279D01*
X113781087Y-112216277D01*
X113783568Y-112212734D01*
X113879739Y-112006496D01*
X113938635Y-111786692D01*
X113958468Y-111560000D01*
X113938635Y-111333308D01*
X113879739Y-111113504D01*
X113783568Y-110907266D01*
X113653047Y-110720861D01*
X113492139Y-110559953D01*
X113305734Y-110429432D01*
X113099496Y-110333261D01*
X113010437Y-110309398D01*
X112883869Y-110275484D01*
X112883867Y-110275484D01*
X112879692Y-110274365D01*
X112653000Y-110254532D01*
X112426308Y-110274365D01*
X112422133Y-110275484D01*
X112422131Y-110275484D01*
X112295563Y-110309398D01*
X112206504Y-110333261D01*
X112000266Y-110429432D01*
X111813861Y-110559953D01*
X111652953Y-110720861D01*
X111522432Y-110907266D01*
X111520604Y-110911187D01*
X111489224Y-110978481D01*
X111447496Y-111023229D01*
X111387435Y-111034903D01*
X111331982Y-111009045D01*
X111302319Y-110955531D01*
X111300500Y-110936641D01*
X111300500Y-108067944D01*
X150699500Y-108067944D01*
X150714283Y-108266877D01*
X150773345Y-108527891D01*
X150774674Y-108531308D01*
X150774675Y-108531312D01*
X150869008Y-108773889D01*
X150870338Y-108777309D01*
X151003132Y-109009650D01*
X151005410Y-109012540D01*
X151005411Y-109012541D01*
X151033749Y-109048488D01*
X151168810Y-109219811D01*
X151171483Y-109222325D01*
X151171488Y-109222331D01*
X151294252Y-109337816D01*
X151363731Y-109403175D01*
X151583615Y-109555714D01*
X151823629Y-109674076D01*
X152078503Y-109755662D01*
X152082120Y-109756251D01*
X152082124Y-109756252D01*
X152339017Y-109798089D01*
X152339022Y-109798089D01*
X152342636Y-109798678D01*
X152346301Y-109798726D01*
X152446349Y-109800036D01*
X152610226Y-109802181D01*
X152613854Y-109801687D01*
X152613858Y-109801687D01*
X152742811Y-109784137D01*
X152875395Y-109766093D01*
X153132317Y-109691208D01*
X153375348Y-109579169D01*
X153378415Y-109577158D01*
X153378419Y-109577156D01*
X153596082Y-109434449D01*
X153596084Y-109434448D01*
X153599149Y-109432438D01*
X153631936Y-109403175D01*
X153796066Y-109256683D01*
X153796067Y-109256682D01*
X153798803Y-109254240D01*
X153825342Y-109222331D01*
X153967573Y-109051316D01*
X153969925Y-109048488D01*
X154108756Y-108819702D01*
X154212245Y-108572909D01*
X154278119Y-108313530D01*
X154300500Y-108091259D01*
X154300500Y-103932056D01*
X154285717Y-103733123D01*
X154226655Y-103472109D01*
X154207831Y-103423701D01*
X154130992Y-103226111D01*
X154129662Y-103222691D01*
X153996868Y-102990350D01*
X153968728Y-102954654D01*
X153833469Y-102783080D01*
X153831190Y-102780189D01*
X153828517Y-102777675D01*
X153828512Y-102777669D01*
X153638941Y-102599339D01*
X153636269Y-102596825D01*
X153416385Y-102444286D01*
X153176371Y-102325924D01*
X152921497Y-102244338D01*
X152917880Y-102243749D01*
X152917876Y-102243748D01*
X152660983Y-102201911D01*
X152660978Y-102201911D01*
X152657364Y-102201322D01*
X152653699Y-102201274D01*
X152553651Y-102199964D01*
X152389774Y-102197819D01*
X152386146Y-102198313D01*
X152386142Y-102198313D01*
X152257190Y-102215863D01*
X152124605Y-102233907D01*
X151867683Y-102308792D01*
X151624652Y-102420831D01*
X151621585Y-102422842D01*
X151621581Y-102422844D01*
X151403918Y-102565551D01*
X151400851Y-102567562D01*
X151398119Y-102570001D01*
X151398117Y-102570002D01*
X151365248Y-102599339D01*
X151201197Y-102745760D01*
X151198850Y-102748582D01*
X151198849Y-102748583D01*
X151172563Y-102780189D01*
X151030075Y-102951512D01*
X150891244Y-103180298D01*
X150787755Y-103427091D01*
X150721881Y-103686470D01*
X150699500Y-103908741D01*
X150699500Y-108067944D01*
X111300500Y-108067944D01*
X111300500Y-101063359D01*
X111319407Y-101005168D01*
X111368907Y-100969204D01*
X111430093Y-100969204D01*
X111479593Y-101005168D01*
X111489222Y-101021516D01*
X111522432Y-101092734D01*
X111652953Y-101279139D01*
X111813861Y-101440047D01*
X112000266Y-101570568D01*
X112206504Y-101666739D01*
X112295563Y-101690602D01*
X112422131Y-101724516D01*
X112422133Y-101724516D01*
X112426308Y-101725635D01*
X112653000Y-101745468D01*
X112879692Y-101725635D01*
X112883867Y-101724516D01*
X112883869Y-101724516D01*
X113010437Y-101690602D01*
X113099496Y-101666739D01*
X113305734Y-101570568D01*
X113492139Y-101440047D01*
X113653047Y-101279139D01*
X113783568Y-101092734D01*
X113879739Y-100886496D01*
X113938635Y-100666692D01*
X113958468Y-100440000D01*
X113938635Y-100213308D01*
X113879739Y-99993504D01*
X113783568Y-99787266D01*
X113712025Y-99685091D01*
X113655526Y-99604401D01*
X113655524Y-99604399D01*
X113653047Y-99600861D01*
X113492139Y-99439953D01*
X113305734Y-99309432D01*
X113099496Y-99213261D01*
X113010437Y-99189398D01*
X112883869Y-99155484D01*
X112883867Y-99155484D01*
X112879692Y-99154365D01*
X112653000Y-99134532D01*
X112426308Y-99154365D01*
X112422133Y-99155484D01*
X112422131Y-99155484D01*
X112295563Y-99189398D01*
X112206504Y-99213261D01*
X112000266Y-99309432D01*
X111813861Y-99439953D01*
X111652953Y-99600861D01*
X111650476Y-99604399D01*
X111650474Y-99604401D01*
X111593975Y-99685091D01*
X111522432Y-99787266D01*
X111491889Y-99852765D01*
X111489224Y-99858481D01*
X111447496Y-99903229D01*
X111387435Y-99914903D01*
X111331982Y-99889045D01*
X111302319Y-99835531D01*
X111300500Y-99816641D01*
X111300500Y-98380000D01*
X116427532Y-98380000D01*
X116447365Y-98606692D01*
X116506261Y-98826496D01*
X116602432Y-99032734D01*
X116604913Y-99036277D01*
X116604914Y-99036279D01*
X116688382Y-99155484D01*
X116732953Y-99219139D01*
X116893861Y-99380047D01*
X117080266Y-99510568D01*
X117286504Y-99606739D01*
X117317294Y-99614989D01*
X117502131Y-99664516D01*
X117502133Y-99664516D01*
X117506308Y-99665635D01*
X117733000Y-99685468D01*
X117959692Y-99665635D01*
X117963867Y-99664516D01*
X117963869Y-99664516D01*
X118148706Y-99614989D01*
X118179496Y-99606739D01*
X118385734Y-99510568D01*
X118572139Y-99380047D01*
X118733047Y-99219139D01*
X118777619Y-99155484D01*
X118861086Y-99036279D01*
X118861087Y-99036277D01*
X118863568Y-99032734D01*
X118913277Y-98926134D01*
X118955004Y-98881387D01*
X119015065Y-98869713D01*
X119070518Y-98895571D01*
X119092723Y-98926134D01*
X119142432Y-99032734D01*
X119144913Y-99036277D01*
X119144914Y-99036279D01*
X119228382Y-99155484D01*
X119272953Y-99219139D01*
X119433861Y-99380047D01*
X119620266Y-99510568D01*
X119826504Y-99606739D01*
X119857294Y-99614989D01*
X120042131Y-99664516D01*
X120042133Y-99664516D01*
X120046308Y-99665635D01*
X120273000Y-99685468D01*
X120499692Y-99665635D01*
X120503867Y-99664516D01*
X120503869Y-99664516D01*
X120688706Y-99614989D01*
X120719496Y-99606739D01*
X120720126Y-99606445D01*
X121945937Y-99606445D01*
X121946377Y-99609224D01*
X121948178Y-99611476D01*
X121953195Y-99614989D01*
X122159146Y-99735337D01*
X122166441Y-99738833D01*
X122389279Y-99823926D01*
X122397060Y-99826187D01*
X122630805Y-99873743D01*
X122638844Y-99874702D01*
X122877225Y-99883443D01*
X122885301Y-99883077D01*
X123121915Y-99852765D01*
X123129824Y-99851083D01*
X123358294Y-99782539D01*
X123365842Y-99779581D01*
X123580050Y-99674643D01*
X123587005Y-99670496D01*
X123669342Y-99611765D01*
X123677276Y-99601043D01*
X123677283Y-99600180D01*
X123673667Y-99594220D01*
X122824086Y-98744639D01*
X122812203Y-98738585D01*
X122807172Y-98739381D01*
X121951991Y-99594562D01*
X121945937Y-99606445D01*
X120720126Y-99606445D01*
X120925734Y-99510568D01*
X121112139Y-99380047D01*
X121273047Y-99219139D01*
X121320365Y-99151562D01*
X121343672Y-99118275D01*
X121392536Y-99081453D01*
X121453712Y-99080385D01*
X121503833Y-99115479D01*
X121509179Y-99123332D01*
X121579613Y-99238270D01*
X121589301Y-99246544D01*
X121597487Y-99241960D01*
X122448361Y-98391086D01*
X122453603Y-98380797D01*
X123171585Y-98380797D01*
X123172381Y-98385828D01*
X124024587Y-99238034D01*
X124036470Y-99244088D01*
X124037417Y-99243938D01*
X124042585Y-99239500D01*
X124100787Y-99158505D01*
X124104956Y-99151566D01*
X124113972Y-99133324D01*
X124156705Y-99089535D01*
X124217016Y-99079226D01*
X124271868Y-99106336D01*
X124283816Y-99120400D01*
X124352953Y-99219139D01*
X124513861Y-99380047D01*
X124700266Y-99510568D01*
X124906504Y-99606739D01*
X124937294Y-99614989D01*
X125122131Y-99664516D01*
X125122133Y-99664516D01*
X125126308Y-99665635D01*
X125353000Y-99685468D01*
X125579692Y-99665635D01*
X125583867Y-99664516D01*
X125583869Y-99664516D01*
X125768706Y-99614989D01*
X125799496Y-99606739D01*
X126005734Y-99510568D01*
X126192139Y-99380047D01*
X126353047Y-99219139D01*
X126397619Y-99155484D01*
X126481086Y-99036279D01*
X126481087Y-99036277D01*
X126483568Y-99032734D01*
X126533277Y-98926134D01*
X126575004Y-98881387D01*
X126635065Y-98869713D01*
X126690518Y-98895571D01*
X126712723Y-98926134D01*
X126762432Y-99032734D01*
X126764913Y-99036277D01*
X126764914Y-99036279D01*
X126848382Y-99155484D01*
X126892953Y-99219139D01*
X127053861Y-99380047D01*
X127240266Y-99510568D01*
X127446504Y-99606739D01*
X127477294Y-99614989D01*
X127662131Y-99664516D01*
X127662133Y-99664516D01*
X127666308Y-99665635D01*
X127893000Y-99685468D01*
X128119692Y-99665635D01*
X128123867Y-99664516D01*
X128123869Y-99664516D01*
X128308706Y-99614989D01*
X128339496Y-99606739D01*
X128545734Y-99510568D01*
X128732139Y-99380047D01*
X128893047Y-99219139D01*
X128937619Y-99155484D01*
X129021086Y-99036279D01*
X129021087Y-99036277D01*
X129023568Y-99032734D01*
X129073277Y-98926134D01*
X129115004Y-98881387D01*
X129175065Y-98869713D01*
X129230518Y-98895571D01*
X129252723Y-98926134D01*
X129302432Y-99032734D01*
X129304913Y-99036277D01*
X129304914Y-99036279D01*
X129388382Y-99155484D01*
X129432953Y-99219139D01*
X129593861Y-99380047D01*
X129780266Y-99510568D01*
X129986504Y-99606739D01*
X130017294Y-99614989D01*
X130202131Y-99664516D01*
X130202133Y-99664516D01*
X130206308Y-99665635D01*
X130433000Y-99685468D01*
X130659692Y-99665635D01*
X130663867Y-99664516D01*
X130663869Y-99664516D01*
X130848706Y-99614989D01*
X130879496Y-99606739D01*
X131085734Y-99510568D01*
X131272139Y-99380047D01*
X131433047Y-99219139D01*
X131477619Y-99155484D01*
X131561086Y-99036279D01*
X131561087Y-99036277D01*
X131563568Y-99032734D01*
X131613277Y-98926134D01*
X131655004Y-98881387D01*
X131715065Y-98869713D01*
X131770518Y-98895571D01*
X131792723Y-98926134D01*
X131842432Y-99032734D01*
X131844913Y-99036277D01*
X131844914Y-99036279D01*
X131928382Y-99155484D01*
X131972953Y-99219139D01*
X132133861Y-99380047D01*
X132320266Y-99510568D01*
X132526504Y-99606739D01*
X132557294Y-99614989D01*
X132742131Y-99664516D01*
X132742133Y-99664516D01*
X132746308Y-99665635D01*
X132973000Y-99685468D01*
X133199692Y-99665635D01*
X133203867Y-99664516D01*
X133203869Y-99664516D01*
X133388706Y-99614989D01*
X133419496Y-99606739D01*
X133625734Y-99510568D01*
X133812139Y-99380047D01*
X133973047Y-99219139D01*
X134017619Y-99155484D01*
X134101086Y-99036279D01*
X134101087Y-99036277D01*
X134103568Y-99032734D01*
X134153277Y-98926134D01*
X134195004Y-98881387D01*
X134255065Y-98869713D01*
X134310518Y-98895571D01*
X134332723Y-98926134D01*
X134382432Y-99032734D01*
X134384913Y-99036277D01*
X134384914Y-99036279D01*
X134468382Y-99155484D01*
X134512953Y-99219139D01*
X134673861Y-99380047D01*
X134860266Y-99510568D01*
X135066504Y-99606739D01*
X135097294Y-99614989D01*
X135282131Y-99664516D01*
X135282133Y-99664516D01*
X135286308Y-99665635D01*
X135513000Y-99685468D01*
X135739692Y-99665635D01*
X135743867Y-99664516D01*
X135743869Y-99664516D01*
X135928706Y-99614989D01*
X135959496Y-99606739D01*
X136165734Y-99510568D01*
X136352139Y-99380047D01*
X136513047Y-99219139D01*
X136557619Y-99155484D01*
X136641086Y-99036279D01*
X136641087Y-99036277D01*
X136643568Y-99032734D01*
X136693277Y-98926134D01*
X136735004Y-98881387D01*
X136795065Y-98869713D01*
X136850518Y-98895571D01*
X136872723Y-98926134D01*
X136922432Y-99032734D01*
X136924913Y-99036277D01*
X136924914Y-99036279D01*
X137008382Y-99155484D01*
X137052953Y-99219139D01*
X137213861Y-99380047D01*
X137400266Y-99510568D01*
X137606504Y-99606739D01*
X137637294Y-99614989D01*
X137822131Y-99664516D01*
X137822133Y-99664516D01*
X137826308Y-99665635D01*
X138053000Y-99685468D01*
X138279692Y-99665635D01*
X138283867Y-99664516D01*
X138283869Y-99664516D01*
X138468706Y-99614989D01*
X138499496Y-99606739D01*
X138500126Y-99606445D01*
X139725937Y-99606445D01*
X139726377Y-99609224D01*
X139728178Y-99611476D01*
X139733195Y-99614989D01*
X139939146Y-99735337D01*
X139946441Y-99738833D01*
X140169279Y-99823926D01*
X140177060Y-99826187D01*
X140410805Y-99873743D01*
X140418844Y-99874702D01*
X140657225Y-99883443D01*
X140665301Y-99883077D01*
X140901915Y-99852765D01*
X140909824Y-99851083D01*
X141138294Y-99782539D01*
X141145842Y-99779581D01*
X141360050Y-99674643D01*
X141367005Y-99670496D01*
X141449342Y-99611765D01*
X141457276Y-99601043D01*
X141457283Y-99600180D01*
X141453667Y-99594220D01*
X140604086Y-98744639D01*
X140592203Y-98738585D01*
X140587172Y-98739381D01*
X139731991Y-99594562D01*
X139725937Y-99606445D01*
X138500126Y-99606445D01*
X138705734Y-99510568D01*
X138892139Y-99380047D01*
X139053047Y-99219139D01*
X139100365Y-99151562D01*
X139123672Y-99118275D01*
X139172536Y-99081453D01*
X139233712Y-99080385D01*
X139283833Y-99115479D01*
X139289179Y-99123332D01*
X139359613Y-99238270D01*
X139369301Y-99246544D01*
X139377487Y-99241960D01*
X140228361Y-98391086D01*
X140233603Y-98380797D01*
X140951585Y-98380797D01*
X140952381Y-98385828D01*
X141804587Y-99238034D01*
X141816470Y-99244088D01*
X141817417Y-99243938D01*
X141822585Y-99239500D01*
X141880787Y-99158505D01*
X141884959Y-99151562D01*
X141990645Y-98937721D01*
X141993625Y-98930197D01*
X142062969Y-98701958D01*
X142064679Y-98694045D01*
X142095999Y-98456145D01*
X142096409Y-98450881D01*
X142098076Y-98382641D01*
X142097925Y-98377371D01*
X142078263Y-98138218D01*
X142076941Y-98130232D01*
X142018832Y-97898891D01*
X142016219Y-97891215D01*
X141921108Y-97672474D01*
X141917275Y-97665327D01*
X141825214Y-97523021D01*
X141815024Y-97514740D01*
X141807449Y-97519104D01*
X140957639Y-98368914D01*
X140951585Y-98380797D01*
X140233603Y-98380797D01*
X140234415Y-98379203D01*
X140233619Y-98374172D01*
X139381226Y-97521779D01*
X139369343Y-97515725D01*
X139369044Y-97515772D01*
X139363118Y-97520988D01*
X139284288Y-97636548D01*
X139282568Y-97635375D01*
X139243192Y-97671401D01*
X139182395Y-97678280D01*
X139129165Y-97648110D01*
X139121111Y-97638067D01*
X139055526Y-97544402D01*
X139053047Y-97540861D01*
X138892139Y-97379953D01*
X138705734Y-97249432D01*
X138510677Y-97158475D01*
X139728400Y-97158475D01*
X139728423Y-97159992D01*
X139731537Y-97164984D01*
X140581914Y-98015361D01*
X140593797Y-98021415D01*
X140598828Y-98020619D01*
X141452381Y-97167066D01*
X141458435Y-97155183D01*
X141458096Y-97153043D01*
X141455062Y-97149342D01*
X141429118Y-97128853D01*
X141422378Y-97124374D01*
X141213550Y-97009095D01*
X141206158Y-97005773D01*
X140981318Y-96926152D01*
X140973479Y-96924081D01*
X140738637Y-96882250D01*
X140730594Y-96881489D01*
X140492069Y-96878575D01*
X140483990Y-96879140D01*
X140248207Y-96915220D01*
X140240321Y-96917099D01*
X140013591Y-96991205D01*
X140006134Y-96994340D01*
X139794551Y-97104483D01*
X139787695Y-97108801D01*
X139736070Y-97147562D01*
X139728400Y-97158475D01*
X138510677Y-97158475D01*
X138499496Y-97153261D01*
X138391688Y-97124374D01*
X138283869Y-97095484D01*
X138283867Y-97095484D01*
X138279692Y-97094365D01*
X138053000Y-97074532D01*
X137826308Y-97094365D01*
X137822133Y-97095484D01*
X137822131Y-97095484D01*
X137714312Y-97124374D01*
X137606504Y-97153261D01*
X137400266Y-97249432D01*
X137213861Y-97379953D01*
X137052953Y-97540861D01*
X137050476Y-97544399D01*
X137050474Y-97544401D01*
X136984889Y-97638067D01*
X136922432Y-97727266D01*
X136920604Y-97731187D01*
X136872724Y-97833865D01*
X136830996Y-97878613D01*
X136770935Y-97890287D01*
X136715482Y-97864429D01*
X136693276Y-97833865D01*
X136645396Y-97731187D01*
X136643568Y-97727266D01*
X136581111Y-97638067D01*
X136515526Y-97544401D01*
X136515524Y-97544399D01*
X136513047Y-97540861D01*
X136352139Y-97379953D01*
X136165734Y-97249432D01*
X135959496Y-97153261D01*
X135851688Y-97124374D01*
X135743869Y-97095484D01*
X135743867Y-97095484D01*
X135739692Y-97094365D01*
X135513000Y-97074532D01*
X135286308Y-97094365D01*
X135282133Y-97095484D01*
X135282131Y-97095484D01*
X135174312Y-97124374D01*
X135066504Y-97153261D01*
X134860266Y-97249432D01*
X134673861Y-97379953D01*
X134512953Y-97540861D01*
X134510476Y-97544399D01*
X134510474Y-97544401D01*
X134444889Y-97638067D01*
X134382432Y-97727266D01*
X134380604Y-97731187D01*
X134332724Y-97833865D01*
X134290996Y-97878613D01*
X134230935Y-97890287D01*
X134175482Y-97864429D01*
X134153276Y-97833865D01*
X134105396Y-97731187D01*
X134103568Y-97727266D01*
X134041111Y-97638067D01*
X133975526Y-97544401D01*
X133975524Y-97544399D01*
X133973047Y-97540861D01*
X133812139Y-97379953D01*
X133625734Y-97249432D01*
X133419496Y-97153261D01*
X133311688Y-97124374D01*
X133203869Y-97095484D01*
X133203867Y-97095484D01*
X133199692Y-97094365D01*
X132973000Y-97074532D01*
X132746308Y-97094365D01*
X132742133Y-97095484D01*
X132742131Y-97095484D01*
X132634312Y-97124374D01*
X132526504Y-97153261D01*
X132320266Y-97249432D01*
X132133861Y-97379953D01*
X131972953Y-97540861D01*
X131970476Y-97544399D01*
X131970474Y-97544401D01*
X131904889Y-97638067D01*
X131842432Y-97727266D01*
X131840604Y-97731187D01*
X131792724Y-97833865D01*
X131750996Y-97878613D01*
X131690935Y-97890287D01*
X131635482Y-97864429D01*
X131613276Y-97833865D01*
X131565396Y-97731187D01*
X131563568Y-97727266D01*
X131501111Y-97638067D01*
X131435526Y-97544401D01*
X131435524Y-97544399D01*
X131433047Y-97540861D01*
X131272139Y-97379953D01*
X131085734Y-97249432D01*
X130879496Y-97153261D01*
X130771688Y-97124374D01*
X130663869Y-97095484D01*
X130663867Y-97095484D01*
X130659692Y-97094365D01*
X130433000Y-97074532D01*
X130206308Y-97094365D01*
X130202133Y-97095484D01*
X130202131Y-97095484D01*
X130094312Y-97124374D01*
X129986504Y-97153261D01*
X129780266Y-97249432D01*
X129593861Y-97379953D01*
X129432953Y-97540861D01*
X129430476Y-97544399D01*
X129430474Y-97544401D01*
X129364889Y-97638067D01*
X129302432Y-97727266D01*
X129300604Y-97731187D01*
X129252724Y-97833865D01*
X129210996Y-97878613D01*
X129150935Y-97890287D01*
X129095482Y-97864429D01*
X129073276Y-97833865D01*
X129025396Y-97731187D01*
X129023568Y-97727266D01*
X128961111Y-97638067D01*
X128895526Y-97544401D01*
X128895524Y-97544399D01*
X128893047Y-97540861D01*
X128732139Y-97379953D01*
X128545734Y-97249432D01*
X128339496Y-97153261D01*
X128231688Y-97124374D01*
X128123869Y-97095484D01*
X128123867Y-97095484D01*
X128119692Y-97094365D01*
X127893000Y-97074532D01*
X127666308Y-97094365D01*
X127662133Y-97095484D01*
X127662131Y-97095484D01*
X127554312Y-97124374D01*
X127446504Y-97153261D01*
X127240266Y-97249432D01*
X127053861Y-97379953D01*
X126892953Y-97540861D01*
X126890476Y-97544399D01*
X126890474Y-97544401D01*
X126824889Y-97638067D01*
X126762432Y-97727266D01*
X126760604Y-97731187D01*
X126712724Y-97833865D01*
X126670996Y-97878613D01*
X126610935Y-97890287D01*
X126555482Y-97864429D01*
X126533276Y-97833865D01*
X126485396Y-97731187D01*
X126483568Y-97727266D01*
X126421111Y-97638067D01*
X126355526Y-97544401D01*
X126355524Y-97544399D01*
X126353047Y-97540861D01*
X126192139Y-97379953D01*
X126005734Y-97249432D01*
X125799496Y-97153261D01*
X125691688Y-97124374D01*
X125583869Y-97095484D01*
X125583867Y-97095484D01*
X125579692Y-97094365D01*
X125353000Y-97074532D01*
X125126308Y-97094365D01*
X125122133Y-97095484D01*
X125122131Y-97095484D01*
X125014312Y-97124374D01*
X124906504Y-97153261D01*
X124700266Y-97249432D01*
X124513861Y-97379953D01*
X124352953Y-97540861D01*
X124350474Y-97544402D01*
X124283341Y-97640278D01*
X124234477Y-97677100D01*
X124173301Y-97678168D01*
X124123180Y-97643074D01*
X124119122Y-97637268D01*
X124045212Y-97523019D01*
X124035024Y-97514740D01*
X124027449Y-97519104D01*
X123177639Y-98368914D01*
X123171585Y-98380797D01*
X122453603Y-98380797D01*
X122454415Y-98379203D01*
X122453619Y-98374172D01*
X121601226Y-97521779D01*
X121589343Y-97515725D01*
X121589044Y-97515772D01*
X121583118Y-97520988D01*
X121504288Y-97636548D01*
X121502568Y-97635375D01*
X121463192Y-97671401D01*
X121402395Y-97678280D01*
X121349165Y-97648110D01*
X121341111Y-97638067D01*
X121275526Y-97544402D01*
X121273047Y-97540861D01*
X121112139Y-97379953D01*
X120925734Y-97249432D01*
X120730677Y-97158475D01*
X121948400Y-97158475D01*
X121948423Y-97159992D01*
X121951537Y-97164984D01*
X122801914Y-98015361D01*
X122813797Y-98021415D01*
X122818828Y-98020619D01*
X123672381Y-97167066D01*
X123678435Y-97155183D01*
X123678096Y-97153043D01*
X123675062Y-97149342D01*
X123649118Y-97128853D01*
X123642378Y-97124374D01*
X123433550Y-97009095D01*
X123426158Y-97005773D01*
X123201318Y-96926152D01*
X123193479Y-96924081D01*
X122958637Y-96882250D01*
X122950594Y-96881489D01*
X122712069Y-96878575D01*
X122703990Y-96879140D01*
X122468207Y-96915220D01*
X122460321Y-96917099D01*
X122233591Y-96991205D01*
X122226134Y-96994340D01*
X122014551Y-97104483D01*
X122007695Y-97108801D01*
X121956070Y-97147562D01*
X121948400Y-97158475D01*
X120730677Y-97158475D01*
X120719496Y-97153261D01*
X120611688Y-97124374D01*
X120503869Y-97095484D01*
X120503867Y-97095484D01*
X120499692Y-97094365D01*
X120273000Y-97074532D01*
X120046308Y-97094365D01*
X120042133Y-97095484D01*
X120042131Y-97095484D01*
X119934312Y-97124374D01*
X119826504Y-97153261D01*
X119620266Y-97249432D01*
X119433861Y-97379953D01*
X119272953Y-97540861D01*
X119270476Y-97544399D01*
X119270474Y-97544401D01*
X119204889Y-97638067D01*
X119142432Y-97727266D01*
X119140604Y-97731187D01*
X119092724Y-97833865D01*
X119050996Y-97878613D01*
X118990935Y-97890287D01*
X118935482Y-97864429D01*
X118913276Y-97833865D01*
X118865396Y-97731187D01*
X118863568Y-97727266D01*
X118801111Y-97638067D01*
X118735526Y-97544401D01*
X118735524Y-97544399D01*
X118733047Y-97540861D01*
X118572139Y-97379953D01*
X118385734Y-97249432D01*
X118179496Y-97153261D01*
X118071688Y-97124374D01*
X117963869Y-97095484D01*
X117963867Y-97095484D01*
X117959692Y-97094365D01*
X117733000Y-97074532D01*
X117506308Y-97094365D01*
X117502133Y-97095484D01*
X117502131Y-97095484D01*
X117394312Y-97124374D01*
X117286504Y-97153261D01*
X117080266Y-97249432D01*
X116893861Y-97379953D01*
X116732953Y-97540861D01*
X116730476Y-97544399D01*
X116730474Y-97544401D01*
X116664889Y-97638067D01*
X116602432Y-97727266D01*
X116506261Y-97933504D01*
X116447365Y-98153308D01*
X116427532Y-98380000D01*
X111300500Y-98380000D01*
X111300500Y-97034953D01*
X111302004Y-97017761D01*
X111303632Y-97008528D01*
X111305136Y-97000000D01*
X111304480Y-96996279D01*
X111287901Y-96722199D01*
X111237734Y-96448448D01*
X111154937Y-96182740D01*
X111068115Y-95989829D01*
X111041942Y-95931675D01*
X111041938Y-95931667D01*
X111040715Y-95928950D01*
X110964953Y-95803624D01*
X137179758Y-95803624D01*
X137179765Y-95803669D01*
X137185288Y-95809884D01*
X137249178Y-95852575D01*
X137257133Y-95856893D01*
X137451412Y-95940362D01*
X137460024Y-95943160D01*
X137666272Y-95989829D01*
X137675232Y-95991009D01*
X137886544Y-95999311D01*
X137895556Y-95998839D01*
X138104848Y-95968494D01*
X138113630Y-95966385D01*
X138313878Y-95898410D01*
X138322134Y-95894734D01*
X138469376Y-95812274D01*
X138477578Y-95803400D01*
X138472676Y-95794229D01*
X137839086Y-95160639D01*
X137827203Y-95154585D01*
X137822172Y-95155381D01*
X137185812Y-95791741D01*
X137179758Y-95803624D01*
X110964953Y-95803624D01*
X110896735Y-95690778D01*
X110860743Y-95644837D01*
X110768440Y-95527022D01*
X110725096Y-95471698D01*
X110528302Y-95274904D01*
X110421586Y-95191297D01*
X110311580Y-95105112D01*
X110311576Y-95105109D01*
X110309222Y-95103265D01*
X110071050Y-94959285D01*
X110068333Y-94958062D01*
X110068325Y-94958058D01*
X109819984Y-94846289D01*
X109817260Y-94845063D01*
X109599333Y-94777155D01*
X109554415Y-94763158D01*
X109554413Y-94763157D01*
X109551552Y-94762266D01*
X109277801Y-94712099D01*
X109274813Y-94711918D01*
X109274811Y-94711918D01*
X109012255Y-94696036D01*
X109012254Y-94696036D01*
X109003721Y-94695520D01*
X109000000Y-94694864D01*
X108982236Y-94697996D01*
X108965047Y-94699500D01*
X102034953Y-94699500D01*
X102017764Y-94697996D01*
X102000000Y-94694864D01*
X101991470Y-94696368D01*
X101986944Y-94696368D01*
X101969093Y-94697289D01*
X101847107Y-94688565D01*
X101765191Y-94682707D01*
X101751215Y-94680696D01*
X101528116Y-94632163D01*
X101514568Y-94628186D01*
X101387783Y-94580898D01*
X101300636Y-94548394D01*
X101287787Y-94542526D01*
X101087396Y-94433103D01*
X101075514Y-94425467D01*
X100892736Y-94288642D01*
X100882060Y-94279392D01*
X100720608Y-94117940D01*
X100711358Y-94107264D01*
X100574533Y-93924486D01*
X100566897Y-93912604D01*
X100555463Y-93891665D01*
X116383119Y-93891665D01*
X116396376Y-94121580D01*
X116414734Y-94203039D01*
X116431941Y-94279392D01*
X116447006Y-94346242D01*
X116448535Y-94350006D01*
X116448536Y-94350011D01*
X116528087Y-94545920D01*
X116533649Y-94559618D01*
X116535773Y-94563084D01*
X116535775Y-94563088D01*
X116578105Y-94632164D01*
X116653979Y-94755978D01*
X116656638Y-94759048D01*
X116656639Y-94759049D01*
X116691170Y-94798913D01*
X116804763Y-94930048D01*
X116981953Y-95077154D01*
X117180790Y-95193345D01*
X117395934Y-95275501D01*
X117399909Y-95276310D01*
X117399910Y-95276310D01*
X117617624Y-95320604D01*
X117617628Y-95320604D01*
X117621607Y-95321414D01*
X117625667Y-95321563D01*
X117625668Y-95321563D01*
X117667459Y-95323095D01*
X117851749Y-95329853D01*
X117855767Y-95329338D01*
X117855773Y-95329338D01*
X118076146Y-95301108D01*
X118076152Y-95301107D01*
X118080178Y-95300591D01*
X118084071Y-95299423D01*
X118084076Y-95299422D01*
X118242836Y-95251791D01*
X118300761Y-95234413D01*
X118507574Y-95133096D01*
X118695062Y-94999363D01*
X118858190Y-94836803D01*
X118897596Y-94781963D01*
X124342757Y-94781963D01*
X124349474Y-94861949D01*
X124352395Y-94896735D01*
X124359175Y-94977483D01*
X124360508Y-94982131D01*
X124360508Y-94982132D01*
X124411695Y-95160639D01*
X124413258Y-95166091D01*
X124415473Y-95170401D01*
X124500731Y-95336296D01*
X124500734Y-95336300D01*
X124502944Y-95340601D01*
X124624818Y-95494369D01*
X124628505Y-95497507D01*
X124628507Y-95497509D01*
X124770550Y-95618397D01*
X124770555Y-95618400D01*
X124774238Y-95621535D01*
X124778460Y-95623895D01*
X124778465Y-95623898D01*
X124819838Y-95647020D01*
X124945513Y-95717257D01*
X125046549Y-95750086D01*
X125127513Y-95776393D01*
X125127516Y-95776394D01*
X125132118Y-95777889D01*
X125326946Y-95801121D01*
X125331768Y-95800750D01*
X125331771Y-95800750D01*
X125517748Y-95786440D01*
X125517753Y-95786439D01*
X125522576Y-95786068D01*
X125711556Y-95733303D01*
X125715869Y-95731124D01*
X125715875Y-95731122D01*
X125882368Y-95647020D01*
X125882370Y-95647018D01*
X125886689Y-95644837D01*
X125913490Y-95623898D01*
X126037487Y-95527022D01*
X126037491Y-95527018D01*
X126041303Y-95524040D01*
X126066915Y-95494369D01*
X126166345Y-95379177D01*
X126166347Y-95379175D01*
X126169509Y-95375511D01*
X126173014Y-95369342D01*
X126264036Y-95209115D01*
X126264037Y-95209112D01*
X126266425Y-95204909D01*
X126269791Y-95194793D01*
X126326831Y-95023323D01*
X126326831Y-95023321D01*
X126328358Y-95018732D01*
X126352949Y-94824071D01*
X126353341Y-94796000D01*
X126352438Y-94786783D01*
X126351965Y-94781963D01*
X129422757Y-94781963D01*
X129429474Y-94861949D01*
X129432395Y-94896735D01*
X129439175Y-94977483D01*
X129440508Y-94982131D01*
X129440508Y-94982132D01*
X129491695Y-95160639D01*
X129493258Y-95166091D01*
X129495473Y-95170401D01*
X129580731Y-95336296D01*
X129580734Y-95336300D01*
X129582944Y-95340601D01*
X129704818Y-95494369D01*
X129708505Y-95497507D01*
X129708507Y-95497509D01*
X129850550Y-95618397D01*
X129850555Y-95618400D01*
X129854238Y-95621535D01*
X129858460Y-95623895D01*
X129858465Y-95623898D01*
X129899838Y-95647020D01*
X130025513Y-95717257D01*
X130126549Y-95750086D01*
X130207513Y-95776393D01*
X130207516Y-95776394D01*
X130212118Y-95777889D01*
X130406946Y-95801121D01*
X130411768Y-95800750D01*
X130411771Y-95800750D01*
X130597748Y-95786440D01*
X130597753Y-95786439D01*
X130602576Y-95786068D01*
X130791556Y-95733303D01*
X130795869Y-95731124D01*
X130795875Y-95731122D01*
X130962368Y-95647020D01*
X130962370Y-95647018D01*
X130966689Y-95644837D01*
X130993490Y-95623898D01*
X131117487Y-95527022D01*
X131117491Y-95527018D01*
X131121303Y-95524040D01*
X131146915Y-95494369D01*
X131246345Y-95379177D01*
X131246347Y-95379175D01*
X131249509Y-95375511D01*
X131253014Y-95369342D01*
X131344036Y-95209115D01*
X131344037Y-95209112D01*
X131346425Y-95204909D01*
X131349791Y-95194793D01*
X131406831Y-95023323D01*
X131406831Y-95023321D01*
X131408358Y-95018732D01*
X131432949Y-94824071D01*
X131433341Y-94796000D01*
X131432438Y-94786783D01*
X131431965Y-94781963D01*
X131742757Y-94781963D01*
X131749474Y-94861949D01*
X131752395Y-94896735D01*
X131759175Y-94977483D01*
X131760508Y-94982131D01*
X131760508Y-94982132D01*
X131811695Y-95160639D01*
X131813258Y-95166091D01*
X131815473Y-95170401D01*
X131900731Y-95336296D01*
X131900734Y-95336300D01*
X131902944Y-95340601D01*
X132024818Y-95494369D01*
X132028505Y-95497507D01*
X132028507Y-95497509D01*
X132170550Y-95618397D01*
X132170555Y-95618400D01*
X132174238Y-95621535D01*
X132178460Y-95623895D01*
X132178465Y-95623898D01*
X132219838Y-95647020D01*
X132345513Y-95717257D01*
X132446549Y-95750086D01*
X132527513Y-95776393D01*
X132527516Y-95776394D01*
X132532118Y-95777889D01*
X132726946Y-95801121D01*
X132731768Y-95800750D01*
X132731771Y-95800750D01*
X132917748Y-95786440D01*
X132917753Y-95786439D01*
X132922576Y-95786068D01*
X133111556Y-95733303D01*
X133115869Y-95731124D01*
X133115875Y-95731122D01*
X133282368Y-95647020D01*
X133282370Y-95647018D01*
X133286689Y-95644837D01*
X133313490Y-95623898D01*
X133437487Y-95527022D01*
X133437491Y-95527018D01*
X133441303Y-95524040D01*
X133466915Y-95494369D01*
X133566345Y-95379177D01*
X133566347Y-95379175D01*
X133569509Y-95375511D01*
X133573014Y-95369342D01*
X133664036Y-95209115D01*
X133664037Y-95209112D01*
X133666425Y-95204909D01*
X133669791Y-95194793D01*
X133726831Y-95023323D01*
X133726831Y-95023321D01*
X133728358Y-95018732D01*
X133752949Y-94824071D01*
X133753341Y-94796000D01*
X133752438Y-94786783D01*
X133750692Y-94768981D01*
X136623569Y-94768981D01*
X136637399Y-94980000D01*
X136638812Y-94988921D01*
X136690866Y-95193882D01*
X136693886Y-95202410D01*
X136782417Y-95394449D01*
X136786935Y-95402274D01*
X136811525Y-95437069D01*
X136822210Y-95445048D01*
X136822961Y-95445058D01*
X136829090Y-95441357D01*
X137463361Y-94807086D01*
X137468603Y-94796797D01*
X138186585Y-94796797D01*
X138187381Y-94801828D01*
X138825525Y-95439972D01*
X138836287Y-95445455D01*
X138843787Y-95438244D01*
X138926734Y-95290134D01*
X138930410Y-95281878D01*
X138998385Y-95081630D01*
X139000494Y-95072848D01*
X139031072Y-94861949D01*
X139031565Y-94856161D01*
X139033065Y-94798913D01*
X139032875Y-94793101D01*
X139013376Y-94580898D01*
X139011729Y-94572012D01*
X138954328Y-94368486D01*
X138951087Y-94360042D01*
X138857560Y-94170388D01*
X138852837Y-94162680D01*
X138845988Y-94153508D01*
X138835098Y-94145812D01*
X138833647Y-94145831D01*
X138828556Y-94148997D01*
X138192639Y-94784914D01*
X138186585Y-94796797D01*
X137468603Y-94796797D01*
X137469415Y-94795203D01*
X137468619Y-94790172D01*
X136828721Y-94150274D01*
X136816838Y-94144220D01*
X136814714Y-94144556D01*
X136814679Y-94144585D01*
X136716705Y-94330802D01*
X136713251Y-94339142D01*
X136650541Y-94541098D01*
X136648660Y-94549948D01*
X136623805Y-94759948D01*
X136623569Y-94768981D01*
X133750692Y-94768981D01*
X133737276Y-94632164D01*
X133734194Y-94600728D01*
X133677484Y-94412894D01*
X133611418Y-94288642D01*
X133587643Y-94243927D01*
X133587641Y-94243923D01*
X133585370Y-94239653D01*
X133568480Y-94218943D01*
X133464422Y-94091355D01*
X133464421Y-94091354D01*
X133461361Y-94087602D01*
X133352165Y-93997268D01*
X133313907Y-93965618D01*
X133313906Y-93965617D01*
X133310180Y-93962535D01*
X133137585Y-93869213D01*
X132950152Y-93811193D01*
X132945342Y-93810687D01*
X132945340Y-93810687D01*
X132759835Y-93791189D01*
X132759833Y-93791189D01*
X132755019Y-93790683D01*
X132690891Y-93796519D01*
X132564438Y-93808027D01*
X132564435Y-93808028D01*
X132559618Y-93808466D01*
X132554976Y-93809832D01*
X132554972Y-93809833D01*
X132376040Y-93862496D01*
X132376037Y-93862497D01*
X132371393Y-93863864D01*
X132197512Y-93954767D01*
X132193743Y-93957797D01*
X132193742Y-93957798D01*
X132184016Y-93965618D01*
X132044600Y-94077711D01*
X132019802Y-94107264D01*
X131921589Y-94224310D01*
X131921586Y-94224314D01*
X131918480Y-94228016D01*
X131823956Y-94399954D01*
X131822492Y-94404568D01*
X131822491Y-94404571D01*
X131809043Y-94446965D01*
X131764628Y-94586978D01*
X131764088Y-94591790D01*
X131764088Y-94591791D01*
X131745672Y-94755978D01*
X131742757Y-94781963D01*
X131431965Y-94781963D01*
X131417276Y-94632164D01*
X131414194Y-94600728D01*
X131357484Y-94412894D01*
X131291418Y-94288642D01*
X131267643Y-94243927D01*
X131267641Y-94243923D01*
X131265370Y-94239653D01*
X131248480Y-94218943D01*
X131144422Y-94091355D01*
X131144421Y-94091354D01*
X131141361Y-94087602D01*
X131032165Y-93997268D01*
X130993907Y-93965618D01*
X130993906Y-93965617D01*
X130990180Y-93962535D01*
X130817585Y-93869213D01*
X130630152Y-93811193D01*
X130625342Y-93810687D01*
X130625340Y-93810687D01*
X130439835Y-93791189D01*
X130439833Y-93791189D01*
X130435019Y-93790683D01*
X130370891Y-93796519D01*
X130244438Y-93808027D01*
X130244435Y-93808028D01*
X130239618Y-93808466D01*
X130234976Y-93809832D01*
X130234972Y-93809833D01*
X130056040Y-93862496D01*
X130056037Y-93862497D01*
X130051393Y-93863864D01*
X129877512Y-93954767D01*
X129873743Y-93957797D01*
X129873742Y-93957798D01*
X129864016Y-93965618D01*
X129724600Y-94077711D01*
X129699802Y-94107264D01*
X129601589Y-94224310D01*
X129601586Y-94224314D01*
X129598480Y-94228016D01*
X129503956Y-94399954D01*
X129502492Y-94404568D01*
X129502491Y-94404571D01*
X129489043Y-94446965D01*
X129444628Y-94586978D01*
X129444088Y-94591790D01*
X129444088Y-94591791D01*
X129425672Y-94755978D01*
X129422757Y-94781963D01*
X126351965Y-94781963D01*
X126337276Y-94632164D01*
X126334194Y-94600728D01*
X126277484Y-94412894D01*
X126211418Y-94288642D01*
X126187643Y-94243927D01*
X126187641Y-94243923D01*
X126185370Y-94239653D01*
X126168480Y-94218943D01*
X126064422Y-94091355D01*
X126064421Y-94091354D01*
X126061361Y-94087602D01*
X125952165Y-93997268D01*
X125913907Y-93965618D01*
X125913906Y-93965617D01*
X125910180Y-93962535D01*
X125737585Y-93869213D01*
X125550152Y-93811193D01*
X125545342Y-93810687D01*
X125545340Y-93810687D01*
X125359835Y-93791189D01*
X125359833Y-93791189D01*
X125355019Y-93790683D01*
X125290891Y-93796519D01*
X125164438Y-93808027D01*
X125164435Y-93808028D01*
X125159618Y-93808466D01*
X125154976Y-93809832D01*
X125154972Y-93809833D01*
X124976040Y-93862496D01*
X124976037Y-93862497D01*
X124971393Y-93863864D01*
X124797512Y-93954767D01*
X124793743Y-93957797D01*
X124793742Y-93957798D01*
X124784016Y-93965618D01*
X124644600Y-94077711D01*
X124619802Y-94107264D01*
X124521589Y-94224310D01*
X124521586Y-94224314D01*
X124518480Y-94228016D01*
X124423956Y-94399954D01*
X124422492Y-94404568D01*
X124422491Y-94404571D01*
X124409043Y-94446965D01*
X124364628Y-94586978D01*
X124364088Y-94591790D01*
X124364088Y-94591791D01*
X124345672Y-94755978D01*
X124342757Y-94781963D01*
X118897596Y-94781963D01*
X118992577Y-94649783D01*
X119094615Y-94443325D01*
X119096653Y-94436619D01*
X119160380Y-94226869D01*
X119160380Y-94226868D01*
X119161563Y-94222975D01*
X119171722Y-94145812D01*
X119180687Y-94077711D01*
X119191622Y-93994649D01*
X119193300Y-93926000D01*
X119190145Y-93887626D01*
X119182118Y-93789989D01*
X137179362Y-93789989D01*
X137184058Y-93798505D01*
X137816914Y-94431361D01*
X137828797Y-94437415D01*
X137833828Y-94436619D01*
X138470179Y-93800268D01*
X138476057Y-93788731D01*
X138469963Y-93782051D01*
X138378964Y-93724635D01*
X138370906Y-93720530D01*
X138174491Y-93642168D01*
X138165833Y-93639603D01*
X137958426Y-93598347D01*
X137949433Y-93597402D01*
X137737985Y-93594633D01*
X137728970Y-93595343D01*
X137520556Y-93631155D01*
X137511832Y-93633493D01*
X137313436Y-93706684D01*
X137305268Y-93710580D01*
X137187619Y-93780574D01*
X137179362Y-93789989D01*
X119182118Y-93789989D01*
X119174763Y-93700525D01*
X119174762Y-93700522D01*
X119174430Y-93696478D01*
X119149027Y-93595343D01*
X119119317Y-93477066D01*
X119118326Y-93473120D01*
X119072411Y-93367522D01*
X119028118Y-93265654D01*
X119028117Y-93265652D01*
X119026496Y-93261924D01*
X118901405Y-93068563D01*
X118867141Y-93030907D01*
X118749149Y-92901237D01*
X118746412Y-92898229D01*
X118743226Y-92895713D01*
X118743223Y-92895710D01*
X118568869Y-92758013D01*
X118568863Y-92758009D01*
X118565681Y-92755496D01*
X118364065Y-92644198D01*
X118360234Y-92642841D01*
X118360231Y-92642840D01*
X118150814Y-92568681D01*
X118150809Y-92568680D01*
X118146978Y-92567323D01*
X117920250Y-92526937D01*
X117916204Y-92526888D01*
X117916198Y-92526887D01*
X117789094Y-92525334D01*
X117689971Y-92524123D01*
X117462325Y-92558958D01*
X117344433Y-92597491D01*
X117247281Y-92629245D01*
X117247277Y-92629247D01*
X117243424Y-92630506D01*
X117239824Y-92632380D01*
X117042754Y-92734968D01*
X117042751Y-92734970D01*
X117039149Y-92736845D01*
X116854984Y-92875119D01*
X116695877Y-93041616D01*
X116693585Y-93044976D01*
X116568389Y-93228505D01*
X116568386Y-93228511D01*
X116566099Y-93231863D01*
X116469136Y-93440752D01*
X116438409Y-93551552D01*
X116413279Y-93642168D01*
X116407592Y-93662673D01*
X116407159Y-93666721D01*
X116407159Y-93666723D01*
X116401409Y-93720530D01*
X116383119Y-93891665D01*
X100555463Y-93891665D01*
X100457474Y-93712213D01*
X100451606Y-93699364D01*
X100371815Y-93485435D01*
X100367836Y-93471882D01*
X100322162Y-93261924D01*
X100319304Y-93248785D01*
X100317293Y-93234806D01*
X100316843Y-93228505D01*
X100303477Y-93041616D01*
X100302711Y-93030907D01*
X100303632Y-93013056D01*
X100303632Y-93008530D01*
X100305136Y-93000000D01*
X100302004Y-92982236D01*
X100300500Y-92965047D01*
X100300500Y-88417069D01*
X123883164Y-88417069D01*
X123896392Y-88618894D01*
X123897508Y-88623287D01*
X123897508Y-88623289D01*
X123916868Y-88699519D01*
X123946178Y-88814928D01*
X124030856Y-88998607D01*
X124147588Y-89163780D01*
X124292466Y-89304913D01*
X124460637Y-89417282D01*
X124646470Y-89497122D01*
X124843740Y-89541760D01*
X125045842Y-89549700D01*
X125099377Y-89541938D01*
X125210524Y-89525823D01*
X129267560Y-89525823D01*
X129267658Y-89526445D01*
X129272485Y-89531998D01*
X129331972Y-89573652D01*
X129339442Y-89577964D01*
X129537755Y-89670439D01*
X129545848Y-89673385D01*
X129757218Y-89730022D01*
X129765706Y-89731518D01*
X129983691Y-89750589D01*
X129992309Y-89750589D01*
X130210294Y-89731518D01*
X130218782Y-89730022D01*
X130430152Y-89673385D01*
X130438245Y-89670439D01*
X130636558Y-89577964D01*
X130644028Y-89573652D01*
X130700629Y-89534019D01*
X130708655Y-89523368D01*
X130708666Y-89522736D01*
X130704878Y-89516432D01*
X129999086Y-88810639D01*
X129987203Y-88804585D01*
X129982172Y-88805381D01*
X129273614Y-89513940D01*
X129267560Y-89525823D01*
X125210524Y-89525823D01*
X125241519Y-89521329D01*
X125241522Y-89521328D01*
X125246007Y-89520678D01*
X125341769Y-89488171D01*
X125433234Y-89457123D01*
X125433237Y-89457121D01*
X125437531Y-89455664D01*
X125614001Y-89356837D01*
X125769505Y-89227505D01*
X125898837Y-89072001D01*
X125997664Y-88895531D01*
X126062678Y-88704007D01*
X126066626Y-88676782D01*
X126091283Y-88506717D01*
X126091700Y-88503842D01*
X126092925Y-88457086D01*
X126093102Y-88450309D01*
X128683411Y-88450309D01*
X128702482Y-88668294D01*
X128703978Y-88676782D01*
X128760615Y-88888152D01*
X128763561Y-88896245D01*
X128856036Y-89094558D01*
X128860348Y-89102028D01*
X128899981Y-89158629D01*
X128910632Y-89166655D01*
X128911264Y-89166666D01*
X128917568Y-89162878D01*
X129623361Y-88457086D01*
X129628603Y-88446797D01*
X130346585Y-88446797D01*
X130347381Y-88451828D01*
X131055940Y-89160386D01*
X131067823Y-89166440D01*
X131068445Y-89166342D01*
X131073998Y-89161515D01*
X131115652Y-89102028D01*
X131119964Y-89094558D01*
X131212439Y-88896245D01*
X131215385Y-88888152D01*
X131272022Y-88676782D01*
X131273518Y-88668294D01*
X131292589Y-88450309D01*
X131292589Y-88441691D01*
X131273518Y-88223706D01*
X131272022Y-88215218D01*
X131215385Y-88003848D01*
X131212439Y-87995755D01*
X131119964Y-87797442D01*
X131115652Y-87789972D01*
X131076019Y-87733371D01*
X131065368Y-87725345D01*
X131064736Y-87725334D01*
X131058432Y-87729122D01*
X130352639Y-88434914D01*
X130346585Y-88446797D01*
X129628603Y-88446797D01*
X129629415Y-88445203D01*
X129628619Y-88440172D01*
X128920060Y-87731614D01*
X128908177Y-87725560D01*
X128907555Y-87725658D01*
X128902002Y-87730485D01*
X128860348Y-87789972D01*
X128856036Y-87797442D01*
X128763561Y-87995755D01*
X128760615Y-88003848D01*
X128703978Y-88215218D01*
X128702482Y-88223706D01*
X128683411Y-88441691D01*
X128683411Y-88450309D01*
X126093102Y-88450309D01*
X126093139Y-88448913D01*
X126093139Y-88448908D01*
X126093215Y-88446000D01*
X126092680Y-88440172D01*
X126075123Y-88249109D01*
X126074708Y-88244591D01*
X126019807Y-88049926D01*
X125930351Y-87868527D01*
X125809335Y-87706467D01*
X125660812Y-87569174D01*
X125638125Y-87554859D01*
X125493594Y-87463667D01*
X125489757Y-87461246D01*
X125301898Y-87386298D01*
X125216263Y-87369264D01*
X129267334Y-87369264D01*
X129271122Y-87375568D01*
X129976914Y-88081361D01*
X129988797Y-88087415D01*
X129993828Y-88086619D01*
X130702386Y-87378060D01*
X130708440Y-87366177D01*
X130708342Y-87365555D01*
X130703515Y-87360002D01*
X130644028Y-87318348D01*
X130636558Y-87314036D01*
X130438245Y-87221561D01*
X130430152Y-87218615D01*
X130218782Y-87161978D01*
X130210294Y-87160482D01*
X129992309Y-87141411D01*
X129983691Y-87141411D01*
X129765706Y-87160482D01*
X129757218Y-87161978D01*
X129545848Y-87218615D01*
X129537755Y-87221561D01*
X129339442Y-87314036D01*
X129331972Y-87318348D01*
X129275371Y-87357981D01*
X129267345Y-87368632D01*
X129267334Y-87369264D01*
X125216263Y-87369264D01*
X125103526Y-87346839D01*
X125003930Y-87345535D01*
X124905826Y-87344251D01*
X124905821Y-87344251D01*
X124901286Y-87344192D01*
X124896813Y-87344961D01*
X124896808Y-87344961D01*
X124809276Y-87360002D01*
X124701949Y-87378444D01*
X124512193Y-87448449D01*
X124338371Y-87551862D01*
X124334956Y-87554857D01*
X124334953Y-87554859D01*
X124318630Y-87569174D01*
X124186305Y-87685220D01*
X124183497Y-87688782D01*
X124154427Y-87725658D01*
X124061089Y-87844057D01*
X123966914Y-88023053D01*
X123906937Y-88216213D01*
X123883164Y-88417069D01*
X100300500Y-88417069D01*
X100300500Y-85317069D01*
X128083164Y-85317069D01*
X128096392Y-85518894D01*
X128146178Y-85714928D01*
X128230856Y-85898607D01*
X128347588Y-86063780D01*
X128492466Y-86204913D01*
X128660637Y-86317282D01*
X128846470Y-86397122D01*
X129043740Y-86441760D01*
X129245842Y-86449700D01*
X129299377Y-86441938D01*
X129441519Y-86421329D01*
X129441522Y-86421328D01*
X129446007Y-86420678D01*
X129534445Y-86390657D01*
X134788000Y-86390657D01*
X134788289Y-86395991D01*
X134793971Y-86448298D01*
X134796822Y-86460287D01*
X134842443Y-86581982D01*
X134849143Y-86594219D01*
X134926581Y-86697545D01*
X134936455Y-86707419D01*
X135039781Y-86784857D01*
X135052018Y-86791557D01*
X135173713Y-86837178D01*
X135185702Y-86840029D01*
X135238009Y-86845711D01*
X135243343Y-86846000D01*
X136422320Y-86846000D01*
X136435005Y-86841878D01*
X136438000Y-86837757D01*
X136438000Y-86830320D01*
X136938000Y-86830320D01*
X136942122Y-86843005D01*
X136946243Y-86846000D01*
X138132657Y-86846000D01*
X138137991Y-86845711D01*
X138190298Y-86840029D01*
X138202287Y-86837178D01*
X138323982Y-86791557D01*
X138336219Y-86784857D01*
X138439545Y-86707419D01*
X138449423Y-86697541D01*
X138474488Y-86664097D01*
X138524516Y-86628872D01*
X138585694Y-86629780D01*
X138593729Y-86632920D01*
X138617673Y-86643506D01*
X138625064Y-86644368D01*
X138625065Y-86644368D01*
X138640506Y-86646168D01*
X138643354Y-86646500D01*
X141532646Y-86646500D01*
X141550561Y-86644368D01*
X141551469Y-86644260D01*
X141551470Y-86644260D01*
X141558846Y-86643382D01*
X141661153Y-86597939D01*
X141740241Y-86518713D01*
X141770752Y-86449700D01*
X141782496Y-86423136D01*
X141782496Y-86423134D01*
X141785506Y-86416327D01*
X141788500Y-86390646D01*
X145987500Y-86390646D01*
X145990618Y-86416846D01*
X146036061Y-86519153D01*
X146115287Y-86598241D01*
X146123645Y-86601936D01*
X146210864Y-86640496D01*
X146210866Y-86640496D01*
X146217673Y-86643506D01*
X146225067Y-86644368D01*
X146240378Y-86646153D01*
X146243354Y-86646500D01*
X149132646Y-86646500D01*
X149150561Y-86644368D01*
X149151469Y-86644260D01*
X149151470Y-86644260D01*
X149158846Y-86643382D01*
X149261153Y-86597939D01*
X149340241Y-86518713D01*
X149347490Y-86502316D01*
X149388312Y-86456739D01*
X149448126Y-86443862D01*
X149504087Y-86468601D01*
X149528512Y-86502158D01*
X149536061Y-86519153D01*
X149615287Y-86598241D01*
X149623645Y-86601936D01*
X149710864Y-86640496D01*
X149710866Y-86640496D01*
X149717673Y-86643506D01*
X149725067Y-86644368D01*
X149740378Y-86646153D01*
X149743354Y-86646500D01*
X152632646Y-86646500D01*
X152650561Y-86644368D01*
X152651469Y-86644260D01*
X152651470Y-86644260D01*
X152658846Y-86643382D01*
X152761153Y-86597939D01*
X152840241Y-86518713D01*
X152870752Y-86449700D01*
X152882496Y-86423136D01*
X152882496Y-86423134D01*
X152885506Y-86416327D01*
X152888500Y-86390646D01*
X152888500Y-83501354D01*
X152885382Y-83475154D01*
X152839939Y-83372847D01*
X152760713Y-83293759D01*
X152696357Y-83265307D01*
X152665136Y-83251504D01*
X152665134Y-83251504D01*
X152658327Y-83248494D01*
X152644322Y-83246861D01*
X152635494Y-83245832D01*
X152635493Y-83245832D01*
X152632646Y-83245500D01*
X149743354Y-83245500D01*
X149726951Y-83247452D01*
X149724531Y-83247740D01*
X149724530Y-83247740D01*
X149717154Y-83248618D01*
X149614847Y-83294061D01*
X149535759Y-83373287D01*
X149532064Y-83381645D01*
X149528510Y-83389684D01*
X149487688Y-83435261D01*
X149427874Y-83448138D01*
X149371913Y-83423399D01*
X149347488Y-83389842D01*
X149343651Y-83381203D01*
X149343650Y-83381201D01*
X149339939Y-83372847D01*
X149260713Y-83293759D01*
X149196357Y-83265307D01*
X149165136Y-83251504D01*
X149165134Y-83251504D01*
X149158327Y-83248494D01*
X149144322Y-83246861D01*
X149135494Y-83245832D01*
X149135493Y-83245832D01*
X149132646Y-83245500D01*
X146243354Y-83245500D01*
X146226951Y-83247452D01*
X146224531Y-83247740D01*
X146224530Y-83247740D01*
X146217154Y-83248618D01*
X146114847Y-83294061D01*
X146035759Y-83373287D01*
X145990494Y-83475673D01*
X145987500Y-83501354D01*
X145987500Y-86390646D01*
X141788500Y-86390646D01*
X141788500Y-83501354D01*
X141785382Y-83475154D01*
X141739939Y-83372847D01*
X141660713Y-83293759D01*
X141596357Y-83265307D01*
X141565136Y-83251504D01*
X141565134Y-83251504D01*
X141558327Y-83248494D01*
X141544322Y-83246861D01*
X141535494Y-83245832D01*
X141535493Y-83245832D01*
X141532646Y-83245500D01*
X138643354Y-83245500D01*
X138626951Y-83247452D01*
X138624531Y-83247740D01*
X138624530Y-83247740D01*
X138617154Y-83248618D01*
X138593864Y-83258963D01*
X138533009Y-83265307D01*
X138480047Y-83234669D01*
X138474454Y-83227860D01*
X138449418Y-83194453D01*
X138439548Y-83184583D01*
X138336219Y-83107143D01*
X138323982Y-83100443D01*
X138202287Y-83054822D01*
X138190298Y-83051971D01*
X138137991Y-83046289D01*
X138132657Y-83046000D01*
X136953680Y-83046000D01*
X136940995Y-83050122D01*
X136938000Y-83054243D01*
X136938000Y-86830320D01*
X136438000Y-86830320D01*
X136438000Y-85211680D01*
X136433878Y-85198995D01*
X136429757Y-85196000D01*
X134803680Y-85196000D01*
X134790995Y-85200122D01*
X134788000Y-85204243D01*
X134788000Y-86390657D01*
X129534445Y-86390657D01*
X129543109Y-86387716D01*
X129633234Y-86357123D01*
X129633237Y-86357121D01*
X129637531Y-86355664D01*
X129814001Y-86256837D01*
X129969505Y-86127505D01*
X130098837Y-85972001D01*
X130197664Y-85795531D01*
X130262678Y-85604007D01*
X130291700Y-85403842D01*
X130293215Y-85346000D01*
X130274708Y-85144591D01*
X130219807Y-84949926D01*
X130130351Y-84768527D01*
X130064484Y-84680320D01*
X134788000Y-84680320D01*
X134792122Y-84693005D01*
X134796243Y-84696000D01*
X136422320Y-84696000D01*
X136435005Y-84691878D01*
X136438000Y-84687757D01*
X136438000Y-83061680D01*
X136433878Y-83048995D01*
X136429757Y-83046000D01*
X135243343Y-83046000D01*
X135238009Y-83046289D01*
X135185702Y-83051971D01*
X135173713Y-83054822D01*
X135052018Y-83100443D01*
X135039781Y-83107143D01*
X134936455Y-83184581D01*
X134926581Y-83194455D01*
X134849143Y-83297781D01*
X134842443Y-83310018D01*
X134796822Y-83431713D01*
X134793971Y-83443702D01*
X134788289Y-83496009D01*
X134788000Y-83501343D01*
X134788000Y-84680320D01*
X130064484Y-84680320D01*
X130009335Y-84606467D01*
X129860812Y-84469174D01*
X129838125Y-84454859D01*
X129693594Y-84363667D01*
X129689757Y-84361246D01*
X129501898Y-84286298D01*
X129303526Y-84246839D01*
X129203930Y-84245535D01*
X129105826Y-84244251D01*
X129105821Y-84244251D01*
X129101286Y-84244192D01*
X129096813Y-84244961D01*
X129096808Y-84244961D01*
X128998245Y-84261898D01*
X128901949Y-84278444D01*
X128712193Y-84348449D01*
X128538371Y-84451862D01*
X128534956Y-84454857D01*
X128534953Y-84454859D01*
X128518630Y-84469174D01*
X128386305Y-84585220D01*
X128261089Y-84744057D01*
X128166914Y-84923053D01*
X128165569Y-84927384D01*
X128165568Y-84927387D01*
X128108312Y-85111786D01*
X128106937Y-85116213D01*
X128083164Y-85317069D01*
X100300500Y-85317069D01*
X100300500Y-84910646D01*
X116387500Y-84910646D01*
X116390618Y-84936846D01*
X116436061Y-85039153D01*
X116515287Y-85118241D01*
X116523645Y-85121936D01*
X116610864Y-85160496D01*
X116610866Y-85160496D01*
X116617673Y-85163506D01*
X116625067Y-85164368D01*
X116640378Y-85166153D01*
X116643354Y-85166500D01*
X118932646Y-85166500D01*
X118950561Y-85164368D01*
X118951469Y-85164260D01*
X118951470Y-85164260D01*
X118958846Y-85163382D01*
X119061153Y-85117939D01*
X119140241Y-85038713D01*
X119185506Y-84936327D01*
X119188500Y-84910646D01*
X119188500Y-82621354D01*
X119185382Y-82595154D01*
X119139939Y-82492847D01*
X119060713Y-82413759D01*
X119031591Y-82400884D01*
X118965136Y-82371504D01*
X118965134Y-82371504D01*
X118958327Y-82368494D01*
X118944322Y-82366861D01*
X118935494Y-82365832D01*
X118935493Y-82365832D01*
X118932646Y-82365500D01*
X116643354Y-82365500D01*
X116626951Y-82367452D01*
X116624531Y-82367740D01*
X116624530Y-82367740D01*
X116617154Y-82368618D01*
X116514847Y-82414061D01*
X116435759Y-82493287D01*
X116390494Y-82595673D01*
X116387500Y-82621354D01*
X116387500Y-84910646D01*
X100300500Y-84910646D01*
X100300500Y-81425823D01*
X128467560Y-81425823D01*
X128467658Y-81426445D01*
X128472485Y-81431998D01*
X128531972Y-81473652D01*
X128539442Y-81477964D01*
X128737755Y-81570439D01*
X128745848Y-81573385D01*
X128957218Y-81630022D01*
X128965706Y-81631518D01*
X129183691Y-81650589D01*
X129192309Y-81650589D01*
X129410294Y-81631518D01*
X129418782Y-81630022D01*
X129630152Y-81573385D01*
X129638245Y-81570439D01*
X129836558Y-81477964D01*
X129844028Y-81473652D01*
X129900629Y-81434019D01*
X129908655Y-81423368D01*
X129908666Y-81422736D01*
X129904878Y-81416432D01*
X129199086Y-80710639D01*
X129187203Y-80704585D01*
X129182172Y-80705381D01*
X128473614Y-81413940D01*
X128467560Y-81425823D01*
X100300500Y-81425823D01*
X100300500Y-80350309D01*
X127883411Y-80350309D01*
X127902482Y-80568294D01*
X127903978Y-80576782D01*
X127960615Y-80788152D01*
X127963561Y-80796245D01*
X128056036Y-80994558D01*
X128060348Y-81002028D01*
X128099981Y-81058629D01*
X128110632Y-81066655D01*
X128111264Y-81066666D01*
X128117568Y-81062878D01*
X128823361Y-80357086D01*
X128828603Y-80346797D01*
X129546585Y-80346797D01*
X129547381Y-80351828D01*
X130255940Y-81060386D01*
X130267823Y-81066440D01*
X130268445Y-81066342D01*
X130273998Y-81061515D01*
X130315652Y-81002028D01*
X130319964Y-80994558D01*
X130412439Y-80796245D01*
X130415385Y-80788152D01*
X130472022Y-80576782D01*
X130473518Y-80568294D01*
X130492589Y-80350309D01*
X130492589Y-80341691D01*
X130473518Y-80123706D01*
X130472022Y-80115218D01*
X130415385Y-79903848D01*
X130412439Y-79895755D01*
X130319964Y-79697442D01*
X130315652Y-79689972D01*
X130276019Y-79633371D01*
X130265368Y-79625345D01*
X130264736Y-79625334D01*
X130258432Y-79629122D01*
X129552639Y-80334914D01*
X129546585Y-80346797D01*
X128828603Y-80346797D01*
X128829415Y-80345203D01*
X128828619Y-80340172D01*
X128120060Y-79631614D01*
X128108177Y-79625560D01*
X128107555Y-79625658D01*
X128102002Y-79630485D01*
X128060348Y-79689972D01*
X128056036Y-79697442D01*
X127963561Y-79895755D01*
X127960615Y-79903848D01*
X127903978Y-80115218D01*
X127902482Y-80123706D01*
X127883411Y-80341691D01*
X127883411Y-80350309D01*
X100300500Y-80350309D01*
X100300500Y-79269264D01*
X128467334Y-79269264D01*
X128471122Y-79275568D01*
X129176914Y-79981361D01*
X129188797Y-79987415D01*
X129193828Y-79986619D01*
X129902386Y-79278060D01*
X129908440Y-79266177D01*
X129908342Y-79265555D01*
X129903515Y-79260002D01*
X129844028Y-79218348D01*
X129836558Y-79214036D01*
X129638245Y-79121561D01*
X129630152Y-79118615D01*
X129418782Y-79061978D01*
X129410294Y-79060482D01*
X129192309Y-79041411D01*
X129183691Y-79041411D01*
X128965706Y-79060482D01*
X128957218Y-79061978D01*
X128745848Y-79118615D01*
X128737755Y-79121561D01*
X128539442Y-79214036D01*
X128531972Y-79218348D01*
X128475371Y-79257981D01*
X128467345Y-79268632D01*
X128467334Y-79269264D01*
X100300500Y-79269264D01*
X100300500Y-78110226D01*
X165697819Y-78110226D01*
X165733907Y-78375395D01*
X165808792Y-78632317D01*
X165920831Y-78875348D01*
X165922842Y-78878415D01*
X165922844Y-78878419D01*
X166065551Y-79096082D01*
X166067562Y-79099149D01*
X166070001Y-79101881D01*
X166070002Y-79101883D01*
X166173951Y-79218348D01*
X166245760Y-79298803D01*
X166451512Y-79469925D01*
X166680298Y-79608756D01*
X166927091Y-79712245D01*
X166930653Y-79713150D01*
X166930654Y-79713150D01*
X166983830Y-79726655D01*
X167186470Y-79778119D01*
X167190123Y-79778487D01*
X167190124Y-79778487D01*
X167264629Y-79785989D01*
X167408741Y-79800500D01*
X167567944Y-79800500D01*
X167646649Y-79794651D01*
X167763223Y-79785989D01*
X167763229Y-79785988D01*
X167766877Y-79785717D01*
X168027891Y-79726655D01*
X168031308Y-79725326D01*
X168031312Y-79725325D01*
X168273889Y-79630992D01*
X168277309Y-79629662D01*
X168509650Y-79496868D01*
X168546811Y-79467573D01*
X168716920Y-79333469D01*
X168719811Y-79331190D01*
X168722325Y-79328517D01*
X168722331Y-79328512D01*
X168900661Y-79138941D01*
X168903175Y-79136269D01*
X169055714Y-78916385D01*
X169174076Y-78676371D01*
X169255662Y-78421497D01*
X169298678Y-78157364D01*
X169302181Y-77889774D01*
X169266093Y-77624605D01*
X169191208Y-77367683D01*
X169079169Y-77124652D01*
X169054425Y-77086910D01*
X168934449Y-76903918D01*
X168934448Y-76903916D01*
X168932438Y-76900851D01*
X168754240Y-76701197D01*
X168548488Y-76530075D01*
X168319702Y-76391244D01*
X168072909Y-76287755D01*
X168021407Y-76274675D01*
X167951595Y-76256945D01*
X167813530Y-76221881D01*
X167809877Y-76221513D01*
X167809876Y-76221513D01*
X167718366Y-76212299D01*
X167591259Y-76199500D01*
X167432056Y-76199500D01*
X167353351Y-76205349D01*
X167236777Y-76214011D01*
X167236771Y-76214012D01*
X167233123Y-76214283D01*
X166972109Y-76273345D01*
X166968692Y-76274674D01*
X166968688Y-76274675D01*
X166726111Y-76369008D01*
X166722691Y-76370338D01*
X166490350Y-76503132D01*
X166487460Y-76505410D01*
X166487459Y-76505411D01*
X166385270Y-76585971D01*
X166280189Y-76668810D01*
X166277675Y-76671483D01*
X166277669Y-76671488D01*
X166162184Y-76794252D01*
X166096825Y-76863731D01*
X165944286Y-77083615D01*
X165825924Y-77323629D01*
X165744338Y-77578503D01*
X165701322Y-77842636D01*
X165697819Y-78110226D01*
X100300500Y-78110226D01*
X100300500Y-69278477D01*
X165444822Y-69278477D01*
X165445016Y-69281842D01*
X165445016Y-69281846D01*
X165448545Y-69343043D01*
X165460916Y-69557596D01*
X165514741Y-69831948D01*
X165605303Y-70096457D01*
X165730925Y-70346228D01*
X165889282Y-70576639D01*
X165891552Y-70579133D01*
X165891553Y-70579135D01*
X165936948Y-70629023D01*
X166077444Y-70783427D01*
X166291930Y-70962765D01*
X166528771Y-71111335D01*
X166531839Y-71112720D01*
X166531846Y-71112724D01*
X166697358Y-71187455D01*
X166783583Y-71226387D01*
X166786805Y-71227341D01*
X166786812Y-71227344D01*
X167001263Y-71290867D01*
X167051652Y-71305793D01*
X167054977Y-71306302D01*
X167054978Y-71306302D01*
X167324684Y-71347573D01*
X167324687Y-71347573D01*
X167328018Y-71348083D01*
X167331389Y-71348136D01*
X167331390Y-71348136D01*
X167379571Y-71348893D01*
X167607566Y-71352474D01*
X167610903Y-71352070D01*
X167610907Y-71352070D01*
X167881779Y-71319291D01*
X167881784Y-71319290D01*
X167885123Y-71318886D01*
X168155554Y-71247940D01*
X168321590Y-71179165D01*
X168410746Y-71142236D01*
X168410749Y-71142235D01*
X168413855Y-71140948D01*
X168416760Y-71139251D01*
X168416763Y-71139249D01*
X168652329Y-71001595D01*
X168655245Y-70999891D01*
X168875258Y-70827379D01*
X169069823Y-70626603D01*
X169106526Y-70576639D01*
X169136843Y-70535366D01*
X169235340Y-70401280D01*
X169266864Y-70343221D01*
X169367136Y-70158541D01*
X169368745Y-70155578D01*
X169467570Y-69894044D01*
X169493761Y-69779689D01*
X169529234Y-69624808D01*
X169529235Y-69624801D01*
X169529987Y-69621518D01*
X169554840Y-69343043D01*
X169555291Y-69300000D01*
X169536275Y-69021065D01*
X169479579Y-68747292D01*
X169386253Y-68483746D01*
X169374542Y-68461056D01*
X169259573Y-68238308D01*
X169259570Y-68238302D01*
X169258022Y-68235304D01*
X169097261Y-68006563D01*
X169079512Y-67987462D01*
X168909238Y-67804226D01*
X168906944Y-67801757D01*
X168690591Y-67624675D01*
X168452208Y-67478594D01*
X168449126Y-67477241D01*
X168199288Y-67367569D01*
X168199284Y-67367567D01*
X168196205Y-67366216D01*
X168146917Y-67352176D01*
X167930571Y-67290548D01*
X167930566Y-67290547D01*
X167927319Y-67289622D01*
X167650526Y-67250229D01*
X167647159Y-67250211D01*
X167647154Y-67250211D01*
X167522187Y-67249557D01*
X167370947Y-67248765D01*
X167093757Y-67285257D01*
X167090506Y-67286146D01*
X167090503Y-67286147D01*
X166999615Y-67311012D01*
X166824083Y-67359032D01*
X166566917Y-67468722D01*
X166327018Y-67612299D01*
X166108823Y-67787106D01*
X165916371Y-67989908D01*
X165914406Y-67992643D01*
X165914404Y-67992645D01*
X165902421Y-68009322D01*
X165753223Y-68216952D01*
X165622398Y-68464038D01*
X165526317Y-68726592D01*
X165466757Y-68999757D01*
X165444822Y-69278477D01*
X100300500Y-69278477D01*
X100300500Y-64054288D01*
X102445404Y-64054288D01*
X102445861Y-64058236D01*
X102445861Y-64058241D01*
X102461680Y-64194961D01*
X102474081Y-64302140D01*
X102542017Y-64542219D01*
X102543695Y-64545818D01*
X102543696Y-64545820D01*
X102645780Y-64764742D01*
X102645783Y-64764747D01*
X102647462Y-64768348D01*
X102649697Y-64771637D01*
X102649700Y-64771642D01*
X102726285Y-64884332D01*
X102787706Y-64974710D01*
X102959138Y-65155994D01*
X103157349Y-65307538D01*
X103160852Y-65309416D01*
X103160853Y-65309417D01*
X103292646Y-65380084D01*
X103377239Y-65425443D01*
X103613152Y-65506674D01*
X103801500Y-65539207D01*
X103855942Y-65548611D01*
X103855944Y-65548611D01*
X103859017Y-65549142D01*
X103881989Y-65550185D01*
X103887818Y-65550450D01*
X103887824Y-65550450D01*
X103888922Y-65550500D01*
X104062691Y-65550500D01*
X104064665Y-65550341D01*
X104064669Y-65550341D01*
X104244742Y-65535853D01*
X104244747Y-65535852D01*
X104248702Y-65535534D01*
X104252562Y-65534586D01*
X104487140Y-65476968D01*
X104487145Y-65476966D01*
X104491006Y-65476018D01*
X104494667Y-65474464D01*
X104494670Y-65474463D01*
X104717014Y-65380084D01*
X104717016Y-65380083D01*
X104720677Y-65378529D01*
X104931808Y-65245573D01*
X104934788Y-65242946D01*
X104934793Y-65242942D01*
X105115982Y-65083202D01*
X105115983Y-65083201D01*
X105118965Y-65080572D01*
X105277334Y-64887770D01*
X105402840Y-64672128D01*
X105492255Y-64439195D01*
X105543278Y-64194961D01*
X105549666Y-64054288D01*
X179445404Y-64054288D01*
X179445861Y-64058236D01*
X179445861Y-64058241D01*
X179461680Y-64194961D01*
X179474081Y-64302140D01*
X179542017Y-64542219D01*
X179543695Y-64545818D01*
X179543696Y-64545820D01*
X179645780Y-64764742D01*
X179645783Y-64764747D01*
X179647462Y-64768348D01*
X179649697Y-64771637D01*
X179649700Y-64771642D01*
X179726285Y-64884332D01*
X179787706Y-64974710D01*
X179959138Y-65155994D01*
X180157349Y-65307538D01*
X180160852Y-65309416D01*
X180160853Y-65309417D01*
X180292646Y-65380084D01*
X180377239Y-65425443D01*
X180613152Y-65506674D01*
X180801500Y-65539207D01*
X180855942Y-65548611D01*
X180855944Y-65548611D01*
X180859017Y-65549142D01*
X180881989Y-65550185D01*
X180887818Y-65550450D01*
X180887824Y-65550450D01*
X180888922Y-65550500D01*
X181062691Y-65550500D01*
X181064665Y-65550341D01*
X181064669Y-65550341D01*
X181244742Y-65535853D01*
X181244747Y-65535852D01*
X181248702Y-65535534D01*
X181252562Y-65534586D01*
X181487140Y-65476968D01*
X181487145Y-65476966D01*
X181491006Y-65476018D01*
X181494667Y-65474464D01*
X181494670Y-65474463D01*
X181717014Y-65380084D01*
X181717016Y-65380083D01*
X181720677Y-65378529D01*
X181931808Y-65245573D01*
X181934788Y-65242946D01*
X181934793Y-65242942D01*
X182115982Y-65083202D01*
X182115983Y-65083201D01*
X182118965Y-65080572D01*
X182277334Y-64887770D01*
X182402840Y-64672128D01*
X182492255Y-64439195D01*
X182543278Y-64194961D01*
X182554596Y-63945712D01*
X182553939Y-63940029D01*
X182526376Y-63701807D01*
X182526375Y-63701803D01*
X182525919Y-63697860D01*
X182508807Y-63637386D01*
X182459065Y-63461604D01*
X182459064Y-63461602D01*
X182457983Y-63457781D01*
X182397406Y-63327872D01*
X182354220Y-63235258D01*
X182354217Y-63235253D01*
X182352538Y-63231652D01*
X182350303Y-63228363D01*
X182350300Y-63228358D01*
X182214530Y-63028580D01*
X182214529Y-63028579D01*
X182212294Y-63025290D01*
X182040862Y-62844006D01*
X181842651Y-62692462D01*
X181839147Y-62690583D01*
X181626260Y-62576433D01*
X181626258Y-62576432D01*
X181622761Y-62574557D01*
X181386848Y-62493326D01*
X181198500Y-62460793D01*
X181144058Y-62451389D01*
X181144056Y-62451389D01*
X181140983Y-62450858D01*
X181118011Y-62449815D01*
X181112182Y-62449550D01*
X181112176Y-62449550D01*
X181111078Y-62449500D01*
X180937309Y-62449500D01*
X180935335Y-62449659D01*
X180935331Y-62449659D01*
X180755258Y-62464147D01*
X180755253Y-62464148D01*
X180751298Y-62464466D01*
X180747439Y-62465414D01*
X180747438Y-62465414D01*
X180512860Y-62523032D01*
X180512855Y-62523034D01*
X180508994Y-62523982D01*
X180505333Y-62525536D01*
X180505330Y-62525537D01*
X180282986Y-62619916D01*
X180279323Y-62621471D01*
X180068192Y-62754427D01*
X180065212Y-62757054D01*
X180065207Y-62757058D01*
X179884018Y-62916798D01*
X179881035Y-62919428D01*
X179722666Y-63112230D01*
X179720665Y-63115668D01*
X179623231Y-63283078D01*
X179597160Y-63327872D01*
X179507745Y-63560805D01*
X179506933Y-63564692D01*
X179458288Y-63797545D01*
X179456722Y-63805039D01*
X179445404Y-64054288D01*
X105549666Y-64054288D01*
X105554596Y-63945712D01*
X105553939Y-63940029D01*
X105526376Y-63701807D01*
X105526375Y-63701803D01*
X105525919Y-63697860D01*
X105508807Y-63637386D01*
X105467286Y-63490657D01*
X135088000Y-63490657D01*
X135088289Y-63495991D01*
X135093971Y-63548298D01*
X135096822Y-63560287D01*
X135142443Y-63681982D01*
X135149143Y-63694219D01*
X135226581Y-63797545D01*
X135236455Y-63807419D01*
X135339781Y-63884857D01*
X135352018Y-63891557D01*
X135473713Y-63937178D01*
X135485702Y-63940029D01*
X135538009Y-63945711D01*
X135543343Y-63946000D01*
X136722320Y-63946000D01*
X136735005Y-63941878D01*
X136738000Y-63937757D01*
X136738000Y-63930320D01*
X137238000Y-63930320D01*
X137242122Y-63943005D01*
X137246243Y-63946000D01*
X138432657Y-63946000D01*
X138437991Y-63945711D01*
X138490298Y-63940029D01*
X138502287Y-63937178D01*
X138623982Y-63891557D01*
X138636219Y-63884857D01*
X138739545Y-63807419D01*
X138749419Y-63797545D01*
X138826857Y-63694219D01*
X138833557Y-63681982D01*
X138879178Y-63560287D01*
X138882029Y-63548298D01*
X138887711Y-63495991D01*
X138888000Y-63490657D01*
X138888000Y-62311680D01*
X138883878Y-62298995D01*
X138879757Y-62296000D01*
X137253680Y-62296000D01*
X137240995Y-62300122D01*
X137238000Y-62304243D01*
X137238000Y-63930320D01*
X136738000Y-63930320D01*
X136738000Y-62311680D01*
X136733878Y-62298995D01*
X136729757Y-62296000D01*
X135103680Y-62296000D01*
X135090995Y-62300122D01*
X135088000Y-62304243D01*
X135088000Y-63490657D01*
X105467286Y-63490657D01*
X105459065Y-63461604D01*
X105459064Y-63461602D01*
X105457983Y-63457781D01*
X105397406Y-63327872D01*
X105354220Y-63235258D01*
X105354217Y-63235253D01*
X105352538Y-63231652D01*
X105350303Y-63228363D01*
X105350300Y-63228358D01*
X105214530Y-63028580D01*
X105214529Y-63028579D01*
X105212294Y-63025290D01*
X105040862Y-62844006D01*
X104842651Y-62692462D01*
X104839147Y-62690583D01*
X104626260Y-62576433D01*
X104626258Y-62576432D01*
X104622761Y-62574557D01*
X104386848Y-62493326D01*
X104198500Y-62460793D01*
X104144058Y-62451389D01*
X104144056Y-62451389D01*
X104140983Y-62450858D01*
X104118011Y-62449815D01*
X104112182Y-62449550D01*
X104112176Y-62449550D01*
X104111078Y-62449500D01*
X103937309Y-62449500D01*
X103935335Y-62449659D01*
X103935331Y-62449659D01*
X103755258Y-62464147D01*
X103755253Y-62464148D01*
X103751298Y-62464466D01*
X103747439Y-62465414D01*
X103747438Y-62465414D01*
X103512860Y-62523032D01*
X103512855Y-62523034D01*
X103508994Y-62523982D01*
X103505333Y-62525536D01*
X103505330Y-62525537D01*
X103282986Y-62619916D01*
X103279323Y-62621471D01*
X103068192Y-62754427D01*
X103065212Y-62757054D01*
X103065207Y-62757058D01*
X102884018Y-62916798D01*
X102881035Y-62919428D01*
X102722666Y-63112230D01*
X102720665Y-63115668D01*
X102623231Y-63283078D01*
X102597160Y-63327872D01*
X102507745Y-63560805D01*
X102506933Y-63564692D01*
X102458288Y-63797545D01*
X102456722Y-63805039D01*
X102445404Y-64054288D01*
X100300500Y-64054288D01*
X100300500Y-64034953D01*
X100302004Y-64017761D01*
X100303632Y-64008528D01*
X100305136Y-64000000D01*
X100303441Y-63990387D01*
X100302055Y-63968334D01*
X100303153Y-63946000D01*
X100313107Y-63743382D01*
X100318076Y-63642236D01*
X100319029Y-63632568D01*
X100370871Y-63283078D01*
X100372766Y-63273549D01*
X100458617Y-62930812D01*
X100461437Y-62921515D01*
X100580470Y-62588842D01*
X100584188Y-62579866D01*
X100735254Y-62260462D01*
X100739834Y-62251894D01*
X100842231Y-62081054D01*
X100921481Y-61948834D01*
X100926873Y-61940765D01*
X101137355Y-61656964D01*
X101143518Y-61649454D01*
X101380792Y-61387662D01*
X101387662Y-61380792D01*
X101649454Y-61143518D01*
X101656964Y-61137355D01*
X101940765Y-60926873D01*
X101948834Y-60921481D01*
X102251894Y-60739834D01*
X102260462Y-60735254D01*
X102579866Y-60584188D01*
X102588842Y-60580470D01*
X102921515Y-60461437D01*
X102930812Y-60458617D01*
X103273549Y-60372766D01*
X103283078Y-60370871D01*
X103632568Y-60319029D01*
X103642236Y-60318076D01*
X103762103Y-60312187D01*
X103968338Y-60302055D01*
X103990387Y-60303441D01*
X103991470Y-60303632D01*
X103991471Y-60303632D01*
X104000000Y-60305136D01*
X104017764Y-60302004D01*
X104034953Y-60300500D01*
X135040658Y-60300500D01*
X135098849Y-60319407D01*
G37*
G04 #@! TD.AperFunction*
M02*
