%TF.GenerationSoftware,KiCad,Pcbnew,(6.0.9)*%
%TF.CreationDate,2023-01-30T19:39:37+02:00*%
%TF.ProjectId,Schematics,53636865-6d61-4746-9963-732e6b696361,rev?*%
%TF.SameCoordinates,Original*%
%TF.FileFunction,Copper,L1,Top*%
%TF.FilePolarity,Positive*%
%FSLAX46Y46*%
G04 Gerber Fmt 4.6, Leading zero omitted, Abs format (unit mm)*
G04 Created by KiCad (PCBNEW (6.0.9)) date 2023-01-30 19:39:37*
%MOMM*%
%LPD*%
G01*
G04 APERTURE LIST*
G04 Aperture macros list*
%AMRoundRect*
0 Rectangle with rounded corners*
0 $1 Rounding radius*
0 $2 $3 $4 $5 $6 $7 $8 $9 X,Y pos of 4 corners*
0 Add a 4 corners polygon primitive as box body*
4,1,4,$2,$3,$4,$5,$6,$7,$8,$9,$2,$3,0*
0 Add four circle primitives for the rounded corners*
1,1,$1+$1,$2,$3*
1,1,$1+$1,$4,$5*
1,1,$1+$1,$6,$7*
1,1,$1+$1,$8,$9*
0 Add four rect primitives between the rounded corners*
20,1,$1+$1,$2,$3,$4,$5,0*
20,1,$1+$1,$4,$5,$6,$7,0*
20,1,$1+$1,$6,$7,$8,$9,0*
20,1,$1+$1,$8,$9,$2,$3,0*%
G04 Aperture macros list end*
%ADD10C,0.300000*%
%TA.AperFunction,NonConductor*%
%ADD11C,0.300000*%
%TD*%
%TA.AperFunction,ComponentPad*%
%ADD12O,3.500000X3.500000*%
%TD*%
%TA.AperFunction,ComponentPad*%
%ADD13C,1.600000*%
%TD*%
%TA.AperFunction,SMDPad,CuDef*%
%ADD14RoundRect,0.150000X-0.150000X0.512500X-0.150000X-0.512500X0.150000X-0.512500X0.150000X0.512500X0*%
%TD*%
%TA.AperFunction,ComponentPad*%
%ADD15R,1.900000X1.900000*%
%TD*%
%TA.AperFunction,ComponentPad*%
%ADD16C,1.900000*%
%TD*%
%TA.AperFunction,ComponentPad*%
%ADD17R,2.000000X2.000000*%
%TD*%
%TA.AperFunction,ComponentPad*%
%ADD18O,2.000000X2.000000*%
%TD*%
%TA.AperFunction,ComponentPad*%
%ADD19C,1.400000*%
%TD*%
%TA.AperFunction,ComponentPad*%
%ADD20O,1.400000X1.400000*%
%TD*%
%TA.AperFunction,ComponentPad*%
%ADD21C,2.000000*%
%TD*%
%TA.AperFunction,ComponentPad*%
%ADD22R,2.800000X2.800000*%
%TD*%
%TA.AperFunction,ComponentPad*%
%ADD23R,2.200000X2.200000*%
%TD*%
%TA.AperFunction,ComponentPad*%
%ADD24O,2.200000X2.200000*%
%TD*%
%TA.AperFunction,ViaPad*%
%ADD25C,0.800000*%
%TD*%
%TA.AperFunction,Conductor*%
%ADD26C,0.500000*%
%TD*%
%TA.AperFunction,Conductor*%
%ADD27C,0.800000*%
%TD*%
%TA.AperFunction,Conductor*%
%ADD28C,1.000000*%
%TD*%
G04 APERTURE END LIST*
D10*
D11*
X109034562Y-67874571D02*
X109222062Y-66374571D01*
X109793491Y-66374571D01*
X109927419Y-66446000D01*
X109989919Y-66517428D01*
X110043491Y-66660285D01*
X110016705Y-66874571D01*
X109927419Y-67017428D01*
X109847062Y-67088857D01*
X109695276Y-67160285D01*
X109123848Y-67160285D01*
X111409562Y-67731714D02*
X111329205Y-67803142D01*
X111105991Y-67874571D01*
X110963133Y-67874571D01*
X110757776Y-67803142D01*
X110632776Y-67660285D01*
X110579205Y-67517428D01*
X110543491Y-67231714D01*
X110570276Y-67017428D01*
X110677419Y-66731714D01*
X110766705Y-66588857D01*
X110927419Y-66446000D01*
X111150633Y-66374571D01*
X111293491Y-66374571D01*
X111498848Y-66446000D01*
X111561348Y-66517428D01*
X112632776Y-67088857D02*
X112838133Y-67160285D01*
X112900633Y-67231714D01*
X112954205Y-67374571D01*
X112927419Y-67588857D01*
X112838133Y-67731714D01*
X112757776Y-67803142D01*
X112605991Y-67874571D01*
X112034562Y-67874571D01*
X112222062Y-66374571D01*
X112722062Y-66374571D01*
X112855991Y-66446000D01*
X112918491Y-66517428D01*
X112972062Y-66660285D01*
X112954205Y-66803142D01*
X112864919Y-66946000D01*
X112784562Y-67017428D01*
X112632776Y-67088857D01*
X112132776Y-67088857D01*
X114659562Y-66874571D02*
X114891705Y-67874571D01*
X115373848Y-66874571D01*
X116605991Y-67874571D02*
X115748848Y-67874571D01*
X116177419Y-67874571D02*
X116364919Y-66374571D01*
X116195276Y-66588857D01*
X116034562Y-66731714D01*
X115882776Y-66803142D01*
X117266705Y-67731714D02*
X117329205Y-67803142D01*
X117248848Y-67874571D01*
X117186348Y-67803142D01*
X117266705Y-67731714D01*
X117248848Y-67874571D01*
X118436348Y-66374571D02*
X118579205Y-66374571D01*
X118713133Y-66446000D01*
X118775633Y-66517428D01*
X118829205Y-66660285D01*
X118864919Y-66946000D01*
X118820276Y-67303142D01*
X118713133Y-67588857D01*
X118623848Y-67731714D01*
X118543491Y-67803142D01*
X118391705Y-67874571D01*
X118248848Y-67874571D01*
X118114919Y-67803142D01*
X118052419Y-67731714D01*
X117998848Y-67588857D01*
X117963133Y-67303142D01*
X118007776Y-66946000D01*
X118114919Y-66660285D01*
X118204205Y-66517428D01*
X118284562Y-66446000D01*
X118436348Y-66374571D01*
D10*
D11*
X109970276Y-64674571D02*
X109255991Y-64674571D01*
X109443491Y-63174571D01*
X110452419Y-63674571D02*
X110684562Y-64674571D01*
X111166705Y-63674571D02*
X110684562Y-64674571D01*
X110497062Y-65031714D01*
X110416705Y-65103142D01*
X110264919Y-65174571D01*
X112380991Y-63674571D02*
X112255991Y-64674571D01*
X111738133Y-63674571D02*
X111639919Y-64460285D01*
X111693491Y-64603142D01*
X111827419Y-64674571D01*
X112041705Y-64674571D01*
X112193491Y-64603142D01*
X112273848Y-64531714D01*
X112970276Y-64674571D02*
X113157776Y-63174571D01*
X113086348Y-63746000D02*
X113238133Y-63674571D01*
X113523848Y-63674571D01*
X113657776Y-63746000D01*
X113720276Y-63817428D01*
X113773848Y-63960285D01*
X113720276Y-64388857D01*
X113630991Y-64531714D01*
X113550633Y-64603142D01*
X113398848Y-64674571D01*
X113113133Y-64674571D01*
X112979205Y-64603142D01*
X114541705Y-64674571D02*
X114407776Y-64603142D01*
X114345276Y-64531714D01*
X114291705Y-64388857D01*
X114345276Y-63960285D01*
X114434562Y-63817428D01*
X114514919Y-63746000D01*
X114666705Y-63674571D01*
X114880991Y-63674571D01*
X115014919Y-63746000D01*
X115077419Y-63817428D01*
X115130991Y-63960285D01*
X115077419Y-64388857D01*
X114988133Y-64531714D01*
X114907776Y-64603142D01*
X114755991Y-64674571D01*
X114541705Y-64674571D01*
X115684562Y-64674571D02*
X115809562Y-63674571D01*
X115791705Y-63817428D02*
X115872062Y-63746000D01*
X116023848Y-63674571D01*
X116238133Y-63674571D01*
X116372062Y-63746000D01*
X116425633Y-63888857D01*
X116327419Y-64674571D01*
X116425633Y-63888857D02*
X116514919Y-63746000D01*
X116666705Y-63674571D01*
X116880991Y-63674571D01*
X117014919Y-63746000D01*
X117068491Y-63888857D01*
X116970276Y-64674571D01*
X117684562Y-64674571D02*
X117809562Y-63674571D01*
X117872062Y-63174571D02*
X117791705Y-63246000D01*
X117854205Y-63317428D01*
X117934562Y-63246000D01*
X117872062Y-63174571D01*
X117854205Y-63317428D01*
X118398848Y-64674571D02*
X118523848Y-63674571D01*
X118488133Y-63960285D02*
X118577419Y-63817428D01*
X118657776Y-63746000D01*
X118809562Y-63674571D01*
X118952419Y-63674571D01*
X120470276Y-64674571D02*
X120657776Y-63174571D01*
X121327419Y-64674571D01*
X121514919Y-63174571D01*
X122684562Y-64674571D02*
X122782776Y-63888857D01*
X122729205Y-63746000D01*
X122595276Y-63674571D01*
X122309562Y-63674571D01*
X122157776Y-63746000D01*
X122693491Y-64603142D02*
X122541705Y-64674571D01*
X122184562Y-64674571D01*
X122050633Y-64603142D01*
X121997062Y-64460285D01*
X122014919Y-64317428D01*
X122104205Y-64174571D01*
X122255991Y-64103142D01*
X122613133Y-64103142D01*
X122764919Y-64031714D01*
X124050633Y-64603142D02*
X123898848Y-64674571D01*
X123613133Y-64674571D01*
X123479205Y-64603142D01*
X123416705Y-64531714D01*
X123363133Y-64388857D01*
X123416705Y-63960285D01*
X123505991Y-63817428D01*
X123586348Y-63746000D01*
X123738133Y-63674571D01*
X124023848Y-63674571D01*
X124157776Y-63746000D01*
X124684562Y-64674571D02*
X124872062Y-63174571D01*
X125327419Y-64674571D02*
X125425633Y-63888857D01*
X125372062Y-63746000D01*
X125238133Y-63674571D01*
X125023848Y-63674571D01*
X124872062Y-63746000D01*
X124791705Y-63817428D01*
X126622062Y-64603142D02*
X126470276Y-64674571D01*
X126184562Y-64674571D01*
X126050633Y-64603142D01*
X125997062Y-64460285D01*
X126068491Y-63888857D01*
X126157776Y-63746000D01*
X126309562Y-63674571D01*
X126595276Y-63674571D01*
X126729205Y-63746000D01*
X126782776Y-63888857D01*
X126764919Y-64031714D01*
X126032776Y-64174571D01*
X127309562Y-63674571D02*
X127541705Y-64674571D01*
X128023848Y-63674571D01*
%TO.C,G\u002A\u002A\u002A*%
G36*
X107516946Y-90978510D02*
G01*
X106829643Y-90981361D01*
X106237874Y-90980438D01*
X105743666Y-90975774D01*
X105349046Y-90967401D01*
X105056043Y-90955354D01*
X104866683Y-90939664D01*
X104833740Y-90934834D01*
X104383520Y-90806832D01*
X103985110Y-90587721D01*
X103645302Y-90282662D01*
X103370889Y-89896816D01*
X103306312Y-89774220D01*
X103159624Y-89475523D01*
X103144534Y-86699059D01*
X103132622Y-84507113D01*
X103717573Y-84507113D01*
X103718093Y-86885042D01*
X103718612Y-89262971D01*
X103842886Y-89528661D01*
X103956374Y-89718832D01*
X104111500Y-89916181D01*
X104209287Y-90016631D01*
X104310410Y-90106619D01*
X104407291Y-90181539D01*
X104510389Y-90242770D01*
X104630164Y-90291691D01*
X104777074Y-90329682D01*
X104961578Y-90358121D01*
X105194136Y-90378388D01*
X105485207Y-90391863D01*
X105845250Y-90399923D01*
X106284723Y-90403948D01*
X106814086Y-90405318D01*
X107157890Y-90405440D01*
X109303603Y-90405440D01*
X109287052Y-89037134D01*
X109281391Y-88615333D01*
X109275067Y-88285378D01*
X109266922Y-88032840D01*
X109255799Y-87843290D01*
X109240539Y-87702299D01*
X109219986Y-87595438D01*
X109192981Y-87508278D01*
X109158367Y-87426391D01*
X109157705Y-87424957D01*
X108948560Y-87095152D01*
X108663139Y-86830588D01*
X108317004Y-86643024D01*
X108008473Y-86556600D01*
X107809205Y-86521544D01*
X107809205Y-87609487D01*
X107807849Y-88006659D01*
X107801836Y-88310103D01*
X107788247Y-88532352D01*
X107764162Y-88685943D01*
X107726662Y-88783407D01*
X107672829Y-88837280D01*
X107599744Y-88860095D01*
X107516946Y-88864435D01*
X107424420Y-88858606D01*
X107353737Y-88832759D01*
X107301975Y-88774356D01*
X107266211Y-88670859D01*
X107243523Y-88509729D01*
X107230990Y-88278428D01*
X107225689Y-87964419D01*
X107224686Y-87610396D01*
X107224686Y-86523361D01*
X106494038Y-86538145D01*
X105763389Y-86552929D01*
X105748975Y-87638176D01*
X105740606Y-88049204D01*
X105727734Y-88376994D01*
X105710763Y-88615162D01*
X105690094Y-88757323D01*
X105676046Y-88793929D01*
X105571372Y-88850449D01*
X105426618Y-88860299D01*
X105297631Y-88822552D01*
X105269205Y-88800670D01*
X105247879Y-88745006D01*
X105231293Y-88620483D01*
X105219104Y-88419369D01*
X105210968Y-88133932D01*
X105206542Y-87756438D01*
X105205440Y-87365942D01*
X105205440Y-85994979D01*
X111316318Y-85994979D01*
X111316022Y-83643620D01*
X111314659Y-83044032D01*
X111310826Y-82511768D01*
X111304664Y-82053402D01*
X111296317Y-81675513D01*
X111285926Y-81384677D01*
X111273635Y-81187470D01*
X111260757Y-81094334D01*
X111146258Y-80839156D01*
X110956091Y-80584711D01*
X110716193Y-80362887D01*
X110601468Y-80283775D01*
X110341961Y-80123222D01*
X107809205Y-80091284D01*
X107809205Y-81156730D01*
X107808567Y-81520871D01*
X107805739Y-81793855D01*
X107799349Y-81990797D01*
X107788027Y-82126812D01*
X107770401Y-82217016D01*
X107745102Y-82276524D01*
X107710757Y-82320453D01*
X107702929Y-82328452D01*
X107567669Y-82421190D01*
X107439280Y-82410448D01*
X107330963Y-82328452D01*
X107298398Y-82290742D01*
X107273253Y-82242042D01*
X107254572Y-82169223D01*
X107241400Y-82059155D01*
X107232782Y-81898711D01*
X107227763Y-81674760D01*
X107225389Y-81374174D01*
X107224705Y-80983823D01*
X107224686Y-80867155D01*
X107224686Y-79512134D01*
X108524576Y-79512134D01*
X108998445Y-79510028D01*
X109380199Y-79501731D01*
X109683948Y-79484279D01*
X109923804Y-79454705D01*
X110113880Y-79410044D01*
X110268286Y-79347331D01*
X110401134Y-79263599D01*
X110526535Y-79155884D01*
X110608182Y-79074253D01*
X110785321Y-78874089D01*
X110905325Y-78687700D01*
X110980227Y-78484020D01*
X111022059Y-78231981D01*
X111040543Y-77957846D01*
X111062988Y-77439749D01*
X113392798Y-77439749D01*
X113377466Y-75035251D01*
X113373722Y-74466989D01*
X113370058Y-73995030D01*
X113365972Y-73609403D01*
X113360959Y-73300137D01*
X113354518Y-73057261D01*
X113346144Y-72870804D01*
X113335335Y-72730795D01*
X113321587Y-72627263D01*
X113304399Y-72550236D01*
X113283265Y-72489743D01*
X113257685Y-72435814D01*
X113245113Y-72412012D01*
X113058238Y-72117446D01*
X112844890Y-71899872D01*
X112575795Y-71730044D01*
X112549339Y-71716837D01*
X112246234Y-71567992D01*
X109855021Y-71567992D01*
X109840607Y-72653239D01*
X109832238Y-73064267D01*
X109819366Y-73392057D01*
X109802394Y-73630225D01*
X109781726Y-73772386D01*
X109767678Y-73808992D01*
X109662723Y-73865715D01*
X109518613Y-73875133D01*
X109391357Y-73837244D01*
X109357845Y-73808992D01*
X109335147Y-73727671D01*
X109315903Y-73546501D01*
X109300516Y-73271868D01*
X109289390Y-72910156D01*
X109284916Y-72653239D01*
X109270502Y-71567992D01*
X108536674Y-71553187D01*
X107802845Y-71538382D01*
X107819310Y-72961346D01*
X107825513Y-73425926D01*
X107834420Y-73798119D01*
X107849370Y-74091814D01*
X107873702Y-74320900D01*
X107910754Y-74499263D01*
X107963865Y-74640792D01*
X108036374Y-74759376D01*
X108131618Y-74868902D01*
X108252937Y-74983259D01*
X108319556Y-75042311D01*
X108460455Y-75157262D01*
X108600948Y-75246599D01*
X108756719Y-75313459D01*
X108943453Y-75360979D01*
X109176835Y-75392297D01*
X109472550Y-75410551D01*
X109846282Y-75418879D01*
X110210063Y-75420502D01*
X111316318Y-75420502D01*
X111316318Y-74369564D01*
X111318511Y-73964154D01*
X111326917Y-73652864D01*
X111344275Y-73423592D01*
X111373327Y-73264240D01*
X111416811Y-73162707D01*
X111477469Y-73106894D01*
X111558039Y-73084699D01*
X111607795Y-73082427D01*
X111692937Y-73086363D01*
X111759773Y-73105807D01*
X111810515Y-73152216D01*
X111847373Y-73237045D01*
X111872560Y-73371751D01*
X111888288Y-73567789D01*
X111896769Y-73836614D01*
X111900214Y-74189684D01*
X111900837Y-74600226D01*
X111900837Y-75951020D01*
X105763389Y-75978452D01*
X105748605Y-76709101D01*
X105733821Y-77439749D01*
X107644832Y-77439749D01*
X108100797Y-77441118D01*
X108522922Y-77445019D01*
X108898793Y-77451151D01*
X109215996Y-77459206D01*
X109462120Y-77468883D01*
X109624751Y-77479875D01*
X109687601Y-77489843D01*
X109818497Y-77585874D01*
X109861522Y-77726460D01*
X109809540Y-77887045D01*
X109805065Y-77894025D01*
X109719726Y-78024268D01*
X105731784Y-78024268D01*
X105747586Y-80428766D01*
X105763389Y-82833264D01*
X105907394Y-83106280D01*
X106033920Y-83302315D01*
X106192874Y-83492270D01*
X106272272Y-83568354D01*
X106406392Y-83675625D01*
X106538249Y-83758984D01*
X106683415Y-83821389D01*
X106857461Y-83865795D01*
X107075961Y-83895161D01*
X107354485Y-83912445D01*
X107708607Y-83920603D01*
X108137500Y-83922594D01*
X109297071Y-83922594D01*
X109297071Y-82837060D01*
X109298183Y-82460839D01*
X109302182Y-82176890D01*
X109310070Y-81971224D01*
X109322844Y-81829855D01*
X109341504Y-81738793D01*
X109367050Y-81684052D01*
X109380574Y-81668022D01*
X109513014Y-81591513D01*
X109669326Y-81612942D01*
X109725669Y-81639527D01*
X109756613Y-81661032D01*
X109780644Y-81696666D01*
X109798631Y-81758809D01*
X109811446Y-81859839D01*
X109819960Y-82012135D01*
X109825042Y-82228075D01*
X109827564Y-82520037D01*
X109828397Y-82900401D01*
X109828452Y-83100824D01*
X109828452Y-84507113D01*
X103717573Y-84507113D01*
X103132622Y-84507113D01*
X103129445Y-83922594D01*
X105741926Y-83922594D01*
X105571705Y-83675187D01*
X105447473Y-83472794D01*
X105330291Y-83247305D01*
X105290178Y-83157091D01*
X105268691Y-83102394D01*
X105250120Y-83045060D01*
X105234215Y-82977224D01*
X105220728Y-82891020D01*
X105209410Y-82778584D01*
X105200012Y-82632051D01*
X105192286Y-82443555D01*
X105185982Y-82205231D01*
X105180853Y-81909213D01*
X105176649Y-81547638D01*
X105173121Y-81112640D01*
X105170021Y-80596353D01*
X105167100Y-79990913D01*
X105164110Y-79288454D01*
X105163555Y-79153452D01*
X105148239Y-75420502D01*
X107809028Y-75420502D01*
X107617112Y-75153369D01*
X107515085Y-75004727D01*
X107432348Y-74862858D01*
X107366902Y-74714735D01*
X107316744Y-74547333D01*
X107279873Y-74347628D01*
X107254288Y-74102594D01*
X107237987Y-73799205D01*
X107228969Y-73424436D01*
X107225232Y-72965262D01*
X107224686Y-72599450D01*
X107224686Y-70956904D01*
X109549477Y-70957306D01*
X110176638Y-70958191D01*
X110707705Y-70961134D01*
X111152854Y-70966910D01*
X111522262Y-70976300D01*
X111826101Y-70990080D01*
X112074550Y-71009029D01*
X112277781Y-71033925D01*
X112445972Y-71065546D01*
X112589297Y-71104671D01*
X112717931Y-71152077D01*
X112842051Y-71208542D01*
X112843401Y-71209203D01*
X113125099Y-71390648D01*
X113399635Y-71643885D01*
X113637398Y-71936828D01*
X113808779Y-72237391D01*
X113822587Y-72270234D01*
X113850268Y-72340429D01*
X113873546Y-72408578D01*
X113892860Y-72484228D01*
X113908651Y-72576926D01*
X113921359Y-72696218D01*
X113931423Y-72851649D01*
X113939283Y-73052768D01*
X113945379Y-73309119D01*
X113950152Y-73630250D01*
X113954040Y-74025706D01*
X113957485Y-74505035D01*
X113960925Y-75077782D01*
X113962197Y-75299899D01*
X113977741Y-78022183D01*
X111670971Y-78050837D01*
X111602236Y-78387959D01*
X111479408Y-78813020D01*
X111291804Y-79172769D01*
X111051662Y-79468235D01*
X110806394Y-79722696D01*
X111064288Y-79896390D01*
X111244207Y-80045856D01*
X111427751Y-80243474D01*
X111531333Y-80380981D01*
X111610399Y-80499604D01*
X111677296Y-80607788D01*
X111733041Y-80715231D01*
X111778651Y-80831634D01*
X111815142Y-80966695D01*
X111843532Y-81130114D01*
X111864838Y-81331591D01*
X111880076Y-81580824D01*
X111890263Y-81887514D01*
X111896415Y-82261360D01*
X111899551Y-82712060D01*
X111900686Y-83249316D01*
X111900837Y-83882825D01*
X111900837Y-86579498D01*
X109297248Y-86579498D01*
X109478084Y-86831904D01*
X109576746Y-86974974D01*
X109656562Y-87109336D01*
X109719518Y-87248082D01*
X109767600Y-87404303D01*
X109802795Y-87591093D01*
X109827090Y-87821543D01*
X109842470Y-88108745D01*
X109850923Y-88465791D01*
X109854434Y-88905774D01*
X109855021Y-89316109D01*
X109855021Y-90963389D01*
X109303603Y-90966955D01*
X107516946Y-90978510D01*
G37*
%TD*%
D12*
%TO.P,BT1,1,+*%
%TO.N,Net-(BT1-Pad1)*%
X167148000Y-69296000D03*
%TO.P,BT1,2,-*%
%TO.N,Net-(BT1-Pad2)*%
X167148000Y-140696000D03*
%TD*%
D13*
%TO.P,C2,1*%
%TO.N,+3V0*%
X124988000Y-88446000D03*
%TO.P,C2,2*%
%TO.N,GNDD*%
X129988000Y-88446000D03*
%TD*%
D14*
%TO.P,U4,1,VIN*%
%TO.N,VCC*%
X126238000Y-83108500D03*
%TO.P,U4,2,GND*%
%TO.N,GNDD*%
X125288000Y-83108500D03*
%TO.P,U4,3,STBY*%
%TO.N,VCC*%
X124338000Y-83108500D03*
%TO.P,U4,4,N.C.*%
%TO.N,unconnected-(U4-Pad4)*%
X124338000Y-85383500D03*
%TO.P,U4,5,VOUT*%
%TO.N,+3V0*%
X126238000Y-85383500D03*
%TD*%
D15*
%TO.P,U6,1,VCC*%
%TO.N,+3V0*%
X146043000Y-122138000D03*
D16*
%TO.P,U6,2,GND*%
%TO.N,GNDD*%
X146043000Y-124678000D03*
%TO.P,U6,3,SCL*%
%TO.N,/SCL*%
X146043000Y-127218000D03*
%TO.P,U6,4,SDA*%
%TO.N,/SDA*%
X146043000Y-129758000D03*
%TO.P,U6,5,SDO*%
%TO.N,unconnected-(U6-Pad5)*%
X146043000Y-132298000D03*
%TO.P,U6,6,CS*%
%TO.N,unconnected-(U6-Pad6)*%
X146043000Y-134838000D03*
%TO.P,U6,7,INT2*%
%TO.N,unconnected-(U6-Pad7)*%
X146043000Y-137378000D03*
%TO.P,U6,8,INT1*%
%TO.N,/INT1*%
X146043000Y-139918000D03*
%TO.P,U6,9,A1*%
%TO.N,unconnected-(U6-Pad9)*%
X146043000Y-142458000D03*
%TO.P,U6,10,A2*%
%TO.N,unconnected-(U6-Pad10)*%
X146043000Y-144998000D03*
%TO.P,U6,11,A3*%
%TO.N,unconnected-(U6-Pad11)*%
X146043000Y-147538000D03*
%TD*%
D17*
%TO.P,U2,1,ADDR*%
%TO.N,unconnected-(U2-Pad1)*%
X137750000Y-122435500D03*
D18*
%TO.P,U2,2,SDA*%
%TO.N,/SDA*%
X135210000Y-122435500D03*
%TO.P,U2,3,SCL*%
%TO.N,/SCL*%
X132670000Y-122435500D03*
%TO.P,U2,4,GND*%
%TO.N,GNDD*%
X130130000Y-122435500D03*
%TO.P,U2,5,VCC*%
%TO.N,+3V0*%
X127590000Y-122435500D03*
%TD*%
D19*
%TO.P,R2,1*%
%TO.N,/SCL*%
X151128000Y-118946000D03*
D20*
%TO.P,R2,2*%
%TO.N,+3V0*%
X146048000Y-118946000D03*
%TD*%
D19*
%TO.P,R4,1*%
%TO.N,GNDD*%
X137828000Y-94796000D03*
D20*
%TO.P,R4,2*%
%TO.N,Net-(R3-Pad2)*%
X132748000Y-94796000D03*
%TD*%
D19*
%TO.P,R3,1*%
%TO.N,VCC*%
X125348000Y-94796000D03*
D20*
%TO.P,R3,2*%
%TO.N,Net-(R3-Pad2)*%
X130428000Y-94796000D03*
%TD*%
D21*
%TO.P,U5,0.02,0.02*%
%TO.N,Net-(R3-Pad2)*%
X130433000Y-98380000D03*
%TO.P,U5,0.09,0.09*%
%TO.N,unconnected-(U5-Pad0.09)*%
X135513000Y-113620000D03*
%TO.P,U5,0.10,0.10*%
%TO.N,unconnected-(U5-Pad0.10)*%
X138053000Y-113620000D03*
%TO.P,U5,0.13,0.13*%
%TO.N,/SDA*%
X117733000Y-113620000D03*
%TO.P,U5,0.15,0.15*%
%TO.N,/SCL*%
X120273000Y-113620000D03*
%TO.P,U5,0.17,0.17*%
%TO.N,unconnected-(U5-Pad0.17)*%
X122813000Y-113620000D03*
%TO.P,U5,0.20,0.20*%
%TO.N,unconnected-(U5-Pad0.20)*%
X125353000Y-113620000D03*
%TO.P,U5,0.22,0.22*%
%TO.N,unconnected-(U5-Pad0.22)*%
X127893000Y-113620000D03*
%TO.P,U5,0.24,0.24*%
%TO.N,unconnected-(U5-Pad0.24)*%
X130433000Y-113620000D03*
%TO.P,U5,0.29,0.29*%
%TO.N,unconnected-(U5-Pad0.29)*%
X127893000Y-98380000D03*
%TO.P,U5,0.31,0.31*%
%TO.N,unconnected-(U5-Pad0.31)*%
X125353000Y-98380000D03*
%TO.P,U5,1.00,1.00*%
%TO.N,unconnected-(U5-Pad1.00)*%
X132973000Y-113620000D03*
%TO.P,U5,1.10,1.10*%
%TO.N,/INT1*%
X138053000Y-98380000D03*
%TO.P,U5,1.13,1.13*%
%TO.N,unconnected-(U5-Pad1.13)*%
X135513000Y-98380000D03*
%TO.P,U5,1.15,1.15*%
%TO.N,unconnected-(U5-Pad1.15)*%
X132973000Y-98380000D03*
%TO.P,U5,G1,GND*%
%TO.N,GNDD*%
X140593000Y-113620000D03*
%TO.P,U5,G2,GND*%
X140593000Y-98380000D03*
%TO.P,U5,G3,GND*%
X122813000Y-98380000D03*
%TO.P,U5,OUT,OUT*%
%TO.N,+3V0*%
X120273000Y-98380000D03*
%TO.P,U5,SWDCLK,SWDCLK*%
%TO.N,unconnected-(U5-PadSWDCLK)*%
X112653000Y-100440000D03*
%TO.P,U5,SWDIO,SWDIO*%
%TO.N,unconnected-(U5-PadSWDIO)*%
X112653000Y-111560000D03*
%TO.P,U5,VBUS,VBUS*%
%TO.N,VBUS*%
X117733000Y-98380000D03*
%TD*%
D17*
%TO.P,U3,1,2-6V*%
%TO.N,+3V0*%
X116618000Y-122396000D03*
D18*
%TO.P,U3,2,SDA*%
%TO.N,/SDA*%
X114078000Y-122396000D03*
%TO.P,U3,3,SCL*%
%TO.N,/SCL*%
X111538000Y-122396000D03*
%TO.P,U3,4,N/C*%
%TO.N,unconnected-(U3-Pad4)*%
X108998000Y-122396000D03*
%TO.P,U3,5,GND*%
%TO.N,GNDD*%
X106458000Y-122396000D03*
%TD*%
D22*
%TO.P,U1,1,IN+*%
%TO.N,Net-(D1-Pad1)*%
X151188000Y-62046000D03*
%TO.P,U1,2,IN-*%
%TO.N,GNDD*%
X136988000Y-62046000D03*
%TO.P,U1,3,OUT+*%
%TO.N,VCC*%
X151188000Y-84946000D03*
%TO.P,U1,4,B+*%
%TO.N,Net-(BT1-Pad1)*%
X147688000Y-84946000D03*
%TO.P,U1,5,B-*%
%TO.N,Net-(BT1-Pad2)*%
X140088000Y-84946000D03*
%TO.P,U1,6,OUT-*%
%TO.N,GNDD*%
X136688000Y-84946000D03*
%TD*%
D13*
%TO.P,C1,1*%
%TO.N,VCC*%
X129188000Y-85346000D03*
%TO.P,C1,2*%
%TO.N,GNDD*%
X129188000Y-80346000D03*
%TD*%
D19*
%TO.P,R1,1*%
%TO.N,+3V0*%
X146048000Y-116346000D03*
D20*
%TO.P,R1,2*%
%TO.N,/SDA*%
X151128000Y-116346000D03*
%TD*%
D23*
%TO.P,D1,1,K*%
%TO.N,Net-(D1-Pad1)*%
X117788000Y-83766000D03*
D24*
%TO.P,D1,2,A*%
%TO.N,VBUS*%
X117788000Y-93926000D03*
%TD*%
D25*
%TO.N,GNDD*%
X125288000Y-81546000D03*
%TO.N,+3V0*%
X128488000Y-118746000D03*
%TD*%
D26*
%TO.N,/SDA*%
X115020000Y-124768000D02*
X135210000Y-124768000D01*
X114078000Y-123826000D02*
X115020000Y-124768000D01*
X114078000Y-122396000D02*
X114078000Y-123826000D01*
D27*
%TO.N,VCC*%
X134858000Y-81086000D02*
X149938000Y-81086000D01*
X151188000Y-82336000D02*
X151188000Y-84946000D01*
X132198000Y-85346000D02*
X133498000Y-84046000D01*
D26*
X127398000Y-88446000D02*
X127398000Y-90546000D01*
D27*
X149938000Y-81086000D02*
X151188000Y-82336000D01*
D26*
X124888000Y-80446000D02*
X125688000Y-80446000D01*
X126238000Y-80996000D02*
X126238000Y-83108500D01*
D27*
X133498000Y-84046000D02*
X133498000Y-82446000D01*
D26*
X127398000Y-90546000D02*
X125348000Y-92596000D01*
X124338000Y-83108500D02*
X124338000Y-80996000D01*
X124338000Y-80996000D02*
X124888000Y-80446000D01*
X128460500Y-83108500D02*
X129188000Y-83836000D01*
D27*
X133498000Y-82446000D02*
X134858000Y-81086000D01*
D26*
X129188000Y-83836000D02*
X129188000Y-85346000D01*
X126238000Y-83108500D02*
X128460500Y-83108500D01*
X129188000Y-86656000D02*
X127398000Y-88446000D01*
X125348000Y-92596000D02*
X125348000Y-94796000D01*
D27*
X129188000Y-85346000D02*
X132198000Y-85346000D01*
D26*
X129188000Y-85346000D02*
X129188000Y-86656000D01*
X125688000Y-80446000D02*
X126238000Y-80996000D01*
%TO.N,GNDD*%
X125288000Y-83108500D02*
X125288000Y-81546000D01*
D27*
%TO.N,+3V0*%
X140198000Y-118746000D02*
X143590000Y-122138000D01*
X143590000Y-122138000D02*
X146043000Y-122138000D01*
X146048000Y-107896000D02*
X141898000Y-103746000D01*
X141898000Y-103746000D02*
X123428000Y-103746000D01*
X146048000Y-116346000D02*
X146048000Y-107896000D01*
X123428000Y-103746000D02*
X120273000Y-100591000D01*
X120273000Y-100591000D02*
X120273000Y-98380000D01*
X127590000Y-122435500D02*
X116657500Y-122435500D01*
X128488000Y-118746000D02*
X140198000Y-118746000D01*
X146048000Y-118946000D02*
X146048000Y-122133000D01*
D26*
X126238000Y-85383500D02*
X126238000Y-87196000D01*
D27*
X146048000Y-122133000D02*
X146043000Y-122138000D01*
D26*
X126238000Y-87196000D02*
X124988000Y-88446000D01*
D27*
X120273000Y-90771000D02*
X122598000Y-88446000D01*
X116657500Y-122435500D02*
X116618000Y-122396000D01*
X146048000Y-116346000D02*
X146048000Y-118946000D01*
X120273000Y-98380000D02*
X120273000Y-90771000D01*
X122598000Y-88446000D02*
X124988000Y-88446000D01*
%TO.N,Net-(D1-Pad1)*%
X122098000Y-69746000D02*
X145798000Y-69746000D01*
X145798000Y-69746000D02*
X151188000Y-64356000D01*
X151188000Y-64356000D02*
X151188000Y-62046000D01*
X117788000Y-83766000D02*
X117788000Y-74056000D01*
X117788000Y-74056000D02*
X122098000Y-69746000D01*
%TO.N,VBUS*%
X117733000Y-93981000D02*
X117788000Y-93926000D01*
X117733000Y-98380000D02*
X117733000Y-93981000D01*
D26*
%TO.N,/SDA*%
X146043000Y-129758000D02*
X148686000Y-129758000D01*
X135210000Y-122435500D02*
X135210000Y-124768000D01*
X114078000Y-122396000D02*
X114078000Y-120672000D01*
X137768000Y-124768000D02*
X142758000Y-129758000D01*
X135210000Y-124768000D02*
X137768000Y-124768000D01*
X142758000Y-129758000D02*
X146043000Y-129758000D01*
X153500000Y-124944000D02*
X153500000Y-117648000D01*
X148686000Y-129758000D02*
X153500000Y-124944000D01*
X117733000Y-117017000D02*
X117733000Y-113620000D01*
X153500000Y-117648000D02*
X152198000Y-116346000D01*
X114078000Y-120672000D02*
X117733000Y-117017000D01*
X152198000Y-116346000D02*
X151128000Y-116346000D01*
%TO.N,/SCL*%
X143770000Y-127218000D02*
X146043000Y-127218000D01*
X151128000Y-118946000D02*
X151128000Y-124216000D01*
X111538000Y-117006000D02*
X117098000Y-111446000D01*
X111538000Y-122396000D02*
X111538000Y-117006000D01*
X120273000Y-117023000D02*
X120273000Y-113620000D01*
X119598000Y-111446000D02*
X120273000Y-112121000D01*
X117098000Y-111446000D02*
X119598000Y-111446000D01*
X151128000Y-124216000D02*
X148126000Y-127218000D01*
X123396000Y-120146000D02*
X120273000Y-117023000D01*
X120273000Y-112121000D02*
X120273000Y-113620000D01*
X131498000Y-120146000D02*
X132854000Y-120146000D01*
X139398000Y-120146000D02*
X141898000Y-122646000D01*
X141898000Y-125346000D02*
X143770000Y-127218000D01*
X132670000Y-122435500D02*
X132670000Y-120330000D01*
X148126000Y-127218000D02*
X146043000Y-127218000D01*
X132670000Y-120330000D02*
X132854000Y-120146000D01*
X141898000Y-122646000D02*
X141898000Y-125346000D01*
X131498000Y-120146000D02*
X123396000Y-120146000D01*
X132854000Y-120146000D02*
X139398000Y-120146000D01*
%TO.N,Net-(R3-Pad2)*%
X132748000Y-94796000D02*
X130428000Y-94796000D01*
X130433000Y-98380000D02*
X130433000Y-94801000D01*
X130433000Y-94801000D02*
X130428000Y-94796000D01*
%TO.N,/INT1*%
X146296000Y-101546000D02*
X148500000Y-103750000D01*
X156000000Y-114000000D02*
X156000000Y-134844000D01*
X154500000Y-112500000D02*
X156000000Y-114000000D01*
X150500000Y-112500000D02*
X154500000Y-112500000D01*
X150926000Y-139918000D02*
X146043000Y-139918000D01*
X148500000Y-110500000D02*
X150500000Y-112500000D01*
X138053000Y-100701000D02*
X138898000Y-101546000D01*
X138898000Y-101546000D02*
X146296000Y-101546000D01*
X156000000Y-134844000D02*
X150926000Y-139918000D01*
X138053000Y-98380000D02*
X138053000Y-100701000D01*
X148500000Y-103750000D02*
X148500000Y-110500000D01*
D28*
%TO.N,Net-(BT1-Pad1)*%
X160748000Y-72696000D02*
X164148000Y-69296000D01*
X156698000Y-89646000D02*
X160748000Y-85596000D01*
X164148000Y-69296000D02*
X167148000Y-69296000D01*
X160748000Y-85596000D02*
X160748000Y-72696000D01*
X147688000Y-84946000D02*
X147688000Y-87256000D01*
X147688000Y-87256000D02*
X150078000Y-89646000D01*
X150078000Y-89646000D02*
X156698000Y-89646000D01*
%TO.N,Net-(BT1-Pad2)*%
X164248000Y-140696000D02*
X160698000Y-137146000D01*
X167148000Y-140696000D02*
X164248000Y-140696000D01*
X160698000Y-137146000D02*
X160698000Y-98746000D01*
X140088000Y-91136000D02*
X140088000Y-84946000D01*
X160698000Y-98746000D02*
X156598000Y-94646000D01*
X156598000Y-94646000D02*
X143598000Y-94646000D01*
X143598000Y-94646000D02*
X140088000Y-91136000D01*
%TD*%
M02*
