%TF.GenerationSoftware,KiCad,Pcbnew,(6.0.9)*%
%TF.CreationDate,2023-02-01T01:51:42+02:00*%
%TF.ProjectId,Schematics,53636865-6d61-4746-9963-732e6b696361,rev?*%
%TF.SameCoordinates,Original*%
%TF.FileFunction,Drillmap*%
%TF.FilePolarity,Positive*%
%FSLAX45Y45*%
G04 Gerber Fmt 4.5, Leading zero omitted, Abs format (unit mm)*
G04 Created by KiCad (PCBNEW (6.0.9)) date 2023-02-01 01:51:42*
%MOMM*%
%LPD*%
G01*
G04 APERTURE LIST*
%ADD10C,0.100000*%
%ADD11C,0.200000*%
%ADD12C,0.250000*%
%ADD13C,0.300000*%
G04 APERTURE END LIST*
D10*
X10400000Y-6000000D02*
G75*
G03*
X10000000Y-6400000I0J-400000D01*
G01*
X18500000Y-6400000D02*
G75*
G03*
X18100000Y-6000000I-400000J0D01*
G01*
X10000000Y-9300000D02*
G75*
G03*
X10200000Y-9500000I200000J0D01*
G01*
X18500000Y-6400000D02*
X18500000Y-14600000D01*
X11100000Y-9700000D02*
G75*
G03*
X10900000Y-9500000I-200000J0D01*
G01*
X10900000Y-11700000D02*
G75*
G03*
X11100000Y-11500000I0J200000D01*
G01*
X11100000Y-9700000D02*
X11100000Y-11500000D01*
X10000000Y-14600000D02*
X10000000Y-11900000D01*
X10200000Y-11700000D02*
X10900000Y-11700000D01*
X18100000Y-15000000D02*
G75*
G03*
X18500000Y-14600000I0J400000D01*
G01*
X10000000Y-6400000D02*
X10000000Y-9300000D01*
X10200000Y-9500000D02*
X10900000Y-9500000D01*
X10400000Y-6000000D02*
X18100000Y-6000000D01*
X10200000Y-11700000D02*
G75*
G03*
X10000000Y-11900000I0J-200000D01*
G01*
X18100000Y-15000000D02*
X10400000Y-15000000D01*
X10000000Y-14600000D02*
G75*
G03*
X10400000Y-15000000I400000J0D01*
G01*
D11*
D12*
X10275000Y-6275000D02*
X10525000Y-6525000D01*
X10525000Y-6275000D02*
X10275000Y-6525000D01*
X10275000Y-14475000D02*
X10525000Y-14725000D01*
X10525000Y-14475000D02*
X10275000Y-14725000D01*
X17975000Y-6275000D02*
X18225000Y-6525000D01*
X18225000Y-6275000D02*
X17975000Y-6525000D01*
X17975000Y-14475000D02*
X18225000Y-14725000D01*
X18225000Y-14475000D02*
X17975000Y-14725000D01*
D13*
X15400000Y-10600000D02*
G75*
G03*
X15400000Y-10600000I-150000J0D01*
G01*
D11*
X15100000Y-10400000D02*
X15100000Y-10800000D01*
X15400000Y-10400000D02*
X15400000Y-10800000D01*
X15100000Y-10800000D02*
G75*
G03*
X15400000Y-10800000I150000J0D01*
G01*
X15400000Y-10400000D02*
G75*
G03*
X15100000Y-10400000I-150000J0D01*
G01*
D13*
X16900000Y-7800000D02*
G75*
G03*
X16900000Y-7800000I-150000J0D01*
G01*
X16900000Y-13200000D02*
G75*
G03*
X16900000Y-13200000I-150000J0D01*
G01*
D11*
X10252619Y-15315476D02*
X10252619Y-15115476D01*
X10300238Y-15115476D01*
X10328810Y-15125000D01*
X10347857Y-15144048D01*
X10357381Y-15163095D01*
X10366905Y-15201190D01*
X10366905Y-15229762D01*
X10357381Y-15267857D01*
X10347857Y-15286905D01*
X10328810Y-15305952D01*
X10300238Y-15315476D01*
X10252619Y-15315476D01*
X10452619Y-15315476D02*
X10452619Y-15182143D01*
X10452619Y-15220238D02*
X10462143Y-15201190D01*
X10471667Y-15191667D01*
X10490714Y-15182143D01*
X10509762Y-15182143D01*
X10576429Y-15315476D02*
X10576429Y-15182143D01*
X10576429Y-15115476D02*
X10566905Y-15125000D01*
X10576429Y-15134524D01*
X10585952Y-15125000D01*
X10576429Y-15115476D01*
X10576429Y-15134524D01*
X10700238Y-15315476D02*
X10681190Y-15305952D01*
X10671667Y-15286905D01*
X10671667Y-15115476D01*
X10805000Y-15315476D02*
X10785952Y-15305952D01*
X10776429Y-15286905D01*
X10776429Y-15115476D01*
X11033571Y-15315476D02*
X11033571Y-15115476D01*
X11100238Y-15258333D01*
X11166905Y-15115476D01*
X11166905Y-15315476D01*
X11347857Y-15315476D02*
X11347857Y-15210714D01*
X11338333Y-15191667D01*
X11319286Y-15182143D01*
X11281190Y-15182143D01*
X11262143Y-15191667D01*
X11347857Y-15305952D02*
X11328809Y-15315476D01*
X11281190Y-15315476D01*
X11262143Y-15305952D01*
X11252619Y-15286905D01*
X11252619Y-15267857D01*
X11262143Y-15248809D01*
X11281190Y-15239286D01*
X11328809Y-15239286D01*
X11347857Y-15229762D01*
X11443095Y-15182143D02*
X11443095Y-15382143D01*
X11443095Y-15191667D02*
X11462143Y-15182143D01*
X11500238Y-15182143D01*
X11519286Y-15191667D01*
X11528809Y-15201190D01*
X11538333Y-15220238D01*
X11538333Y-15277381D01*
X11528809Y-15296428D01*
X11519286Y-15305952D01*
X11500238Y-15315476D01*
X11462143Y-15315476D01*
X11443095Y-15305952D01*
X11624048Y-15296428D02*
X11633571Y-15305952D01*
X11624048Y-15315476D01*
X11614524Y-15305952D01*
X11624048Y-15296428D01*
X11624048Y-15315476D01*
X11624048Y-15191667D02*
X11633571Y-15201190D01*
X11624048Y-15210714D01*
X11614524Y-15201190D01*
X11624048Y-15191667D01*
X11624048Y-15210714D01*
X9795000Y-15545000D02*
X9995000Y-15745000D01*
X9995000Y-15545000D02*
X9795000Y-15745000D01*
X10243095Y-15554524D02*
X10252619Y-15545000D01*
X10271667Y-15535476D01*
X10319286Y-15535476D01*
X10338333Y-15545000D01*
X10347857Y-15554524D01*
X10357381Y-15573571D01*
X10357381Y-15592619D01*
X10347857Y-15621190D01*
X10233571Y-15735476D01*
X10357381Y-15735476D01*
X10443095Y-15716428D02*
X10452619Y-15725952D01*
X10443095Y-15735476D01*
X10433571Y-15725952D01*
X10443095Y-15716428D01*
X10443095Y-15735476D01*
X10633571Y-15535476D02*
X10538333Y-15535476D01*
X10528810Y-15630714D01*
X10538333Y-15621190D01*
X10557381Y-15611667D01*
X10605000Y-15611667D01*
X10624048Y-15621190D01*
X10633571Y-15630714D01*
X10643095Y-15649762D01*
X10643095Y-15697381D01*
X10633571Y-15716428D01*
X10624048Y-15725952D01*
X10605000Y-15735476D01*
X10557381Y-15735476D01*
X10538333Y-15725952D01*
X10528810Y-15716428D01*
X10766905Y-15535476D02*
X10785952Y-15535476D01*
X10805000Y-15545000D01*
X10814524Y-15554524D01*
X10824048Y-15573571D01*
X10833571Y-15611667D01*
X10833571Y-15659286D01*
X10824048Y-15697381D01*
X10814524Y-15716428D01*
X10805000Y-15725952D01*
X10785952Y-15735476D01*
X10766905Y-15735476D01*
X10747857Y-15725952D01*
X10738333Y-15716428D01*
X10728810Y-15697381D01*
X10719286Y-15659286D01*
X10719286Y-15611667D01*
X10728810Y-15573571D01*
X10738333Y-15554524D01*
X10747857Y-15545000D01*
X10766905Y-15535476D01*
X10957381Y-15535476D02*
X10976429Y-15535476D01*
X10995476Y-15545000D01*
X11005000Y-15554524D01*
X11014524Y-15573571D01*
X11024048Y-15611667D01*
X11024048Y-15659286D01*
X11014524Y-15697381D01*
X11005000Y-15716428D01*
X10995476Y-15725952D01*
X10976429Y-15735476D01*
X10957381Y-15735476D01*
X10938333Y-15725952D01*
X10928810Y-15716428D01*
X10919286Y-15697381D01*
X10909762Y-15659286D01*
X10909762Y-15611667D01*
X10919286Y-15573571D01*
X10928810Y-15554524D01*
X10938333Y-15545000D01*
X10957381Y-15535476D01*
X11109762Y-15735476D02*
X11109762Y-15602143D01*
X11109762Y-15621190D02*
X11119286Y-15611667D01*
X11138333Y-15602143D01*
X11166905Y-15602143D01*
X11185952Y-15611667D01*
X11195476Y-15630714D01*
X11195476Y-15735476D01*
X11195476Y-15630714D02*
X11205000Y-15611667D01*
X11224048Y-15602143D01*
X11252619Y-15602143D01*
X11271667Y-15611667D01*
X11281190Y-15630714D01*
X11281190Y-15735476D01*
X11376428Y-15735476D02*
X11376428Y-15602143D01*
X11376428Y-15621190D02*
X11385952Y-15611667D01*
X11405000Y-15602143D01*
X11433571Y-15602143D01*
X11452619Y-15611667D01*
X11462143Y-15630714D01*
X11462143Y-15735476D01*
X11462143Y-15630714D02*
X11471667Y-15611667D01*
X11490714Y-15602143D01*
X11519286Y-15602143D01*
X11538333Y-15611667D01*
X11547857Y-15630714D01*
X11547857Y-15735476D01*
X11938333Y-15525952D02*
X11766905Y-15783095D01*
X12195476Y-15535476D02*
X12214524Y-15535476D01*
X12233571Y-15545000D01*
X12243095Y-15554524D01*
X12252619Y-15573571D01*
X12262143Y-15611667D01*
X12262143Y-15659286D01*
X12252619Y-15697381D01*
X12243095Y-15716428D01*
X12233571Y-15725952D01*
X12214524Y-15735476D01*
X12195476Y-15735476D01*
X12176428Y-15725952D01*
X12166905Y-15716428D01*
X12157381Y-15697381D01*
X12147857Y-15659286D01*
X12147857Y-15611667D01*
X12157381Y-15573571D01*
X12166905Y-15554524D01*
X12176428Y-15545000D01*
X12195476Y-15535476D01*
X12347857Y-15716428D02*
X12357381Y-15725952D01*
X12347857Y-15735476D01*
X12338333Y-15725952D01*
X12347857Y-15716428D01*
X12347857Y-15735476D01*
X12481190Y-15535476D02*
X12500238Y-15535476D01*
X12519286Y-15545000D01*
X12528809Y-15554524D01*
X12538333Y-15573571D01*
X12547857Y-15611667D01*
X12547857Y-15659286D01*
X12538333Y-15697381D01*
X12528809Y-15716428D01*
X12519286Y-15725952D01*
X12500238Y-15735476D01*
X12481190Y-15735476D01*
X12462143Y-15725952D01*
X12452619Y-15716428D01*
X12443095Y-15697381D01*
X12433571Y-15659286D01*
X12433571Y-15611667D01*
X12443095Y-15573571D01*
X12452619Y-15554524D01*
X12462143Y-15545000D01*
X12481190Y-15535476D01*
X12643095Y-15735476D02*
X12681190Y-15735476D01*
X12700238Y-15725952D01*
X12709762Y-15716428D01*
X12728809Y-15687857D01*
X12738333Y-15649762D01*
X12738333Y-15573571D01*
X12728809Y-15554524D01*
X12719286Y-15545000D01*
X12700238Y-15535476D01*
X12662143Y-15535476D01*
X12643095Y-15545000D01*
X12633571Y-15554524D01*
X12624048Y-15573571D01*
X12624048Y-15621190D01*
X12633571Y-15640238D01*
X12643095Y-15649762D01*
X12662143Y-15659286D01*
X12700238Y-15659286D01*
X12719286Y-15649762D01*
X12728809Y-15640238D01*
X12738333Y-15621190D01*
X12852619Y-15621190D02*
X12833571Y-15611667D01*
X12824048Y-15602143D01*
X12814524Y-15583095D01*
X12814524Y-15573571D01*
X12824048Y-15554524D01*
X12833571Y-15545000D01*
X12852619Y-15535476D01*
X12890714Y-15535476D01*
X12909762Y-15545000D01*
X12919286Y-15554524D01*
X12928809Y-15573571D01*
X12928809Y-15583095D01*
X12919286Y-15602143D01*
X12909762Y-15611667D01*
X12890714Y-15621190D01*
X12852619Y-15621190D01*
X12833571Y-15630714D01*
X12824048Y-15640238D01*
X12814524Y-15659286D01*
X12814524Y-15697381D01*
X12824048Y-15716428D01*
X12833571Y-15725952D01*
X12852619Y-15735476D01*
X12890714Y-15735476D01*
X12909762Y-15725952D01*
X12919286Y-15716428D01*
X12928809Y-15697381D01*
X12928809Y-15659286D01*
X12919286Y-15640238D01*
X12909762Y-15630714D01*
X12890714Y-15621190D01*
X13100238Y-15602143D02*
X13100238Y-15735476D01*
X13052619Y-15525952D02*
X13005000Y-15668809D01*
X13128809Y-15668809D01*
X13195476Y-15535476D02*
X13195476Y-15573571D01*
X13271667Y-15535476D02*
X13271667Y-15573571D01*
X13566905Y-15811667D02*
X13557381Y-15802143D01*
X13538333Y-15773571D01*
X13528809Y-15754524D01*
X13519286Y-15725952D01*
X13509762Y-15678333D01*
X13509762Y-15640238D01*
X13519286Y-15592619D01*
X13528809Y-15564048D01*
X13538333Y-15545000D01*
X13557381Y-15516428D01*
X13566905Y-15506905D01*
X13728809Y-15602143D02*
X13728809Y-15735476D01*
X13681190Y-15525952D02*
X13633571Y-15668809D01*
X13757381Y-15668809D01*
X13985952Y-15735476D02*
X13985952Y-15535476D01*
X14071667Y-15735476D02*
X14071667Y-15630714D01*
X14062143Y-15611667D01*
X14043095Y-15602143D01*
X14014524Y-15602143D01*
X13995476Y-15611667D01*
X13985952Y-15621190D01*
X14195476Y-15735476D02*
X14176428Y-15725952D01*
X14166905Y-15716428D01*
X14157381Y-15697381D01*
X14157381Y-15640238D01*
X14166905Y-15621190D01*
X14176428Y-15611667D01*
X14195476Y-15602143D01*
X14224048Y-15602143D01*
X14243095Y-15611667D01*
X14252619Y-15621190D01*
X14262143Y-15640238D01*
X14262143Y-15697381D01*
X14252619Y-15716428D01*
X14243095Y-15725952D01*
X14224048Y-15735476D01*
X14195476Y-15735476D01*
X14376428Y-15735476D02*
X14357381Y-15725952D01*
X14347857Y-15706905D01*
X14347857Y-15535476D01*
X14528809Y-15725952D02*
X14509762Y-15735476D01*
X14471667Y-15735476D01*
X14452619Y-15725952D01*
X14443095Y-15706905D01*
X14443095Y-15630714D01*
X14452619Y-15611667D01*
X14471667Y-15602143D01*
X14509762Y-15602143D01*
X14528809Y-15611667D01*
X14538333Y-15630714D01*
X14538333Y-15649762D01*
X14443095Y-15668809D01*
X14614524Y-15725952D02*
X14633571Y-15735476D01*
X14671667Y-15735476D01*
X14690714Y-15725952D01*
X14700238Y-15706905D01*
X14700238Y-15697381D01*
X14690714Y-15678333D01*
X14671667Y-15668809D01*
X14643095Y-15668809D01*
X14624048Y-15659286D01*
X14614524Y-15640238D01*
X14614524Y-15630714D01*
X14624048Y-15611667D01*
X14643095Y-15602143D01*
X14671667Y-15602143D01*
X14690714Y-15611667D01*
X14766905Y-15811667D02*
X14776428Y-15802143D01*
X14795476Y-15773571D01*
X14805000Y-15754524D01*
X14814524Y-15725952D01*
X14824048Y-15678333D01*
X14824048Y-15640238D01*
X14814524Y-15592619D01*
X14805000Y-15564048D01*
X14795476Y-15545000D01*
X14776428Y-15516428D01*
X14766905Y-15506905D01*
X15128809Y-15811667D02*
X15119286Y-15802143D01*
X15100238Y-15773571D01*
X15090714Y-15754524D01*
X15081190Y-15725952D01*
X15071667Y-15678333D01*
X15071667Y-15640238D01*
X15081190Y-15592619D01*
X15090714Y-15564048D01*
X15100238Y-15545000D01*
X15119286Y-15516428D01*
X15128809Y-15506905D01*
X15205000Y-15602143D02*
X15205000Y-15735476D01*
X15205000Y-15621190D02*
X15214524Y-15611667D01*
X15233571Y-15602143D01*
X15262143Y-15602143D01*
X15281190Y-15611667D01*
X15290714Y-15630714D01*
X15290714Y-15735476D01*
X15414524Y-15735476D02*
X15395476Y-15725952D01*
X15385952Y-15716428D01*
X15376428Y-15697381D01*
X15376428Y-15640238D01*
X15385952Y-15621190D01*
X15395476Y-15611667D01*
X15414524Y-15602143D01*
X15443095Y-15602143D01*
X15462143Y-15611667D01*
X15471667Y-15621190D01*
X15481190Y-15640238D01*
X15481190Y-15697381D01*
X15471667Y-15716428D01*
X15462143Y-15725952D01*
X15443095Y-15735476D01*
X15414524Y-15735476D01*
X15538333Y-15602143D02*
X15614524Y-15602143D01*
X15566905Y-15535476D02*
X15566905Y-15706905D01*
X15576428Y-15725952D01*
X15595476Y-15735476D01*
X15614524Y-15735476D01*
X15833571Y-15602143D02*
X15833571Y-15802143D01*
X15833571Y-15611667D02*
X15852619Y-15602143D01*
X15890714Y-15602143D01*
X15909762Y-15611667D01*
X15919286Y-15621190D01*
X15928809Y-15640238D01*
X15928809Y-15697381D01*
X15919286Y-15716428D01*
X15909762Y-15725952D01*
X15890714Y-15735476D01*
X15852619Y-15735476D01*
X15833571Y-15725952D01*
X16043095Y-15735476D02*
X16024048Y-15725952D01*
X16014524Y-15706905D01*
X16014524Y-15535476D01*
X16205000Y-15735476D02*
X16205000Y-15630714D01*
X16195476Y-15611667D01*
X16176428Y-15602143D01*
X16138333Y-15602143D01*
X16119286Y-15611667D01*
X16205000Y-15725952D02*
X16185952Y-15735476D01*
X16138333Y-15735476D01*
X16119286Y-15725952D01*
X16109762Y-15706905D01*
X16109762Y-15687857D01*
X16119286Y-15668809D01*
X16138333Y-15659286D01*
X16185952Y-15659286D01*
X16205000Y-15649762D01*
X16271667Y-15602143D02*
X16347857Y-15602143D01*
X16300238Y-15535476D02*
X16300238Y-15706905D01*
X16309762Y-15725952D01*
X16328809Y-15735476D01*
X16347857Y-15735476D01*
X16490714Y-15725952D02*
X16471667Y-15735476D01*
X16433571Y-15735476D01*
X16414524Y-15725952D01*
X16405000Y-15706905D01*
X16405000Y-15630714D01*
X16414524Y-15611667D01*
X16433571Y-15602143D01*
X16471667Y-15602143D01*
X16490714Y-15611667D01*
X16500238Y-15630714D01*
X16500238Y-15649762D01*
X16405000Y-15668809D01*
X16671667Y-15735476D02*
X16671667Y-15535476D01*
X16671667Y-15725952D02*
X16652619Y-15735476D01*
X16614524Y-15735476D01*
X16595476Y-15725952D01*
X16585952Y-15716428D01*
X16576428Y-15697381D01*
X16576428Y-15640238D01*
X16585952Y-15621190D01*
X16595476Y-15611667D01*
X16614524Y-15602143D01*
X16652619Y-15602143D01*
X16671667Y-15611667D01*
X16747857Y-15811667D02*
X16757381Y-15802143D01*
X16776428Y-15773571D01*
X16785952Y-15754524D01*
X16795476Y-15725952D01*
X16805000Y-15678333D01*
X16805000Y-15640238D01*
X16795476Y-15592619D01*
X16785952Y-15564048D01*
X16776428Y-15545000D01*
X16757381Y-15516428D01*
X16747857Y-15506905D01*
X9995000Y-15965000D02*
G75*
G03*
X9995000Y-15965000I-100000J0D01*
G01*
X10233571Y-15855476D02*
X10357381Y-15855476D01*
X10290714Y-15931667D01*
X10319286Y-15931667D01*
X10338333Y-15941190D01*
X10347857Y-15950714D01*
X10357381Y-15969762D01*
X10357381Y-16017381D01*
X10347857Y-16036428D01*
X10338333Y-16045952D01*
X10319286Y-16055476D01*
X10262143Y-16055476D01*
X10243095Y-16045952D01*
X10233571Y-16036428D01*
X10443095Y-16036428D02*
X10452619Y-16045952D01*
X10443095Y-16055476D01*
X10433571Y-16045952D01*
X10443095Y-16036428D01*
X10443095Y-16055476D01*
X10576429Y-15855476D02*
X10595476Y-15855476D01*
X10614524Y-15865000D01*
X10624048Y-15874524D01*
X10633571Y-15893571D01*
X10643095Y-15931667D01*
X10643095Y-15979286D01*
X10633571Y-16017381D01*
X10624048Y-16036428D01*
X10614524Y-16045952D01*
X10595476Y-16055476D01*
X10576429Y-16055476D01*
X10557381Y-16045952D01*
X10547857Y-16036428D01*
X10538333Y-16017381D01*
X10528810Y-15979286D01*
X10528810Y-15931667D01*
X10538333Y-15893571D01*
X10547857Y-15874524D01*
X10557381Y-15865000D01*
X10576429Y-15855476D01*
X10766905Y-15855476D02*
X10785952Y-15855476D01*
X10805000Y-15865000D01*
X10814524Y-15874524D01*
X10824048Y-15893571D01*
X10833571Y-15931667D01*
X10833571Y-15979286D01*
X10824048Y-16017381D01*
X10814524Y-16036428D01*
X10805000Y-16045952D01*
X10785952Y-16055476D01*
X10766905Y-16055476D01*
X10747857Y-16045952D01*
X10738333Y-16036428D01*
X10728810Y-16017381D01*
X10719286Y-15979286D01*
X10719286Y-15931667D01*
X10728810Y-15893571D01*
X10738333Y-15874524D01*
X10747857Y-15865000D01*
X10766905Y-15855476D01*
X10957381Y-15855476D02*
X10976429Y-15855476D01*
X10995476Y-15865000D01*
X11005000Y-15874524D01*
X11014524Y-15893571D01*
X11024048Y-15931667D01*
X11024048Y-15979286D01*
X11014524Y-16017381D01*
X11005000Y-16036428D01*
X10995476Y-16045952D01*
X10976429Y-16055476D01*
X10957381Y-16055476D01*
X10938333Y-16045952D01*
X10928810Y-16036428D01*
X10919286Y-16017381D01*
X10909762Y-15979286D01*
X10909762Y-15931667D01*
X10919286Y-15893571D01*
X10928810Y-15874524D01*
X10938333Y-15865000D01*
X10957381Y-15855476D01*
X11109762Y-16055476D02*
X11109762Y-15922143D01*
X11109762Y-15941190D02*
X11119286Y-15931667D01*
X11138333Y-15922143D01*
X11166905Y-15922143D01*
X11185952Y-15931667D01*
X11195476Y-15950714D01*
X11195476Y-16055476D01*
X11195476Y-15950714D02*
X11205000Y-15931667D01*
X11224048Y-15922143D01*
X11252619Y-15922143D01*
X11271667Y-15931667D01*
X11281190Y-15950714D01*
X11281190Y-16055476D01*
X11376428Y-16055476D02*
X11376428Y-15922143D01*
X11376428Y-15941190D02*
X11385952Y-15931667D01*
X11405000Y-15922143D01*
X11433571Y-15922143D01*
X11452619Y-15931667D01*
X11462143Y-15950714D01*
X11462143Y-16055476D01*
X11462143Y-15950714D02*
X11471667Y-15931667D01*
X11490714Y-15922143D01*
X11519286Y-15922143D01*
X11538333Y-15931667D01*
X11547857Y-15950714D01*
X11547857Y-16055476D01*
X11938333Y-15845952D02*
X11766905Y-16103095D01*
X12195476Y-15855476D02*
X12214524Y-15855476D01*
X12233571Y-15865000D01*
X12243095Y-15874524D01*
X12252619Y-15893571D01*
X12262143Y-15931667D01*
X12262143Y-15979286D01*
X12252619Y-16017381D01*
X12243095Y-16036428D01*
X12233571Y-16045952D01*
X12214524Y-16055476D01*
X12195476Y-16055476D01*
X12176428Y-16045952D01*
X12166905Y-16036428D01*
X12157381Y-16017381D01*
X12147857Y-15979286D01*
X12147857Y-15931667D01*
X12157381Y-15893571D01*
X12166905Y-15874524D01*
X12176428Y-15865000D01*
X12195476Y-15855476D01*
X12347857Y-16036428D02*
X12357381Y-16045952D01*
X12347857Y-16055476D01*
X12338333Y-16045952D01*
X12347857Y-16036428D01*
X12347857Y-16055476D01*
X12547857Y-16055476D02*
X12433571Y-16055476D01*
X12490714Y-16055476D02*
X12490714Y-15855476D01*
X12471667Y-15884048D01*
X12452619Y-15903095D01*
X12433571Y-15912619D01*
X12738333Y-16055476D02*
X12624048Y-16055476D01*
X12681190Y-16055476D02*
X12681190Y-15855476D01*
X12662143Y-15884048D01*
X12643095Y-15903095D01*
X12624048Y-15912619D01*
X12852619Y-15941190D02*
X12833571Y-15931667D01*
X12824048Y-15922143D01*
X12814524Y-15903095D01*
X12814524Y-15893571D01*
X12824048Y-15874524D01*
X12833571Y-15865000D01*
X12852619Y-15855476D01*
X12890714Y-15855476D01*
X12909762Y-15865000D01*
X12919286Y-15874524D01*
X12928809Y-15893571D01*
X12928809Y-15903095D01*
X12919286Y-15922143D01*
X12909762Y-15931667D01*
X12890714Y-15941190D01*
X12852619Y-15941190D01*
X12833571Y-15950714D01*
X12824048Y-15960238D01*
X12814524Y-15979286D01*
X12814524Y-16017381D01*
X12824048Y-16036428D01*
X12833571Y-16045952D01*
X12852619Y-16055476D01*
X12890714Y-16055476D01*
X12909762Y-16045952D01*
X12919286Y-16036428D01*
X12928809Y-16017381D01*
X12928809Y-15979286D01*
X12919286Y-15960238D01*
X12909762Y-15950714D01*
X12890714Y-15941190D01*
X13119286Y-16055476D02*
X13005000Y-16055476D01*
X13062143Y-16055476D02*
X13062143Y-15855476D01*
X13043095Y-15884048D01*
X13024048Y-15903095D01*
X13005000Y-15912619D01*
X13195476Y-15855476D02*
X13195476Y-15893571D01*
X13271667Y-15855476D02*
X13271667Y-15893571D01*
X13566905Y-16131667D02*
X13557381Y-16122143D01*
X13538333Y-16093571D01*
X13528809Y-16074524D01*
X13519286Y-16045952D01*
X13509762Y-15998333D01*
X13509762Y-15960238D01*
X13519286Y-15912619D01*
X13528809Y-15884048D01*
X13538333Y-15865000D01*
X13557381Y-15836428D01*
X13566905Y-15826905D01*
X13633571Y-15874524D02*
X13643095Y-15865000D01*
X13662143Y-15855476D01*
X13709762Y-15855476D01*
X13728809Y-15865000D01*
X13738333Y-15874524D01*
X13747857Y-15893571D01*
X13747857Y-15912619D01*
X13738333Y-15941190D01*
X13624048Y-16055476D01*
X13747857Y-16055476D01*
X13985952Y-16055476D02*
X13985952Y-15855476D01*
X14071667Y-16055476D02*
X14071667Y-15950714D01*
X14062143Y-15931667D01*
X14043095Y-15922143D01*
X14014524Y-15922143D01*
X13995476Y-15931667D01*
X13985952Y-15941190D01*
X14195476Y-16055476D02*
X14176428Y-16045952D01*
X14166905Y-16036428D01*
X14157381Y-16017381D01*
X14157381Y-15960238D01*
X14166905Y-15941190D01*
X14176428Y-15931667D01*
X14195476Y-15922143D01*
X14224048Y-15922143D01*
X14243095Y-15931667D01*
X14252619Y-15941190D01*
X14262143Y-15960238D01*
X14262143Y-16017381D01*
X14252619Y-16036428D01*
X14243095Y-16045952D01*
X14224048Y-16055476D01*
X14195476Y-16055476D01*
X14376428Y-16055476D02*
X14357381Y-16045952D01*
X14347857Y-16026905D01*
X14347857Y-15855476D01*
X14528809Y-16045952D02*
X14509762Y-16055476D01*
X14471667Y-16055476D01*
X14452619Y-16045952D01*
X14443095Y-16026905D01*
X14443095Y-15950714D01*
X14452619Y-15931667D01*
X14471667Y-15922143D01*
X14509762Y-15922143D01*
X14528809Y-15931667D01*
X14538333Y-15950714D01*
X14538333Y-15969762D01*
X14443095Y-15988809D01*
X14614524Y-16045952D02*
X14633571Y-16055476D01*
X14671667Y-16055476D01*
X14690714Y-16045952D01*
X14700238Y-16026905D01*
X14700238Y-16017381D01*
X14690714Y-15998333D01*
X14671667Y-15988809D01*
X14643095Y-15988809D01*
X14624048Y-15979286D01*
X14614524Y-15960238D01*
X14614524Y-15950714D01*
X14624048Y-15931667D01*
X14643095Y-15922143D01*
X14671667Y-15922143D01*
X14690714Y-15931667D01*
X14938333Y-15979286D02*
X15090714Y-15979286D01*
X15014524Y-16055476D02*
X15014524Y-15903095D01*
X15443095Y-16055476D02*
X15328809Y-16055476D01*
X15385952Y-16055476D02*
X15385952Y-15855476D01*
X15366905Y-15884048D01*
X15347857Y-15903095D01*
X15328809Y-15912619D01*
X15671667Y-16045952D02*
X15690714Y-16055476D01*
X15728809Y-16055476D01*
X15747857Y-16045952D01*
X15757381Y-16026905D01*
X15757381Y-16017381D01*
X15747857Y-15998333D01*
X15728809Y-15988809D01*
X15700238Y-15988809D01*
X15681190Y-15979286D01*
X15671667Y-15960238D01*
X15671667Y-15950714D01*
X15681190Y-15931667D01*
X15700238Y-15922143D01*
X15728809Y-15922143D01*
X15747857Y-15931667D01*
X15871667Y-16055476D02*
X15852619Y-16045952D01*
X15843095Y-16026905D01*
X15843095Y-15855476D01*
X15976428Y-16055476D02*
X15957381Y-16045952D01*
X15947857Y-16036428D01*
X15938333Y-16017381D01*
X15938333Y-15960238D01*
X15947857Y-15941190D01*
X15957381Y-15931667D01*
X15976428Y-15922143D01*
X16005000Y-15922143D01*
X16024048Y-15931667D01*
X16033571Y-15941190D01*
X16043095Y-15960238D01*
X16043095Y-16017381D01*
X16033571Y-16036428D01*
X16024048Y-16045952D01*
X16005000Y-16055476D01*
X15976428Y-16055476D01*
X16100238Y-15922143D02*
X16176428Y-15922143D01*
X16128809Y-15855476D02*
X16128809Y-16026905D01*
X16138333Y-16045952D01*
X16157381Y-16055476D01*
X16176428Y-16055476D01*
X16224048Y-16131667D02*
X16233571Y-16122143D01*
X16252619Y-16093571D01*
X16262143Y-16074524D01*
X16271667Y-16045952D01*
X16281190Y-15998333D01*
X16281190Y-15960238D01*
X16271667Y-15912619D01*
X16262143Y-15884048D01*
X16252619Y-15865000D01*
X16233571Y-15836428D01*
X16224048Y-15826905D01*
X16585952Y-16131667D02*
X16576428Y-16122143D01*
X16557381Y-16093571D01*
X16547857Y-16074524D01*
X16538333Y-16045952D01*
X16528809Y-15998333D01*
X16528809Y-15960238D01*
X16538333Y-15912619D01*
X16547857Y-15884048D01*
X16557381Y-15865000D01*
X16576428Y-15836428D01*
X16585952Y-15826905D01*
X16662143Y-15922143D02*
X16662143Y-16055476D01*
X16662143Y-15941190D02*
X16671667Y-15931667D01*
X16690714Y-15922143D01*
X16719286Y-15922143D01*
X16738333Y-15931667D01*
X16747857Y-15950714D01*
X16747857Y-16055476D01*
X16871667Y-16055476D02*
X16852619Y-16045952D01*
X16843095Y-16036428D01*
X16833571Y-16017381D01*
X16833571Y-15960238D01*
X16843095Y-15941190D01*
X16852619Y-15931667D01*
X16871667Y-15922143D01*
X16900238Y-15922143D01*
X16919286Y-15931667D01*
X16928810Y-15941190D01*
X16938333Y-15960238D01*
X16938333Y-16017381D01*
X16928810Y-16036428D01*
X16919286Y-16045952D01*
X16900238Y-16055476D01*
X16871667Y-16055476D01*
X16995476Y-15922143D02*
X17071667Y-15922143D01*
X17024048Y-15855476D02*
X17024048Y-16026905D01*
X17033571Y-16045952D01*
X17052619Y-16055476D01*
X17071667Y-16055476D01*
X17290714Y-15922143D02*
X17290714Y-16122143D01*
X17290714Y-15931667D02*
X17309762Y-15922143D01*
X17347857Y-15922143D01*
X17366905Y-15931667D01*
X17376429Y-15941190D01*
X17385952Y-15960238D01*
X17385952Y-16017381D01*
X17376429Y-16036428D01*
X17366905Y-16045952D01*
X17347857Y-16055476D01*
X17309762Y-16055476D01*
X17290714Y-16045952D01*
X17500238Y-16055476D02*
X17481190Y-16045952D01*
X17471667Y-16026905D01*
X17471667Y-15855476D01*
X17662143Y-16055476D02*
X17662143Y-15950714D01*
X17652619Y-15931667D01*
X17633571Y-15922143D01*
X17595476Y-15922143D01*
X17576429Y-15931667D01*
X17662143Y-16045952D02*
X17643095Y-16055476D01*
X17595476Y-16055476D01*
X17576429Y-16045952D01*
X17566905Y-16026905D01*
X17566905Y-16007857D01*
X17576429Y-15988809D01*
X17595476Y-15979286D01*
X17643095Y-15979286D01*
X17662143Y-15969762D01*
X17728810Y-15922143D02*
X17805000Y-15922143D01*
X17757381Y-15855476D02*
X17757381Y-16026905D01*
X17766905Y-16045952D01*
X17785952Y-16055476D01*
X17805000Y-16055476D01*
X17947857Y-16045952D02*
X17928810Y-16055476D01*
X17890714Y-16055476D01*
X17871667Y-16045952D01*
X17862143Y-16026905D01*
X17862143Y-15950714D01*
X17871667Y-15931667D01*
X17890714Y-15922143D01*
X17928810Y-15922143D01*
X17947857Y-15931667D01*
X17957381Y-15950714D01*
X17957381Y-15969762D01*
X17862143Y-15988809D01*
X18128810Y-16055476D02*
X18128810Y-15855476D01*
X18128810Y-16045952D02*
X18109762Y-16055476D01*
X18071667Y-16055476D01*
X18052619Y-16045952D01*
X18043095Y-16036428D01*
X18033571Y-16017381D01*
X18033571Y-15960238D01*
X18043095Y-15941190D01*
X18052619Y-15931667D01*
X18071667Y-15922143D01*
X18109762Y-15922143D01*
X18128810Y-15931667D01*
X18205000Y-16131667D02*
X18214524Y-16122143D01*
X18233571Y-16093571D01*
X18243095Y-16074524D01*
X18252619Y-16045952D01*
X18262143Y-15998333D01*
X18262143Y-15960238D01*
X18252619Y-15912619D01*
X18243095Y-15884048D01*
X18233571Y-15865000D01*
X18214524Y-15836428D01*
X18205000Y-15826905D01*
M02*
