%TF.GenerationSoftware,KiCad,Pcbnew,(6.0.9)*%
%TF.CreationDate,2023-01-30T19:39:37+02:00*%
%TF.ProjectId,Schematics,53636865-6d61-4746-9963-732e6b696361,rev?*%
%TF.SameCoordinates,Original*%
%TF.FileFunction,Legend,Top*%
%TF.FilePolarity,Positive*%
%FSLAX46Y46*%
G04 Gerber Fmt 4.6, Leading zero omitted, Abs format (unit mm)*
G04 Created by KiCad (PCBNEW (6.0.9)) date 2023-01-30 19:39:37*
%MOMM*%
%LPD*%
G01*
G04 APERTURE LIST*
G04 Aperture macros list*
%AMRoundRect*
0 Rectangle with rounded corners*
0 $1 Rounding radius*
0 $2 $3 $4 $5 $6 $7 $8 $9 X,Y pos of 4 corners*
0 Add a 4 corners polygon primitive as box body*
4,1,4,$2,$3,$4,$5,$6,$7,$8,$9,$2,$3,0*
0 Add four circle primitives for the rounded corners*
1,1,$1+$1,$2,$3*
1,1,$1+$1,$4,$5*
1,1,$1+$1,$6,$7*
1,1,$1+$1,$8,$9*
0 Add four rect primitives between the rounded corners*
20,1,$1+$1,$2,$3,$4,$5,0*
20,1,$1+$1,$4,$5,$6,$7,0*
20,1,$1+$1,$6,$7,$8,$9,0*
20,1,$1+$1,$8,$9,$2,$3,0*%
G04 Aperture macros list end*
%ADD10C,0.200000*%
%ADD11C,0.150000*%
%ADD12C,0.120000*%
%ADD13C,0.127000*%
%ADD14O,3.500000X3.500000*%
%ADD15C,2.500000*%
%ADD16C,1.600000*%
%ADD17RoundRect,0.150000X-0.150000X0.512500X-0.150000X-0.512500X0.150000X-0.512500X0.150000X0.512500X0*%
%ADD18R,1.900000X1.900000*%
%ADD19C,1.900000*%
%ADD20R,2.000000X2.000000*%
%ADD21O,2.000000X2.000000*%
%ADD22C,1.400000*%
%ADD23O,1.400000X1.400000*%
%ADD24C,2.000000*%
%ADD25R,2.800000X2.800000*%
%ADD26R,2.200000X2.200000*%
%ADD27O,2.200000X2.200000*%
G04 APERTURE END LIST*
D10*
X174452380Y-78619047D02*
X175166666Y-78619047D01*
X175309523Y-78666666D01*
X175404761Y-78761904D01*
X175452380Y-78904761D01*
X175452380Y-79000000D01*
X175452380Y-77666666D02*
X175452380Y-78142857D01*
X174452380Y-78142857D01*
X175357142Y-76761904D02*
X175404761Y-76809523D01*
X175452380Y-76952380D01*
X175452380Y-77047619D01*
X175404761Y-77190476D01*
X175309523Y-77285714D01*
X175214285Y-77333333D01*
X175023809Y-77380952D01*
X174880952Y-77380952D01*
X174690476Y-77333333D01*
X174595238Y-77285714D01*
X174500000Y-77190476D01*
X174452380Y-77047619D01*
X174452380Y-76952380D01*
X174500000Y-76809523D01*
X174547619Y-76761904D01*
X174452380Y-76047619D02*
X175166666Y-76047619D01*
X175309523Y-76095238D01*
X175404761Y-76190476D01*
X175452380Y-76333333D01*
X175452380Y-76428571D01*
X175452380Y-75095238D02*
X175452380Y-75571428D01*
X174452380Y-75571428D01*
X175357142Y-74190476D02*
X175404761Y-74238095D01*
X175452380Y-74380952D01*
X175452380Y-74476190D01*
X175404761Y-74619047D01*
X175309523Y-74714285D01*
X175214285Y-74761904D01*
X175023809Y-74809523D01*
X174880952Y-74809523D01*
X174690476Y-74761904D01*
X174595238Y-74714285D01*
X174500000Y-74619047D01*
X174452380Y-74476190D01*
X174452380Y-74380952D01*
X174500000Y-74238095D01*
X174547619Y-74190476D01*
X174452380Y-73476190D02*
X175166666Y-73476190D01*
X175309523Y-73523809D01*
X175404761Y-73619047D01*
X175452380Y-73761904D01*
X175452380Y-73857142D01*
X175452380Y-72523809D02*
X175452380Y-73000000D01*
X174452380Y-73000000D01*
X175357142Y-71619047D02*
X175404761Y-71666666D01*
X175452380Y-71809523D01*
X175452380Y-71904761D01*
X175404761Y-72047619D01*
X175309523Y-72142857D01*
X175214285Y-72190476D01*
X175023809Y-72238095D01*
X174880952Y-72238095D01*
X174690476Y-72190476D01*
X174595238Y-72142857D01*
X174500000Y-72047619D01*
X174452380Y-71904761D01*
X174452380Y-71809523D01*
X174500000Y-71666666D01*
X174547619Y-71619047D01*
X174452380Y-70904761D02*
X175166666Y-70904761D01*
X175309523Y-70952380D01*
X175404761Y-71047619D01*
X175452380Y-71190476D01*
X175452380Y-71285714D01*
X175452380Y-69952380D02*
X175452380Y-70428571D01*
X174452380Y-70428571D01*
X175357142Y-69047619D02*
X175404761Y-69095238D01*
X175452380Y-69238095D01*
X175452380Y-69333333D01*
X175404761Y-69476190D01*
X175309523Y-69571428D01*
X175214285Y-69619047D01*
X175023809Y-69666666D01*
X174880952Y-69666666D01*
X174690476Y-69619047D01*
X174595238Y-69571428D01*
X174500000Y-69476190D01*
X174452380Y-69333333D01*
X174452380Y-69238095D01*
X174500000Y-69095238D01*
X174547619Y-69047619D01*
D11*
%TO.C,BT1*%
X157062285Y-66374571D02*
X157205142Y-66422190D01*
X157252761Y-66469809D01*
X157300380Y-66565047D01*
X157300380Y-66707904D01*
X157252761Y-66803142D01*
X157205142Y-66850761D01*
X157109904Y-66898380D01*
X156728952Y-66898380D01*
X156728952Y-65898380D01*
X157062285Y-65898380D01*
X157157523Y-65946000D01*
X157205142Y-65993619D01*
X157252761Y-66088857D01*
X157252761Y-66184095D01*
X157205142Y-66279333D01*
X157157523Y-66326952D01*
X157062285Y-66374571D01*
X156728952Y-66374571D01*
X157586095Y-65898380D02*
X158157523Y-65898380D01*
X157871809Y-66898380D02*
X157871809Y-65898380D01*
X159014666Y-66898380D02*
X158443238Y-66898380D01*
X158728952Y-66898380D02*
X158728952Y-65898380D01*
X158633714Y-66041238D01*
X158538476Y-66136476D01*
X158443238Y-66184095D01*
X180833714Y-68253142D02*
X180833714Y-70538857D01*
X179690857Y-69396000D02*
X181976571Y-69396000D01*
X180783714Y-138253142D02*
X180783714Y-140538857D01*
%TO.C,C2*%
X122321333Y-88703142D02*
X122273714Y-88750761D01*
X122130857Y-88798380D01*
X122035619Y-88798380D01*
X121892761Y-88750761D01*
X121797523Y-88655523D01*
X121749904Y-88560285D01*
X121702285Y-88369809D01*
X121702285Y-88226952D01*
X121749904Y-88036476D01*
X121797523Y-87941238D01*
X121892761Y-87846000D01*
X122035619Y-87798380D01*
X122130857Y-87798380D01*
X122273714Y-87846000D01*
X122321333Y-87893619D01*
X122702285Y-87893619D02*
X122749904Y-87846000D01*
X122845142Y-87798380D01*
X123083238Y-87798380D01*
X123178476Y-87846000D01*
X123226095Y-87893619D01*
X123273714Y-87988857D01*
X123273714Y-88084095D01*
X123226095Y-88226952D01*
X122654666Y-88798380D01*
X123273714Y-88798380D01*
%TO.C,U4*%
X121526095Y-82098380D02*
X121526095Y-82907904D01*
X121573714Y-83003142D01*
X121621333Y-83050761D01*
X121716571Y-83098380D01*
X121907047Y-83098380D01*
X122002285Y-83050761D01*
X122049904Y-83003142D01*
X122097523Y-82907904D01*
X122097523Y-82098380D01*
X123002285Y-82431714D02*
X123002285Y-83098380D01*
X122764190Y-82050761D02*
X122526095Y-82765047D01*
X123145142Y-82765047D01*
%TO.C,U6*%
X142526095Y-120698380D02*
X142526095Y-121507904D01*
X142573714Y-121603142D01*
X142621333Y-121650761D01*
X142716571Y-121698380D01*
X142907047Y-121698380D01*
X143002285Y-121650761D01*
X143049904Y-121603142D01*
X143097523Y-121507904D01*
X143097523Y-120698380D01*
X144002285Y-120698380D02*
X143811809Y-120698380D01*
X143716571Y-120746000D01*
X143668952Y-120793619D01*
X143573714Y-120936476D01*
X143526095Y-121126952D01*
X143526095Y-121507904D01*
X143573714Y-121603142D01*
X143621333Y-121650761D01*
X143716571Y-121698380D01*
X143907047Y-121698380D01*
X144002285Y-121650761D01*
X144049904Y-121603142D01*
X144097523Y-121507904D01*
X144097523Y-121269809D01*
X144049904Y-121174571D01*
X144002285Y-121126952D01*
X143907047Y-121079333D01*
X143716571Y-121079333D01*
X143621333Y-121126952D01*
X143573714Y-121174571D01*
X143526095Y-121269809D01*
%TO.C,U2*%
X125676095Y-118798380D02*
X125676095Y-119607904D01*
X125723714Y-119703142D01*
X125771333Y-119750761D01*
X125866571Y-119798380D01*
X126057047Y-119798380D01*
X126152285Y-119750761D01*
X126199904Y-119703142D01*
X126247523Y-119607904D01*
X126247523Y-118798380D01*
X126676095Y-118893619D02*
X126723714Y-118846000D01*
X126818952Y-118798380D01*
X127057047Y-118798380D01*
X127152285Y-118846000D01*
X127199904Y-118893619D01*
X127247523Y-118988857D01*
X127247523Y-119084095D01*
X127199904Y-119226952D01*
X126628476Y-119798380D01*
X127247523Y-119798380D01*
%TO.C,R2*%
X143521333Y-119498380D02*
X143188000Y-119022190D01*
X142949904Y-119498380D02*
X142949904Y-118498380D01*
X143330857Y-118498380D01*
X143426095Y-118546000D01*
X143473714Y-118593619D01*
X143521333Y-118688857D01*
X143521333Y-118831714D01*
X143473714Y-118926952D01*
X143426095Y-118974571D01*
X143330857Y-119022190D01*
X142949904Y-119022190D01*
X143902285Y-118593619D02*
X143949904Y-118546000D01*
X144045142Y-118498380D01*
X144283238Y-118498380D01*
X144378476Y-118546000D01*
X144426095Y-118593619D01*
X144473714Y-118688857D01*
X144473714Y-118784095D01*
X144426095Y-118926952D01*
X143854666Y-119498380D01*
X144473714Y-119498380D01*
%TO.C,R4*%
X134821333Y-93198380D02*
X134488000Y-92722190D01*
X134249904Y-93198380D02*
X134249904Y-92198380D01*
X134630857Y-92198380D01*
X134726095Y-92246000D01*
X134773714Y-92293619D01*
X134821333Y-92388857D01*
X134821333Y-92531714D01*
X134773714Y-92626952D01*
X134726095Y-92674571D01*
X134630857Y-92722190D01*
X134249904Y-92722190D01*
X135678476Y-92531714D02*
X135678476Y-93198380D01*
X135440380Y-92150761D02*
X135202285Y-92865047D01*
X135821333Y-92865047D01*
%TO.C,R3*%
X127521333Y-93398380D02*
X127188000Y-92922190D01*
X126949904Y-93398380D02*
X126949904Y-92398380D01*
X127330857Y-92398380D01*
X127426095Y-92446000D01*
X127473714Y-92493619D01*
X127521333Y-92588857D01*
X127521333Y-92731714D01*
X127473714Y-92826952D01*
X127426095Y-92874571D01*
X127330857Y-92922190D01*
X126949904Y-92922190D01*
X127854666Y-92398380D02*
X128473714Y-92398380D01*
X128140380Y-92779333D01*
X128283238Y-92779333D01*
X128378476Y-92826952D01*
X128426095Y-92874571D01*
X128473714Y-92969809D01*
X128473714Y-93207904D01*
X128426095Y-93303142D01*
X128378476Y-93350761D01*
X128283238Y-93398380D01*
X127997523Y-93398380D01*
X127902285Y-93350761D01*
X127854666Y-93303142D01*
%TO.C,U5*%
X112226095Y-97198380D02*
X112226095Y-98007904D01*
X112273714Y-98103142D01*
X112321333Y-98150761D01*
X112416571Y-98198380D01*
X112607047Y-98198380D01*
X112702285Y-98150761D01*
X112749904Y-98103142D01*
X112797523Y-98007904D01*
X112797523Y-97198380D01*
X113749904Y-97198380D02*
X113273714Y-97198380D01*
X113226095Y-97674571D01*
X113273714Y-97626952D01*
X113368952Y-97579333D01*
X113607047Y-97579333D01*
X113702285Y-97626952D01*
X113749904Y-97674571D01*
X113797523Y-97769809D01*
X113797523Y-98007904D01*
X113749904Y-98103142D01*
X113702285Y-98150761D01*
X113607047Y-98198380D01*
X113368952Y-98198380D01*
X113273714Y-98150761D01*
X113226095Y-98103142D01*
%TO.C,U3*%
X102126095Y-119248380D02*
X102126095Y-120057904D01*
X102173714Y-120153142D01*
X102221333Y-120200761D01*
X102316571Y-120248380D01*
X102507047Y-120248380D01*
X102602285Y-120200761D01*
X102649904Y-120153142D01*
X102697523Y-120057904D01*
X102697523Y-119248380D01*
X103078476Y-119248380D02*
X103697523Y-119248380D01*
X103364190Y-119629333D01*
X103507047Y-119629333D01*
X103602285Y-119676952D01*
X103649904Y-119724571D01*
X103697523Y-119819809D01*
X103697523Y-120057904D01*
X103649904Y-120153142D01*
X103602285Y-120200761D01*
X103507047Y-120248380D01*
X103221333Y-120248380D01*
X103126095Y-120200761D01*
X103078476Y-120153142D01*
%TO.C,U1*%
X133036095Y-61198380D02*
X133036095Y-62007904D01*
X133083714Y-62103142D01*
X133131333Y-62150761D01*
X133226571Y-62198380D01*
X133417047Y-62198380D01*
X133512285Y-62150761D01*
X133559904Y-62103142D01*
X133607523Y-62007904D01*
X133607523Y-61198380D01*
X134607523Y-62198380D02*
X134036095Y-62198380D01*
X134321809Y-62198380D02*
X134321809Y-61198380D01*
X134226571Y-61341238D01*
X134131333Y-61436476D01*
X134036095Y-61484095D01*
X142526095Y-61398380D02*
X142526095Y-62207904D01*
X142573714Y-62303142D01*
X142621333Y-62350761D01*
X142716571Y-62398380D01*
X142907047Y-62398380D01*
X143002285Y-62350761D01*
X143049904Y-62303142D01*
X143097523Y-62207904D01*
X143097523Y-61398380D01*
X143526095Y-62350761D02*
X143668952Y-62398380D01*
X143907047Y-62398380D01*
X144002285Y-62350761D01*
X144049904Y-62303142D01*
X144097523Y-62207904D01*
X144097523Y-62112666D01*
X144049904Y-62017428D01*
X144002285Y-61969809D01*
X143907047Y-61922190D01*
X143716571Y-61874571D01*
X143621333Y-61826952D01*
X143573714Y-61779333D01*
X143526095Y-61684095D01*
X143526095Y-61588857D01*
X143573714Y-61493619D01*
X143621333Y-61446000D01*
X143716571Y-61398380D01*
X143954666Y-61398380D01*
X144097523Y-61446000D01*
X144859428Y-61874571D02*
X145002285Y-61922190D01*
X145049904Y-61969809D01*
X145097523Y-62065047D01*
X145097523Y-62207904D01*
X145049904Y-62303142D01*
X145002285Y-62350761D01*
X144907047Y-62398380D01*
X144526095Y-62398380D01*
X144526095Y-61398380D01*
X144859428Y-61398380D01*
X144954666Y-61446000D01*
X145002285Y-61493619D01*
X145049904Y-61588857D01*
X145049904Y-61684095D01*
X145002285Y-61779333D01*
X144954666Y-61826952D01*
X144859428Y-61874571D01*
X144526095Y-61874571D01*
%TO.C,C1*%
X129021333Y-78631142D02*
X128973714Y-78678761D01*
X128830857Y-78726380D01*
X128735619Y-78726380D01*
X128592761Y-78678761D01*
X128497523Y-78583523D01*
X128449904Y-78488285D01*
X128402285Y-78297809D01*
X128402285Y-78154952D01*
X128449904Y-77964476D01*
X128497523Y-77869238D01*
X128592761Y-77774000D01*
X128735619Y-77726380D01*
X128830857Y-77726380D01*
X128973714Y-77774000D01*
X129021333Y-77821619D01*
X129973714Y-78726380D02*
X129402285Y-78726380D01*
X129688000Y-78726380D02*
X129688000Y-77726380D01*
X129592761Y-77869238D01*
X129497523Y-77964476D01*
X129402285Y-78012095D01*
%TO.C,R1*%
X143821333Y-116598380D02*
X143488000Y-116122190D01*
X143249904Y-116598380D02*
X143249904Y-115598380D01*
X143630857Y-115598380D01*
X143726095Y-115646000D01*
X143773714Y-115693619D01*
X143821333Y-115788857D01*
X143821333Y-115931714D01*
X143773714Y-116026952D01*
X143726095Y-116074571D01*
X143630857Y-116122190D01*
X143249904Y-116122190D01*
X144773714Y-116598380D02*
X144202285Y-116598380D01*
X144488000Y-116598380D02*
X144488000Y-115598380D01*
X144392761Y-115741238D01*
X144297523Y-115836476D01*
X144202285Y-115884095D01*
%TO.C,D1*%
X114309904Y-89438380D02*
X114309904Y-88438380D01*
X114548000Y-88438380D01*
X114690857Y-88486000D01*
X114786095Y-88581238D01*
X114833714Y-88676476D01*
X114881333Y-88866952D01*
X114881333Y-89009809D01*
X114833714Y-89200285D01*
X114786095Y-89295523D01*
X114690857Y-89390761D01*
X114548000Y-89438380D01*
X114309904Y-89438380D01*
X115833714Y-89438380D02*
X115262285Y-89438380D01*
X115548000Y-89438380D02*
X115548000Y-88438380D01*
X115452761Y-88581238D01*
X115357523Y-88676476D01*
X115262285Y-88724095D01*
X115366095Y-84298380D02*
X115366095Y-83298380D01*
X115937523Y-84298380D02*
X115508952Y-83726952D01*
X115937523Y-83298380D02*
X115366095Y-83869809D01*
D12*
%TO.C,BT1*%
X177648000Y-67246000D02*
X177648000Y-142746000D01*
X156648000Y-67246000D02*
X177648000Y-67246000D01*
X156648000Y-67246000D02*
X156648000Y-142746000D01*
X156648000Y-142746000D02*
X177648000Y-142746000D01*
%TO.C,C2*%
X124818000Y-86725000D02*
X130158000Y-86725000D01*
X124818000Y-89501000D02*
X124818000Y-90167000D01*
X124818000Y-86725000D02*
X124818000Y-87391000D01*
X130158000Y-89501000D02*
X130158000Y-90167000D01*
X124818000Y-90167000D02*
X130158000Y-90167000D01*
X130158000Y-86725000D02*
X130158000Y-87391000D01*
%TO.C,U4*%
X126848000Y-84246000D02*
X126848000Y-82446000D01*
X123728000Y-84246000D02*
X123728000Y-83446000D01*
X126848000Y-84246000D02*
X126848000Y-85046000D01*
X123728000Y-84246000D02*
X123728000Y-85046000D01*
%TO.C,U6*%
X144593000Y-148741000D02*
X153293000Y-148741000D01*
X144593000Y-120741000D02*
X144593000Y-148741000D01*
X153293000Y-120741000D02*
X153293000Y-148741000D01*
X153293000Y-120741000D02*
X144593000Y-120741000D01*
%TO.C,U2*%
X125743000Y-139385500D02*
X125743000Y-120716500D01*
X139643000Y-139385500D02*
X139643000Y-120716500D01*
X139643000Y-139385500D02*
X125743000Y-139385500D01*
X139643000Y-120716500D02*
X125743000Y-120716500D01*
%TO.C,R2*%
X150508000Y-119866000D02*
X146668000Y-119866000D01*
X150508000Y-118026000D02*
X146668000Y-118026000D01*
%TO.C,R4*%
X137208000Y-93876000D02*
X133368000Y-93876000D01*
X137208000Y-95716000D02*
X133368000Y-95716000D01*
%TO.C,R3*%
X125968000Y-95716000D02*
X129808000Y-95716000D01*
X125968000Y-93876000D02*
X129808000Y-93876000D01*
D13*
%TO.C,U5*%
X146308000Y-98380000D02*
X141938000Y-98380000D01*
D12*
X116303000Y-113620000D02*
X114652000Y-111969000D01*
D13*
X146308000Y-113620000D02*
X146308000Y-98380000D01*
D12*
X116303000Y-98380000D02*
X114652000Y-100031000D01*
D13*
X141938000Y-113620000D02*
X146308000Y-113620000D01*
D12*
%TO.C,U3*%
X121038000Y-121146000D02*
X102038000Y-121146000D01*
X121038000Y-140146000D02*
X102038000Y-140146000D01*
X121038000Y-140146000D02*
X121038000Y-121146000D01*
X102038000Y-140146000D02*
X102038000Y-121146000D01*
D11*
%TO.C,U1*%
X137488000Y-88746000D02*
X137188000Y-88746000D01*
X150388000Y-86446000D02*
X137488000Y-86446000D01*
X141888000Y-63246000D02*
X141888000Y-60746000D01*
X145688000Y-60746000D02*
X145688000Y-63246000D01*
X135088000Y-88746000D02*
X135088000Y-60346000D01*
X152888000Y-86646000D02*
X152888000Y-88746000D01*
X152888000Y-60346000D02*
X152888000Y-86646000D01*
X152888000Y-88746000D02*
X150388000Y-88746000D01*
X150388000Y-88746000D02*
X150388000Y-86446000D01*
X137188000Y-88746000D02*
X135088000Y-88746000D01*
X145688000Y-63246000D02*
X141888000Y-63246000D01*
X137488000Y-86446000D02*
X137488000Y-86746000D01*
X135088000Y-60346000D02*
X152888000Y-60346000D01*
X137488000Y-86646000D02*
X137488000Y-88746000D01*
X141888000Y-60746000D02*
X145588000Y-60746000D01*
D12*
%TO.C,C1*%
X130909000Y-85516000D02*
X130909000Y-80176000D01*
X127467000Y-80176000D02*
X128133000Y-80176000D01*
X127467000Y-85516000D02*
X127467000Y-80176000D01*
X127467000Y-85516000D02*
X128133000Y-85516000D01*
X130243000Y-80176000D02*
X130909000Y-80176000D01*
X130243000Y-85516000D02*
X130909000Y-85516000D01*
%TO.C,R1*%
X146668000Y-117266000D02*
X150508000Y-117266000D01*
X146668000Y-115426000D02*
X150508000Y-115426000D01*
%TO.C,D1*%
X117788000Y-85106000D02*
X117788000Y-86126000D01*
X116318000Y-91566000D02*
X119258000Y-91566000D01*
X119258000Y-86906000D02*
X116318000Y-86906000D01*
X119258000Y-86126000D02*
X116318000Y-86126000D01*
X119258000Y-87146000D02*
X116318000Y-87146000D01*
X119258000Y-87026000D02*
X116318000Y-87026000D01*
X116318000Y-86126000D02*
X116318000Y-91566000D01*
X117788000Y-92586000D02*
X117788000Y-91566000D01*
X119258000Y-91566000D02*
X119258000Y-86126000D01*
%TD*%
%LPC*%
D14*
%TO.C,BT1*%
X167148000Y-69296000D03*
X167148000Y-140696000D03*
%TD*%
D15*
%TO.C,H4*%
X104000000Y-146000000D03*
%TD*%
%TO.C,H1*%
X104000000Y-64000000D03*
%TD*%
D16*
%TO.C,C2*%
X124988000Y-88446000D03*
X129988000Y-88446000D03*
%TD*%
D17*
%TO.C,U4*%
X126238000Y-83108500D03*
X125288000Y-83108500D03*
X124338000Y-83108500D03*
X124338000Y-85383500D03*
X126238000Y-85383500D03*
%TD*%
D18*
%TO.C,U6*%
X146043000Y-122138000D03*
D19*
X146043000Y-124678000D03*
X146043000Y-127218000D03*
X146043000Y-129758000D03*
X146043000Y-132298000D03*
X146043000Y-134838000D03*
X146043000Y-137378000D03*
X146043000Y-139918000D03*
X146043000Y-142458000D03*
X146043000Y-144998000D03*
X146043000Y-147538000D03*
%TD*%
D20*
%TO.C,U2*%
X137750000Y-122435500D03*
D21*
X135210000Y-122435500D03*
X132670000Y-122435500D03*
X130130000Y-122435500D03*
X127590000Y-122435500D03*
%TD*%
D15*
%TO.C,H3*%
X181000000Y-146000000D03*
%TD*%
D22*
%TO.C,R2*%
X151128000Y-118946000D03*
D23*
X146048000Y-118946000D03*
%TD*%
D15*
%TO.C,H2*%
X181000000Y-64000000D03*
%TD*%
D22*
%TO.C,R4*%
X137828000Y-94796000D03*
D23*
X132748000Y-94796000D03*
%TD*%
D22*
%TO.C,R3*%
X125348000Y-94796000D03*
D23*
X130428000Y-94796000D03*
%TD*%
D24*
%TO.C,U5*%
X130433000Y-98380000D03*
X135513000Y-113620000D03*
X138053000Y-113620000D03*
X117733000Y-113620000D03*
X120273000Y-113620000D03*
X122813000Y-113620000D03*
X125353000Y-113620000D03*
X127893000Y-113620000D03*
X130433000Y-113620000D03*
X127893000Y-98380000D03*
X125353000Y-98380000D03*
X132973000Y-113620000D03*
X138053000Y-98380000D03*
X135513000Y-98380000D03*
X132973000Y-98380000D03*
X140593000Y-113620000D03*
X140593000Y-98380000D03*
X122813000Y-98380000D03*
X120273000Y-98380000D03*
X112653000Y-100440000D03*
X112653000Y-111560000D03*
X117733000Y-98380000D03*
%TD*%
D20*
%TO.C,U3*%
X116618000Y-122396000D03*
D21*
X114078000Y-122396000D03*
X111538000Y-122396000D03*
X108998000Y-122396000D03*
X106458000Y-122396000D03*
%TD*%
D25*
%TO.C,U1*%
X151188000Y-62046000D03*
X136988000Y-62046000D03*
X151188000Y-84946000D03*
X147688000Y-84946000D03*
X140088000Y-84946000D03*
X136688000Y-84946000D03*
%TD*%
D16*
%TO.C,C1*%
X129188000Y-85346000D03*
X129188000Y-80346000D03*
%TD*%
D22*
%TO.C,R1*%
X146048000Y-116346000D03*
D23*
X151128000Y-116346000D03*
%TD*%
D26*
%TO.C,D1*%
X117788000Y-83766000D03*
D27*
X117788000Y-93926000D03*
%TD*%
M02*
