M48
; DRILL file {KiCad (6.0.9)} date Fri Jan 27 22:09:56 2023
; FORMAT={-:-/ absolute / metric / decimal}
; #@! TF.CreationDate,2023-01-27T22:09:56+02:00
; #@! TF.GenerationSoftware,Kicad,Pcbnew,(6.0.9)
; #@! TF.FileFunction,Plated,1,2,PTH
FMAT,2
METRIC
; #@! TA.AperFunction,Plated,PTH,ViaDrill
T1C0.400
; #@! TA.AperFunction,Plated,PTH,ComponentDrill
T2C0.700
; #@! TA.AperFunction,Plated,PTH,ComponentDrill
T3C0.800
; #@! TA.AperFunction,Plated,PTH,ComponentDrill
T4C1.000
; #@! TA.AperFunction,Plated,PTH,ComponentDrill
T5C1.100
; #@! TA.AperFunction,Plated,PTH,ComponentDrill
T6C1.500
; #@! TA.AperFunction,Plated,PTH,ComponentDrill
T7C1.540
%
G90
G05
T1
X125.19Y-81.4
X128.39Y-118.6
T2
X125.25Y-94.65
X130.33Y-94.65
X132.65Y-94.65
X137.73Y-94.65
X145.95Y-116.2
X145.95Y-118.8
X151.03Y-116.2
X151.03Y-118.8
T3
X124.89Y-88.3
X129.09Y-80.2
X129.09Y-85.2
X129.89Y-88.3
T4
X106.36Y-122.25
X108.9Y-122.25
X111.44Y-122.25
X112.555Y-100.294
X112.555Y-111.414
X113.98Y-122.25
X116.52Y-122.25
X117.635Y-98.234
X117.635Y-113.474
X120.175Y-98.234
X120.175Y-113.474
X122.715Y-98.234
X122.715Y-113.474
X125.255Y-98.234
X125.255Y-113.474
X127.492Y-122.289
X127.795Y-98.234
X127.795Y-113.474
X130.032Y-122.289
X130.335Y-98.234
X130.335Y-113.474
X132.572Y-122.289
X132.875Y-98.234
X132.875Y-113.474
X135.112Y-122.289
X135.415Y-98.234
X135.415Y-113.474
X137.652Y-122.289
X137.955Y-98.234
X137.955Y-113.474
X140.495Y-98.234
X140.495Y-113.474
X145.945Y-121.992
X145.945Y-124.532
X145.945Y-127.072
X145.945Y-129.612
X145.945Y-132.152
X145.945Y-134.692
X145.945Y-137.232
X145.945Y-139.772
X145.945Y-142.312
X145.945Y-144.852
X145.945Y-147.392
T5
X117.69Y-83.62
X117.69Y-93.78
T6
X167.05Y-69.15
X167.05Y-140.55
T7
X136.59Y-84.8
X136.89Y-61.9
X139.99Y-84.8
X147.59Y-84.8
X151.09Y-61.9
X151.09Y-84.8
T0
M30
