%TF.GenerationSoftware,KiCad,Pcbnew,(6.0.9)*%
%TF.CreationDate,2023-01-27T22:09:12+02:00*%
%TF.ProjectId,Schematics,53636865-6d61-4746-9963-732e6b696361,rev?*%
%TF.SameCoordinates,Original*%
%TF.FileFunction,Copper,L1,Top*%
%TF.FilePolarity,Positive*%
%FSLAX46Y46*%
G04 Gerber Fmt 4.6, Leading zero omitted, Abs format (unit mm)*
G04 Created by KiCad (PCBNEW (6.0.9)) date 2023-01-27 22:09:12*
%MOMM*%
%LPD*%
G01*
G04 APERTURE LIST*
G04 Aperture macros list*
%AMRoundRect*
0 Rectangle with rounded corners*
0 $1 Rounding radius*
0 $2 $3 $4 $5 $6 $7 $8 $9 X,Y pos of 4 corners*
0 Add a 4 corners polygon primitive as box body*
4,1,4,$2,$3,$4,$5,$6,$7,$8,$9,$2,$3,0*
0 Add four circle primitives for the rounded corners*
1,1,$1+$1,$2,$3*
1,1,$1+$1,$4,$5*
1,1,$1+$1,$6,$7*
1,1,$1+$1,$8,$9*
0 Add four rect primitives between the rounded corners*
20,1,$1+$1,$2,$3,$4,$5,0*
20,1,$1+$1,$4,$5,$6,$7,0*
20,1,$1+$1,$6,$7,$8,$9,0*
20,1,$1+$1,$8,$9,$2,$3,0*%
G04 Aperture macros list end*
%ADD10C,0.300000*%
%TA.AperFunction,NonConductor*%
%ADD11C,0.300000*%
%TD*%
%TA.AperFunction,ComponentPad*%
%ADD12O,3.500000X3.500000*%
%TD*%
%TA.AperFunction,ComponentPad*%
%ADD13C,1.600000*%
%TD*%
%TA.AperFunction,SMDPad,CuDef*%
%ADD14RoundRect,0.150000X-0.150000X0.512500X-0.150000X-0.512500X0.150000X-0.512500X0.150000X0.512500X0*%
%TD*%
%TA.AperFunction,ComponentPad*%
%ADD15R,1.900000X1.900000*%
%TD*%
%TA.AperFunction,ComponentPad*%
%ADD16C,1.900000*%
%TD*%
%TA.AperFunction,ComponentPad*%
%ADD17R,2.000000X2.000000*%
%TD*%
%TA.AperFunction,ComponentPad*%
%ADD18O,2.000000X2.000000*%
%TD*%
%TA.AperFunction,ComponentPad*%
%ADD19C,1.400000*%
%TD*%
%TA.AperFunction,ComponentPad*%
%ADD20O,1.400000X1.400000*%
%TD*%
%TA.AperFunction,ComponentPad*%
%ADD21C,2.000000*%
%TD*%
%TA.AperFunction,ComponentPad*%
%ADD22R,2.800000X2.800000*%
%TD*%
%TA.AperFunction,ComponentPad*%
%ADD23R,2.200000X2.200000*%
%TD*%
%TA.AperFunction,ComponentPad*%
%ADD24O,2.200000X2.200000*%
%TD*%
%TA.AperFunction,ViaPad*%
%ADD25C,0.800000*%
%TD*%
%TA.AperFunction,Conductor*%
%ADD26C,0.800000*%
%TD*%
%TA.AperFunction,Conductor*%
%ADD27C,0.500000*%
%TD*%
G04 APERTURE END LIST*
D10*
D11*
X108936562Y-67728571D02*
X109124062Y-66228571D01*
X109695491Y-66228571D01*
X109829419Y-66300000D01*
X109891919Y-66371428D01*
X109945491Y-66514285D01*
X109918705Y-66728571D01*
X109829419Y-66871428D01*
X109749062Y-66942857D01*
X109597276Y-67014285D01*
X109025848Y-67014285D01*
X111311562Y-67585714D02*
X111231205Y-67657142D01*
X111007991Y-67728571D01*
X110865133Y-67728571D01*
X110659776Y-67657142D01*
X110534776Y-67514285D01*
X110481205Y-67371428D01*
X110445491Y-67085714D01*
X110472276Y-66871428D01*
X110579419Y-66585714D01*
X110668705Y-66442857D01*
X110829419Y-66300000D01*
X111052633Y-66228571D01*
X111195491Y-66228571D01*
X111400848Y-66300000D01*
X111463348Y-66371428D01*
X112534776Y-66942857D02*
X112740133Y-67014285D01*
X112802633Y-67085714D01*
X112856205Y-67228571D01*
X112829419Y-67442857D01*
X112740133Y-67585714D01*
X112659776Y-67657142D01*
X112507991Y-67728571D01*
X111936562Y-67728571D01*
X112124062Y-66228571D01*
X112624062Y-66228571D01*
X112757991Y-66300000D01*
X112820491Y-66371428D01*
X112874062Y-66514285D01*
X112856205Y-66657142D01*
X112766919Y-66800000D01*
X112686562Y-66871428D01*
X112534776Y-66942857D01*
X112034776Y-66942857D01*
X114561562Y-66728571D02*
X114793705Y-67728571D01*
X115275848Y-66728571D01*
X116507991Y-67728571D02*
X115650848Y-67728571D01*
X116079419Y-67728571D02*
X116266919Y-66228571D01*
X116097276Y-66442857D01*
X115936562Y-66585714D01*
X115784776Y-66657142D01*
X117168705Y-67585714D02*
X117231205Y-67657142D01*
X117150848Y-67728571D01*
X117088348Y-67657142D01*
X117168705Y-67585714D01*
X117150848Y-67728571D01*
X118338348Y-66228571D02*
X118481205Y-66228571D01*
X118615133Y-66300000D01*
X118677633Y-66371428D01*
X118731205Y-66514285D01*
X118766919Y-66800000D01*
X118722276Y-67157142D01*
X118615133Y-67442857D01*
X118525848Y-67585714D01*
X118445491Y-67657142D01*
X118293705Y-67728571D01*
X118150848Y-67728571D01*
X118016919Y-67657142D01*
X117954419Y-67585714D01*
X117900848Y-67442857D01*
X117865133Y-67157142D01*
X117909776Y-66800000D01*
X118016919Y-66514285D01*
X118106205Y-66371428D01*
X118186562Y-66300000D01*
X118338348Y-66228571D01*
D10*
D11*
X109872276Y-64528571D02*
X109157991Y-64528571D01*
X109345491Y-63028571D01*
X110354419Y-63528571D02*
X110586562Y-64528571D01*
X111068705Y-63528571D02*
X110586562Y-64528571D01*
X110399062Y-64885714D01*
X110318705Y-64957142D01*
X110166919Y-65028571D01*
X112282991Y-63528571D02*
X112157991Y-64528571D01*
X111640133Y-63528571D02*
X111541919Y-64314285D01*
X111595491Y-64457142D01*
X111729419Y-64528571D01*
X111943705Y-64528571D01*
X112095491Y-64457142D01*
X112175848Y-64385714D01*
X112872276Y-64528571D02*
X113059776Y-63028571D01*
X112988348Y-63600000D02*
X113140133Y-63528571D01*
X113425848Y-63528571D01*
X113559776Y-63600000D01*
X113622276Y-63671428D01*
X113675848Y-63814285D01*
X113622276Y-64242857D01*
X113532991Y-64385714D01*
X113452633Y-64457142D01*
X113300848Y-64528571D01*
X113015133Y-64528571D01*
X112881205Y-64457142D01*
X114443705Y-64528571D02*
X114309776Y-64457142D01*
X114247276Y-64385714D01*
X114193705Y-64242857D01*
X114247276Y-63814285D01*
X114336562Y-63671428D01*
X114416919Y-63600000D01*
X114568705Y-63528571D01*
X114782991Y-63528571D01*
X114916919Y-63600000D01*
X114979419Y-63671428D01*
X115032991Y-63814285D01*
X114979419Y-64242857D01*
X114890133Y-64385714D01*
X114809776Y-64457142D01*
X114657991Y-64528571D01*
X114443705Y-64528571D01*
X115586562Y-64528571D02*
X115711562Y-63528571D01*
X115693705Y-63671428D02*
X115774062Y-63600000D01*
X115925848Y-63528571D01*
X116140133Y-63528571D01*
X116274062Y-63600000D01*
X116327633Y-63742857D01*
X116229419Y-64528571D01*
X116327633Y-63742857D02*
X116416919Y-63600000D01*
X116568705Y-63528571D01*
X116782991Y-63528571D01*
X116916919Y-63600000D01*
X116970491Y-63742857D01*
X116872276Y-64528571D01*
X117586562Y-64528571D02*
X117711562Y-63528571D01*
X117774062Y-63028571D02*
X117693705Y-63100000D01*
X117756205Y-63171428D01*
X117836562Y-63100000D01*
X117774062Y-63028571D01*
X117756205Y-63171428D01*
X118300848Y-64528571D02*
X118425848Y-63528571D01*
X118390133Y-63814285D02*
X118479419Y-63671428D01*
X118559776Y-63600000D01*
X118711562Y-63528571D01*
X118854419Y-63528571D01*
X120372276Y-64528571D02*
X120559776Y-63028571D01*
X121229419Y-64528571D01*
X121416919Y-63028571D01*
X122586562Y-64528571D02*
X122684776Y-63742857D01*
X122631205Y-63600000D01*
X122497276Y-63528571D01*
X122211562Y-63528571D01*
X122059776Y-63600000D01*
X122595491Y-64457142D02*
X122443705Y-64528571D01*
X122086562Y-64528571D01*
X121952633Y-64457142D01*
X121899062Y-64314285D01*
X121916919Y-64171428D01*
X122006205Y-64028571D01*
X122157991Y-63957142D01*
X122515133Y-63957142D01*
X122666919Y-63885714D01*
X123952633Y-64457142D02*
X123800848Y-64528571D01*
X123515133Y-64528571D01*
X123381205Y-64457142D01*
X123318705Y-64385714D01*
X123265133Y-64242857D01*
X123318705Y-63814285D01*
X123407991Y-63671428D01*
X123488348Y-63600000D01*
X123640133Y-63528571D01*
X123925848Y-63528571D01*
X124059776Y-63600000D01*
X124586562Y-64528571D02*
X124774062Y-63028571D01*
X125229419Y-64528571D02*
X125327633Y-63742857D01*
X125274062Y-63600000D01*
X125140133Y-63528571D01*
X124925848Y-63528571D01*
X124774062Y-63600000D01*
X124693705Y-63671428D01*
X126524062Y-64457142D02*
X126372276Y-64528571D01*
X126086562Y-64528571D01*
X125952633Y-64457142D01*
X125899062Y-64314285D01*
X125970491Y-63742857D01*
X126059776Y-63600000D01*
X126211562Y-63528571D01*
X126497276Y-63528571D01*
X126631205Y-63600000D01*
X126684776Y-63742857D01*
X126666919Y-63885714D01*
X125934776Y-64028571D01*
X127211562Y-63528571D02*
X127443705Y-64528571D01*
X127925848Y-63528571D01*
D12*
%TO.P,BT1,2,-*%
%TO.N,Net-(BT1-Pad2)*%
X167050000Y-140550000D03*
%TO.P,BT1,1,+*%
%TO.N,Net-(BT1-Pad1)*%
X167050000Y-69150000D03*
%TD*%
D13*
%TO.P,C2,1*%
%TO.N,+3V0*%
X124890000Y-88300000D03*
%TO.P,C2,2*%
%TO.N,GND*%
X129890000Y-88300000D03*
%TD*%
D14*
%TO.P,U4,1,VIN*%
%TO.N,VCC*%
X126140000Y-82962500D03*
%TO.P,U4,2,GND*%
%TO.N,GND*%
X125190000Y-82962500D03*
%TO.P,U4,3,STBY*%
%TO.N,VCC*%
X124240000Y-82962500D03*
%TO.P,U4,4,N.C.*%
%TO.N,unconnected-(U4-Pad4)*%
X124240000Y-85237500D03*
%TO.P,U4,5,VOUT*%
%TO.N,+3V0*%
X126140000Y-85237500D03*
%TD*%
D15*
%TO.P,U6,1,VCC*%
%TO.N,+3V0*%
X145945000Y-121992000D03*
D16*
%TO.P,U6,2,GND*%
%TO.N,GND*%
X145945000Y-124532000D03*
%TO.P,U6,3,SCL*%
%TO.N,/SCL*%
X145945000Y-127072000D03*
%TO.P,U6,4,SDA*%
%TO.N,/SDA*%
X145945000Y-129612000D03*
%TO.P,U6,5,SDO*%
%TO.N,unconnected-(U6-Pad5)*%
X145945000Y-132152000D03*
%TO.P,U6,6,CS*%
%TO.N,unconnected-(U6-Pad6)*%
X145945000Y-134692000D03*
%TO.P,U6,7,INT2*%
%TO.N,unconnected-(U6-Pad7)*%
X145945000Y-137232000D03*
%TO.P,U6,8,INT1*%
%TO.N,/INT1*%
X145945000Y-139772000D03*
%TO.P,U6,9,A1*%
%TO.N,unconnected-(U6-Pad9)*%
X145945000Y-142312000D03*
%TO.P,U6,10,A2*%
%TO.N,unconnected-(U6-Pad10)*%
X145945000Y-144852000D03*
%TO.P,U6,11,A3*%
%TO.N,unconnected-(U6-Pad11)*%
X145945000Y-147392000D03*
%TD*%
D17*
%TO.P,U2,1,ADDR*%
%TO.N,unconnected-(U2-Pad1)*%
X137652000Y-122289500D03*
D18*
%TO.P,U2,2,SDA*%
%TO.N,/SDA*%
X135112000Y-122289500D03*
%TO.P,U2,3,SCL*%
%TO.N,/SCL*%
X132572000Y-122289500D03*
%TO.P,U2,4,GND*%
%TO.N,GND*%
X130032000Y-122289500D03*
%TO.P,U2,5,VCC*%
%TO.N,+3V0*%
X127492000Y-122289500D03*
%TD*%
D19*
%TO.P,R2,1*%
%TO.N,/SCL*%
X151030000Y-118800000D03*
D20*
%TO.P,R2,2*%
%TO.N,+3V0*%
X145950000Y-118800000D03*
%TD*%
D19*
%TO.P,R4,1*%
%TO.N,GND*%
X137730000Y-94650000D03*
D20*
%TO.P,R4,2*%
%TO.N,Net-(R3-Pad2)*%
X132650000Y-94650000D03*
%TD*%
D19*
%TO.P,R3,1*%
%TO.N,VCC*%
X125250000Y-94650000D03*
D20*
%TO.P,R3,2*%
%TO.N,Net-(R3-Pad2)*%
X130330000Y-94650000D03*
%TD*%
D21*
%TO.P,U5,0.02,0.02*%
%TO.N,Net-(R3-Pad2)*%
X130335000Y-98234000D03*
%TO.P,U5,0.09,0.09*%
%TO.N,unconnected-(U5-Pad0.09)*%
X135415000Y-113474000D03*
%TO.P,U5,0.10,0.10*%
%TO.N,unconnected-(U5-Pad0.10)*%
X137955000Y-113474000D03*
%TO.P,U5,0.13,0.13*%
%TO.N,/SDA*%
X117635000Y-113474000D03*
%TO.P,U5,0.15,0.15*%
%TO.N,/SCL*%
X120175000Y-113474000D03*
%TO.P,U5,0.17,0.17*%
%TO.N,unconnected-(U5-Pad0.17)*%
X122715000Y-113474000D03*
%TO.P,U5,0.20,0.20*%
%TO.N,unconnected-(U5-Pad0.20)*%
X125255000Y-113474000D03*
%TO.P,U5,0.22,0.22*%
%TO.N,unconnected-(U5-Pad0.22)*%
X127795000Y-113474000D03*
%TO.P,U5,0.24,0.24*%
%TO.N,unconnected-(U5-Pad0.24)*%
X130335000Y-113474000D03*
%TO.P,U5,0.29,0.29*%
%TO.N,unconnected-(U5-Pad0.29)*%
X127795000Y-98234000D03*
%TO.P,U5,0.31,0.31*%
%TO.N,unconnected-(U5-Pad0.31)*%
X125255000Y-98234000D03*
%TO.P,U5,1.00,1.00*%
%TO.N,unconnected-(U5-Pad1.00)*%
X132875000Y-113474000D03*
%TO.P,U5,1.10,1.10*%
%TO.N,/INT1*%
X137955000Y-98234000D03*
%TO.P,U5,1.13,1.13*%
%TO.N,unconnected-(U5-Pad1.13)*%
X135415000Y-98234000D03*
%TO.P,U5,1.15,1.15*%
%TO.N,unconnected-(U5-Pad1.15)*%
X132875000Y-98234000D03*
%TO.P,U5,G1,GND*%
%TO.N,GND*%
X140495000Y-113474000D03*
%TO.P,U5,G2,GND*%
X140495000Y-98234000D03*
%TO.P,U5,G3,GND*%
X122715000Y-98234000D03*
%TO.P,U5,OUT,OUT*%
%TO.N,+3V0*%
X120175000Y-98234000D03*
%TO.P,U5,SWDCLK,SWDCLK*%
%TO.N,unconnected-(U5-PadSWDCLK)*%
X112555000Y-100294000D03*
%TO.P,U5,SWDIO,SWDIO*%
%TO.N,unconnected-(U5-PadSWDIO)*%
X112555000Y-111414000D03*
%TO.P,U5,VBUS,VBUS*%
%TO.N,VBUS*%
X117635000Y-98234000D03*
%TD*%
D17*
%TO.P,U3,1,2-6V*%
%TO.N,+3V0*%
X116520000Y-122250000D03*
D18*
%TO.P,U3,2,SDA*%
%TO.N,/SDA*%
X113980000Y-122250000D03*
%TO.P,U3,3,SCL*%
%TO.N,/SCL*%
X111440000Y-122250000D03*
%TO.P,U3,4,N/C*%
%TO.N,unconnected-(U3-Pad4)*%
X108900000Y-122250000D03*
%TO.P,U3,5,GND*%
%TO.N,GND*%
X106360000Y-122250000D03*
%TD*%
D22*
%TO.P,U1,1,IN+*%
%TO.N,Net-(D1-Pad1)*%
X151090000Y-61900000D03*
%TO.P,U1,2,IN-*%
%TO.N,GND*%
X136890000Y-61900000D03*
%TO.P,U1,3,OUT+*%
%TO.N,VCC*%
X151090000Y-84800000D03*
%TO.P,U1,4,B+*%
%TO.N,Net-(BT1-Pad1)*%
X147590000Y-84800000D03*
%TO.P,U1,5,B-*%
%TO.N,Net-(BT1-Pad2)*%
X139990000Y-84800000D03*
%TO.P,U1,6,OUT-*%
%TO.N,GND*%
X136590000Y-84800000D03*
%TD*%
D13*
%TO.P,C1,1*%
%TO.N,VCC*%
X129090000Y-85200000D03*
%TO.P,C1,2*%
%TO.N,GND*%
X129090000Y-80200000D03*
%TD*%
D19*
%TO.P,R1,1*%
%TO.N,+3V0*%
X145950000Y-116200000D03*
D20*
%TO.P,R1,2*%
%TO.N,/SDA*%
X151030000Y-116200000D03*
%TD*%
D23*
%TO.P,D1,1,K*%
%TO.N,Net-(D1-Pad1)*%
X117690000Y-83620000D03*
D24*
%TO.P,D1,2,A*%
%TO.N,VBUS*%
X117690000Y-93780000D03*
%TD*%
D25*
%TO.N,GND*%
X125190000Y-81400000D03*
%TO.N,+3V0*%
X128390000Y-118600000D03*
%TD*%
D26*
%TO.N,Net-(BT1-Pad2)*%
X155900000Y-107750000D02*
X155900000Y-129400000D01*
X155900000Y-129400000D02*
X167050000Y-140550000D01*
X139990000Y-91840000D02*
X155900000Y-107750000D01*
X139990000Y-84800000D02*
X139990000Y-91840000D01*
%TO.N,Net-(BT1-Pad1)*%
X160650000Y-75550000D02*
X167050000Y-69150000D01*
X160650000Y-83450000D02*
X160650000Y-75550000D01*
X155170000Y-88930000D02*
X160650000Y-83450000D01*
X149410000Y-88930000D02*
X155170000Y-88930000D01*
X147590000Y-84800000D02*
X147590000Y-87110000D01*
X147590000Y-87110000D02*
X149410000Y-88930000D01*
D27*
%TO.N,VCC*%
X129090000Y-86500000D02*
X125250000Y-90340000D01*
X126140000Y-82962500D02*
X126862500Y-82962500D01*
D26*
X133350000Y-80940000D02*
X129090000Y-85200000D01*
D27*
X125250000Y-90340000D02*
X125250000Y-94650000D01*
X124790000Y-80300000D02*
X125590000Y-80300000D01*
X126140000Y-80850000D02*
X126140000Y-82962500D01*
X126862500Y-82972500D02*
X129090000Y-85200000D01*
X124240000Y-82962500D02*
X124240000Y-80850000D01*
X124240000Y-80850000D02*
X124790000Y-80300000D01*
D26*
X151090000Y-82880000D02*
X149150000Y-80940000D01*
X151090000Y-84800000D02*
X151090000Y-82880000D01*
D27*
X126862500Y-82962500D02*
X126862500Y-82972500D01*
X125590000Y-80300000D02*
X126140000Y-80850000D01*
D26*
X149150000Y-80940000D02*
X133350000Y-80940000D01*
D27*
X129090000Y-85200000D02*
X129090000Y-86500000D01*
%TO.N,GND*%
X125190000Y-82962500D02*
X125190000Y-81400000D01*
D26*
%TO.N,+3V0*%
X123330000Y-103600000D02*
X135470000Y-103600000D01*
X142553000Y-118600000D02*
X145945000Y-121992000D01*
X120175000Y-98234000D02*
X120175000Y-93015000D01*
X145950000Y-114080000D02*
X145950000Y-116200000D01*
X120175000Y-100445000D02*
X123330000Y-103600000D01*
X127492000Y-122289500D02*
X116559500Y-122289500D01*
X145950000Y-118800000D02*
X145950000Y-121987000D01*
D27*
X126140000Y-85237500D02*
X126140000Y-87050000D01*
D26*
X145950000Y-121987000D02*
X145945000Y-121992000D01*
D27*
X126140000Y-87050000D02*
X124890000Y-88300000D01*
D26*
X116559500Y-122289500D02*
X116520000Y-122250000D01*
X128390000Y-118600000D02*
X142553000Y-118600000D01*
X145950000Y-116200000D02*
X145950000Y-118800000D01*
X120175000Y-98234000D02*
X120175000Y-100445000D01*
X135470000Y-103600000D02*
X145950000Y-114080000D01*
X120175000Y-93015000D02*
X124890000Y-88300000D01*
%TO.N,Net-(D1-Pad1)*%
X145390000Y-67600000D02*
X151090000Y-61900000D01*
X117690000Y-83620000D02*
X133710000Y-67600000D01*
X133710000Y-67600000D02*
X145390000Y-67600000D01*
%TO.N,VBUS*%
X117635000Y-93835000D02*
X117690000Y-93780000D01*
X117635000Y-98234000D02*
X117635000Y-93835000D01*
D27*
%TO.N,/SDA*%
X135112000Y-122289500D02*
X135112000Y-124622000D01*
X104640000Y-119800000D02*
X111309000Y-119800000D01*
X145945000Y-129612000D02*
X152837000Y-122720000D01*
X140102000Y-129612000D02*
X145945000Y-129612000D01*
X152837000Y-122720000D02*
X152850000Y-122720000D01*
X104762000Y-124622000D02*
X103390000Y-123250000D01*
X111612000Y-124622000D02*
X104762000Y-124622000D01*
X103390000Y-123250000D02*
X103390000Y-121050000D01*
X135112000Y-124622000D02*
X111612000Y-124622000D01*
X111309000Y-119800000D02*
X117635000Y-113474000D01*
X135112000Y-124622000D02*
X140102000Y-129612000D01*
X152850000Y-118020000D02*
X152850000Y-122720000D01*
X113980000Y-122250000D02*
X111612000Y-124618000D01*
X111612000Y-124618000D02*
X111612000Y-124622000D01*
X103390000Y-121050000D02*
X104640000Y-119800000D01*
X151030000Y-116200000D02*
X152850000Y-118020000D01*
%TO.N,/SCL*%
X120175000Y-113474000D02*
X111440000Y-122209000D01*
X111440000Y-122209000D02*
X111440000Y-122250000D01*
X130282500Y-120000000D02*
X126701000Y-120000000D01*
X134861500Y-120000000D02*
X132572000Y-122289500D01*
X151030000Y-118800000D02*
X151030000Y-121987000D01*
X126701000Y-120000000D02*
X120175000Y-113474000D01*
X132572000Y-122289500D02*
X130282500Y-120000000D01*
X151030000Y-121987000D02*
X145945000Y-127072000D01*
X138873000Y-120000000D02*
X134861500Y-120000000D01*
X145945000Y-127072000D02*
X138873000Y-120000000D01*
D26*
%TO.N,Net-(R3-Pad2)*%
X130335000Y-98234000D02*
X130335000Y-94655000D01*
X130335000Y-94655000D02*
X130330000Y-94650000D01*
X132650000Y-94650000D02*
X130330000Y-94650000D01*
D27*
%TO.N,/INT1*%
X153990000Y-114269000D02*
X153990000Y-131727000D01*
X153990000Y-131727000D02*
X145945000Y-139772000D01*
X137955000Y-98234000D02*
X153990000Y-114269000D01*
%TD*%
M02*
