%TF.GenerationSoftware,KiCad,Pcbnew,(6.0.9)*%
%TF.CreationDate,2023-01-30T18:53:01+02:00*%
%TF.ProjectId,Schematics,53636865-6d61-4746-9963-732e6b696361,rev?*%
%TF.SameCoordinates,Original*%
%TF.FileFunction,Drillmap*%
%TF.FilePolarity,Positive*%
%FSLAX45Y45*%
G04 Gerber Fmt 4.5, Leading zero omitted, Abs format (unit mm)*
G04 Created by KiCad (PCBNEW (6.0.9)) date 2023-01-30 18:53:01*
%MOMM*%
%LPD*%
G01*
G04 APERTURE LIST*
%ADD10C,0.100000*%
%ADD11C,0.200000*%
%ADD12C,0.040000*%
%ADD13C,0.070000*%
%ADD14C,0.080000*%
%ADD15C,0.110000*%
%ADD16C,0.150000*%
%ADD17C,0.154000*%
G04 APERTURE END LIST*
D10*
X10400000Y-6000000D02*
G75*
G03*
X10000000Y-6400000I0J-400000D01*
G01*
X18500000Y-6400000D02*
G75*
G03*
X18100000Y-6000000I-400000J0D01*
G01*
X10000000Y-9300000D02*
G75*
G03*
X10200000Y-9500000I200000J0D01*
G01*
X15100000Y-10400000D02*
X15100000Y-10800000D01*
X15400000Y-10400000D02*
X15400000Y-10800000D01*
X18500000Y-6400000D02*
X18500000Y-14600000D01*
X11100000Y-9700000D02*
G75*
G03*
X10900000Y-9500000I-200000J0D01*
G01*
X10900000Y-11700000D02*
G75*
G03*
X11100000Y-11500000I0J200000D01*
G01*
X11100000Y-9700000D02*
X11100000Y-11500000D01*
X15400000Y-10400000D02*
G75*
G03*
X15100000Y-10400000I-150000J0D01*
G01*
X10000000Y-14600000D02*
X10000000Y-11900000D01*
X10200000Y-11700000D02*
X10900000Y-11700000D01*
X18100000Y-15000000D02*
G75*
G03*
X18500000Y-14600000I0J400000D01*
G01*
X10000000Y-6400000D02*
X10000000Y-9300000D01*
X10200000Y-9500000D02*
X10900000Y-9500000D01*
X10400000Y-6000000D02*
X18100000Y-6000000D01*
X10200000Y-11700000D02*
G75*
G03*
X10000000Y-11900000I0J-200000D01*
G01*
X15100000Y-10800000D02*
G75*
G03*
X15400000Y-10800000I150000J0D01*
G01*
X18100000Y-15000000D02*
X10400000Y-15000000D01*
X10000000Y-14600000D02*
G75*
G03*
X10400000Y-15000000I400000J0D01*
G01*
D11*
D12*
X12508800Y-8134600D02*
X12548800Y-8174600D01*
X12548800Y-8134600D02*
X12508800Y-8174600D01*
X12828800Y-11854600D02*
X12868800Y-11894600D01*
X12868800Y-11854600D02*
X12828800Y-11894600D01*
D13*
X12569800Y-9479600D02*
G75*
G03*
X12569800Y-9479600I-35000J0D01*
G01*
X13077800Y-9479600D02*
G75*
G03*
X13077800Y-9479600I-35000J0D01*
G01*
X13309800Y-9479600D02*
G75*
G03*
X13309800Y-9479600I-35000J0D01*
G01*
X13817800Y-9479600D02*
G75*
G03*
X13817800Y-9479600I-35000J0D01*
G01*
X14639800Y-11634600D02*
G75*
G03*
X14639800Y-11634600I-35000J0D01*
G01*
X14639800Y-11894600D02*
G75*
G03*
X14639800Y-11894600I-35000J0D01*
G01*
X15147800Y-11634600D02*
G75*
G03*
X15147800Y-11634600I-35000J0D01*
G01*
X15147800Y-11894600D02*
G75*
G03*
X15147800Y-11894600I-35000J0D01*
G01*
D14*
X12498800Y-8804600D02*
X12498800Y-8884600D01*
X12458800Y-8844600D02*
X12538800Y-8844600D01*
X12918800Y-7994600D02*
X12918800Y-8074600D01*
X12878800Y-8034600D02*
X12958800Y-8034600D01*
X12918800Y-8494600D02*
X12918800Y-8574600D01*
X12878800Y-8534600D02*
X12958800Y-8534600D01*
X12998800Y-8804600D02*
X12998800Y-8884600D01*
X12958800Y-8844600D02*
X13038800Y-8844600D01*
D10*
X10681156Y-12274956D02*
X10681156Y-12204244D01*
X10610444Y-12204244D01*
X10610444Y-12274956D01*
X10681156Y-12274956D01*
X10935156Y-12274956D02*
X10935156Y-12204244D01*
X10864444Y-12204244D01*
X10864444Y-12274956D01*
X10935156Y-12274956D01*
X11189156Y-12274956D02*
X11189156Y-12204244D01*
X11118444Y-12204244D01*
X11118444Y-12274956D01*
X11189156Y-12274956D01*
X11300656Y-10079356D02*
X11300656Y-10008644D01*
X11229944Y-10008644D01*
X11229944Y-10079356D01*
X11300656Y-10079356D01*
X11300656Y-11191356D02*
X11300656Y-11120644D01*
X11229944Y-11120644D01*
X11229944Y-11191356D01*
X11300656Y-11191356D01*
X11443156Y-12274956D02*
X11443156Y-12204244D01*
X11372444Y-12204244D01*
X11372444Y-12274956D01*
X11443156Y-12274956D01*
X11697156Y-12274956D02*
X11697156Y-12204244D01*
X11626444Y-12204244D01*
X11626444Y-12274956D01*
X11697156Y-12274956D01*
X11808656Y-9873356D02*
X11808656Y-9802644D01*
X11737944Y-9802644D01*
X11737944Y-9873356D01*
X11808656Y-9873356D01*
X11808656Y-11397356D02*
X11808656Y-11326644D01*
X11737944Y-11326644D01*
X11737944Y-11397356D01*
X11808656Y-11397356D01*
X12062656Y-9873356D02*
X12062656Y-9802644D01*
X11991944Y-9802644D01*
X11991944Y-9873356D01*
X12062656Y-9873356D01*
X12062656Y-11397356D02*
X12062656Y-11326644D01*
X11991944Y-11326644D01*
X11991944Y-11397356D01*
X12062656Y-11397356D01*
X12316656Y-9873356D02*
X12316656Y-9802644D01*
X12245944Y-9802644D01*
X12245944Y-9873356D01*
X12316656Y-9873356D01*
X12316656Y-11397356D02*
X12316656Y-11326644D01*
X12245944Y-11326644D01*
X12245944Y-11397356D01*
X12316656Y-11397356D01*
X12570656Y-9873356D02*
X12570656Y-9802644D01*
X12499944Y-9802644D01*
X12499944Y-9873356D01*
X12570656Y-9873356D01*
X12570656Y-11397356D02*
X12570656Y-11326644D01*
X12499944Y-11326644D01*
X12499944Y-11397356D01*
X12570656Y-11397356D01*
X12794356Y-12278906D02*
X12794356Y-12208194D01*
X12723644Y-12208194D01*
X12723644Y-12278906D01*
X12794356Y-12278906D01*
X12824656Y-9873356D02*
X12824656Y-9802644D01*
X12753944Y-9802644D01*
X12753944Y-9873356D01*
X12824656Y-9873356D01*
X12824656Y-11397356D02*
X12824656Y-11326644D01*
X12753944Y-11326644D01*
X12753944Y-11397356D01*
X12824656Y-11397356D01*
X13048356Y-12278906D02*
X13048356Y-12208194D01*
X12977644Y-12208194D01*
X12977644Y-12278906D01*
X13048356Y-12278906D01*
X13078656Y-9873356D02*
X13078656Y-9802644D01*
X13007944Y-9802644D01*
X13007944Y-9873356D01*
X13078656Y-9873356D01*
X13078656Y-11397356D02*
X13078656Y-11326644D01*
X13007944Y-11326644D01*
X13007944Y-11397356D01*
X13078656Y-11397356D01*
X13302356Y-12278906D02*
X13302356Y-12208194D01*
X13231644Y-12208194D01*
X13231644Y-12278906D01*
X13302356Y-12278906D01*
X13332656Y-9873356D02*
X13332656Y-9802644D01*
X13261944Y-9802644D01*
X13261944Y-9873356D01*
X13332656Y-9873356D01*
X13332656Y-11397356D02*
X13332656Y-11326644D01*
X13261944Y-11326644D01*
X13261944Y-11397356D01*
X13332656Y-11397356D01*
X13556356Y-12278906D02*
X13556356Y-12208194D01*
X13485644Y-12208194D01*
X13485644Y-12278906D01*
X13556356Y-12278906D01*
X13586656Y-9873356D02*
X13586656Y-9802644D01*
X13515944Y-9802644D01*
X13515944Y-9873356D01*
X13586656Y-9873356D01*
X13586656Y-11397356D02*
X13586656Y-11326644D01*
X13515944Y-11326644D01*
X13515944Y-11397356D01*
X13586656Y-11397356D01*
X13810356Y-12278906D02*
X13810356Y-12208194D01*
X13739644Y-12208194D01*
X13739644Y-12278906D01*
X13810356Y-12278906D01*
X13840656Y-9873356D02*
X13840656Y-9802644D01*
X13769944Y-9802644D01*
X13769944Y-9873356D01*
X13840656Y-9873356D01*
X13840656Y-11397356D02*
X13840656Y-11326644D01*
X13769944Y-11326644D01*
X13769944Y-11397356D01*
X13840656Y-11397356D01*
X14094656Y-9873356D02*
X14094656Y-9802644D01*
X14023944Y-9802644D01*
X14023944Y-9873356D01*
X14094656Y-9873356D01*
X14094656Y-11397356D02*
X14094656Y-11326644D01*
X14023944Y-11326644D01*
X14023944Y-11397356D01*
X14094656Y-11397356D01*
X14639656Y-12249156D02*
X14639656Y-12178444D01*
X14568944Y-12178444D01*
X14568944Y-12249156D01*
X14639656Y-12249156D01*
X14639656Y-12503156D02*
X14639656Y-12432444D01*
X14568944Y-12432444D01*
X14568944Y-12503156D01*
X14639656Y-12503156D01*
X14639656Y-12757156D02*
X14639656Y-12686444D01*
X14568944Y-12686444D01*
X14568944Y-12757156D01*
X14639656Y-12757156D01*
X14639656Y-13011156D02*
X14639656Y-12940444D01*
X14568944Y-12940444D01*
X14568944Y-13011156D01*
X14639656Y-13011156D01*
X14639656Y-13265156D02*
X14639656Y-13194444D01*
X14568944Y-13194444D01*
X14568944Y-13265156D01*
X14639656Y-13265156D01*
X14639656Y-13519156D02*
X14639656Y-13448444D01*
X14568944Y-13448444D01*
X14568944Y-13519156D01*
X14639656Y-13519156D01*
X14639656Y-13773156D02*
X14639656Y-13702444D01*
X14568944Y-13702444D01*
X14568944Y-13773156D01*
X14639656Y-13773156D01*
X14639656Y-14027156D02*
X14639656Y-13956444D01*
X14568944Y-13956444D01*
X14568944Y-14027156D01*
X14639656Y-14027156D01*
X14639656Y-14281156D02*
X14639656Y-14210444D01*
X14568944Y-14210444D01*
X14568944Y-14281156D01*
X14639656Y-14281156D01*
X14639656Y-14535156D02*
X14639656Y-14464444D01*
X14568944Y-14464444D01*
X14568944Y-14535156D01*
X14639656Y-14535156D01*
X14639656Y-14789156D02*
X14639656Y-14718444D01*
X14568944Y-14718444D01*
X14568944Y-14789156D01*
X14639656Y-14789156D01*
D15*
X11778800Y-8431600D02*
X11833800Y-8376600D01*
X11778800Y-8321600D01*
X11723800Y-8376600D01*
X11778800Y-8431600D01*
X11778800Y-9447600D02*
X11833800Y-9392600D01*
X11778800Y-9337600D01*
X11723800Y-9392600D01*
X11778800Y-9447600D01*
D16*
X16639800Y-6854600D02*
X16789800Y-7004600D01*
X16789800Y-6854600D02*
X16639800Y-7004600D01*
X16789800Y-6929600D02*
G75*
G03*
X16789800Y-6929600I-75000J0D01*
G01*
X16639800Y-13994600D02*
X16789800Y-14144600D01*
X16789800Y-13994600D02*
X16639800Y-14144600D01*
X16789800Y-14069600D02*
G75*
G03*
X16789800Y-14069600I-75000J0D01*
G01*
D17*
X13591800Y-8417600D02*
X13745800Y-8571600D01*
X13745800Y-8417600D02*
X13591800Y-8571600D01*
X13668800Y-8417600D02*
X13668800Y-8571600D01*
X13591800Y-8494600D02*
X13745800Y-8494600D01*
X13621800Y-6127600D02*
X13775800Y-6281600D01*
X13775800Y-6127600D02*
X13621800Y-6281600D01*
X13698800Y-6127600D02*
X13698800Y-6281600D01*
X13621800Y-6204600D02*
X13775800Y-6204600D01*
X13931800Y-8417600D02*
X14085800Y-8571600D01*
X14085800Y-8417600D02*
X13931800Y-8571600D01*
X14008800Y-8417600D02*
X14008800Y-8571600D01*
X13931800Y-8494600D02*
X14085800Y-8494600D01*
X14691800Y-8417600D02*
X14845800Y-8571600D01*
X14845800Y-8417600D02*
X14691800Y-8571600D01*
X14768800Y-8417600D02*
X14768800Y-8571600D01*
X14691800Y-8494600D02*
X14845800Y-8494600D01*
X15041800Y-6127600D02*
X15195800Y-6281600D01*
X15195800Y-6127600D02*
X15041800Y-6281600D01*
X15118800Y-6127600D02*
X15118800Y-6281600D01*
X15041800Y-6204600D02*
X15195800Y-6204600D01*
X15041800Y-8417600D02*
X15195800Y-8571600D01*
X15195800Y-8417600D02*
X15041800Y-8571600D01*
X15118800Y-8417600D02*
X15118800Y-8571600D01*
X15041800Y-8494600D02*
X15195800Y-8494600D01*
D11*
X10252619Y-15315476D02*
X10252619Y-15115476D01*
X10300238Y-15115476D01*
X10328810Y-15125000D01*
X10347857Y-15144048D01*
X10357381Y-15163095D01*
X10366905Y-15201190D01*
X10366905Y-15229762D01*
X10357381Y-15267857D01*
X10347857Y-15286905D01*
X10328810Y-15305952D01*
X10300238Y-15315476D01*
X10252619Y-15315476D01*
X10452619Y-15315476D02*
X10452619Y-15182143D01*
X10452619Y-15220238D02*
X10462143Y-15201190D01*
X10471667Y-15191667D01*
X10490714Y-15182143D01*
X10509762Y-15182143D01*
X10576429Y-15315476D02*
X10576429Y-15182143D01*
X10576429Y-15115476D02*
X10566905Y-15125000D01*
X10576429Y-15134524D01*
X10585952Y-15125000D01*
X10576429Y-15115476D01*
X10576429Y-15134524D01*
X10700238Y-15315476D02*
X10681190Y-15305952D01*
X10671667Y-15286905D01*
X10671667Y-15115476D01*
X10805000Y-15315476D02*
X10785952Y-15305952D01*
X10776429Y-15286905D01*
X10776429Y-15115476D01*
X11033571Y-15315476D02*
X11033571Y-15115476D01*
X11100238Y-15258333D01*
X11166905Y-15115476D01*
X11166905Y-15315476D01*
X11347857Y-15315476D02*
X11347857Y-15210714D01*
X11338333Y-15191667D01*
X11319286Y-15182143D01*
X11281190Y-15182143D01*
X11262143Y-15191667D01*
X11347857Y-15305952D02*
X11328809Y-15315476D01*
X11281190Y-15315476D01*
X11262143Y-15305952D01*
X11252619Y-15286905D01*
X11252619Y-15267857D01*
X11262143Y-15248809D01*
X11281190Y-15239286D01*
X11328809Y-15239286D01*
X11347857Y-15229762D01*
X11443095Y-15182143D02*
X11443095Y-15382143D01*
X11443095Y-15191667D02*
X11462143Y-15182143D01*
X11500238Y-15182143D01*
X11519286Y-15191667D01*
X11528809Y-15201190D01*
X11538333Y-15220238D01*
X11538333Y-15277381D01*
X11528809Y-15296428D01*
X11519286Y-15305952D01*
X11500238Y-15315476D01*
X11462143Y-15315476D01*
X11443095Y-15305952D01*
X11624048Y-15296428D02*
X11633571Y-15305952D01*
X11624048Y-15315476D01*
X11614524Y-15305952D01*
X11624048Y-15296428D01*
X11624048Y-15315476D01*
X11624048Y-15191667D02*
X11633571Y-15201190D01*
X11624048Y-15210714D01*
X11614524Y-15201190D01*
X11624048Y-15191667D01*
X11624048Y-15210714D01*
D12*
X9955000Y-15625000D02*
X9995000Y-15665000D01*
X9995000Y-15625000D02*
X9955000Y-15665000D01*
D11*
X10290714Y-15535476D02*
X10309762Y-15535476D01*
X10328810Y-15545000D01*
X10338333Y-15554524D01*
X10347857Y-15573571D01*
X10357381Y-15611667D01*
X10357381Y-15659286D01*
X10347857Y-15697381D01*
X10338333Y-15716428D01*
X10328810Y-15725952D01*
X10309762Y-15735476D01*
X10290714Y-15735476D01*
X10271667Y-15725952D01*
X10262143Y-15716428D01*
X10252619Y-15697381D01*
X10243095Y-15659286D01*
X10243095Y-15611667D01*
X10252619Y-15573571D01*
X10262143Y-15554524D01*
X10271667Y-15545000D01*
X10290714Y-15535476D01*
X10443095Y-15716428D02*
X10452619Y-15725952D01*
X10443095Y-15735476D01*
X10433571Y-15725952D01*
X10443095Y-15716428D01*
X10443095Y-15735476D01*
X10624048Y-15602143D02*
X10624048Y-15735476D01*
X10576429Y-15525952D02*
X10528810Y-15668809D01*
X10652619Y-15668809D01*
X10766905Y-15535476D02*
X10785952Y-15535476D01*
X10805000Y-15545000D01*
X10814524Y-15554524D01*
X10824048Y-15573571D01*
X10833571Y-15611667D01*
X10833571Y-15659286D01*
X10824048Y-15697381D01*
X10814524Y-15716428D01*
X10805000Y-15725952D01*
X10785952Y-15735476D01*
X10766905Y-15735476D01*
X10747857Y-15725952D01*
X10738333Y-15716428D01*
X10728810Y-15697381D01*
X10719286Y-15659286D01*
X10719286Y-15611667D01*
X10728810Y-15573571D01*
X10738333Y-15554524D01*
X10747857Y-15545000D01*
X10766905Y-15535476D01*
X10957381Y-15535476D02*
X10976429Y-15535476D01*
X10995476Y-15545000D01*
X11005000Y-15554524D01*
X11014524Y-15573571D01*
X11024048Y-15611667D01*
X11024048Y-15659286D01*
X11014524Y-15697381D01*
X11005000Y-15716428D01*
X10995476Y-15725952D01*
X10976429Y-15735476D01*
X10957381Y-15735476D01*
X10938333Y-15725952D01*
X10928810Y-15716428D01*
X10919286Y-15697381D01*
X10909762Y-15659286D01*
X10909762Y-15611667D01*
X10919286Y-15573571D01*
X10928810Y-15554524D01*
X10938333Y-15545000D01*
X10957381Y-15535476D01*
X11109762Y-15735476D02*
X11109762Y-15602143D01*
X11109762Y-15621190D02*
X11119286Y-15611667D01*
X11138333Y-15602143D01*
X11166905Y-15602143D01*
X11185952Y-15611667D01*
X11195476Y-15630714D01*
X11195476Y-15735476D01*
X11195476Y-15630714D02*
X11205000Y-15611667D01*
X11224048Y-15602143D01*
X11252619Y-15602143D01*
X11271667Y-15611667D01*
X11281190Y-15630714D01*
X11281190Y-15735476D01*
X11376428Y-15735476D02*
X11376428Y-15602143D01*
X11376428Y-15621190D02*
X11385952Y-15611667D01*
X11405000Y-15602143D01*
X11433571Y-15602143D01*
X11452619Y-15611667D01*
X11462143Y-15630714D01*
X11462143Y-15735476D01*
X11462143Y-15630714D02*
X11471667Y-15611667D01*
X11490714Y-15602143D01*
X11519286Y-15602143D01*
X11538333Y-15611667D01*
X11547857Y-15630714D01*
X11547857Y-15735476D01*
X11938333Y-15525952D02*
X11766905Y-15783095D01*
X12195476Y-15535476D02*
X12214524Y-15535476D01*
X12233571Y-15545000D01*
X12243095Y-15554524D01*
X12252619Y-15573571D01*
X12262143Y-15611667D01*
X12262143Y-15659286D01*
X12252619Y-15697381D01*
X12243095Y-15716428D01*
X12233571Y-15725952D01*
X12214524Y-15735476D01*
X12195476Y-15735476D01*
X12176428Y-15725952D01*
X12166905Y-15716428D01*
X12157381Y-15697381D01*
X12147857Y-15659286D01*
X12147857Y-15611667D01*
X12157381Y-15573571D01*
X12166905Y-15554524D01*
X12176428Y-15545000D01*
X12195476Y-15535476D01*
X12347857Y-15716428D02*
X12357381Y-15725952D01*
X12347857Y-15735476D01*
X12338333Y-15725952D01*
X12347857Y-15716428D01*
X12347857Y-15735476D01*
X12481190Y-15535476D02*
X12500238Y-15535476D01*
X12519286Y-15545000D01*
X12528809Y-15554524D01*
X12538333Y-15573571D01*
X12547857Y-15611667D01*
X12547857Y-15659286D01*
X12538333Y-15697381D01*
X12528809Y-15716428D01*
X12519286Y-15725952D01*
X12500238Y-15735476D01*
X12481190Y-15735476D01*
X12462143Y-15725952D01*
X12452619Y-15716428D01*
X12443095Y-15697381D01*
X12433571Y-15659286D01*
X12433571Y-15611667D01*
X12443095Y-15573571D01*
X12452619Y-15554524D01*
X12462143Y-15545000D01*
X12481190Y-15535476D01*
X12738333Y-15735476D02*
X12624048Y-15735476D01*
X12681190Y-15735476D02*
X12681190Y-15535476D01*
X12662143Y-15564048D01*
X12643095Y-15583095D01*
X12624048Y-15592619D01*
X12919286Y-15535476D02*
X12824048Y-15535476D01*
X12814524Y-15630714D01*
X12824048Y-15621190D01*
X12843095Y-15611667D01*
X12890714Y-15611667D01*
X12909762Y-15621190D01*
X12919286Y-15630714D01*
X12928809Y-15649762D01*
X12928809Y-15697381D01*
X12919286Y-15716428D01*
X12909762Y-15725952D01*
X12890714Y-15735476D01*
X12843095Y-15735476D01*
X12824048Y-15725952D01*
X12814524Y-15716428D01*
X12995476Y-15535476D02*
X13128809Y-15535476D01*
X13043095Y-15735476D01*
X13195476Y-15535476D02*
X13195476Y-15573571D01*
X13271667Y-15535476D02*
X13271667Y-15573571D01*
X13566905Y-15811667D02*
X13557381Y-15802143D01*
X13538333Y-15773571D01*
X13528809Y-15754524D01*
X13519286Y-15725952D01*
X13509762Y-15678333D01*
X13509762Y-15640238D01*
X13519286Y-15592619D01*
X13528809Y-15564048D01*
X13538333Y-15545000D01*
X13557381Y-15516428D01*
X13566905Y-15506905D01*
X13633571Y-15554524D02*
X13643095Y-15545000D01*
X13662143Y-15535476D01*
X13709762Y-15535476D01*
X13728809Y-15545000D01*
X13738333Y-15554524D01*
X13747857Y-15573571D01*
X13747857Y-15592619D01*
X13738333Y-15621190D01*
X13624048Y-15735476D01*
X13747857Y-15735476D01*
X13985952Y-15735476D02*
X13985952Y-15535476D01*
X14071667Y-15735476D02*
X14071667Y-15630714D01*
X14062143Y-15611667D01*
X14043095Y-15602143D01*
X14014524Y-15602143D01*
X13995476Y-15611667D01*
X13985952Y-15621190D01*
X14195476Y-15735476D02*
X14176428Y-15725952D01*
X14166905Y-15716428D01*
X14157381Y-15697381D01*
X14157381Y-15640238D01*
X14166905Y-15621190D01*
X14176428Y-15611667D01*
X14195476Y-15602143D01*
X14224048Y-15602143D01*
X14243095Y-15611667D01*
X14252619Y-15621190D01*
X14262143Y-15640238D01*
X14262143Y-15697381D01*
X14252619Y-15716428D01*
X14243095Y-15725952D01*
X14224048Y-15735476D01*
X14195476Y-15735476D01*
X14376428Y-15735476D02*
X14357381Y-15725952D01*
X14347857Y-15706905D01*
X14347857Y-15535476D01*
X14528809Y-15725952D02*
X14509762Y-15735476D01*
X14471667Y-15735476D01*
X14452619Y-15725952D01*
X14443095Y-15706905D01*
X14443095Y-15630714D01*
X14452619Y-15611667D01*
X14471667Y-15602143D01*
X14509762Y-15602143D01*
X14528809Y-15611667D01*
X14538333Y-15630714D01*
X14538333Y-15649762D01*
X14443095Y-15668809D01*
X14614524Y-15725952D02*
X14633571Y-15735476D01*
X14671667Y-15735476D01*
X14690714Y-15725952D01*
X14700238Y-15706905D01*
X14700238Y-15697381D01*
X14690714Y-15678333D01*
X14671667Y-15668809D01*
X14643095Y-15668809D01*
X14624048Y-15659286D01*
X14614524Y-15640238D01*
X14614524Y-15630714D01*
X14624048Y-15611667D01*
X14643095Y-15602143D01*
X14671667Y-15602143D01*
X14690714Y-15611667D01*
X14766905Y-15811667D02*
X14776428Y-15802143D01*
X14795476Y-15773571D01*
X14805000Y-15754524D01*
X14814524Y-15725952D01*
X14824048Y-15678333D01*
X14824048Y-15640238D01*
X14814524Y-15592619D01*
X14805000Y-15564048D01*
X14795476Y-15545000D01*
X14776428Y-15516428D01*
X14766905Y-15506905D01*
D13*
X9995000Y-15909000D02*
G75*
G03*
X9995000Y-15909000I-35000J0D01*
G01*
D11*
X10290714Y-15799476D02*
X10309762Y-15799476D01*
X10328810Y-15809000D01*
X10338333Y-15818524D01*
X10347857Y-15837571D01*
X10357381Y-15875667D01*
X10357381Y-15923286D01*
X10347857Y-15961381D01*
X10338333Y-15980428D01*
X10328810Y-15989952D01*
X10309762Y-15999476D01*
X10290714Y-15999476D01*
X10271667Y-15989952D01*
X10262143Y-15980428D01*
X10252619Y-15961381D01*
X10243095Y-15923286D01*
X10243095Y-15875667D01*
X10252619Y-15837571D01*
X10262143Y-15818524D01*
X10271667Y-15809000D01*
X10290714Y-15799476D01*
X10443095Y-15980428D02*
X10452619Y-15989952D01*
X10443095Y-15999476D01*
X10433571Y-15989952D01*
X10443095Y-15980428D01*
X10443095Y-15999476D01*
X10519286Y-15799476D02*
X10652619Y-15799476D01*
X10566905Y-15999476D01*
X10766905Y-15799476D02*
X10785952Y-15799476D01*
X10805000Y-15809000D01*
X10814524Y-15818524D01*
X10824048Y-15837571D01*
X10833571Y-15875667D01*
X10833571Y-15923286D01*
X10824048Y-15961381D01*
X10814524Y-15980428D01*
X10805000Y-15989952D01*
X10785952Y-15999476D01*
X10766905Y-15999476D01*
X10747857Y-15989952D01*
X10738333Y-15980428D01*
X10728810Y-15961381D01*
X10719286Y-15923286D01*
X10719286Y-15875667D01*
X10728810Y-15837571D01*
X10738333Y-15818524D01*
X10747857Y-15809000D01*
X10766905Y-15799476D01*
X10957381Y-15799476D02*
X10976429Y-15799476D01*
X10995476Y-15809000D01*
X11005000Y-15818524D01*
X11014524Y-15837571D01*
X11024048Y-15875667D01*
X11024048Y-15923286D01*
X11014524Y-15961381D01*
X11005000Y-15980428D01*
X10995476Y-15989952D01*
X10976429Y-15999476D01*
X10957381Y-15999476D01*
X10938333Y-15989952D01*
X10928810Y-15980428D01*
X10919286Y-15961381D01*
X10909762Y-15923286D01*
X10909762Y-15875667D01*
X10919286Y-15837571D01*
X10928810Y-15818524D01*
X10938333Y-15809000D01*
X10957381Y-15799476D01*
X11109762Y-15999476D02*
X11109762Y-15866143D01*
X11109762Y-15885190D02*
X11119286Y-15875667D01*
X11138333Y-15866143D01*
X11166905Y-15866143D01*
X11185952Y-15875667D01*
X11195476Y-15894714D01*
X11195476Y-15999476D01*
X11195476Y-15894714D02*
X11205000Y-15875667D01*
X11224048Y-15866143D01*
X11252619Y-15866143D01*
X11271667Y-15875667D01*
X11281190Y-15894714D01*
X11281190Y-15999476D01*
X11376428Y-15999476D02*
X11376428Y-15866143D01*
X11376428Y-15885190D02*
X11385952Y-15875667D01*
X11405000Y-15866143D01*
X11433571Y-15866143D01*
X11452619Y-15875667D01*
X11462143Y-15894714D01*
X11462143Y-15999476D01*
X11462143Y-15894714D02*
X11471667Y-15875667D01*
X11490714Y-15866143D01*
X11519286Y-15866143D01*
X11538333Y-15875667D01*
X11547857Y-15894714D01*
X11547857Y-15999476D01*
X11938333Y-15789952D02*
X11766905Y-16047095D01*
X12195476Y-15799476D02*
X12214524Y-15799476D01*
X12233571Y-15809000D01*
X12243095Y-15818524D01*
X12252619Y-15837571D01*
X12262143Y-15875667D01*
X12262143Y-15923286D01*
X12252619Y-15961381D01*
X12243095Y-15980428D01*
X12233571Y-15989952D01*
X12214524Y-15999476D01*
X12195476Y-15999476D01*
X12176428Y-15989952D01*
X12166905Y-15980428D01*
X12157381Y-15961381D01*
X12147857Y-15923286D01*
X12147857Y-15875667D01*
X12157381Y-15837571D01*
X12166905Y-15818524D01*
X12176428Y-15809000D01*
X12195476Y-15799476D01*
X12347857Y-15980428D02*
X12357381Y-15989952D01*
X12347857Y-15999476D01*
X12338333Y-15989952D01*
X12347857Y-15980428D01*
X12347857Y-15999476D01*
X12481190Y-15799476D02*
X12500238Y-15799476D01*
X12519286Y-15809000D01*
X12528809Y-15818524D01*
X12538333Y-15837571D01*
X12547857Y-15875667D01*
X12547857Y-15923286D01*
X12538333Y-15961381D01*
X12528809Y-15980428D01*
X12519286Y-15989952D01*
X12500238Y-15999476D01*
X12481190Y-15999476D01*
X12462143Y-15989952D01*
X12452619Y-15980428D01*
X12443095Y-15961381D01*
X12433571Y-15923286D01*
X12433571Y-15875667D01*
X12443095Y-15837571D01*
X12452619Y-15818524D01*
X12462143Y-15809000D01*
X12481190Y-15799476D01*
X12624048Y-15818524D02*
X12633571Y-15809000D01*
X12652619Y-15799476D01*
X12700238Y-15799476D01*
X12719286Y-15809000D01*
X12728809Y-15818524D01*
X12738333Y-15837571D01*
X12738333Y-15856619D01*
X12728809Y-15885190D01*
X12614524Y-15999476D01*
X12738333Y-15999476D01*
X12805000Y-15799476D02*
X12938333Y-15799476D01*
X12852619Y-15999476D01*
X13100238Y-15799476D02*
X13062143Y-15799476D01*
X13043095Y-15809000D01*
X13033571Y-15818524D01*
X13014524Y-15847095D01*
X13005000Y-15885190D01*
X13005000Y-15961381D01*
X13014524Y-15980428D01*
X13024048Y-15989952D01*
X13043095Y-15999476D01*
X13081190Y-15999476D01*
X13100238Y-15989952D01*
X13109762Y-15980428D01*
X13119286Y-15961381D01*
X13119286Y-15913762D01*
X13109762Y-15894714D01*
X13100238Y-15885190D01*
X13081190Y-15875667D01*
X13043095Y-15875667D01*
X13024048Y-15885190D01*
X13014524Y-15894714D01*
X13005000Y-15913762D01*
X13195476Y-15799476D02*
X13195476Y-15837571D01*
X13271667Y-15799476D02*
X13271667Y-15837571D01*
X13566905Y-16075667D02*
X13557381Y-16066143D01*
X13538333Y-16037571D01*
X13528809Y-16018524D01*
X13519286Y-15989952D01*
X13509762Y-15942333D01*
X13509762Y-15904238D01*
X13519286Y-15856619D01*
X13528809Y-15828048D01*
X13538333Y-15809000D01*
X13557381Y-15780428D01*
X13566905Y-15770905D01*
X13671667Y-15885190D02*
X13652619Y-15875667D01*
X13643095Y-15866143D01*
X13633571Y-15847095D01*
X13633571Y-15837571D01*
X13643095Y-15818524D01*
X13652619Y-15809000D01*
X13671667Y-15799476D01*
X13709762Y-15799476D01*
X13728809Y-15809000D01*
X13738333Y-15818524D01*
X13747857Y-15837571D01*
X13747857Y-15847095D01*
X13738333Y-15866143D01*
X13728809Y-15875667D01*
X13709762Y-15885190D01*
X13671667Y-15885190D01*
X13652619Y-15894714D01*
X13643095Y-15904238D01*
X13633571Y-15923286D01*
X13633571Y-15961381D01*
X13643095Y-15980428D01*
X13652619Y-15989952D01*
X13671667Y-15999476D01*
X13709762Y-15999476D01*
X13728809Y-15989952D01*
X13738333Y-15980428D01*
X13747857Y-15961381D01*
X13747857Y-15923286D01*
X13738333Y-15904238D01*
X13728809Y-15894714D01*
X13709762Y-15885190D01*
X13985952Y-15999476D02*
X13985952Y-15799476D01*
X14071667Y-15999476D02*
X14071667Y-15894714D01*
X14062143Y-15875667D01*
X14043095Y-15866143D01*
X14014524Y-15866143D01*
X13995476Y-15875667D01*
X13985952Y-15885190D01*
X14195476Y-15999476D02*
X14176428Y-15989952D01*
X14166905Y-15980428D01*
X14157381Y-15961381D01*
X14157381Y-15904238D01*
X14166905Y-15885190D01*
X14176428Y-15875667D01*
X14195476Y-15866143D01*
X14224048Y-15866143D01*
X14243095Y-15875667D01*
X14252619Y-15885190D01*
X14262143Y-15904238D01*
X14262143Y-15961381D01*
X14252619Y-15980428D01*
X14243095Y-15989952D01*
X14224048Y-15999476D01*
X14195476Y-15999476D01*
X14376428Y-15999476D02*
X14357381Y-15989952D01*
X14347857Y-15970905D01*
X14347857Y-15799476D01*
X14528809Y-15989952D02*
X14509762Y-15999476D01*
X14471667Y-15999476D01*
X14452619Y-15989952D01*
X14443095Y-15970905D01*
X14443095Y-15894714D01*
X14452619Y-15875667D01*
X14471667Y-15866143D01*
X14509762Y-15866143D01*
X14528809Y-15875667D01*
X14538333Y-15894714D01*
X14538333Y-15913762D01*
X14443095Y-15932809D01*
X14614524Y-15989952D02*
X14633571Y-15999476D01*
X14671667Y-15999476D01*
X14690714Y-15989952D01*
X14700238Y-15970905D01*
X14700238Y-15961381D01*
X14690714Y-15942333D01*
X14671667Y-15932809D01*
X14643095Y-15932809D01*
X14624048Y-15923286D01*
X14614524Y-15904238D01*
X14614524Y-15894714D01*
X14624048Y-15875667D01*
X14643095Y-15866143D01*
X14671667Y-15866143D01*
X14690714Y-15875667D01*
X14766905Y-16075667D02*
X14776428Y-16066143D01*
X14795476Y-16037571D01*
X14805000Y-16018524D01*
X14814524Y-15989952D01*
X14824048Y-15942333D01*
X14824048Y-15904238D01*
X14814524Y-15856619D01*
X14805000Y-15828048D01*
X14795476Y-15809000D01*
X14776428Y-15780428D01*
X14766905Y-15770905D01*
D14*
X9955000Y-16133000D02*
X9955000Y-16213000D01*
X9915000Y-16173000D02*
X9995000Y-16173000D01*
D11*
X10290714Y-16063476D02*
X10309762Y-16063476D01*
X10328810Y-16073000D01*
X10338333Y-16082524D01*
X10347857Y-16101571D01*
X10357381Y-16139667D01*
X10357381Y-16187286D01*
X10347857Y-16225381D01*
X10338333Y-16244428D01*
X10328810Y-16253952D01*
X10309762Y-16263476D01*
X10290714Y-16263476D01*
X10271667Y-16253952D01*
X10262143Y-16244428D01*
X10252619Y-16225381D01*
X10243095Y-16187286D01*
X10243095Y-16139667D01*
X10252619Y-16101571D01*
X10262143Y-16082524D01*
X10271667Y-16073000D01*
X10290714Y-16063476D01*
X10443095Y-16244428D02*
X10452619Y-16253952D01*
X10443095Y-16263476D01*
X10433571Y-16253952D01*
X10443095Y-16244428D01*
X10443095Y-16263476D01*
X10566905Y-16149190D02*
X10547857Y-16139667D01*
X10538333Y-16130143D01*
X10528810Y-16111095D01*
X10528810Y-16101571D01*
X10538333Y-16082524D01*
X10547857Y-16073000D01*
X10566905Y-16063476D01*
X10605000Y-16063476D01*
X10624048Y-16073000D01*
X10633571Y-16082524D01*
X10643095Y-16101571D01*
X10643095Y-16111095D01*
X10633571Y-16130143D01*
X10624048Y-16139667D01*
X10605000Y-16149190D01*
X10566905Y-16149190D01*
X10547857Y-16158714D01*
X10538333Y-16168238D01*
X10528810Y-16187286D01*
X10528810Y-16225381D01*
X10538333Y-16244428D01*
X10547857Y-16253952D01*
X10566905Y-16263476D01*
X10605000Y-16263476D01*
X10624048Y-16253952D01*
X10633571Y-16244428D01*
X10643095Y-16225381D01*
X10643095Y-16187286D01*
X10633571Y-16168238D01*
X10624048Y-16158714D01*
X10605000Y-16149190D01*
X10766905Y-16063476D02*
X10785952Y-16063476D01*
X10805000Y-16073000D01*
X10814524Y-16082524D01*
X10824048Y-16101571D01*
X10833571Y-16139667D01*
X10833571Y-16187286D01*
X10824048Y-16225381D01*
X10814524Y-16244428D01*
X10805000Y-16253952D01*
X10785952Y-16263476D01*
X10766905Y-16263476D01*
X10747857Y-16253952D01*
X10738333Y-16244428D01*
X10728810Y-16225381D01*
X10719286Y-16187286D01*
X10719286Y-16139667D01*
X10728810Y-16101571D01*
X10738333Y-16082524D01*
X10747857Y-16073000D01*
X10766905Y-16063476D01*
X10957381Y-16063476D02*
X10976429Y-16063476D01*
X10995476Y-16073000D01*
X11005000Y-16082524D01*
X11014524Y-16101571D01*
X11024048Y-16139667D01*
X11024048Y-16187286D01*
X11014524Y-16225381D01*
X11005000Y-16244428D01*
X10995476Y-16253952D01*
X10976429Y-16263476D01*
X10957381Y-16263476D01*
X10938333Y-16253952D01*
X10928810Y-16244428D01*
X10919286Y-16225381D01*
X10909762Y-16187286D01*
X10909762Y-16139667D01*
X10919286Y-16101571D01*
X10928810Y-16082524D01*
X10938333Y-16073000D01*
X10957381Y-16063476D01*
X11109762Y-16263476D02*
X11109762Y-16130143D01*
X11109762Y-16149190D02*
X11119286Y-16139667D01*
X11138333Y-16130143D01*
X11166905Y-16130143D01*
X11185952Y-16139667D01*
X11195476Y-16158714D01*
X11195476Y-16263476D01*
X11195476Y-16158714D02*
X11205000Y-16139667D01*
X11224048Y-16130143D01*
X11252619Y-16130143D01*
X11271667Y-16139667D01*
X11281190Y-16158714D01*
X11281190Y-16263476D01*
X11376428Y-16263476D02*
X11376428Y-16130143D01*
X11376428Y-16149190D02*
X11385952Y-16139667D01*
X11405000Y-16130143D01*
X11433571Y-16130143D01*
X11452619Y-16139667D01*
X11462143Y-16158714D01*
X11462143Y-16263476D01*
X11462143Y-16158714D02*
X11471667Y-16139667D01*
X11490714Y-16130143D01*
X11519286Y-16130143D01*
X11538333Y-16139667D01*
X11547857Y-16158714D01*
X11547857Y-16263476D01*
X11938333Y-16053952D02*
X11766905Y-16311095D01*
X12195476Y-16063476D02*
X12214524Y-16063476D01*
X12233571Y-16073000D01*
X12243095Y-16082524D01*
X12252619Y-16101571D01*
X12262143Y-16139667D01*
X12262143Y-16187286D01*
X12252619Y-16225381D01*
X12243095Y-16244428D01*
X12233571Y-16253952D01*
X12214524Y-16263476D01*
X12195476Y-16263476D01*
X12176428Y-16253952D01*
X12166905Y-16244428D01*
X12157381Y-16225381D01*
X12147857Y-16187286D01*
X12147857Y-16139667D01*
X12157381Y-16101571D01*
X12166905Y-16082524D01*
X12176428Y-16073000D01*
X12195476Y-16063476D01*
X12347857Y-16244428D02*
X12357381Y-16253952D01*
X12347857Y-16263476D01*
X12338333Y-16253952D01*
X12347857Y-16244428D01*
X12347857Y-16263476D01*
X12481190Y-16063476D02*
X12500238Y-16063476D01*
X12519286Y-16073000D01*
X12528809Y-16082524D01*
X12538333Y-16101571D01*
X12547857Y-16139667D01*
X12547857Y-16187286D01*
X12538333Y-16225381D01*
X12528809Y-16244428D01*
X12519286Y-16253952D01*
X12500238Y-16263476D01*
X12481190Y-16263476D01*
X12462143Y-16253952D01*
X12452619Y-16244428D01*
X12443095Y-16225381D01*
X12433571Y-16187286D01*
X12433571Y-16139667D01*
X12443095Y-16101571D01*
X12452619Y-16082524D01*
X12462143Y-16073000D01*
X12481190Y-16063476D01*
X12614524Y-16063476D02*
X12738333Y-16063476D01*
X12671667Y-16139667D01*
X12700238Y-16139667D01*
X12719286Y-16149190D01*
X12728809Y-16158714D01*
X12738333Y-16177762D01*
X12738333Y-16225381D01*
X12728809Y-16244428D01*
X12719286Y-16253952D01*
X12700238Y-16263476D01*
X12643095Y-16263476D01*
X12624048Y-16253952D01*
X12614524Y-16244428D01*
X12928809Y-16263476D02*
X12814524Y-16263476D01*
X12871667Y-16263476D02*
X12871667Y-16063476D01*
X12852619Y-16092048D01*
X12833571Y-16111095D01*
X12814524Y-16120619D01*
X13109762Y-16063476D02*
X13014524Y-16063476D01*
X13005000Y-16158714D01*
X13014524Y-16149190D01*
X13033571Y-16139667D01*
X13081190Y-16139667D01*
X13100238Y-16149190D01*
X13109762Y-16158714D01*
X13119286Y-16177762D01*
X13119286Y-16225381D01*
X13109762Y-16244428D01*
X13100238Y-16253952D01*
X13081190Y-16263476D01*
X13033571Y-16263476D01*
X13014524Y-16253952D01*
X13005000Y-16244428D01*
X13195476Y-16063476D02*
X13195476Y-16101571D01*
X13271667Y-16063476D02*
X13271667Y-16101571D01*
X13566905Y-16339667D02*
X13557381Y-16330143D01*
X13538333Y-16301571D01*
X13528809Y-16282524D01*
X13519286Y-16253952D01*
X13509762Y-16206333D01*
X13509762Y-16168238D01*
X13519286Y-16120619D01*
X13528809Y-16092048D01*
X13538333Y-16073000D01*
X13557381Y-16044428D01*
X13566905Y-16034905D01*
X13728809Y-16130143D02*
X13728809Y-16263476D01*
X13681190Y-16053952D02*
X13633571Y-16196809D01*
X13757381Y-16196809D01*
X13985952Y-16263476D02*
X13985952Y-16063476D01*
X14071667Y-16263476D02*
X14071667Y-16158714D01*
X14062143Y-16139667D01*
X14043095Y-16130143D01*
X14014524Y-16130143D01*
X13995476Y-16139667D01*
X13985952Y-16149190D01*
X14195476Y-16263476D02*
X14176428Y-16253952D01*
X14166905Y-16244428D01*
X14157381Y-16225381D01*
X14157381Y-16168238D01*
X14166905Y-16149190D01*
X14176428Y-16139667D01*
X14195476Y-16130143D01*
X14224048Y-16130143D01*
X14243095Y-16139667D01*
X14252619Y-16149190D01*
X14262143Y-16168238D01*
X14262143Y-16225381D01*
X14252619Y-16244428D01*
X14243095Y-16253952D01*
X14224048Y-16263476D01*
X14195476Y-16263476D01*
X14376428Y-16263476D02*
X14357381Y-16253952D01*
X14347857Y-16234905D01*
X14347857Y-16063476D01*
X14528809Y-16253952D02*
X14509762Y-16263476D01*
X14471667Y-16263476D01*
X14452619Y-16253952D01*
X14443095Y-16234905D01*
X14443095Y-16158714D01*
X14452619Y-16139667D01*
X14471667Y-16130143D01*
X14509762Y-16130143D01*
X14528809Y-16139667D01*
X14538333Y-16158714D01*
X14538333Y-16177762D01*
X14443095Y-16196809D01*
X14614524Y-16253952D02*
X14633571Y-16263476D01*
X14671667Y-16263476D01*
X14690714Y-16253952D01*
X14700238Y-16234905D01*
X14700238Y-16225381D01*
X14690714Y-16206333D01*
X14671667Y-16196809D01*
X14643095Y-16196809D01*
X14624048Y-16187286D01*
X14614524Y-16168238D01*
X14614524Y-16158714D01*
X14624048Y-16139667D01*
X14643095Y-16130143D01*
X14671667Y-16130143D01*
X14690714Y-16139667D01*
X14766905Y-16339667D02*
X14776428Y-16330143D01*
X14795476Y-16301571D01*
X14805000Y-16282524D01*
X14814524Y-16253952D01*
X14824048Y-16206333D01*
X14824048Y-16168238D01*
X14814524Y-16120619D01*
X14805000Y-16092048D01*
X14795476Y-16073000D01*
X14776428Y-16044428D01*
X14766905Y-16034905D01*
D10*
X9980356Y-16472356D02*
X9980356Y-16401644D01*
X9909644Y-16401644D01*
X9909644Y-16472356D01*
X9980356Y-16472356D01*
D11*
X10357381Y-16527476D02*
X10243095Y-16527476D01*
X10300238Y-16527476D02*
X10300238Y-16327476D01*
X10281190Y-16356048D01*
X10262143Y-16375095D01*
X10243095Y-16384619D01*
X10443095Y-16508428D02*
X10452619Y-16517952D01*
X10443095Y-16527476D01*
X10433571Y-16517952D01*
X10443095Y-16508428D01*
X10443095Y-16527476D01*
X10576429Y-16327476D02*
X10595476Y-16327476D01*
X10614524Y-16337000D01*
X10624048Y-16346524D01*
X10633571Y-16365571D01*
X10643095Y-16403667D01*
X10643095Y-16451286D01*
X10633571Y-16489381D01*
X10624048Y-16508428D01*
X10614524Y-16517952D01*
X10595476Y-16527476D01*
X10576429Y-16527476D01*
X10557381Y-16517952D01*
X10547857Y-16508428D01*
X10538333Y-16489381D01*
X10528810Y-16451286D01*
X10528810Y-16403667D01*
X10538333Y-16365571D01*
X10547857Y-16346524D01*
X10557381Y-16337000D01*
X10576429Y-16327476D01*
X10766905Y-16327476D02*
X10785952Y-16327476D01*
X10805000Y-16337000D01*
X10814524Y-16346524D01*
X10824048Y-16365571D01*
X10833571Y-16403667D01*
X10833571Y-16451286D01*
X10824048Y-16489381D01*
X10814524Y-16508428D01*
X10805000Y-16517952D01*
X10785952Y-16527476D01*
X10766905Y-16527476D01*
X10747857Y-16517952D01*
X10738333Y-16508428D01*
X10728810Y-16489381D01*
X10719286Y-16451286D01*
X10719286Y-16403667D01*
X10728810Y-16365571D01*
X10738333Y-16346524D01*
X10747857Y-16337000D01*
X10766905Y-16327476D01*
X10957381Y-16327476D02*
X10976429Y-16327476D01*
X10995476Y-16337000D01*
X11005000Y-16346524D01*
X11014524Y-16365571D01*
X11024048Y-16403667D01*
X11024048Y-16451286D01*
X11014524Y-16489381D01*
X11005000Y-16508428D01*
X10995476Y-16517952D01*
X10976429Y-16527476D01*
X10957381Y-16527476D01*
X10938333Y-16517952D01*
X10928810Y-16508428D01*
X10919286Y-16489381D01*
X10909762Y-16451286D01*
X10909762Y-16403667D01*
X10919286Y-16365571D01*
X10928810Y-16346524D01*
X10938333Y-16337000D01*
X10957381Y-16327476D01*
X11109762Y-16527476D02*
X11109762Y-16394143D01*
X11109762Y-16413190D02*
X11119286Y-16403667D01*
X11138333Y-16394143D01*
X11166905Y-16394143D01*
X11185952Y-16403667D01*
X11195476Y-16422714D01*
X11195476Y-16527476D01*
X11195476Y-16422714D02*
X11205000Y-16403667D01*
X11224048Y-16394143D01*
X11252619Y-16394143D01*
X11271667Y-16403667D01*
X11281190Y-16422714D01*
X11281190Y-16527476D01*
X11376428Y-16527476D02*
X11376428Y-16394143D01*
X11376428Y-16413190D02*
X11385952Y-16403667D01*
X11405000Y-16394143D01*
X11433571Y-16394143D01*
X11452619Y-16403667D01*
X11462143Y-16422714D01*
X11462143Y-16527476D01*
X11462143Y-16422714D02*
X11471667Y-16403667D01*
X11490714Y-16394143D01*
X11519286Y-16394143D01*
X11538333Y-16403667D01*
X11547857Y-16422714D01*
X11547857Y-16527476D01*
X11938333Y-16317952D02*
X11766905Y-16575095D01*
X12195476Y-16327476D02*
X12214524Y-16327476D01*
X12233571Y-16337000D01*
X12243095Y-16346524D01*
X12252619Y-16365571D01*
X12262143Y-16403667D01*
X12262143Y-16451286D01*
X12252619Y-16489381D01*
X12243095Y-16508428D01*
X12233571Y-16517952D01*
X12214524Y-16527476D01*
X12195476Y-16527476D01*
X12176428Y-16517952D01*
X12166905Y-16508428D01*
X12157381Y-16489381D01*
X12147857Y-16451286D01*
X12147857Y-16403667D01*
X12157381Y-16365571D01*
X12166905Y-16346524D01*
X12176428Y-16337000D01*
X12195476Y-16327476D01*
X12347857Y-16508428D02*
X12357381Y-16517952D01*
X12347857Y-16527476D01*
X12338333Y-16517952D01*
X12347857Y-16508428D01*
X12347857Y-16527476D01*
X12481190Y-16327476D02*
X12500238Y-16327476D01*
X12519286Y-16337000D01*
X12528809Y-16346524D01*
X12538333Y-16365571D01*
X12547857Y-16403667D01*
X12547857Y-16451286D01*
X12538333Y-16489381D01*
X12528809Y-16508428D01*
X12519286Y-16517952D01*
X12500238Y-16527476D01*
X12481190Y-16527476D01*
X12462143Y-16517952D01*
X12452619Y-16508428D01*
X12443095Y-16489381D01*
X12433571Y-16451286D01*
X12433571Y-16403667D01*
X12443095Y-16365571D01*
X12452619Y-16346524D01*
X12462143Y-16337000D01*
X12481190Y-16327476D01*
X12614524Y-16327476D02*
X12738333Y-16327476D01*
X12671667Y-16403667D01*
X12700238Y-16403667D01*
X12719286Y-16413190D01*
X12728809Y-16422714D01*
X12738333Y-16441762D01*
X12738333Y-16489381D01*
X12728809Y-16508428D01*
X12719286Y-16517952D01*
X12700238Y-16527476D01*
X12643095Y-16527476D01*
X12624048Y-16517952D01*
X12614524Y-16508428D01*
X12833571Y-16527476D02*
X12871667Y-16527476D01*
X12890714Y-16517952D01*
X12900238Y-16508428D01*
X12919286Y-16479857D01*
X12928809Y-16441762D01*
X12928809Y-16365571D01*
X12919286Y-16346524D01*
X12909762Y-16337000D01*
X12890714Y-16327476D01*
X12852619Y-16327476D01*
X12833571Y-16337000D01*
X12824048Y-16346524D01*
X12814524Y-16365571D01*
X12814524Y-16413190D01*
X12824048Y-16432238D01*
X12833571Y-16441762D01*
X12852619Y-16451286D01*
X12890714Y-16451286D01*
X12909762Y-16441762D01*
X12919286Y-16432238D01*
X12928809Y-16413190D01*
X13100238Y-16394143D02*
X13100238Y-16527476D01*
X13052619Y-16317952D02*
X13005000Y-16460809D01*
X13128809Y-16460809D01*
X13195476Y-16327476D02*
X13195476Y-16365571D01*
X13271667Y-16327476D02*
X13271667Y-16365571D01*
X13566905Y-16603667D02*
X13557381Y-16594143D01*
X13538333Y-16565571D01*
X13528809Y-16546524D01*
X13519286Y-16517952D01*
X13509762Y-16470333D01*
X13509762Y-16432238D01*
X13519286Y-16384619D01*
X13528809Y-16356048D01*
X13538333Y-16337000D01*
X13557381Y-16308428D01*
X13566905Y-16298905D01*
X13728809Y-16394143D02*
X13728809Y-16527476D01*
X13681190Y-16317952D02*
X13633571Y-16460809D01*
X13757381Y-16460809D01*
X13814524Y-16327476D02*
X13938333Y-16327476D01*
X13871667Y-16403667D01*
X13900238Y-16403667D01*
X13919286Y-16413190D01*
X13928809Y-16422714D01*
X13938333Y-16441762D01*
X13938333Y-16489381D01*
X13928809Y-16508428D01*
X13919286Y-16517952D01*
X13900238Y-16527476D01*
X13843095Y-16527476D01*
X13824048Y-16517952D01*
X13814524Y-16508428D01*
X14176428Y-16527476D02*
X14176428Y-16327476D01*
X14262143Y-16527476D02*
X14262143Y-16422714D01*
X14252619Y-16403667D01*
X14233571Y-16394143D01*
X14205000Y-16394143D01*
X14185952Y-16403667D01*
X14176428Y-16413190D01*
X14385952Y-16527476D02*
X14366905Y-16517952D01*
X14357381Y-16508428D01*
X14347857Y-16489381D01*
X14347857Y-16432238D01*
X14357381Y-16413190D01*
X14366905Y-16403667D01*
X14385952Y-16394143D01*
X14414524Y-16394143D01*
X14433571Y-16403667D01*
X14443095Y-16413190D01*
X14452619Y-16432238D01*
X14452619Y-16489381D01*
X14443095Y-16508428D01*
X14433571Y-16517952D01*
X14414524Y-16527476D01*
X14385952Y-16527476D01*
X14566905Y-16527476D02*
X14547857Y-16517952D01*
X14538333Y-16498905D01*
X14538333Y-16327476D01*
X14719286Y-16517952D02*
X14700238Y-16527476D01*
X14662143Y-16527476D01*
X14643095Y-16517952D01*
X14633571Y-16498905D01*
X14633571Y-16422714D01*
X14643095Y-16403667D01*
X14662143Y-16394143D01*
X14700238Y-16394143D01*
X14719286Y-16403667D01*
X14728809Y-16422714D01*
X14728809Y-16441762D01*
X14633571Y-16460809D01*
X14805000Y-16517952D02*
X14824048Y-16527476D01*
X14862143Y-16527476D01*
X14881190Y-16517952D01*
X14890714Y-16498905D01*
X14890714Y-16489381D01*
X14881190Y-16470333D01*
X14862143Y-16460809D01*
X14833571Y-16460809D01*
X14814524Y-16451286D01*
X14805000Y-16432238D01*
X14805000Y-16422714D01*
X14814524Y-16403667D01*
X14833571Y-16394143D01*
X14862143Y-16394143D01*
X14881190Y-16403667D01*
X14957381Y-16603667D02*
X14966905Y-16594143D01*
X14985952Y-16565571D01*
X14995476Y-16546524D01*
X15005000Y-16517952D01*
X15014524Y-16470333D01*
X15014524Y-16432238D01*
X15005000Y-16384619D01*
X14995476Y-16356048D01*
X14985952Y-16337000D01*
X14966905Y-16308428D01*
X14957381Y-16298905D01*
D15*
X9940000Y-16756000D02*
X9995000Y-16701000D01*
X9940000Y-16646000D01*
X9885000Y-16701000D01*
X9940000Y-16756000D01*
D11*
X10357381Y-16791476D02*
X10243095Y-16791476D01*
X10300238Y-16791476D02*
X10300238Y-16591476D01*
X10281190Y-16620048D01*
X10262143Y-16639095D01*
X10243095Y-16648619D01*
X10443095Y-16772428D02*
X10452619Y-16781952D01*
X10443095Y-16791476D01*
X10433571Y-16781952D01*
X10443095Y-16772428D01*
X10443095Y-16791476D01*
X10643095Y-16791476D02*
X10528810Y-16791476D01*
X10585952Y-16791476D02*
X10585952Y-16591476D01*
X10566905Y-16620048D01*
X10547857Y-16639095D01*
X10528810Y-16648619D01*
X10766905Y-16591476D02*
X10785952Y-16591476D01*
X10805000Y-16601000D01*
X10814524Y-16610524D01*
X10824048Y-16629571D01*
X10833571Y-16667667D01*
X10833571Y-16715286D01*
X10824048Y-16753381D01*
X10814524Y-16772428D01*
X10805000Y-16781952D01*
X10785952Y-16791476D01*
X10766905Y-16791476D01*
X10747857Y-16781952D01*
X10738333Y-16772428D01*
X10728810Y-16753381D01*
X10719286Y-16715286D01*
X10719286Y-16667667D01*
X10728810Y-16629571D01*
X10738333Y-16610524D01*
X10747857Y-16601000D01*
X10766905Y-16591476D01*
X10957381Y-16591476D02*
X10976429Y-16591476D01*
X10995476Y-16601000D01*
X11005000Y-16610524D01*
X11014524Y-16629571D01*
X11024048Y-16667667D01*
X11024048Y-16715286D01*
X11014524Y-16753381D01*
X11005000Y-16772428D01*
X10995476Y-16781952D01*
X10976429Y-16791476D01*
X10957381Y-16791476D01*
X10938333Y-16781952D01*
X10928810Y-16772428D01*
X10919286Y-16753381D01*
X10909762Y-16715286D01*
X10909762Y-16667667D01*
X10919286Y-16629571D01*
X10928810Y-16610524D01*
X10938333Y-16601000D01*
X10957381Y-16591476D01*
X11109762Y-16791476D02*
X11109762Y-16658143D01*
X11109762Y-16677190D02*
X11119286Y-16667667D01*
X11138333Y-16658143D01*
X11166905Y-16658143D01*
X11185952Y-16667667D01*
X11195476Y-16686714D01*
X11195476Y-16791476D01*
X11195476Y-16686714D02*
X11205000Y-16667667D01*
X11224048Y-16658143D01*
X11252619Y-16658143D01*
X11271667Y-16667667D01*
X11281190Y-16686714D01*
X11281190Y-16791476D01*
X11376428Y-16791476D02*
X11376428Y-16658143D01*
X11376428Y-16677190D02*
X11385952Y-16667667D01*
X11405000Y-16658143D01*
X11433571Y-16658143D01*
X11452619Y-16667667D01*
X11462143Y-16686714D01*
X11462143Y-16791476D01*
X11462143Y-16686714D02*
X11471667Y-16667667D01*
X11490714Y-16658143D01*
X11519286Y-16658143D01*
X11538333Y-16667667D01*
X11547857Y-16686714D01*
X11547857Y-16791476D01*
X11938333Y-16581952D02*
X11766905Y-16839095D01*
X12195476Y-16591476D02*
X12214524Y-16591476D01*
X12233571Y-16601000D01*
X12243095Y-16610524D01*
X12252619Y-16629571D01*
X12262143Y-16667667D01*
X12262143Y-16715286D01*
X12252619Y-16753381D01*
X12243095Y-16772428D01*
X12233571Y-16781952D01*
X12214524Y-16791476D01*
X12195476Y-16791476D01*
X12176428Y-16781952D01*
X12166905Y-16772428D01*
X12157381Y-16753381D01*
X12147857Y-16715286D01*
X12147857Y-16667667D01*
X12157381Y-16629571D01*
X12166905Y-16610524D01*
X12176428Y-16601000D01*
X12195476Y-16591476D01*
X12347857Y-16772428D02*
X12357381Y-16781952D01*
X12347857Y-16791476D01*
X12338333Y-16781952D01*
X12347857Y-16772428D01*
X12347857Y-16791476D01*
X12481190Y-16591476D02*
X12500238Y-16591476D01*
X12519286Y-16601000D01*
X12528809Y-16610524D01*
X12538333Y-16629571D01*
X12547857Y-16667667D01*
X12547857Y-16715286D01*
X12538333Y-16753381D01*
X12528809Y-16772428D01*
X12519286Y-16781952D01*
X12500238Y-16791476D01*
X12481190Y-16791476D01*
X12462143Y-16781952D01*
X12452619Y-16772428D01*
X12443095Y-16753381D01*
X12433571Y-16715286D01*
X12433571Y-16667667D01*
X12443095Y-16629571D01*
X12452619Y-16610524D01*
X12462143Y-16601000D01*
X12481190Y-16591476D01*
X12719286Y-16658143D02*
X12719286Y-16791476D01*
X12671667Y-16581952D02*
X12624048Y-16724809D01*
X12747857Y-16724809D01*
X12805000Y-16591476D02*
X12928809Y-16591476D01*
X12862143Y-16667667D01*
X12890714Y-16667667D01*
X12909762Y-16677190D01*
X12919286Y-16686714D01*
X12928809Y-16705762D01*
X12928809Y-16753381D01*
X12919286Y-16772428D01*
X12909762Y-16781952D01*
X12890714Y-16791476D01*
X12833571Y-16791476D01*
X12814524Y-16781952D01*
X12805000Y-16772428D01*
X12995476Y-16591476D02*
X13119286Y-16591476D01*
X13052619Y-16667667D01*
X13081190Y-16667667D01*
X13100238Y-16677190D01*
X13109762Y-16686714D01*
X13119286Y-16705762D01*
X13119286Y-16753381D01*
X13109762Y-16772428D01*
X13100238Y-16781952D01*
X13081190Y-16791476D01*
X13024048Y-16791476D01*
X13005000Y-16781952D01*
X12995476Y-16772428D01*
X13195476Y-16591476D02*
X13195476Y-16629571D01*
X13271667Y-16591476D02*
X13271667Y-16629571D01*
X13566905Y-16867667D02*
X13557381Y-16858143D01*
X13538333Y-16829571D01*
X13528809Y-16810524D01*
X13519286Y-16781952D01*
X13509762Y-16734333D01*
X13509762Y-16696238D01*
X13519286Y-16648619D01*
X13528809Y-16620048D01*
X13538333Y-16601000D01*
X13557381Y-16572428D01*
X13566905Y-16562905D01*
X13633571Y-16610524D02*
X13643095Y-16601000D01*
X13662143Y-16591476D01*
X13709762Y-16591476D01*
X13728809Y-16601000D01*
X13738333Y-16610524D01*
X13747857Y-16629571D01*
X13747857Y-16648619D01*
X13738333Y-16677190D01*
X13624048Y-16791476D01*
X13747857Y-16791476D01*
X13985952Y-16791476D02*
X13985952Y-16591476D01*
X14071667Y-16791476D02*
X14071667Y-16686714D01*
X14062143Y-16667667D01*
X14043095Y-16658143D01*
X14014524Y-16658143D01*
X13995476Y-16667667D01*
X13985952Y-16677190D01*
X14195476Y-16791476D02*
X14176428Y-16781952D01*
X14166905Y-16772428D01*
X14157381Y-16753381D01*
X14157381Y-16696238D01*
X14166905Y-16677190D01*
X14176428Y-16667667D01*
X14195476Y-16658143D01*
X14224048Y-16658143D01*
X14243095Y-16667667D01*
X14252619Y-16677190D01*
X14262143Y-16696238D01*
X14262143Y-16753381D01*
X14252619Y-16772428D01*
X14243095Y-16781952D01*
X14224048Y-16791476D01*
X14195476Y-16791476D01*
X14376428Y-16791476D02*
X14357381Y-16781952D01*
X14347857Y-16762905D01*
X14347857Y-16591476D01*
X14528809Y-16781952D02*
X14509762Y-16791476D01*
X14471667Y-16791476D01*
X14452619Y-16781952D01*
X14443095Y-16762905D01*
X14443095Y-16686714D01*
X14452619Y-16667667D01*
X14471667Y-16658143D01*
X14509762Y-16658143D01*
X14528809Y-16667667D01*
X14538333Y-16686714D01*
X14538333Y-16705762D01*
X14443095Y-16724809D01*
X14614524Y-16781952D02*
X14633571Y-16791476D01*
X14671667Y-16791476D01*
X14690714Y-16781952D01*
X14700238Y-16762905D01*
X14700238Y-16753381D01*
X14690714Y-16734333D01*
X14671667Y-16724809D01*
X14643095Y-16724809D01*
X14624048Y-16715286D01*
X14614524Y-16696238D01*
X14614524Y-16686714D01*
X14624048Y-16667667D01*
X14643095Y-16658143D01*
X14671667Y-16658143D01*
X14690714Y-16667667D01*
X14766905Y-16867667D02*
X14776428Y-16858143D01*
X14795476Y-16829571D01*
X14805000Y-16810524D01*
X14814524Y-16781952D01*
X14824048Y-16734333D01*
X14824048Y-16696238D01*
X14814524Y-16648619D01*
X14805000Y-16620048D01*
X14795476Y-16601000D01*
X14776428Y-16572428D01*
X14766905Y-16562905D01*
D16*
X9845000Y-16890000D02*
X9995000Y-17040000D01*
X9995000Y-16890000D02*
X9845000Y-17040000D01*
X9995000Y-16965000D02*
G75*
G03*
X9995000Y-16965000I-75000J0D01*
G01*
D11*
X10357381Y-17055476D02*
X10243095Y-17055476D01*
X10300238Y-17055476D02*
X10300238Y-16855476D01*
X10281190Y-16884048D01*
X10262143Y-16903095D01*
X10243095Y-16912619D01*
X10443095Y-17036429D02*
X10452619Y-17045952D01*
X10443095Y-17055476D01*
X10433571Y-17045952D01*
X10443095Y-17036429D01*
X10443095Y-17055476D01*
X10633571Y-16855476D02*
X10538333Y-16855476D01*
X10528810Y-16950714D01*
X10538333Y-16941190D01*
X10557381Y-16931667D01*
X10605000Y-16931667D01*
X10624048Y-16941190D01*
X10633571Y-16950714D01*
X10643095Y-16969762D01*
X10643095Y-17017381D01*
X10633571Y-17036429D01*
X10624048Y-17045952D01*
X10605000Y-17055476D01*
X10557381Y-17055476D01*
X10538333Y-17045952D01*
X10528810Y-17036429D01*
X10766905Y-16855476D02*
X10785952Y-16855476D01*
X10805000Y-16865000D01*
X10814524Y-16874524D01*
X10824048Y-16893571D01*
X10833571Y-16931667D01*
X10833571Y-16979286D01*
X10824048Y-17017381D01*
X10814524Y-17036429D01*
X10805000Y-17045952D01*
X10785952Y-17055476D01*
X10766905Y-17055476D01*
X10747857Y-17045952D01*
X10738333Y-17036429D01*
X10728810Y-17017381D01*
X10719286Y-16979286D01*
X10719286Y-16931667D01*
X10728810Y-16893571D01*
X10738333Y-16874524D01*
X10747857Y-16865000D01*
X10766905Y-16855476D01*
X10957381Y-16855476D02*
X10976429Y-16855476D01*
X10995476Y-16865000D01*
X11005000Y-16874524D01*
X11014524Y-16893571D01*
X11024048Y-16931667D01*
X11024048Y-16979286D01*
X11014524Y-17017381D01*
X11005000Y-17036429D01*
X10995476Y-17045952D01*
X10976429Y-17055476D01*
X10957381Y-17055476D01*
X10938333Y-17045952D01*
X10928810Y-17036429D01*
X10919286Y-17017381D01*
X10909762Y-16979286D01*
X10909762Y-16931667D01*
X10919286Y-16893571D01*
X10928810Y-16874524D01*
X10938333Y-16865000D01*
X10957381Y-16855476D01*
X11109762Y-17055476D02*
X11109762Y-16922143D01*
X11109762Y-16941190D02*
X11119286Y-16931667D01*
X11138333Y-16922143D01*
X11166905Y-16922143D01*
X11185952Y-16931667D01*
X11195476Y-16950714D01*
X11195476Y-17055476D01*
X11195476Y-16950714D02*
X11205000Y-16931667D01*
X11224048Y-16922143D01*
X11252619Y-16922143D01*
X11271667Y-16931667D01*
X11281190Y-16950714D01*
X11281190Y-17055476D01*
X11376428Y-17055476D02*
X11376428Y-16922143D01*
X11376428Y-16941190D02*
X11385952Y-16931667D01*
X11405000Y-16922143D01*
X11433571Y-16922143D01*
X11452619Y-16931667D01*
X11462143Y-16950714D01*
X11462143Y-17055476D01*
X11462143Y-16950714D02*
X11471667Y-16931667D01*
X11490714Y-16922143D01*
X11519286Y-16922143D01*
X11538333Y-16931667D01*
X11547857Y-16950714D01*
X11547857Y-17055476D01*
X11938333Y-16845952D02*
X11766905Y-17103095D01*
X12195476Y-16855476D02*
X12214524Y-16855476D01*
X12233571Y-16865000D01*
X12243095Y-16874524D01*
X12252619Y-16893571D01*
X12262143Y-16931667D01*
X12262143Y-16979286D01*
X12252619Y-17017381D01*
X12243095Y-17036429D01*
X12233571Y-17045952D01*
X12214524Y-17055476D01*
X12195476Y-17055476D01*
X12176428Y-17045952D01*
X12166905Y-17036429D01*
X12157381Y-17017381D01*
X12147857Y-16979286D01*
X12147857Y-16931667D01*
X12157381Y-16893571D01*
X12166905Y-16874524D01*
X12176428Y-16865000D01*
X12195476Y-16855476D01*
X12347857Y-17036429D02*
X12357381Y-17045952D01*
X12347857Y-17055476D01*
X12338333Y-17045952D01*
X12347857Y-17036429D01*
X12347857Y-17055476D01*
X12481190Y-16855476D02*
X12500238Y-16855476D01*
X12519286Y-16865000D01*
X12528809Y-16874524D01*
X12538333Y-16893571D01*
X12547857Y-16931667D01*
X12547857Y-16979286D01*
X12538333Y-17017381D01*
X12528809Y-17036429D01*
X12519286Y-17045952D01*
X12500238Y-17055476D01*
X12481190Y-17055476D01*
X12462143Y-17045952D01*
X12452619Y-17036429D01*
X12443095Y-17017381D01*
X12433571Y-16979286D01*
X12433571Y-16931667D01*
X12443095Y-16893571D01*
X12452619Y-16874524D01*
X12462143Y-16865000D01*
X12481190Y-16855476D01*
X12728809Y-16855476D02*
X12633571Y-16855476D01*
X12624048Y-16950714D01*
X12633571Y-16941190D01*
X12652619Y-16931667D01*
X12700238Y-16931667D01*
X12719286Y-16941190D01*
X12728809Y-16950714D01*
X12738333Y-16969762D01*
X12738333Y-17017381D01*
X12728809Y-17036429D01*
X12719286Y-17045952D01*
X12700238Y-17055476D01*
X12652619Y-17055476D01*
X12633571Y-17045952D01*
X12624048Y-17036429D01*
X12833571Y-17055476D02*
X12871667Y-17055476D01*
X12890714Y-17045952D01*
X12900238Y-17036429D01*
X12919286Y-17007857D01*
X12928809Y-16969762D01*
X12928809Y-16893571D01*
X12919286Y-16874524D01*
X12909762Y-16865000D01*
X12890714Y-16855476D01*
X12852619Y-16855476D01*
X12833571Y-16865000D01*
X12824048Y-16874524D01*
X12814524Y-16893571D01*
X12814524Y-16941190D01*
X12824048Y-16960238D01*
X12833571Y-16969762D01*
X12852619Y-16979286D01*
X12890714Y-16979286D01*
X12909762Y-16969762D01*
X12919286Y-16960238D01*
X12928809Y-16941190D01*
X13119286Y-17055476D02*
X13005000Y-17055476D01*
X13062143Y-17055476D02*
X13062143Y-16855476D01*
X13043095Y-16884048D01*
X13024048Y-16903095D01*
X13005000Y-16912619D01*
X13195476Y-16855476D02*
X13195476Y-16893571D01*
X13271667Y-16855476D02*
X13271667Y-16893571D01*
X13566905Y-17131667D02*
X13557381Y-17122143D01*
X13538333Y-17093571D01*
X13528809Y-17074524D01*
X13519286Y-17045952D01*
X13509762Y-16998333D01*
X13509762Y-16960238D01*
X13519286Y-16912619D01*
X13528809Y-16884048D01*
X13538333Y-16865000D01*
X13557381Y-16836429D01*
X13566905Y-16826905D01*
X13633571Y-16874524D02*
X13643095Y-16865000D01*
X13662143Y-16855476D01*
X13709762Y-16855476D01*
X13728809Y-16865000D01*
X13738333Y-16874524D01*
X13747857Y-16893571D01*
X13747857Y-16912619D01*
X13738333Y-16941190D01*
X13624048Y-17055476D01*
X13747857Y-17055476D01*
X13985952Y-17055476D02*
X13985952Y-16855476D01*
X14071667Y-17055476D02*
X14071667Y-16950714D01*
X14062143Y-16931667D01*
X14043095Y-16922143D01*
X14014524Y-16922143D01*
X13995476Y-16931667D01*
X13985952Y-16941190D01*
X14195476Y-17055476D02*
X14176428Y-17045952D01*
X14166905Y-17036429D01*
X14157381Y-17017381D01*
X14157381Y-16960238D01*
X14166905Y-16941190D01*
X14176428Y-16931667D01*
X14195476Y-16922143D01*
X14224048Y-16922143D01*
X14243095Y-16931667D01*
X14252619Y-16941190D01*
X14262143Y-16960238D01*
X14262143Y-17017381D01*
X14252619Y-17036429D01*
X14243095Y-17045952D01*
X14224048Y-17055476D01*
X14195476Y-17055476D01*
X14376428Y-17055476D02*
X14357381Y-17045952D01*
X14347857Y-17026905D01*
X14347857Y-16855476D01*
X14528809Y-17045952D02*
X14509762Y-17055476D01*
X14471667Y-17055476D01*
X14452619Y-17045952D01*
X14443095Y-17026905D01*
X14443095Y-16950714D01*
X14452619Y-16931667D01*
X14471667Y-16922143D01*
X14509762Y-16922143D01*
X14528809Y-16931667D01*
X14538333Y-16950714D01*
X14538333Y-16969762D01*
X14443095Y-16988810D01*
X14614524Y-17045952D02*
X14633571Y-17055476D01*
X14671667Y-17055476D01*
X14690714Y-17045952D01*
X14700238Y-17026905D01*
X14700238Y-17017381D01*
X14690714Y-16998333D01*
X14671667Y-16988810D01*
X14643095Y-16988810D01*
X14624048Y-16979286D01*
X14614524Y-16960238D01*
X14614524Y-16950714D01*
X14624048Y-16931667D01*
X14643095Y-16922143D01*
X14671667Y-16922143D01*
X14690714Y-16931667D01*
X14766905Y-17131667D02*
X14776428Y-17122143D01*
X14795476Y-17093571D01*
X14805000Y-17074524D01*
X14814524Y-17045952D01*
X14824048Y-16998333D01*
X14824048Y-16960238D01*
X14814524Y-16912619D01*
X14805000Y-16884048D01*
X14795476Y-16865000D01*
X14776428Y-16836429D01*
X14766905Y-16826905D01*
D17*
X9841000Y-17158000D02*
X9995000Y-17312000D01*
X9995000Y-17158000D02*
X9841000Y-17312000D01*
X9918000Y-17158000D02*
X9918000Y-17312000D01*
X9841000Y-17235000D02*
X9995000Y-17235000D01*
D11*
X10357381Y-17325476D02*
X10243095Y-17325476D01*
X10300238Y-17325476D02*
X10300238Y-17125476D01*
X10281190Y-17154048D01*
X10262143Y-17173095D01*
X10243095Y-17182619D01*
X10443095Y-17306429D02*
X10452619Y-17315952D01*
X10443095Y-17325476D01*
X10433571Y-17315952D01*
X10443095Y-17306429D01*
X10443095Y-17325476D01*
X10633571Y-17125476D02*
X10538333Y-17125476D01*
X10528810Y-17220714D01*
X10538333Y-17211190D01*
X10557381Y-17201667D01*
X10605000Y-17201667D01*
X10624048Y-17211190D01*
X10633571Y-17220714D01*
X10643095Y-17239762D01*
X10643095Y-17287381D01*
X10633571Y-17306429D01*
X10624048Y-17315952D01*
X10605000Y-17325476D01*
X10557381Y-17325476D01*
X10538333Y-17315952D01*
X10528810Y-17306429D01*
X10814524Y-17192143D02*
X10814524Y-17325476D01*
X10766905Y-17115952D02*
X10719286Y-17258810D01*
X10843095Y-17258810D01*
X10957381Y-17125476D02*
X10976429Y-17125476D01*
X10995476Y-17135000D01*
X11005000Y-17144524D01*
X11014524Y-17163571D01*
X11024048Y-17201667D01*
X11024048Y-17249286D01*
X11014524Y-17287381D01*
X11005000Y-17306429D01*
X10995476Y-17315952D01*
X10976429Y-17325476D01*
X10957381Y-17325476D01*
X10938333Y-17315952D01*
X10928810Y-17306429D01*
X10919286Y-17287381D01*
X10909762Y-17249286D01*
X10909762Y-17201667D01*
X10919286Y-17163571D01*
X10928810Y-17144524D01*
X10938333Y-17135000D01*
X10957381Y-17125476D01*
X11109762Y-17325476D02*
X11109762Y-17192143D01*
X11109762Y-17211190D02*
X11119286Y-17201667D01*
X11138333Y-17192143D01*
X11166905Y-17192143D01*
X11185952Y-17201667D01*
X11195476Y-17220714D01*
X11195476Y-17325476D01*
X11195476Y-17220714D02*
X11205000Y-17201667D01*
X11224048Y-17192143D01*
X11252619Y-17192143D01*
X11271667Y-17201667D01*
X11281190Y-17220714D01*
X11281190Y-17325476D01*
X11376428Y-17325476D02*
X11376428Y-17192143D01*
X11376428Y-17211190D02*
X11385952Y-17201667D01*
X11405000Y-17192143D01*
X11433571Y-17192143D01*
X11452619Y-17201667D01*
X11462143Y-17220714D01*
X11462143Y-17325476D01*
X11462143Y-17220714D02*
X11471667Y-17201667D01*
X11490714Y-17192143D01*
X11519286Y-17192143D01*
X11538333Y-17201667D01*
X11547857Y-17220714D01*
X11547857Y-17325476D01*
X11938333Y-17115952D02*
X11766905Y-17373095D01*
X12195476Y-17125476D02*
X12214524Y-17125476D01*
X12233571Y-17135000D01*
X12243095Y-17144524D01*
X12252619Y-17163571D01*
X12262143Y-17201667D01*
X12262143Y-17249286D01*
X12252619Y-17287381D01*
X12243095Y-17306429D01*
X12233571Y-17315952D01*
X12214524Y-17325476D01*
X12195476Y-17325476D01*
X12176428Y-17315952D01*
X12166905Y-17306429D01*
X12157381Y-17287381D01*
X12147857Y-17249286D01*
X12147857Y-17201667D01*
X12157381Y-17163571D01*
X12166905Y-17144524D01*
X12176428Y-17135000D01*
X12195476Y-17125476D01*
X12347857Y-17306429D02*
X12357381Y-17315952D01*
X12347857Y-17325476D01*
X12338333Y-17315952D01*
X12347857Y-17306429D01*
X12347857Y-17325476D01*
X12481190Y-17125476D02*
X12500238Y-17125476D01*
X12519286Y-17135000D01*
X12528809Y-17144524D01*
X12538333Y-17163571D01*
X12547857Y-17201667D01*
X12547857Y-17249286D01*
X12538333Y-17287381D01*
X12528809Y-17306429D01*
X12519286Y-17315952D01*
X12500238Y-17325476D01*
X12481190Y-17325476D01*
X12462143Y-17315952D01*
X12452619Y-17306429D01*
X12443095Y-17287381D01*
X12433571Y-17249286D01*
X12433571Y-17201667D01*
X12443095Y-17163571D01*
X12452619Y-17144524D01*
X12462143Y-17135000D01*
X12481190Y-17125476D01*
X12719286Y-17125476D02*
X12681190Y-17125476D01*
X12662143Y-17135000D01*
X12652619Y-17144524D01*
X12633571Y-17173095D01*
X12624048Y-17211190D01*
X12624048Y-17287381D01*
X12633571Y-17306429D01*
X12643095Y-17315952D01*
X12662143Y-17325476D01*
X12700238Y-17325476D01*
X12719286Y-17315952D01*
X12728809Y-17306429D01*
X12738333Y-17287381D01*
X12738333Y-17239762D01*
X12728809Y-17220714D01*
X12719286Y-17211190D01*
X12700238Y-17201667D01*
X12662143Y-17201667D01*
X12643095Y-17211190D01*
X12633571Y-17220714D01*
X12624048Y-17239762D01*
X12862143Y-17125476D02*
X12881190Y-17125476D01*
X12900238Y-17135000D01*
X12909762Y-17144524D01*
X12919286Y-17163571D01*
X12928809Y-17201667D01*
X12928809Y-17249286D01*
X12919286Y-17287381D01*
X12909762Y-17306429D01*
X12900238Y-17315952D01*
X12881190Y-17325476D01*
X12862143Y-17325476D01*
X12843095Y-17315952D01*
X12833571Y-17306429D01*
X12824048Y-17287381D01*
X12814524Y-17249286D01*
X12814524Y-17201667D01*
X12824048Y-17163571D01*
X12833571Y-17144524D01*
X12843095Y-17135000D01*
X12862143Y-17125476D01*
X13100238Y-17125476D02*
X13062143Y-17125476D01*
X13043095Y-17135000D01*
X13033571Y-17144524D01*
X13014524Y-17173095D01*
X13005000Y-17211190D01*
X13005000Y-17287381D01*
X13014524Y-17306429D01*
X13024048Y-17315952D01*
X13043095Y-17325476D01*
X13081190Y-17325476D01*
X13100238Y-17315952D01*
X13109762Y-17306429D01*
X13119286Y-17287381D01*
X13119286Y-17239762D01*
X13109762Y-17220714D01*
X13100238Y-17211190D01*
X13081190Y-17201667D01*
X13043095Y-17201667D01*
X13024048Y-17211190D01*
X13014524Y-17220714D01*
X13005000Y-17239762D01*
X13195476Y-17125476D02*
X13195476Y-17163571D01*
X13271667Y-17125476D02*
X13271667Y-17163571D01*
X13566905Y-17401667D02*
X13557381Y-17392143D01*
X13538333Y-17363571D01*
X13528809Y-17344524D01*
X13519286Y-17315952D01*
X13509762Y-17268333D01*
X13509762Y-17230238D01*
X13519286Y-17182619D01*
X13528809Y-17154048D01*
X13538333Y-17135000D01*
X13557381Y-17106429D01*
X13566905Y-17096905D01*
X13728809Y-17125476D02*
X13690714Y-17125476D01*
X13671667Y-17135000D01*
X13662143Y-17144524D01*
X13643095Y-17173095D01*
X13633571Y-17211190D01*
X13633571Y-17287381D01*
X13643095Y-17306429D01*
X13652619Y-17315952D01*
X13671667Y-17325476D01*
X13709762Y-17325476D01*
X13728809Y-17315952D01*
X13738333Y-17306429D01*
X13747857Y-17287381D01*
X13747857Y-17239762D01*
X13738333Y-17220714D01*
X13728809Y-17211190D01*
X13709762Y-17201667D01*
X13671667Y-17201667D01*
X13652619Y-17211190D01*
X13643095Y-17220714D01*
X13633571Y-17239762D01*
X13985952Y-17325476D02*
X13985952Y-17125476D01*
X14071667Y-17325476D02*
X14071667Y-17220714D01*
X14062143Y-17201667D01*
X14043095Y-17192143D01*
X14014524Y-17192143D01*
X13995476Y-17201667D01*
X13985952Y-17211190D01*
X14195476Y-17325476D02*
X14176428Y-17315952D01*
X14166905Y-17306429D01*
X14157381Y-17287381D01*
X14157381Y-17230238D01*
X14166905Y-17211190D01*
X14176428Y-17201667D01*
X14195476Y-17192143D01*
X14224048Y-17192143D01*
X14243095Y-17201667D01*
X14252619Y-17211190D01*
X14262143Y-17230238D01*
X14262143Y-17287381D01*
X14252619Y-17306429D01*
X14243095Y-17315952D01*
X14224048Y-17325476D01*
X14195476Y-17325476D01*
X14376428Y-17325476D02*
X14357381Y-17315952D01*
X14347857Y-17296905D01*
X14347857Y-17125476D01*
X14528809Y-17315952D02*
X14509762Y-17325476D01*
X14471667Y-17325476D01*
X14452619Y-17315952D01*
X14443095Y-17296905D01*
X14443095Y-17220714D01*
X14452619Y-17201667D01*
X14471667Y-17192143D01*
X14509762Y-17192143D01*
X14528809Y-17201667D01*
X14538333Y-17220714D01*
X14538333Y-17239762D01*
X14443095Y-17258810D01*
X14614524Y-17315952D02*
X14633571Y-17325476D01*
X14671667Y-17325476D01*
X14690714Y-17315952D01*
X14700238Y-17296905D01*
X14700238Y-17287381D01*
X14690714Y-17268333D01*
X14671667Y-17258810D01*
X14643095Y-17258810D01*
X14624048Y-17249286D01*
X14614524Y-17230238D01*
X14614524Y-17220714D01*
X14624048Y-17201667D01*
X14643095Y-17192143D01*
X14671667Y-17192143D01*
X14690714Y-17201667D01*
X14766905Y-17401667D02*
X14776428Y-17392143D01*
X14795476Y-17363571D01*
X14805000Y-17344524D01*
X14814524Y-17315952D01*
X14824048Y-17268333D01*
X14824048Y-17230238D01*
X14814524Y-17182619D01*
X14805000Y-17154048D01*
X14795476Y-17135000D01*
X14776428Y-17106429D01*
X14766905Y-17096905D01*
M02*
