G04 #@! TF.GenerationSoftware,KiCad,Pcbnew,(6.0.9)*
G04 #@! TF.CreationDate,2023-01-30T18:51:37+02:00*
G04 #@! TF.ProjectId,Schematics,53636865-6d61-4746-9963-732e6b696361,rev?*
G04 #@! TF.SameCoordinates,Original*
G04 #@! TF.FileFunction,Profile,NP*
%FSLAX46Y46*%
G04 Gerber Fmt 4.6, Leading zero omitted, Abs format (unit mm)*
G04 Created by KiCad (PCBNEW (6.0.9)) date 2023-01-30 18:51:37*
%MOMM*%
%LPD*%
G01*
G04 APERTURE LIST*
G04 #@! TA.AperFunction,Profile*
%ADD10C,0.100000*%
G04 #@! TD*
G04 #@! TA.AperFunction,Profile*
%ADD11C,0.120000*%
G04 #@! TD*
G04 APERTURE END LIST*
D10*
X104000000Y-60000000D02*
G75*
G03*
X100000000Y-64000000I0J-4000000D01*
G01*
X185000000Y-64000000D02*
G75*
G03*
X181000000Y-60000000I-4000000J0D01*
G01*
X100000000Y-93000000D02*
G75*
G03*
X102000000Y-95000000I2000000J0D01*
G01*
X151000000Y-104000000D02*
X151000000Y-108000000D01*
X154000000Y-104000000D02*
X154000000Y-108000000D01*
X185000000Y-64000000D02*
X185000000Y-146000000D01*
X111000000Y-97000000D02*
G75*
G03*
X109000000Y-95000000I-2000000J0D01*
G01*
X109000000Y-117000000D02*
G75*
G03*
X111000000Y-115000000I0J2000000D01*
G01*
X111000000Y-97000000D02*
X111000000Y-115000000D01*
X154000000Y-104000000D02*
G75*
G03*
X151000000Y-104000000I-1500000J0D01*
G01*
X100000000Y-146000000D02*
X100000000Y-119000000D01*
X102000000Y-117000000D02*
X109000000Y-117000000D01*
X181000000Y-150000000D02*
G75*
G03*
X185000000Y-146000000I0J4000000D01*
G01*
X100000000Y-64000000D02*
X100000000Y-93000000D01*
X102000000Y-95000000D02*
X109000000Y-95000000D01*
X104000000Y-60000000D02*
X181000000Y-60000000D01*
X102000000Y-117000000D02*
G75*
G03*
X100000000Y-119000000I0J-2000000D01*
G01*
X151000000Y-108000000D02*
G75*
G03*
X154000000Y-108000000I1500000J0D01*
G01*
X181000000Y-150000000D02*
X104000000Y-150000000D01*
X100000000Y-146000000D02*
G75*
G03*
X104000000Y-150000000I4000000J0D01*
G01*
D11*
X168648000Y-131846000D02*
G75*
G03*
X168648000Y-131846000I-1500000J0D01*
G01*
X168648000Y-78146000D02*
G75*
G03*
X168648000Y-78146000I-1500000J0D01*
G01*
M02*
