%TF.GenerationSoftware,KiCad,Pcbnew,(6.0.9)*%
%TF.CreationDate,2023-01-27T22:10:23+02:00*%
%TF.ProjectId,Schematics,53636865-6d61-4746-9963-732e6b696361,rev?*%
%TF.SameCoordinates,Original*%
%TF.FileFunction,Drillmap*%
%TF.FilePolarity,Positive*%
%FSLAX45Y45*%
G04 Gerber Fmt 4.5, Leading zero omitted, Abs format (unit mm)*
G04 Created by KiCad (PCBNEW (6.0.9)) date 2023-01-27 22:10:23*
%MOMM*%
%LPD*%
G01*
G04 APERTURE LIST*
%ADD10C,0.100000*%
%ADD11C,0.200000*%
%ADD12C,0.040000*%
%ADD13C,0.070000*%
%ADD14C,0.080000*%
%ADD15C,0.110000*%
%ADD16C,0.150000*%
%ADD17C,0.154000*%
G04 APERTURE END LIST*
D10*
X10390200Y-5985400D02*
G75*
G03*
X9990200Y-6385400I0J-400000D01*
G01*
X18490200Y-6385400D02*
G75*
G03*
X18090200Y-5985400I-400000J0D01*
G01*
X18490200Y-6385400D02*
X18490200Y-14585400D01*
X11069000Y-9690000D02*
G75*
G03*
X10869000Y-9490000I-200000J0D01*
G01*
X11069000Y-9690000D02*
X11069000Y-11490000D01*
X9990200Y-14585400D02*
X9990000Y-11890000D01*
X10190000Y-11690000D02*
G75*
G03*
X9990000Y-11890000I0J-200000D01*
G01*
X10190000Y-11690000D02*
X10869000Y-11690000D01*
X18090200Y-14985400D02*
G75*
G03*
X18490200Y-14585400I0J400000D01*
G01*
X9990000Y-9290000D02*
G75*
G03*
X10190000Y-9490000I200000J0D01*
G01*
X9990200Y-6385400D02*
X9990000Y-9290000D01*
X10190000Y-9490000D02*
X10869000Y-9490000D01*
X10390200Y-5985400D02*
X18090200Y-5985400D01*
X18090200Y-14985400D02*
X10390200Y-14985400D01*
X10869000Y-11690000D02*
G75*
G03*
X11069000Y-11490000I0J200000D01*
G01*
X9990200Y-14585400D02*
G75*
G03*
X10390200Y-14985400I400000J0D01*
G01*
D11*
D12*
X12499000Y-8120000D02*
X12539000Y-8160000D01*
X12539000Y-8120000D02*
X12499000Y-8160000D01*
X12819000Y-11840000D02*
X12859000Y-11880000D01*
X12859000Y-11840000D02*
X12819000Y-11880000D01*
D13*
X12560000Y-9465000D02*
G75*
G03*
X12560000Y-9465000I-35000J0D01*
G01*
X13068000Y-9465000D02*
G75*
G03*
X13068000Y-9465000I-35000J0D01*
G01*
X13300000Y-9465000D02*
G75*
G03*
X13300000Y-9465000I-35000J0D01*
G01*
X13808000Y-9465000D02*
G75*
G03*
X13808000Y-9465000I-35000J0D01*
G01*
X14630000Y-11620000D02*
G75*
G03*
X14630000Y-11620000I-35000J0D01*
G01*
X14630000Y-11880000D02*
G75*
G03*
X14630000Y-11880000I-35000J0D01*
G01*
X15138000Y-11620000D02*
G75*
G03*
X15138000Y-11620000I-35000J0D01*
G01*
X15138000Y-11880000D02*
G75*
G03*
X15138000Y-11880000I-35000J0D01*
G01*
D14*
X12489000Y-8790000D02*
X12489000Y-8870000D01*
X12449000Y-8830000D02*
X12529000Y-8830000D01*
X12909000Y-7980000D02*
X12909000Y-8060000D01*
X12869000Y-8020000D02*
X12949000Y-8020000D01*
X12909000Y-8480000D02*
X12909000Y-8560000D01*
X12869000Y-8520000D02*
X12949000Y-8520000D01*
X12989000Y-8790000D02*
X12989000Y-8870000D01*
X12949000Y-8830000D02*
X13029000Y-8830000D01*
D10*
X10671356Y-12260356D02*
X10671356Y-12189644D01*
X10600644Y-12189644D01*
X10600644Y-12260356D01*
X10671356Y-12260356D01*
X10925356Y-12260356D02*
X10925356Y-12189644D01*
X10854644Y-12189644D01*
X10854644Y-12260356D01*
X10925356Y-12260356D01*
X11179356Y-12260356D02*
X11179356Y-12189644D01*
X11108644Y-12189644D01*
X11108644Y-12260356D01*
X11179356Y-12260356D01*
X11290856Y-10064756D02*
X11290856Y-9994044D01*
X11220144Y-9994044D01*
X11220144Y-10064756D01*
X11290856Y-10064756D01*
X11290856Y-11176756D02*
X11290856Y-11106044D01*
X11220144Y-11106044D01*
X11220144Y-11176756D01*
X11290856Y-11176756D01*
X11433356Y-12260356D02*
X11433356Y-12189644D01*
X11362644Y-12189644D01*
X11362644Y-12260356D01*
X11433356Y-12260356D01*
X11687356Y-12260356D02*
X11687356Y-12189644D01*
X11616644Y-12189644D01*
X11616644Y-12260356D01*
X11687356Y-12260356D01*
X11798856Y-9858756D02*
X11798856Y-9788044D01*
X11728144Y-9788044D01*
X11728144Y-9858756D01*
X11798856Y-9858756D01*
X11798856Y-11382756D02*
X11798856Y-11312044D01*
X11728144Y-11312044D01*
X11728144Y-11382756D01*
X11798856Y-11382756D01*
X12052856Y-9858756D02*
X12052856Y-9788044D01*
X11982144Y-9788044D01*
X11982144Y-9858756D01*
X12052856Y-9858756D01*
X12052856Y-11382756D02*
X12052856Y-11312044D01*
X11982144Y-11312044D01*
X11982144Y-11382756D01*
X12052856Y-11382756D01*
X12306856Y-9858756D02*
X12306856Y-9788044D01*
X12236144Y-9788044D01*
X12236144Y-9858756D01*
X12306856Y-9858756D01*
X12306856Y-11382756D02*
X12306856Y-11312044D01*
X12236144Y-11312044D01*
X12236144Y-11382756D01*
X12306856Y-11382756D01*
X12560856Y-9858756D02*
X12560856Y-9788044D01*
X12490144Y-9788044D01*
X12490144Y-9858756D01*
X12560856Y-9858756D01*
X12560856Y-11382756D02*
X12560856Y-11312044D01*
X12490144Y-11312044D01*
X12490144Y-11382756D01*
X12560856Y-11382756D01*
X12784556Y-12264306D02*
X12784556Y-12193594D01*
X12713844Y-12193594D01*
X12713844Y-12264306D01*
X12784556Y-12264306D01*
X12814856Y-9858756D02*
X12814856Y-9788044D01*
X12744144Y-9788044D01*
X12744144Y-9858756D01*
X12814856Y-9858756D01*
X12814856Y-11382756D02*
X12814856Y-11312044D01*
X12744144Y-11312044D01*
X12744144Y-11382756D01*
X12814856Y-11382756D01*
X13038556Y-12264306D02*
X13038556Y-12193594D01*
X12967844Y-12193594D01*
X12967844Y-12264306D01*
X13038556Y-12264306D01*
X13068856Y-9858756D02*
X13068856Y-9788044D01*
X12998144Y-9788044D01*
X12998144Y-9858756D01*
X13068856Y-9858756D01*
X13068856Y-11382756D02*
X13068856Y-11312044D01*
X12998144Y-11312044D01*
X12998144Y-11382756D01*
X13068856Y-11382756D01*
X13292556Y-12264306D02*
X13292556Y-12193594D01*
X13221844Y-12193594D01*
X13221844Y-12264306D01*
X13292556Y-12264306D01*
X13322856Y-9858756D02*
X13322856Y-9788044D01*
X13252144Y-9788044D01*
X13252144Y-9858756D01*
X13322856Y-9858756D01*
X13322856Y-11382756D02*
X13322856Y-11312044D01*
X13252144Y-11312044D01*
X13252144Y-11382756D01*
X13322856Y-11382756D01*
X13546556Y-12264306D02*
X13546556Y-12193594D01*
X13475844Y-12193594D01*
X13475844Y-12264306D01*
X13546556Y-12264306D01*
X13576856Y-9858756D02*
X13576856Y-9788044D01*
X13506144Y-9788044D01*
X13506144Y-9858756D01*
X13576856Y-9858756D01*
X13576856Y-11382756D02*
X13576856Y-11312044D01*
X13506144Y-11312044D01*
X13506144Y-11382756D01*
X13576856Y-11382756D01*
X13800556Y-12264306D02*
X13800556Y-12193594D01*
X13729844Y-12193594D01*
X13729844Y-12264306D01*
X13800556Y-12264306D01*
X13830856Y-9858756D02*
X13830856Y-9788044D01*
X13760144Y-9788044D01*
X13760144Y-9858756D01*
X13830856Y-9858756D01*
X13830856Y-11382756D02*
X13830856Y-11312044D01*
X13760144Y-11312044D01*
X13760144Y-11382756D01*
X13830856Y-11382756D01*
X14084856Y-9858756D02*
X14084856Y-9788044D01*
X14014144Y-9788044D01*
X14014144Y-9858756D01*
X14084856Y-9858756D01*
X14084856Y-11382756D02*
X14084856Y-11312044D01*
X14014144Y-11312044D01*
X14014144Y-11382756D01*
X14084856Y-11382756D01*
X14629856Y-12234556D02*
X14629856Y-12163844D01*
X14559144Y-12163844D01*
X14559144Y-12234556D01*
X14629856Y-12234556D01*
X14629856Y-12488556D02*
X14629856Y-12417844D01*
X14559144Y-12417844D01*
X14559144Y-12488556D01*
X14629856Y-12488556D01*
X14629856Y-12742556D02*
X14629856Y-12671844D01*
X14559144Y-12671844D01*
X14559144Y-12742556D01*
X14629856Y-12742556D01*
X14629856Y-12996556D02*
X14629856Y-12925844D01*
X14559144Y-12925844D01*
X14559144Y-12996556D01*
X14629856Y-12996556D01*
X14629856Y-13250556D02*
X14629856Y-13179844D01*
X14559144Y-13179844D01*
X14559144Y-13250556D01*
X14629856Y-13250556D01*
X14629856Y-13504556D02*
X14629856Y-13433844D01*
X14559144Y-13433844D01*
X14559144Y-13504556D01*
X14629856Y-13504556D01*
X14629856Y-13758556D02*
X14629856Y-13687844D01*
X14559144Y-13687844D01*
X14559144Y-13758556D01*
X14629856Y-13758556D01*
X14629856Y-14012556D02*
X14629856Y-13941844D01*
X14559144Y-13941844D01*
X14559144Y-14012556D01*
X14629856Y-14012556D01*
X14629856Y-14266556D02*
X14629856Y-14195844D01*
X14559144Y-14195844D01*
X14559144Y-14266556D01*
X14629856Y-14266556D01*
X14629856Y-14520556D02*
X14629856Y-14449844D01*
X14559144Y-14449844D01*
X14559144Y-14520556D01*
X14629856Y-14520556D01*
X14629856Y-14774556D02*
X14629856Y-14703844D01*
X14559144Y-14703844D01*
X14559144Y-14774556D01*
X14629856Y-14774556D01*
D15*
X11769000Y-8417000D02*
X11824000Y-8362000D01*
X11769000Y-8307000D01*
X11714000Y-8362000D01*
X11769000Y-8417000D01*
X11769000Y-9433000D02*
X11824000Y-9378000D01*
X11769000Y-9323000D01*
X11714000Y-9378000D01*
X11769000Y-9433000D01*
D16*
X16630000Y-6840000D02*
X16780000Y-6990000D01*
X16780000Y-6840000D02*
X16630000Y-6990000D01*
X16780000Y-6915000D02*
G75*
G03*
X16780000Y-6915000I-75000J0D01*
G01*
X16630000Y-13980000D02*
X16780000Y-14130000D01*
X16780000Y-13980000D02*
X16630000Y-14130000D01*
X16780000Y-14055000D02*
G75*
G03*
X16780000Y-14055000I-75000J0D01*
G01*
D17*
X13582000Y-8403000D02*
X13736000Y-8557000D01*
X13736000Y-8403000D02*
X13582000Y-8557000D01*
X13659000Y-8403000D02*
X13659000Y-8557000D01*
X13582000Y-8480000D02*
X13736000Y-8480000D01*
X13612000Y-6113000D02*
X13766000Y-6267000D01*
X13766000Y-6113000D02*
X13612000Y-6267000D01*
X13689000Y-6113000D02*
X13689000Y-6267000D01*
X13612000Y-6190000D02*
X13766000Y-6190000D01*
X13922000Y-8403000D02*
X14076000Y-8557000D01*
X14076000Y-8403000D02*
X13922000Y-8557000D01*
X13999000Y-8403000D02*
X13999000Y-8557000D01*
X13922000Y-8480000D02*
X14076000Y-8480000D01*
X14682000Y-8403000D02*
X14836000Y-8557000D01*
X14836000Y-8403000D02*
X14682000Y-8557000D01*
X14759000Y-8403000D02*
X14759000Y-8557000D01*
X14682000Y-8480000D02*
X14836000Y-8480000D01*
X15032000Y-6113000D02*
X15186000Y-6267000D01*
X15186000Y-6113000D02*
X15032000Y-6267000D01*
X15109000Y-6113000D02*
X15109000Y-6267000D01*
X15032000Y-6190000D02*
X15186000Y-6190000D01*
X15032000Y-8403000D02*
X15186000Y-8557000D01*
X15186000Y-8403000D02*
X15032000Y-8557000D01*
X15109000Y-8403000D02*
X15109000Y-8557000D01*
X15032000Y-8480000D02*
X15186000Y-8480000D01*
D11*
X10242619Y-15300876D02*
X10242619Y-15100876D01*
X10290238Y-15100876D01*
X10318810Y-15110400D01*
X10337857Y-15129448D01*
X10347381Y-15148495D01*
X10356905Y-15186590D01*
X10356905Y-15215162D01*
X10347381Y-15253257D01*
X10337857Y-15272305D01*
X10318810Y-15291352D01*
X10290238Y-15300876D01*
X10242619Y-15300876D01*
X10442619Y-15300876D02*
X10442619Y-15167543D01*
X10442619Y-15205638D02*
X10452143Y-15186590D01*
X10461667Y-15177067D01*
X10480714Y-15167543D01*
X10499762Y-15167543D01*
X10566429Y-15300876D02*
X10566429Y-15167543D01*
X10566429Y-15100876D02*
X10556905Y-15110400D01*
X10566429Y-15119924D01*
X10575952Y-15110400D01*
X10566429Y-15100876D01*
X10566429Y-15119924D01*
X10690238Y-15300876D02*
X10671190Y-15291352D01*
X10661667Y-15272305D01*
X10661667Y-15100876D01*
X10795000Y-15300876D02*
X10775952Y-15291352D01*
X10766429Y-15272305D01*
X10766429Y-15100876D01*
X11023571Y-15300876D02*
X11023571Y-15100876D01*
X11090238Y-15243733D01*
X11156905Y-15100876D01*
X11156905Y-15300876D01*
X11337857Y-15300876D02*
X11337857Y-15196114D01*
X11328333Y-15177067D01*
X11309286Y-15167543D01*
X11271190Y-15167543D01*
X11252143Y-15177067D01*
X11337857Y-15291352D02*
X11318809Y-15300876D01*
X11271190Y-15300876D01*
X11252143Y-15291352D01*
X11242619Y-15272305D01*
X11242619Y-15253257D01*
X11252143Y-15234209D01*
X11271190Y-15224686D01*
X11318809Y-15224686D01*
X11337857Y-15215162D01*
X11433095Y-15167543D02*
X11433095Y-15367543D01*
X11433095Y-15177067D02*
X11452143Y-15167543D01*
X11490238Y-15167543D01*
X11509286Y-15177067D01*
X11518809Y-15186590D01*
X11528333Y-15205638D01*
X11528333Y-15262781D01*
X11518809Y-15281828D01*
X11509286Y-15291352D01*
X11490238Y-15300876D01*
X11452143Y-15300876D01*
X11433095Y-15291352D01*
X11614048Y-15281828D02*
X11623571Y-15291352D01*
X11614048Y-15300876D01*
X11604524Y-15291352D01*
X11614048Y-15281828D01*
X11614048Y-15300876D01*
X11614048Y-15177067D02*
X11623571Y-15186590D01*
X11614048Y-15196114D01*
X11604524Y-15186590D01*
X11614048Y-15177067D01*
X11614048Y-15196114D01*
D12*
X9945000Y-15610400D02*
X9985000Y-15650400D01*
X9985000Y-15610400D02*
X9945000Y-15650400D01*
D11*
X10280714Y-15520876D02*
X10299762Y-15520876D01*
X10318810Y-15530400D01*
X10328333Y-15539924D01*
X10337857Y-15558971D01*
X10347381Y-15597067D01*
X10347381Y-15644686D01*
X10337857Y-15682781D01*
X10328333Y-15701828D01*
X10318810Y-15711352D01*
X10299762Y-15720876D01*
X10280714Y-15720876D01*
X10261667Y-15711352D01*
X10252143Y-15701828D01*
X10242619Y-15682781D01*
X10233095Y-15644686D01*
X10233095Y-15597067D01*
X10242619Y-15558971D01*
X10252143Y-15539924D01*
X10261667Y-15530400D01*
X10280714Y-15520876D01*
X10433095Y-15701828D02*
X10442619Y-15711352D01*
X10433095Y-15720876D01*
X10423571Y-15711352D01*
X10433095Y-15701828D01*
X10433095Y-15720876D01*
X10614048Y-15587543D02*
X10614048Y-15720876D01*
X10566429Y-15511352D02*
X10518810Y-15654209D01*
X10642619Y-15654209D01*
X10756905Y-15520876D02*
X10775952Y-15520876D01*
X10795000Y-15530400D01*
X10804524Y-15539924D01*
X10814048Y-15558971D01*
X10823571Y-15597067D01*
X10823571Y-15644686D01*
X10814048Y-15682781D01*
X10804524Y-15701828D01*
X10795000Y-15711352D01*
X10775952Y-15720876D01*
X10756905Y-15720876D01*
X10737857Y-15711352D01*
X10728333Y-15701828D01*
X10718810Y-15682781D01*
X10709286Y-15644686D01*
X10709286Y-15597067D01*
X10718810Y-15558971D01*
X10728333Y-15539924D01*
X10737857Y-15530400D01*
X10756905Y-15520876D01*
X10947381Y-15520876D02*
X10966429Y-15520876D01*
X10985476Y-15530400D01*
X10995000Y-15539924D01*
X11004524Y-15558971D01*
X11014048Y-15597067D01*
X11014048Y-15644686D01*
X11004524Y-15682781D01*
X10995000Y-15701828D01*
X10985476Y-15711352D01*
X10966429Y-15720876D01*
X10947381Y-15720876D01*
X10928333Y-15711352D01*
X10918810Y-15701828D01*
X10909286Y-15682781D01*
X10899762Y-15644686D01*
X10899762Y-15597067D01*
X10909286Y-15558971D01*
X10918810Y-15539924D01*
X10928333Y-15530400D01*
X10947381Y-15520876D01*
X11099762Y-15720876D02*
X11099762Y-15587543D01*
X11099762Y-15606590D02*
X11109286Y-15597067D01*
X11128333Y-15587543D01*
X11156905Y-15587543D01*
X11175952Y-15597067D01*
X11185476Y-15616114D01*
X11185476Y-15720876D01*
X11185476Y-15616114D02*
X11195000Y-15597067D01*
X11214048Y-15587543D01*
X11242619Y-15587543D01*
X11261667Y-15597067D01*
X11271190Y-15616114D01*
X11271190Y-15720876D01*
X11366428Y-15720876D02*
X11366428Y-15587543D01*
X11366428Y-15606590D02*
X11375952Y-15597067D01*
X11395000Y-15587543D01*
X11423571Y-15587543D01*
X11442619Y-15597067D01*
X11452143Y-15616114D01*
X11452143Y-15720876D01*
X11452143Y-15616114D02*
X11461667Y-15597067D01*
X11480714Y-15587543D01*
X11509286Y-15587543D01*
X11528333Y-15597067D01*
X11537857Y-15616114D01*
X11537857Y-15720876D01*
X11928333Y-15511352D02*
X11756905Y-15768495D01*
X12185476Y-15520876D02*
X12204524Y-15520876D01*
X12223571Y-15530400D01*
X12233095Y-15539924D01*
X12242619Y-15558971D01*
X12252143Y-15597067D01*
X12252143Y-15644686D01*
X12242619Y-15682781D01*
X12233095Y-15701828D01*
X12223571Y-15711352D01*
X12204524Y-15720876D01*
X12185476Y-15720876D01*
X12166428Y-15711352D01*
X12156905Y-15701828D01*
X12147381Y-15682781D01*
X12137857Y-15644686D01*
X12137857Y-15597067D01*
X12147381Y-15558971D01*
X12156905Y-15539924D01*
X12166428Y-15530400D01*
X12185476Y-15520876D01*
X12337857Y-15701828D02*
X12347381Y-15711352D01*
X12337857Y-15720876D01*
X12328333Y-15711352D01*
X12337857Y-15701828D01*
X12337857Y-15720876D01*
X12471190Y-15520876D02*
X12490238Y-15520876D01*
X12509286Y-15530400D01*
X12518809Y-15539924D01*
X12528333Y-15558971D01*
X12537857Y-15597067D01*
X12537857Y-15644686D01*
X12528333Y-15682781D01*
X12518809Y-15701828D01*
X12509286Y-15711352D01*
X12490238Y-15720876D01*
X12471190Y-15720876D01*
X12452143Y-15711352D01*
X12442619Y-15701828D01*
X12433095Y-15682781D01*
X12423571Y-15644686D01*
X12423571Y-15597067D01*
X12433095Y-15558971D01*
X12442619Y-15539924D01*
X12452143Y-15530400D01*
X12471190Y-15520876D01*
X12728333Y-15720876D02*
X12614048Y-15720876D01*
X12671190Y-15720876D02*
X12671190Y-15520876D01*
X12652143Y-15549448D01*
X12633095Y-15568495D01*
X12614048Y-15578019D01*
X12909286Y-15520876D02*
X12814048Y-15520876D01*
X12804524Y-15616114D01*
X12814048Y-15606590D01*
X12833095Y-15597067D01*
X12880714Y-15597067D01*
X12899762Y-15606590D01*
X12909286Y-15616114D01*
X12918809Y-15635162D01*
X12918809Y-15682781D01*
X12909286Y-15701828D01*
X12899762Y-15711352D01*
X12880714Y-15720876D01*
X12833095Y-15720876D01*
X12814048Y-15711352D01*
X12804524Y-15701828D01*
X12985476Y-15520876D02*
X13118809Y-15520876D01*
X13033095Y-15720876D01*
X13185476Y-15520876D02*
X13185476Y-15558971D01*
X13261667Y-15520876D02*
X13261667Y-15558971D01*
X13556905Y-15797067D02*
X13547381Y-15787543D01*
X13528333Y-15758971D01*
X13518809Y-15739924D01*
X13509286Y-15711352D01*
X13499762Y-15663733D01*
X13499762Y-15625638D01*
X13509286Y-15578019D01*
X13518809Y-15549448D01*
X13528333Y-15530400D01*
X13547381Y-15501828D01*
X13556905Y-15492305D01*
X13623571Y-15539924D02*
X13633095Y-15530400D01*
X13652143Y-15520876D01*
X13699762Y-15520876D01*
X13718809Y-15530400D01*
X13728333Y-15539924D01*
X13737857Y-15558971D01*
X13737857Y-15578019D01*
X13728333Y-15606590D01*
X13614048Y-15720876D01*
X13737857Y-15720876D01*
X13975952Y-15720876D02*
X13975952Y-15520876D01*
X14061667Y-15720876D02*
X14061667Y-15616114D01*
X14052143Y-15597067D01*
X14033095Y-15587543D01*
X14004524Y-15587543D01*
X13985476Y-15597067D01*
X13975952Y-15606590D01*
X14185476Y-15720876D02*
X14166428Y-15711352D01*
X14156905Y-15701828D01*
X14147381Y-15682781D01*
X14147381Y-15625638D01*
X14156905Y-15606590D01*
X14166428Y-15597067D01*
X14185476Y-15587543D01*
X14214048Y-15587543D01*
X14233095Y-15597067D01*
X14242619Y-15606590D01*
X14252143Y-15625638D01*
X14252143Y-15682781D01*
X14242619Y-15701828D01*
X14233095Y-15711352D01*
X14214048Y-15720876D01*
X14185476Y-15720876D01*
X14366428Y-15720876D02*
X14347381Y-15711352D01*
X14337857Y-15692305D01*
X14337857Y-15520876D01*
X14518809Y-15711352D02*
X14499762Y-15720876D01*
X14461667Y-15720876D01*
X14442619Y-15711352D01*
X14433095Y-15692305D01*
X14433095Y-15616114D01*
X14442619Y-15597067D01*
X14461667Y-15587543D01*
X14499762Y-15587543D01*
X14518809Y-15597067D01*
X14528333Y-15616114D01*
X14528333Y-15635162D01*
X14433095Y-15654209D01*
X14604524Y-15711352D02*
X14623571Y-15720876D01*
X14661667Y-15720876D01*
X14680714Y-15711352D01*
X14690238Y-15692305D01*
X14690238Y-15682781D01*
X14680714Y-15663733D01*
X14661667Y-15654209D01*
X14633095Y-15654209D01*
X14614048Y-15644686D01*
X14604524Y-15625638D01*
X14604524Y-15616114D01*
X14614048Y-15597067D01*
X14633095Y-15587543D01*
X14661667Y-15587543D01*
X14680714Y-15597067D01*
X14756905Y-15797067D02*
X14766428Y-15787543D01*
X14785476Y-15758971D01*
X14795000Y-15739924D01*
X14804524Y-15711352D01*
X14814048Y-15663733D01*
X14814048Y-15625638D01*
X14804524Y-15578019D01*
X14795000Y-15549448D01*
X14785476Y-15530400D01*
X14766428Y-15501828D01*
X14756905Y-15492305D01*
D13*
X9985000Y-15894400D02*
G75*
G03*
X9985000Y-15894400I-35000J0D01*
G01*
D11*
X10280714Y-15784876D02*
X10299762Y-15784876D01*
X10318810Y-15794400D01*
X10328333Y-15803924D01*
X10337857Y-15822971D01*
X10347381Y-15861067D01*
X10347381Y-15908686D01*
X10337857Y-15946781D01*
X10328333Y-15965828D01*
X10318810Y-15975352D01*
X10299762Y-15984876D01*
X10280714Y-15984876D01*
X10261667Y-15975352D01*
X10252143Y-15965828D01*
X10242619Y-15946781D01*
X10233095Y-15908686D01*
X10233095Y-15861067D01*
X10242619Y-15822971D01*
X10252143Y-15803924D01*
X10261667Y-15794400D01*
X10280714Y-15784876D01*
X10433095Y-15965828D02*
X10442619Y-15975352D01*
X10433095Y-15984876D01*
X10423571Y-15975352D01*
X10433095Y-15965828D01*
X10433095Y-15984876D01*
X10509286Y-15784876D02*
X10642619Y-15784876D01*
X10556905Y-15984876D01*
X10756905Y-15784876D02*
X10775952Y-15784876D01*
X10795000Y-15794400D01*
X10804524Y-15803924D01*
X10814048Y-15822971D01*
X10823571Y-15861067D01*
X10823571Y-15908686D01*
X10814048Y-15946781D01*
X10804524Y-15965828D01*
X10795000Y-15975352D01*
X10775952Y-15984876D01*
X10756905Y-15984876D01*
X10737857Y-15975352D01*
X10728333Y-15965828D01*
X10718810Y-15946781D01*
X10709286Y-15908686D01*
X10709286Y-15861067D01*
X10718810Y-15822971D01*
X10728333Y-15803924D01*
X10737857Y-15794400D01*
X10756905Y-15784876D01*
X10947381Y-15784876D02*
X10966429Y-15784876D01*
X10985476Y-15794400D01*
X10995000Y-15803924D01*
X11004524Y-15822971D01*
X11014048Y-15861067D01*
X11014048Y-15908686D01*
X11004524Y-15946781D01*
X10995000Y-15965828D01*
X10985476Y-15975352D01*
X10966429Y-15984876D01*
X10947381Y-15984876D01*
X10928333Y-15975352D01*
X10918810Y-15965828D01*
X10909286Y-15946781D01*
X10899762Y-15908686D01*
X10899762Y-15861067D01*
X10909286Y-15822971D01*
X10918810Y-15803924D01*
X10928333Y-15794400D01*
X10947381Y-15784876D01*
X11099762Y-15984876D02*
X11099762Y-15851543D01*
X11099762Y-15870590D02*
X11109286Y-15861067D01*
X11128333Y-15851543D01*
X11156905Y-15851543D01*
X11175952Y-15861067D01*
X11185476Y-15880114D01*
X11185476Y-15984876D01*
X11185476Y-15880114D02*
X11195000Y-15861067D01*
X11214048Y-15851543D01*
X11242619Y-15851543D01*
X11261667Y-15861067D01*
X11271190Y-15880114D01*
X11271190Y-15984876D01*
X11366428Y-15984876D02*
X11366428Y-15851543D01*
X11366428Y-15870590D02*
X11375952Y-15861067D01*
X11395000Y-15851543D01*
X11423571Y-15851543D01*
X11442619Y-15861067D01*
X11452143Y-15880114D01*
X11452143Y-15984876D01*
X11452143Y-15880114D02*
X11461667Y-15861067D01*
X11480714Y-15851543D01*
X11509286Y-15851543D01*
X11528333Y-15861067D01*
X11537857Y-15880114D01*
X11537857Y-15984876D01*
X11928333Y-15775352D02*
X11756905Y-16032495D01*
X12185476Y-15784876D02*
X12204524Y-15784876D01*
X12223571Y-15794400D01*
X12233095Y-15803924D01*
X12242619Y-15822971D01*
X12252143Y-15861067D01*
X12252143Y-15908686D01*
X12242619Y-15946781D01*
X12233095Y-15965828D01*
X12223571Y-15975352D01*
X12204524Y-15984876D01*
X12185476Y-15984876D01*
X12166428Y-15975352D01*
X12156905Y-15965828D01*
X12147381Y-15946781D01*
X12137857Y-15908686D01*
X12137857Y-15861067D01*
X12147381Y-15822971D01*
X12156905Y-15803924D01*
X12166428Y-15794400D01*
X12185476Y-15784876D01*
X12337857Y-15965828D02*
X12347381Y-15975352D01*
X12337857Y-15984876D01*
X12328333Y-15975352D01*
X12337857Y-15965828D01*
X12337857Y-15984876D01*
X12471190Y-15784876D02*
X12490238Y-15784876D01*
X12509286Y-15794400D01*
X12518809Y-15803924D01*
X12528333Y-15822971D01*
X12537857Y-15861067D01*
X12537857Y-15908686D01*
X12528333Y-15946781D01*
X12518809Y-15965828D01*
X12509286Y-15975352D01*
X12490238Y-15984876D01*
X12471190Y-15984876D01*
X12452143Y-15975352D01*
X12442619Y-15965828D01*
X12433095Y-15946781D01*
X12423571Y-15908686D01*
X12423571Y-15861067D01*
X12433095Y-15822971D01*
X12442619Y-15803924D01*
X12452143Y-15794400D01*
X12471190Y-15784876D01*
X12614048Y-15803924D02*
X12623571Y-15794400D01*
X12642619Y-15784876D01*
X12690238Y-15784876D01*
X12709286Y-15794400D01*
X12718809Y-15803924D01*
X12728333Y-15822971D01*
X12728333Y-15842019D01*
X12718809Y-15870590D01*
X12604524Y-15984876D01*
X12728333Y-15984876D01*
X12795000Y-15784876D02*
X12928333Y-15784876D01*
X12842619Y-15984876D01*
X13090238Y-15784876D02*
X13052143Y-15784876D01*
X13033095Y-15794400D01*
X13023571Y-15803924D01*
X13004524Y-15832495D01*
X12995000Y-15870590D01*
X12995000Y-15946781D01*
X13004524Y-15965828D01*
X13014048Y-15975352D01*
X13033095Y-15984876D01*
X13071190Y-15984876D01*
X13090238Y-15975352D01*
X13099762Y-15965828D01*
X13109286Y-15946781D01*
X13109286Y-15899162D01*
X13099762Y-15880114D01*
X13090238Y-15870590D01*
X13071190Y-15861067D01*
X13033095Y-15861067D01*
X13014048Y-15870590D01*
X13004524Y-15880114D01*
X12995000Y-15899162D01*
X13185476Y-15784876D02*
X13185476Y-15822971D01*
X13261667Y-15784876D02*
X13261667Y-15822971D01*
X13556905Y-16061067D02*
X13547381Y-16051543D01*
X13528333Y-16022971D01*
X13518809Y-16003924D01*
X13509286Y-15975352D01*
X13499762Y-15927733D01*
X13499762Y-15889638D01*
X13509286Y-15842019D01*
X13518809Y-15813448D01*
X13528333Y-15794400D01*
X13547381Y-15765828D01*
X13556905Y-15756305D01*
X13661667Y-15870590D02*
X13642619Y-15861067D01*
X13633095Y-15851543D01*
X13623571Y-15832495D01*
X13623571Y-15822971D01*
X13633095Y-15803924D01*
X13642619Y-15794400D01*
X13661667Y-15784876D01*
X13699762Y-15784876D01*
X13718809Y-15794400D01*
X13728333Y-15803924D01*
X13737857Y-15822971D01*
X13737857Y-15832495D01*
X13728333Y-15851543D01*
X13718809Y-15861067D01*
X13699762Y-15870590D01*
X13661667Y-15870590D01*
X13642619Y-15880114D01*
X13633095Y-15889638D01*
X13623571Y-15908686D01*
X13623571Y-15946781D01*
X13633095Y-15965828D01*
X13642619Y-15975352D01*
X13661667Y-15984876D01*
X13699762Y-15984876D01*
X13718809Y-15975352D01*
X13728333Y-15965828D01*
X13737857Y-15946781D01*
X13737857Y-15908686D01*
X13728333Y-15889638D01*
X13718809Y-15880114D01*
X13699762Y-15870590D01*
X13975952Y-15984876D02*
X13975952Y-15784876D01*
X14061667Y-15984876D02*
X14061667Y-15880114D01*
X14052143Y-15861067D01*
X14033095Y-15851543D01*
X14004524Y-15851543D01*
X13985476Y-15861067D01*
X13975952Y-15870590D01*
X14185476Y-15984876D02*
X14166428Y-15975352D01*
X14156905Y-15965828D01*
X14147381Y-15946781D01*
X14147381Y-15889638D01*
X14156905Y-15870590D01*
X14166428Y-15861067D01*
X14185476Y-15851543D01*
X14214048Y-15851543D01*
X14233095Y-15861067D01*
X14242619Y-15870590D01*
X14252143Y-15889638D01*
X14252143Y-15946781D01*
X14242619Y-15965828D01*
X14233095Y-15975352D01*
X14214048Y-15984876D01*
X14185476Y-15984876D01*
X14366428Y-15984876D02*
X14347381Y-15975352D01*
X14337857Y-15956305D01*
X14337857Y-15784876D01*
X14518809Y-15975352D02*
X14499762Y-15984876D01*
X14461667Y-15984876D01*
X14442619Y-15975352D01*
X14433095Y-15956305D01*
X14433095Y-15880114D01*
X14442619Y-15861067D01*
X14461667Y-15851543D01*
X14499762Y-15851543D01*
X14518809Y-15861067D01*
X14528333Y-15880114D01*
X14528333Y-15899162D01*
X14433095Y-15918209D01*
X14604524Y-15975352D02*
X14623571Y-15984876D01*
X14661667Y-15984876D01*
X14680714Y-15975352D01*
X14690238Y-15956305D01*
X14690238Y-15946781D01*
X14680714Y-15927733D01*
X14661667Y-15918209D01*
X14633095Y-15918209D01*
X14614048Y-15908686D01*
X14604524Y-15889638D01*
X14604524Y-15880114D01*
X14614048Y-15861067D01*
X14633095Y-15851543D01*
X14661667Y-15851543D01*
X14680714Y-15861067D01*
X14756905Y-16061067D02*
X14766428Y-16051543D01*
X14785476Y-16022971D01*
X14795000Y-16003924D01*
X14804524Y-15975352D01*
X14814048Y-15927733D01*
X14814048Y-15889638D01*
X14804524Y-15842019D01*
X14795000Y-15813448D01*
X14785476Y-15794400D01*
X14766428Y-15765828D01*
X14756905Y-15756305D01*
D14*
X9945000Y-16118400D02*
X9945000Y-16198400D01*
X9905000Y-16158400D02*
X9985000Y-16158400D01*
D11*
X10280714Y-16048876D02*
X10299762Y-16048876D01*
X10318810Y-16058400D01*
X10328333Y-16067924D01*
X10337857Y-16086971D01*
X10347381Y-16125067D01*
X10347381Y-16172686D01*
X10337857Y-16210781D01*
X10328333Y-16229828D01*
X10318810Y-16239352D01*
X10299762Y-16248876D01*
X10280714Y-16248876D01*
X10261667Y-16239352D01*
X10252143Y-16229828D01*
X10242619Y-16210781D01*
X10233095Y-16172686D01*
X10233095Y-16125067D01*
X10242619Y-16086971D01*
X10252143Y-16067924D01*
X10261667Y-16058400D01*
X10280714Y-16048876D01*
X10433095Y-16229828D02*
X10442619Y-16239352D01*
X10433095Y-16248876D01*
X10423571Y-16239352D01*
X10433095Y-16229828D01*
X10433095Y-16248876D01*
X10556905Y-16134590D02*
X10537857Y-16125067D01*
X10528333Y-16115543D01*
X10518810Y-16096495D01*
X10518810Y-16086971D01*
X10528333Y-16067924D01*
X10537857Y-16058400D01*
X10556905Y-16048876D01*
X10595000Y-16048876D01*
X10614048Y-16058400D01*
X10623571Y-16067924D01*
X10633095Y-16086971D01*
X10633095Y-16096495D01*
X10623571Y-16115543D01*
X10614048Y-16125067D01*
X10595000Y-16134590D01*
X10556905Y-16134590D01*
X10537857Y-16144114D01*
X10528333Y-16153638D01*
X10518810Y-16172686D01*
X10518810Y-16210781D01*
X10528333Y-16229828D01*
X10537857Y-16239352D01*
X10556905Y-16248876D01*
X10595000Y-16248876D01*
X10614048Y-16239352D01*
X10623571Y-16229828D01*
X10633095Y-16210781D01*
X10633095Y-16172686D01*
X10623571Y-16153638D01*
X10614048Y-16144114D01*
X10595000Y-16134590D01*
X10756905Y-16048876D02*
X10775952Y-16048876D01*
X10795000Y-16058400D01*
X10804524Y-16067924D01*
X10814048Y-16086971D01*
X10823571Y-16125067D01*
X10823571Y-16172686D01*
X10814048Y-16210781D01*
X10804524Y-16229828D01*
X10795000Y-16239352D01*
X10775952Y-16248876D01*
X10756905Y-16248876D01*
X10737857Y-16239352D01*
X10728333Y-16229828D01*
X10718810Y-16210781D01*
X10709286Y-16172686D01*
X10709286Y-16125067D01*
X10718810Y-16086971D01*
X10728333Y-16067924D01*
X10737857Y-16058400D01*
X10756905Y-16048876D01*
X10947381Y-16048876D02*
X10966429Y-16048876D01*
X10985476Y-16058400D01*
X10995000Y-16067924D01*
X11004524Y-16086971D01*
X11014048Y-16125067D01*
X11014048Y-16172686D01*
X11004524Y-16210781D01*
X10995000Y-16229828D01*
X10985476Y-16239352D01*
X10966429Y-16248876D01*
X10947381Y-16248876D01*
X10928333Y-16239352D01*
X10918810Y-16229828D01*
X10909286Y-16210781D01*
X10899762Y-16172686D01*
X10899762Y-16125067D01*
X10909286Y-16086971D01*
X10918810Y-16067924D01*
X10928333Y-16058400D01*
X10947381Y-16048876D01*
X11099762Y-16248876D02*
X11099762Y-16115543D01*
X11099762Y-16134590D02*
X11109286Y-16125067D01*
X11128333Y-16115543D01*
X11156905Y-16115543D01*
X11175952Y-16125067D01*
X11185476Y-16144114D01*
X11185476Y-16248876D01*
X11185476Y-16144114D02*
X11195000Y-16125067D01*
X11214048Y-16115543D01*
X11242619Y-16115543D01*
X11261667Y-16125067D01*
X11271190Y-16144114D01*
X11271190Y-16248876D01*
X11366428Y-16248876D02*
X11366428Y-16115543D01*
X11366428Y-16134590D02*
X11375952Y-16125067D01*
X11395000Y-16115543D01*
X11423571Y-16115543D01*
X11442619Y-16125067D01*
X11452143Y-16144114D01*
X11452143Y-16248876D01*
X11452143Y-16144114D02*
X11461667Y-16125067D01*
X11480714Y-16115543D01*
X11509286Y-16115543D01*
X11528333Y-16125067D01*
X11537857Y-16144114D01*
X11537857Y-16248876D01*
X11928333Y-16039352D02*
X11756905Y-16296495D01*
X12185476Y-16048876D02*
X12204524Y-16048876D01*
X12223571Y-16058400D01*
X12233095Y-16067924D01*
X12242619Y-16086971D01*
X12252143Y-16125067D01*
X12252143Y-16172686D01*
X12242619Y-16210781D01*
X12233095Y-16229828D01*
X12223571Y-16239352D01*
X12204524Y-16248876D01*
X12185476Y-16248876D01*
X12166428Y-16239352D01*
X12156905Y-16229828D01*
X12147381Y-16210781D01*
X12137857Y-16172686D01*
X12137857Y-16125067D01*
X12147381Y-16086971D01*
X12156905Y-16067924D01*
X12166428Y-16058400D01*
X12185476Y-16048876D01*
X12337857Y-16229828D02*
X12347381Y-16239352D01*
X12337857Y-16248876D01*
X12328333Y-16239352D01*
X12337857Y-16229828D01*
X12337857Y-16248876D01*
X12471190Y-16048876D02*
X12490238Y-16048876D01*
X12509286Y-16058400D01*
X12518809Y-16067924D01*
X12528333Y-16086971D01*
X12537857Y-16125067D01*
X12537857Y-16172686D01*
X12528333Y-16210781D01*
X12518809Y-16229828D01*
X12509286Y-16239352D01*
X12490238Y-16248876D01*
X12471190Y-16248876D01*
X12452143Y-16239352D01*
X12442619Y-16229828D01*
X12433095Y-16210781D01*
X12423571Y-16172686D01*
X12423571Y-16125067D01*
X12433095Y-16086971D01*
X12442619Y-16067924D01*
X12452143Y-16058400D01*
X12471190Y-16048876D01*
X12604524Y-16048876D02*
X12728333Y-16048876D01*
X12661667Y-16125067D01*
X12690238Y-16125067D01*
X12709286Y-16134590D01*
X12718809Y-16144114D01*
X12728333Y-16163162D01*
X12728333Y-16210781D01*
X12718809Y-16229828D01*
X12709286Y-16239352D01*
X12690238Y-16248876D01*
X12633095Y-16248876D01*
X12614048Y-16239352D01*
X12604524Y-16229828D01*
X12918809Y-16248876D02*
X12804524Y-16248876D01*
X12861667Y-16248876D02*
X12861667Y-16048876D01*
X12842619Y-16077448D01*
X12823571Y-16096495D01*
X12804524Y-16106019D01*
X13099762Y-16048876D02*
X13004524Y-16048876D01*
X12995000Y-16144114D01*
X13004524Y-16134590D01*
X13023571Y-16125067D01*
X13071190Y-16125067D01*
X13090238Y-16134590D01*
X13099762Y-16144114D01*
X13109286Y-16163162D01*
X13109286Y-16210781D01*
X13099762Y-16229828D01*
X13090238Y-16239352D01*
X13071190Y-16248876D01*
X13023571Y-16248876D01*
X13004524Y-16239352D01*
X12995000Y-16229828D01*
X13185476Y-16048876D02*
X13185476Y-16086971D01*
X13261667Y-16048876D02*
X13261667Y-16086971D01*
X13556905Y-16325067D02*
X13547381Y-16315543D01*
X13528333Y-16286971D01*
X13518809Y-16267924D01*
X13509286Y-16239352D01*
X13499762Y-16191733D01*
X13499762Y-16153638D01*
X13509286Y-16106019D01*
X13518809Y-16077448D01*
X13528333Y-16058400D01*
X13547381Y-16029828D01*
X13556905Y-16020305D01*
X13718809Y-16115543D02*
X13718809Y-16248876D01*
X13671190Y-16039352D02*
X13623571Y-16182209D01*
X13747381Y-16182209D01*
X13975952Y-16248876D02*
X13975952Y-16048876D01*
X14061667Y-16248876D02*
X14061667Y-16144114D01*
X14052143Y-16125067D01*
X14033095Y-16115543D01*
X14004524Y-16115543D01*
X13985476Y-16125067D01*
X13975952Y-16134590D01*
X14185476Y-16248876D02*
X14166428Y-16239352D01*
X14156905Y-16229828D01*
X14147381Y-16210781D01*
X14147381Y-16153638D01*
X14156905Y-16134590D01*
X14166428Y-16125067D01*
X14185476Y-16115543D01*
X14214048Y-16115543D01*
X14233095Y-16125067D01*
X14242619Y-16134590D01*
X14252143Y-16153638D01*
X14252143Y-16210781D01*
X14242619Y-16229828D01*
X14233095Y-16239352D01*
X14214048Y-16248876D01*
X14185476Y-16248876D01*
X14366428Y-16248876D02*
X14347381Y-16239352D01*
X14337857Y-16220305D01*
X14337857Y-16048876D01*
X14518809Y-16239352D02*
X14499762Y-16248876D01*
X14461667Y-16248876D01*
X14442619Y-16239352D01*
X14433095Y-16220305D01*
X14433095Y-16144114D01*
X14442619Y-16125067D01*
X14461667Y-16115543D01*
X14499762Y-16115543D01*
X14518809Y-16125067D01*
X14528333Y-16144114D01*
X14528333Y-16163162D01*
X14433095Y-16182209D01*
X14604524Y-16239352D02*
X14623571Y-16248876D01*
X14661667Y-16248876D01*
X14680714Y-16239352D01*
X14690238Y-16220305D01*
X14690238Y-16210781D01*
X14680714Y-16191733D01*
X14661667Y-16182209D01*
X14633095Y-16182209D01*
X14614048Y-16172686D01*
X14604524Y-16153638D01*
X14604524Y-16144114D01*
X14614048Y-16125067D01*
X14633095Y-16115543D01*
X14661667Y-16115543D01*
X14680714Y-16125067D01*
X14756905Y-16325067D02*
X14766428Y-16315543D01*
X14785476Y-16286971D01*
X14795000Y-16267924D01*
X14804524Y-16239352D01*
X14814048Y-16191733D01*
X14814048Y-16153638D01*
X14804524Y-16106019D01*
X14795000Y-16077448D01*
X14785476Y-16058400D01*
X14766428Y-16029828D01*
X14756905Y-16020305D01*
D10*
X9970356Y-16457756D02*
X9970356Y-16387044D01*
X9899644Y-16387044D01*
X9899644Y-16457756D01*
X9970356Y-16457756D01*
D11*
X10347381Y-16512876D02*
X10233095Y-16512876D01*
X10290238Y-16512876D02*
X10290238Y-16312876D01*
X10271190Y-16341448D01*
X10252143Y-16360495D01*
X10233095Y-16370019D01*
X10433095Y-16493828D02*
X10442619Y-16503352D01*
X10433095Y-16512876D01*
X10423571Y-16503352D01*
X10433095Y-16493828D01*
X10433095Y-16512876D01*
X10566429Y-16312876D02*
X10585476Y-16312876D01*
X10604524Y-16322400D01*
X10614048Y-16331924D01*
X10623571Y-16350971D01*
X10633095Y-16389067D01*
X10633095Y-16436686D01*
X10623571Y-16474781D01*
X10614048Y-16493828D01*
X10604524Y-16503352D01*
X10585476Y-16512876D01*
X10566429Y-16512876D01*
X10547381Y-16503352D01*
X10537857Y-16493828D01*
X10528333Y-16474781D01*
X10518810Y-16436686D01*
X10518810Y-16389067D01*
X10528333Y-16350971D01*
X10537857Y-16331924D01*
X10547381Y-16322400D01*
X10566429Y-16312876D01*
X10756905Y-16312876D02*
X10775952Y-16312876D01*
X10795000Y-16322400D01*
X10804524Y-16331924D01*
X10814048Y-16350971D01*
X10823571Y-16389067D01*
X10823571Y-16436686D01*
X10814048Y-16474781D01*
X10804524Y-16493828D01*
X10795000Y-16503352D01*
X10775952Y-16512876D01*
X10756905Y-16512876D01*
X10737857Y-16503352D01*
X10728333Y-16493828D01*
X10718810Y-16474781D01*
X10709286Y-16436686D01*
X10709286Y-16389067D01*
X10718810Y-16350971D01*
X10728333Y-16331924D01*
X10737857Y-16322400D01*
X10756905Y-16312876D01*
X10947381Y-16312876D02*
X10966429Y-16312876D01*
X10985476Y-16322400D01*
X10995000Y-16331924D01*
X11004524Y-16350971D01*
X11014048Y-16389067D01*
X11014048Y-16436686D01*
X11004524Y-16474781D01*
X10995000Y-16493828D01*
X10985476Y-16503352D01*
X10966429Y-16512876D01*
X10947381Y-16512876D01*
X10928333Y-16503352D01*
X10918810Y-16493828D01*
X10909286Y-16474781D01*
X10899762Y-16436686D01*
X10899762Y-16389067D01*
X10909286Y-16350971D01*
X10918810Y-16331924D01*
X10928333Y-16322400D01*
X10947381Y-16312876D01*
X11099762Y-16512876D02*
X11099762Y-16379543D01*
X11099762Y-16398590D02*
X11109286Y-16389067D01*
X11128333Y-16379543D01*
X11156905Y-16379543D01*
X11175952Y-16389067D01*
X11185476Y-16408114D01*
X11185476Y-16512876D01*
X11185476Y-16408114D02*
X11195000Y-16389067D01*
X11214048Y-16379543D01*
X11242619Y-16379543D01*
X11261667Y-16389067D01*
X11271190Y-16408114D01*
X11271190Y-16512876D01*
X11366428Y-16512876D02*
X11366428Y-16379543D01*
X11366428Y-16398590D02*
X11375952Y-16389067D01*
X11395000Y-16379543D01*
X11423571Y-16379543D01*
X11442619Y-16389067D01*
X11452143Y-16408114D01*
X11452143Y-16512876D01*
X11452143Y-16408114D02*
X11461667Y-16389067D01*
X11480714Y-16379543D01*
X11509286Y-16379543D01*
X11528333Y-16389067D01*
X11537857Y-16408114D01*
X11537857Y-16512876D01*
X11928333Y-16303352D02*
X11756905Y-16560495D01*
X12185476Y-16312876D02*
X12204524Y-16312876D01*
X12223571Y-16322400D01*
X12233095Y-16331924D01*
X12242619Y-16350971D01*
X12252143Y-16389067D01*
X12252143Y-16436686D01*
X12242619Y-16474781D01*
X12233095Y-16493828D01*
X12223571Y-16503352D01*
X12204524Y-16512876D01*
X12185476Y-16512876D01*
X12166428Y-16503352D01*
X12156905Y-16493828D01*
X12147381Y-16474781D01*
X12137857Y-16436686D01*
X12137857Y-16389067D01*
X12147381Y-16350971D01*
X12156905Y-16331924D01*
X12166428Y-16322400D01*
X12185476Y-16312876D01*
X12337857Y-16493828D02*
X12347381Y-16503352D01*
X12337857Y-16512876D01*
X12328333Y-16503352D01*
X12337857Y-16493828D01*
X12337857Y-16512876D01*
X12471190Y-16312876D02*
X12490238Y-16312876D01*
X12509286Y-16322400D01*
X12518809Y-16331924D01*
X12528333Y-16350971D01*
X12537857Y-16389067D01*
X12537857Y-16436686D01*
X12528333Y-16474781D01*
X12518809Y-16493828D01*
X12509286Y-16503352D01*
X12490238Y-16512876D01*
X12471190Y-16512876D01*
X12452143Y-16503352D01*
X12442619Y-16493828D01*
X12433095Y-16474781D01*
X12423571Y-16436686D01*
X12423571Y-16389067D01*
X12433095Y-16350971D01*
X12442619Y-16331924D01*
X12452143Y-16322400D01*
X12471190Y-16312876D01*
X12604524Y-16312876D02*
X12728333Y-16312876D01*
X12661667Y-16389067D01*
X12690238Y-16389067D01*
X12709286Y-16398590D01*
X12718809Y-16408114D01*
X12728333Y-16427162D01*
X12728333Y-16474781D01*
X12718809Y-16493828D01*
X12709286Y-16503352D01*
X12690238Y-16512876D01*
X12633095Y-16512876D01*
X12614048Y-16503352D01*
X12604524Y-16493828D01*
X12823571Y-16512876D02*
X12861667Y-16512876D01*
X12880714Y-16503352D01*
X12890238Y-16493828D01*
X12909286Y-16465257D01*
X12918809Y-16427162D01*
X12918809Y-16350971D01*
X12909286Y-16331924D01*
X12899762Y-16322400D01*
X12880714Y-16312876D01*
X12842619Y-16312876D01*
X12823571Y-16322400D01*
X12814048Y-16331924D01*
X12804524Y-16350971D01*
X12804524Y-16398590D01*
X12814048Y-16417638D01*
X12823571Y-16427162D01*
X12842619Y-16436686D01*
X12880714Y-16436686D01*
X12899762Y-16427162D01*
X12909286Y-16417638D01*
X12918809Y-16398590D01*
X13090238Y-16379543D02*
X13090238Y-16512876D01*
X13042619Y-16303352D02*
X12995000Y-16446209D01*
X13118809Y-16446209D01*
X13185476Y-16312876D02*
X13185476Y-16350971D01*
X13261667Y-16312876D02*
X13261667Y-16350971D01*
X13556905Y-16589067D02*
X13547381Y-16579543D01*
X13528333Y-16550971D01*
X13518809Y-16531924D01*
X13509286Y-16503352D01*
X13499762Y-16455733D01*
X13499762Y-16417638D01*
X13509286Y-16370019D01*
X13518809Y-16341448D01*
X13528333Y-16322400D01*
X13547381Y-16293828D01*
X13556905Y-16284305D01*
X13718809Y-16379543D02*
X13718809Y-16512876D01*
X13671190Y-16303352D02*
X13623571Y-16446209D01*
X13747381Y-16446209D01*
X13804524Y-16312876D02*
X13928333Y-16312876D01*
X13861667Y-16389067D01*
X13890238Y-16389067D01*
X13909286Y-16398590D01*
X13918809Y-16408114D01*
X13928333Y-16427162D01*
X13928333Y-16474781D01*
X13918809Y-16493828D01*
X13909286Y-16503352D01*
X13890238Y-16512876D01*
X13833095Y-16512876D01*
X13814048Y-16503352D01*
X13804524Y-16493828D01*
X14166428Y-16512876D02*
X14166428Y-16312876D01*
X14252143Y-16512876D02*
X14252143Y-16408114D01*
X14242619Y-16389067D01*
X14223571Y-16379543D01*
X14195000Y-16379543D01*
X14175952Y-16389067D01*
X14166428Y-16398590D01*
X14375952Y-16512876D02*
X14356905Y-16503352D01*
X14347381Y-16493828D01*
X14337857Y-16474781D01*
X14337857Y-16417638D01*
X14347381Y-16398590D01*
X14356905Y-16389067D01*
X14375952Y-16379543D01*
X14404524Y-16379543D01*
X14423571Y-16389067D01*
X14433095Y-16398590D01*
X14442619Y-16417638D01*
X14442619Y-16474781D01*
X14433095Y-16493828D01*
X14423571Y-16503352D01*
X14404524Y-16512876D01*
X14375952Y-16512876D01*
X14556905Y-16512876D02*
X14537857Y-16503352D01*
X14528333Y-16484305D01*
X14528333Y-16312876D01*
X14709286Y-16503352D02*
X14690238Y-16512876D01*
X14652143Y-16512876D01*
X14633095Y-16503352D01*
X14623571Y-16484305D01*
X14623571Y-16408114D01*
X14633095Y-16389067D01*
X14652143Y-16379543D01*
X14690238Y-16379543D01*
X14709286Y-16389067D01*
X14718809Y-16408114D01*
X14718809Y-16427162D01*
X14623571Y-16446209D01*
X14795000Y-16503352D02*
X14814048Y-16512876D01*
X14852143Y-16512876D01*
X14871190Y-16503352D01*
X14880714Y-16484305D01*
X14880714Y-16474781D01*
X14871190Y-16455733D01*
X14852143Y-16446209D01*
X14823571Y-16446209D01*
X14804524Y-16436686D01*
X14795000Y-16417638D01*
X14795000Y-16408114D01*
X14804524Y-16389067D01*
X14823571Y-16379543D01*
X14852143Y-16379543D01*
X14871190Y-16389067D01*
X14947381Y-16589067D02*
X14956905Y-16579543D01*
X14975952Y-16550971D01*
X14985476Y-16531924D01*
X14995000Y-16503352D01*
X15004524Y-16455733D01*
X15004524Y-16417638D01*
X14995000Y-16370019D01*
X14985476Y-16341448D01*
X14975952Y-16322400D01*
X14956905Y-16293828D01*
X14947381Y-16284305D01*
D15*
X9930000Y-16741400D02*
X9985000Y-16686400D01*
X9930000Y-16631400D01*
X9875000Y-16686400D01*
X9930000Y-16741400D01*
D11*
X10347381Y-16776876D02*
X10233095Y-16776876D01*
X10290238Y-16776876D02*
X10290238Y-16576876D01*
X10271190Y-16605448D01*
X10252143Y-16624495D01*
X10233095Y-16634019D01*
X10433095Y-16757828D02*
X10442619Y-16767352D01*
X10433095Y-16776876D01*
X10423571Y-16767352D01*
X10433095Y-16757828D01*
X10433095Y-16776876D01*
X10633095Y-16776876D02*
X10518810Y-16776876D01*
X10575952Y-16776876D02*
X10575952Y-16576876D01*
X10556905Y-16605448D01*
X10537857Y-16624495D01*
X10518810Y-16634019D01*
X10756905Y-16576876D02*
X10775952Y-16576876D01*
X10795000Y-16586400D01*
X10804524Y-16595924D01*
X10814048Y-16614971D01*
X10823571Y-16653067D01*
X10823571Y-16700686D01*
X10814048Y-16738781D01*
X10804524Y-16757828D01*
X10795000Y-16767352D01*
X10775952Y-16776876D01*
X10756905Y-16776876D01*
X10737857Y-16767352D01*
X10728333Y-16757828D01*
X10718810Y-16738781D01*
X10709286Y-16700686D01*
X10709286Y-16653067D01*
X10718810Y-16614971D01*
X10728333Y-16595924D01*
X10737857Y-16586400D01*
X10756905Y-16576876D01*
X10947381Y-16576876D02*
X10966429Y-16576876D01*
X10985476Y-16586400D01*
X10995000Y-16595924D01*
X11004524Y-16614971D01*
X11014048Y-16653067D01*
X11014048Y-16700686D01*
X11004524Y-16738781D01*
X10995000Y-16757828D01*
X10985476Y-16767352D01*
X10966429Y-16776876D01*
X10947381Y-16776876D01*
X10928333Y-16767352D01*
X10918810Y-16757828D01*
X10909286Y-16738781D01*
X10899762Y-16700686D01*
X10899762Y-16653067D01*
X10909286Y-16614971D01*
X10918810Y-16595924D01*
X10928333Y-16586400D01*
X10947381Y-16576876D01*
X11099762Y-16776876D02*
X11099762Y-16643543D01*
X11099762Y-16662590D02*
X11109286Y-16653067D01*
X11128333Y-16643543D01*
X11156905Y-16643543D01*
X11175952Y-16653067D01*
X11185476Y-16672114D01*
X11185476Y-16776876D01*
X11185476Y-16672114D02*
X11195000Y-16653067D01*
X11214048Y-16643543D01*
X11242619Y-16643543D01*
X11261667Y-16653067D01*
X11271190Y-16672114D01*
X11271190Y-16776876D01*
X11366428Y-16776876D02*
X11366428Y-16643543D01*
X11366428Y-16662590D02*
X11375952Y-16653067D01*
X11395000Y-16643543D01*
X11423571Y-16643543D01*
X11442619Y-16653067D01*
X11452143Y-16672114D01*
X11452143Y-16776876D01*
X11452143Y-16672114D02*
X11461667Y-16653067D01*
X11480714Y-16643543D01*
X11509286Y-16643543D01*
X11528333Y-16653067D01*
X11537857Y-16672114D01*
X11537857Y-16776876D01*
X11928333Y-16567352D02*
X11756905Y-16824495D01*
X12185476Y-16576876D02*
X12204524Y-16576876D01*
X12223571Y-16586400D01*
X12233095Y-16595924D01*
X12242619Y-16614971D01*
X12252143Y-16653067D01*
X12252143Y-16700686D01*
X12242619Y-16738781D01*
X12233095Y-16757828D01*
X12223571Y-16767352D01*
X12204524Y-16776876D01*
X12185476Y-16776876D01*
X12166428Y-16767352D01*
X12156905Y-16757828D01*
X12147381Y-16738781D01*
X12137857Y-16700686D01*
X12137857Y-16653067D01*
X12147381Y-16614971D01*
X12156905Y-16595924D01*
X12166428Y-16586400D01*
X12185476Y-16576876D01*
X12337857Y-16757828D02*
X12347381Y-16767352D01*
X12337857Y-16776876D01*
X12328333Y-16767352D01*
X12337857Y-16757828D01*
X12337857Y-16776876D01*
X12471190Y-16576876D02*
X12490238Y-16576876D01*
X12509286Y-16586400D01*
X12518809Y-16595924D01*
X12528333Y-16614971D01*
X12537857Y-16653067D01*
X12537857Y-16700686D01*
X12528333Y-16738781D01*
X12518809Y-16757828D01*
X12509286Y-16767352D01*
X12490238Y-16776876D01*
X12471190Y-16776876D01*
X12452143Y-16767352D01*
X12442619Y-16757828D01*
X12433095Y-16738781D01*
X12423571Y-16700686D01*
X12423571Y-16653067D01*
X12433095Y-16614971D01*
X12442619Y-16595924D01*
X12452143Y-16586400D01*
X12471190Y-16576876D01*
X12709286Y-16643543D02*
X12709286Y-16776876D01*
X12661667Y-16567352D02*
X12614048Y-16710209D01*
X12737857Y-16710209D01*
X12795000Y-16576876D02*
X12918809Y-16576876D01*
X12852143Y-16653067D01*
X12880714Y-16653067D01*
X12899762Y-16662590D01*
X12909286Y-16672114D01*
X12918809Y-16691162D01*
X12918809Y-16738781D01*
X12909286Y-16757828D01*
X12899762Y-16767352D01*
X12880714Y-16776876D01*
X12823571Y-16776876D01*
X12804524Y-16767352D01*
X12795000Y-16757828D01*
X12985476Y-16576876D02*
X13109286Y-16576876D01*
X13042619Y-16653067D01*
X13071190Y-16653067D01*
X13090238Y-16662590D01*
X13099762Y-16672114D01*
X13109286Y-16691162D01*
X13109286Y-16738781D01*
X13099762Y-16757828D01*
X13090238Y-16767352D01*
X13071190Y-16776876D01*
X13014048Y-16776876D01*
X12995000Y-16767352D01*
X12985476Y-16757828D01*
X13185476Y-16576876D02*
X13185476Y-16614971D01*
X13261667Y-16576876D02*
X13261667Y-16614971D01*
X13556905Y-16853067D02*
X13547381Y-16843543D01*
X13528333Y-16814971D01*
X13518809Y-16795924D01*
X13509286Y-16767352D01*
X13499762Y-16719733D01*
X13499762Y-16681638D01*
X13509286Y-16634019D01*
X13518809Y-16605448D01*
X13528333Y-16586400D01*
X13547381Y-16557828D01*
X13556905Y-16548305D01*
X13623571Y-16595924D02*
X13633095Y-16586400D01*
X13652143Y-16576876D01*
X13699762Y-16576876D01*
X13718809Y-16586400D01*
X13728333Y-16595924D01*
X13737857Y-16614971D01*
X13737857Y-16634019D01*
X13728333Y-16662590D01*
X13614048Y-16776876D01*
X13737857Y-16776876D01*
X13975952Y-16776876D02*
X13975952Y-16576876D01*
X14061667Y-16776876D02*
X14061667Y-16672114D01*
X14052143Y-16653067D01*
X14033095Y-16643543D01*
X14004524Y-16643543D01*
X13985476Y-16653067D01*
X13975952Y-16662590D01*
X14185476Y-16776876D02*
X14166428Y-16767352D01*
X14156905Y-16757828D01*
X14147381Y-16738781D01*
X14147381Y-16681638D01*
X14156905Y-16662590D01*
X14166428Y-16653067D01*
X14185476Y-16643543D01*
X14214048Y-16643543D01*
X14233095Y-16653067D01*
X14242619Y-16662590D01*
X14252143Y-16681638D01*
X14252143Y-16738781D01*
X14242619Y-16757828D01*
X14233095Y-16767352D01*
X14214048Y-16776876D01*
X14185476Y-16776876D01*
X14366428Y-16776876D02*
X14347381Y-16767352D01*
X14337857Y-16748305D01*
X14337857Y-16576876D01*
X14518809Y-16767352D02*
X14499762Y-16776876D01*
X14461667Y-16776876D01*
X14442619Y-16767352D01*
X14433095Y-16748305D01*
X14433095Y-16672114D01*
X14442619Y-16653067D01*
X14461667Y-16643543D01*
X14499762Y-16643543D01*
X14518809Y-16653067D01*
X14528333Y-16672114D01*
X14528333Y-16691162D01*
X14433095Y-16710209D01*
X14604524Y-16767352D02*
X14623571Y-16776876D01*
X14661667Y-16776876D01*
X14680714Y-16767352D01*
X14690238Y-16748305D01*
X14690238Y-16738781D01*
X14680714Y-16719733D01*
X14661667Y-16710209D01*
X14633095Y-16710209D01*
X14614048Y-16700686D01*
X14604524Y-16681638D01*
X14604524Y-16672114D01*
X14614048Y-16653067D01*
X14633095Y-16643543D01*
X14661667Y-16643543D01*
X14680714Y-16653067D01*
X14756905Y-16853067D02*
X14766428Y-16843543D01*
X14785476Y-16814971D01*
X14795000Y-16795924D01*
X14804524Y-16767352D01*
X14814048Y-16719733D01*
X14814048Y-16681638D01*
X14804524Y-16634019D01*
X14795000Y-16605448D01*
X14785476Y-16586400D01*
X14766428Y-16557828D01*
X14756905Y-16548305D01*
D16*
X9835000Y-16875400D02*
X9985000Y-17025400D01*
X9985000Y-16875400D02*
X9835000Y-17025400D01*
X9985000Y-16950400D02*
G75*
G03*
X9985000Y-16950400I-75000J0D01*
G01*
D11*
X10347381Y-17040876D02*
X10233095Y-17040876D01*
X10290238Y-17040876D02*
X10290238Y-16840876D01*
X10271190Y-16869448D01*
X10252143Y-16888495D01*
X10233095Y-16898019D01*
X10433095Y-17021829D02*
X10442619Y-17031352D01*
X10433095Y-17040876D01*
X10423571Y-17031352D01*
X10433095Y-17021829D01*
X10433095Y-17040876D01*
X10623571Y-16840876D02*
X10528333Y-16840876D01*
X10518810Y-16936114D01*
X10528333Y-16926590D01*
X10547381Y-16917067D01*
X10595000Y-16917067D01*
X10614048Y-16926590D01*
X10623571Y-16936114D01*
X10633095Y-16955162D01*
X10633095Y-17002781D01*
X10623571Y-17021829D01*
X10614048Y-17031352D01*
X10595000Y-17040876D01*
X10547381Y-17040876D01*
X10528333Y-17031352D01*
X10518810Y-17021829D01*
X10756905Y-16840876D02*
X10775952Y-16840876D01*
X10795000Y-16850400D01*
X10804524Y-16859924D01*
X10814048Y-16878971D01*
X10823571Y-16917067D01*
X10823571Y-16964686D01*
X10814048Y-17002781D01*
X10804524Y-17021829D01*
X10795000Y-17031352D01*
X10775952Y-17040876D01*
X10756905Y-17040876D01*
X10737857Y-17031352D01*
X10728333Y-17021829D01*
X10718810Y-17002781D01*
X10709286Y-16964686D01*
X10709286Y-16917067D01*
X10718810Y-16878971D01*
X10728333Y-16859924D01*
X10737857Y-16850400D01*
X10756905Y-16840876D01*
X10947381Y-16840876D02*
X10966429Y-16840876D01*
X10985476Y-16850400D01*
X10995000Y-16859924D01*
X11004524Y-16878971D01*
X11014048Y-16917067D01*
X11014048Y-16964686D01*
X11004524Y-17002781D01*
X10995000Y-17021829D01*
X10985476Y-17031352D01*
X10966429Y-17040876D01*
X10947381Y-17040876D01*
X10928333Y-17031352D01*
X10918810Y-17021829D01*
X10909286Y-17002781D01*
X10899762Y-16964686D01*
X10899762Y-16917067D01*
X10909286Y-16878971D01*
X10918810Y-16859924D01*
X10928333Y-16850400D01*
X10947381Y-16840876D01*
X11099762Y-17040876D02*
X11099762Y-16907543D01*
X11099762Y-16926590D02*
X11109286Y-16917067D01*
X11128333Y-16907543D01*
X11156905Y-16907543D01*
X11175952Y-16917067D01*
X11185476Y-16936114D01*
X11185476Y-17040876D01*
X11185476Y-16936114D02*
X11195000Y-16917067D01*
X11214048Y-16907543D01*
X11242619Y-16907543D01*
X11261667Y-16917067D01*
X11271190Y-16936114D01*
X11271190Y-17040876D01*
X11366428Y-17040876D02*
X11366428Y-16907543D01*
X11366428Y-16926590D02*
X11375952Y-16917067D01*
X11395000Y-16907543D01*
X11423571Y-16907543D01*
X11442619Y-16917067D01*
X11452143Y-16936114D01*
X11452143Y-17040876D01*
X11452143Y-16936114D02*
X11461667Y-16917067D01*
X11480714Y-16907543D01*
X11509286Y-16907543D01*
X11528333Y-16917067D01*
X11537857Y-16936114D01*
X11537857Y-17040876D01*
X11928333Y-16831352D02*
X11756905Y-17088495D01*
X12185476Y-16840876D02*
X12204524Y-16840876D01*
X12223571Y-16850400D01*
X12233095Y-16859924D01*
X12242619Y-16878971D01*
X12252143Y-16917067D01*
X12252143Y-16964686D01*
X12242619Y-17002781D01*
X12233095Y-17021829D01*
X12223571Y-17031352D01*
X12204524Y-17040876D01*
X12185476Y-17040876D01*
X12166428Y-17031352D01*
X12156905Y-17021829D01*
X12147381Y-17002781D01*
X12137857Y-16964686D01*
X12137857Y-16917067D01*
X12147381Y-16878971D01*
X12156905Y-16859924D01*
X12166428Y-16850400D01*
X12185476Y-16840876D01*
X12337857Y-17021829D02*
X12347381Y-17031352D01*
X12337857Y-17040876D01*
X12328333Y-17031352D01*
X12337857Y-17021829D01*
X12337857Y-17040876D01*
X12471190Y-16840876D02*
X12490238Y-16840876D01*
X12509286Y-16850400D01*
X12518809Y-16859924D01*
X12528333Y-16878971D01*
X12537857Y-16917067D01*
X12537857Y-16964686D01*
X12528333Y-17002781D01*
X12518809Y-17021829D01*
X12509286Y-17031352D01*
X12490238Y-17040876D01*
X12471190Y-17040876D01*
X12452143Y-17031352D01*
X12442619Y-17021829D01*
X12433095Y-17002781D01*
X12423571Y-16964686D01*
X12423571Y-16917067D01*
X12433095Y-16878971D01*
X12442619Y-16859924D01*
X12452143Y-16850400D01*
X12471190Y-16840876D01*
X12718809Y-16840876D02*
X12623571Y-16840876D01*
X12614048Y-16936114D01*
X12623571Y-16926590D01*
X12642619Y-16917067D01*
X12690238Y-16917067D01*
X12709286Y-16926590D01*
X12718809Y-16936114D01*
X12728333Y-16955162D01*
X12728333Y-17002781D01*
X12718809Y-17021829D01*
X12709286Y-17031352D01*
X12690238Y-17040876D01*
X12642619Y-17040876D01*
X12623571Y-17031352D01*
X12614048Y-17021829D01*
X12823571Y-17040876D02*
X12861667Y-17040876D01*
X12880714Y-17031352D01*
X12890238Y-17021829D01*
X12909286Y-16993257D01*
X12918809Y-16955162D01*
X12918809Y-16878971D01*
X12909286Y-16859924D01*
X12899762Y-16850400D01*
X12880714Y-16840876D01*
X12842619Y-16840876D01*
X12823571Y-16850400D01*
X12814048Y-16859924D01*
X12804524Y-16878971D01*
X12804524Y-16926590D01*
X12814048Y-16945638D01*
X12823571Y-16955162D01*
X12842619Y-16964686D01*
X12880714Y-16964686D01*
X12899762Y-16955162D01*
X12909286Y-16945638D01*
X12918809Y-16926590D01*
X13109286Y-17040876D02*
X12995000Y-17040876D01*
X13052143Y-17040876D02*
X13052143Y-16840876D01*
X13033095Y-16869448D01*
X13014048Y-16888495D01*
X12995000Y-16898019D01*
X13185476Y-16840876D02*
X13185476Y-16878971D01*
X13261667Y-16840876D02*
X13261667Y-16878971D01*
X13556905Y-17117067D02*
X13547381Y-17107543D01*
X13528333Y-17078971D01*
X13518809Y-17059924D01*
X13509286Y-17031352D01*
X13499762Y-16983733D01*
X13499762Y-16945638D01*
X13509286Y-16898019D01*
X13518809Y-16869448D01*
X13528333Y-16850400D01*
X13547381Y-16821829D01*
X13556905Y-16812305D01*
X13623571Y-16859924D02*
X13633095Y-16850400D01*
X13652143Y-16840876D01*
X13699762Y-16840876D01*
X13718809Y-16850400D01*
X13728333Y-16859924D01*
X13737857Y-16878971D01*
X13737857Y-16898019D01*
X13728333Y-16926590D01*
X13614048Y-17040876D01*
X13737857Y-17040876D01*
X13975952Y-17040876D02*
X13975952Y-16840876D01*
X14061667Y-17040876D02*
X14061667Y-16936114D01*
X14052143Y-16917067D01*
X14033095Y-16907543D01*
X14004524Y-16907543D01*
X13985476Y-16917067D01*
X13975952Y-16926590D01*
X14185476Y-17040876D02*
X14166428Y-17031352D01*
X14156905Y-17021829D01*
X14147381Y-17002781D01*
X14147381Y-16945638D01*
X14156905Y-16926590D01*
X14166428Y-16917067D01*
X14185476Y-16907543D01*
X14214048Y-16907543D01*
X14233095Y-16917067D01*
X14242619Y-16926590D01*
X14252143Y-16945638D01*
X14252143Y-17002781D01*
X14242619Y-17021829D01*
X14233095Y-17031352D01*
X14214048Y-17040876D01*
X14185476Y-17040876D01*
X14366428Y-17040876D02*
X14347381Y-17031352D01*
X14337857Y-17012305D01*
X14337857Y-16840876D01*
X14518809Y-17031352D02*
X14499762Y-17040876D01*
X14461667Y-17040876D01*
X14442619Y-17031352D01*
X14433095Y-17012305D01*
X14433095Y-16936114D01*
X14442619Y-16917067D01*
X14461667Y-16907543D01*
X14499762Y-16907543D01*
X14518809Y-16917067D01*
X14528333Y-16936114D01*
X14528333Y-16955162D01*
X14433095Y-16974210D01*
X14604524Y-17031352D02*
X14623571Y-17040876D01*
X14661667Y-17040876D01*
X14680714Y-17031352D01*
X14690238Y-17012305D01*
X14690238Y-17002781D01*
X14680714Y-16983733D01*
X14661667Y-16974210D01*
X14633095Y-16974210D01*
X14614048Y-16964686D01*
X14604524Y-16945638D01*
X14604524Y-16936114D01*
X14614048Y-16917067D01*
X14633095Y-16907543D01*
X14661667Y-16907543D01*
X14680714Y-16917067D01*
X14756905Y-17117067D02*
X14766428Y-17107543D01*
X14785476Y-17078971D01*
X14795000Y-17059924D01*
X14804524Y-17031352D01*
X14814048Y-16983733D01*
X14814048Y-16945638D01*
X14804524Y-16898019D01*
X14795000Y-16869448D01*
X14785476Y-16850400D01*
X14766428Y-16821829D01*
X14756905Y-16812305D01*
D17*
X9831000Y-17143400D02*
X9985000Y-17297400D01*
X9985000Y-17143400D02*
X9831000Y-17297400D01*
X9908000Y-17143400D02*
X9908000Y-17297400D01*
X9831000Y-17220400D02*
X9985000Y-17220400D01*
D11*
X10347381Y-17310876D02*
X10233095Y-17310876D01*
X10290238Y-17310876D02*
X10290238Y-17110876D01*
X10271190Y-17139448D01*
X10252143Y-17158495D01*
X10233095Y-17168019D01*
X10433095Y-17291829D02*
X10442619Y-17301352D01*
X10433095Y-17310876D01*
X10423571Y-17301352D01*
X10433095Y-17291829D01*
X10433095Y-17310876D01*
X10623571Y-17110876D02*
X10528333Y-17110876D01*
X10518810Y-17206114D01*
X10528333Y-17196590D01*
X10547381Y-17187067D01*
X10595000Y-17187067D01*
X10614048Y-17196590D01*
X10623571Y-17206114D01*
X10633095Y-17225162D01*
X10633095Y-17272781D01*
X10623571Y-17291829D01*
X10614048Y-17301352D01*
X10595000Y-17310876D01*
X10547381Y-17310876D01*
X10528333Y-17301352D01*
X10518810Y-17291829D01*
X10804524Y-17177543D02*
X10804524Y-17310876D01*
X10756905Y-17101352D02*
X10709286Y-17244210D01*
X10833095Y-17244210D01*
X10947381Y-17110876D02*
X10966429Y-17110876D01*
X10985476Y-17120400D01*
X10995000Y-17129924D01*
X11004524Y-17148971D01*
X11014048Y-17187067D01*
X11014048Y-17234686D01*
X11004524Y-17272781D01*
X10995000Y-17291829D01*
X10985476Y-17301352D01*
X10966429Y-17310876D01*
X10947381Y-17310876D01*
X10928333Y-17301352D01*
X10918810Y-17291829D01*
X10909286Y-17272781D01*
X10899762Y-17234686D01*
X10899762Y-17187067D01*
X10909286Y-17148971D01*
X10918810Y-17129924D01*
X10928333Y-17120400D01*
X10947381Y-17110876D01*
X11099762Y-17310876D02*
X11099762Y-17177543D01*
X11099762Y-17196590D02*
X11109286Y-17187067D01*
X11128333Y-17177543D01*
X11156905Y-17177543D01*
X11175952Y-17187067D01*
X11185476Y-17206114D01*
X11185476Y-17310876D01*
X11185476Y-17206114D02*
X11195000Y-17187067D01*
X11214048Y-17177543D01*
X11242619Y-17177543D01*
X11261667Y-17187067D01*
X11271190Y-17206114D01*
X11271190Y-17310876D01*
X11366428Y-17310876D02*
X11366428Y-17177543D01*
X11366428Y-17196590D02*
X11375952Y-17187067D01*
X11395000Y-17177543D01*
X11423571Y-17177543D01*
X11442619Y-17187067D01*
X11452143Y-17206114D01*
X11452143Y-17310876D01*
X11452143Y-17206114D02*
X11461667Y-17187067D01*
X11480714Y-17177543D01*
X11509286Y-17177543D01*
X11528333Y-17187067D01*
X11537857Y-17206114D01*
X11537857Y-17310876D01*
X11928333Y-17101352D02*
X11756905Y-17358495D01*
X12185476Y-17110876D02*
X12204524Y-17110876D01*
X12223571Y-17120400D01*
X12233095Y-17129924D01*
X12242619Y-17148971D01*
X12252143Y-17187067D01*
X12252143Y-17234686D01*
X12242619Y-17272781D01*
X12233095Y-17291829D01*
X12223571Y-17301352D01*
X12204524Y-17310876D01*
X12185476Y-17310876D01*
X12166428Y-17301352D01*
X12156905Y-17291829D01*
X12147381Y-17272781D01*
X12137857Y-17234686D01*
X12137857Y-17187067D01*
X12147381Y-17148971D01*
X12156905Y-17129924D01*
X12166428Y-17120400D01*
X12185476Y-17110876D01*
X12337857Y-17291829D02*
X12347381Y-17301352D01*
X12337857Y-17310876D01*
X12328333Y-17301352D01*
X12337857Y-17291829D01*
X12337857Y-17310876D01*
X12471190Y-17110876D02*
X12490238Y-17110876D01*
X12509286Y-17120400D01*
X12518809Y-17129924D01*
X12528333Y-17148971D01*
X12537857Y-17187067D01*
X12537857Y-17234686D01*
X12528333Y-17272781D01*
X12518809Y-17291829D01*
X12509286Y-17301352D01*
X12490238Y-17310876D01*
X12471190Y-17310876D01*
X12452143Y-17301352D01*
X12442619Y-17291829D01*
X12433095Y-17272781D01*
X12423571Y-17234686D01*
X12423571Y-17187067D01*
X12433095Y-17148971D01*
X12442619Y-17129924D01*
X12452143Y-17120400D01*
X12471190Y-17110876D01*
X12709286Y-17110876D02*
X12671190Y-17110876D01*
X12652143Y-17120400D01*
X12642619Y-17129924D01*
X12623571Y-17158495D01*
X12614048Y-17196590D01*
X12614048Y-17272781D01*
X12623571Y-17291829D01*
X12633095Y-17301352D01*
X12652143Y-17310876D01*
X12690238Y-17310876D01*
X12709286Y-17301352D01*
X12718809Y-17291829D01*
X12728333Y-17272781D01*
X12728333Y-17225162D01*
X12718809Y-17206114D01*
X12709286Y-17196590D01*
X12690238Y-17187067D01*
X12652143Y-17187067D01*
X12633095Y-17196590D01*
X12623571Y-17206114D01*
X12614048Y-17225162D01*
X12852143Y-17110876D02*
X12871190Y-17110876D01*
X12890238Y-17120400D01*
X12899762Y-17129924D01*
X12909286Y-17148971D01*
X12918809Y-17187067D01*
X12918809Y-17234686D01*
X12909286Y-17272781D01*
X12899762Y-17291829D01*
X12890238Y-17301352D01*
X12871190Y-17310876D01*
X12852143Y-17310876D01*
X12833095Y-17301352D01*
X12823571Y-17291829D01*
X12814048Y-17272781D01*
X12804524Y-17234686D01*
X12804524Y-17187067D01*
X12814048Y-17148971D01*
X12823571Y-17129924D01*
X12833095Y-17120400D01*
X12852143Y-17110876D01*
X13090238Y-17110876D02*
X13052143Y-17110876D01*
X13033095Y-17120400D01*
X13023571Y-17129924D01*
X13004524Y-17158495D01*
X12995000Y-17196590D01*
X12995000Y-17272781D01*
X13004524Y-17291829D01*
X13014048Y-17301352D01*
X13033095Y-17310876D01*
X13071190Y-17310876D01*
X13090238Y-17301352D01*
X13099762Y-17291829D01*
X13109286Y-17272781D01*
X13109286Y-17225162D01*
X13099762Y-17206114D01*
X13090238Y-17196590D01*
X13071190Y-17187067D01*
X13033095Y-17187067D01*
X13014048Y-17196590D01*
X13004524Y-17206114D01*
X12995000Y-17225162D01*
X13185476Y-17110876D02*
X13185476Y-17148971D01*
X13261667Y-17110876D02*
X13261667Y-17148971D01*
X13556905Y-17387067D02*
X13547381Y-17377543D01*
X13528333Y-17348971D01*
X13518809Y-17329924D01*
X13509286Y-17301352D01*
X13499762Y-17253733D01*
X13499762Y-17215638D01*
X13509286Y-17168019D01*
X13518809Y-17139448D01*
X13528333Y-17120400D01*
X13547381Y-17091829D01*
X13556905Y-17082305D01*
X13718809Y-17110876D02*
X13680714Y-17110876D01*
X13661667Y-17120400D01*
X13652143Y-17129924D01*
X13633095Y-17158495D01*
X13623571Y-17196590D01*
X13623571Y-17272781D01*
X13633095Y-17291829D01*
X13642619Y-17301352D01*
X13661667Y-17310876D01*
X13699762Y-17310876D01*
X13718809Y-17301352D01*
X13728333Y-17291829D01*
X13737857Y-17272781D01*
X13737857Y-17225162D01*
X13728333Y-17206114D01*
X13718809Y-17196590D01*
X13699762Y-17187067D01*
X13661667Y-17187067D01*
X13642619Y-17196590D01*
X13633095Y-17206114D01*
X13623571Y-17225162D01*
X13975952Y-17310876D02*
X13975952Y-17110876D01*
X14061667Y-17310876D02*
X14061667Y-17206114D01*
X14052143Y-17187067D01*
X14033095Y-17177543D01*
X14004524Y-17177543D01*
X13985476Y-17187067D01*
X13975952Y-17196590D01*
X14185476Y-17310876D02*
X14166428Y-17301352D01*
X14156905Y-17291829D01*
X14147381Y-17272781D01*
X14147381Y-17215638D01*
X14156905Y-17196590D01*
X14166428Y-17187067D01*
X14185476Y-17177543D01*
X14214048Y-17177543D01*
X14233095Y-17187067D01*
X14242619Y-17196590D01*
X14252143Y-17215638D01*
X14252143Y-17272781D01*
X14242619Y-17291829D01*
X14233095Y-17301352D01*
X14214048Y-17310876D01*
X14185476Y-17310876D01*
X14366428Y-17310876D02*
X14347381Y-17301352D01*
X14337857Y-17282305D01*
X14337857Y-17110876D01*
X14518809Y-17301352D02*
X14499762Y-17310876D01*
X14461667Y-17310876D01*
X14442619Y-17301352D01*
X14433095Y-17282305D01*
X14433095Y-17206114D01*
X14442619Y-17187067D01*
X14461667Y-17177543D01*
X14499762Y-17177543D01*
X14518809Y-17187067D01*
X14528333Y-17206114D01*
X14528333Y-17225162D01*
X14433095Y-17244210D01*
X14604524Y-17301352D02*
X14623571Y-17310876D01*
X14661667Y-17310876D01*
X14680714Y-17301352D01*
X14690238Y-17282305D01*
X14690238Y-17272781D01*
X14680714Y-17253733D01*
X14661667Y-17244210D01*
X14633095Y-17244210D01*
X14614048Y-17234686D01*
X14604524Y-17215638D01*
X14604524Y-17206114D01*
X14614048Y-17187067D01*
X14633095Y-17177543D01*
X14661667Y-17177543D01*
X14680714Y-17187067D01*
X14756905Y-17387067D02*
X14766428Y-17377543D01*
X14785476Y-17348971D01*
X14795000Y-17329924D01*
X14804524Y-17301352D01*
X14814048Y-17253733D01*
X14814048Y-17215638D01*
X14804524Y-17168019D01*
X14795000Y-17139448D01*
X14785476Y-17120400D01*
X14766428Y-17091829D01*
X14756905Y-17082305D01*
M02*
