%TF.GenerationSoftware,KiCad,Pcbnew,(6.0.9)*%
%TF.CreationDate,2023-01-27T22:09:12+02:00*%
%TF.ProjectId,Schematics,53636865-6d61-4746-9963-732e6b696361,rev?*%
%TF.SameCoordinates,Original*%
%TF.FileFunction,Legend,Top*%
%TF.FilePolarity,Positive*%
%FSLAX46Y46*%
G04 Gerber Fmt 4.6, Leading zero omitted, Abs format (unit mm)*
G04 Created by KiCad (PCBNEW (6.0.9)) date 2023-01-27 22:09:12*
%MOMM*%
%LPD*%
G01*
G04 APERTURE LIST*
G04 Aperture macros list*
%AMRoundRect*
0 Rectangle with rounded corners*
0 $1 Rounding radius*
0 $2 $3 $4 $5 $6 $7 $8 $9 X,Y pos of 4 corners*
0 Add a 4 corners polygon primitive as box body*
4,1,4,$2,$3,$4,$5,$6,$7,$8,$9,$2,$3,0*
0 Add four circle primitives for the rounded corners*
1,1,$1+$1,$2,$3*
1,1,$1+$1,$4,$5*
1,1,$1+$1,$6,$7*
1,1,$1+$1,$8,$9*
0 Add four rect primitives between the rounded corners*
20,1,$1+$1,$2,$3,$4,$5,0*
20,1,$1+$1,$4,$5,$6,$7,0*
20,1,$1+$1,$6,$7,$8,$9,0*
20,1,$1+$1,$8,$9,$2,$3,0*%
G04 Aperture macros list end*
%ADD10C,0.150000*%
%ADD11C,0.120000*%
%ADD12C,0.127000*%
%ADD13O,3.500000X3.500000*%
%ADD14C,2.500000*%
%ADD15C,1.600000*%
%ADD16RoundRect,0.150000X-0.150000X0.512500X-0.150000X-0.512500X0.150000X-0.512500X0.150000X0.512500X0*%
%ADD17R,1.900000X1.900000*%
%ADD18C,1.900000*%
%ADD19R,2.000000X2.000000*%
%ADD20O,2.000000X2.000000*%
%ADD21C,1.400000*%
%ADD22O,1.400000X1.400000*%
%ADD23C,2.000000*%
%ADD24R,2.800000X2.800000*%
%ADD25R,2.200000X2.200000*%
%ADD26O,2.200000X2.200000*%
G04 APERTURE END LIST*
D10*
%TO.C,BT1*%
X156964285Y-66228571D02*
X157107142Y-66276190D01*
X157154761Y-66323809D01*
X157202380Y-66419047D01*
X157202380Y-66561904D01*
X157154761Y-66657142D01*
X157107142Y-66704761D01*
X157011904Y-66752380D01*
X156630952Y-66752380D01*
X156630952Y-65752380D01*
X156964285Y-65752380D01*
X157059523Y-65800000D01*
X157107142Y-65847619D01*
X157154761Y-65942857D01*
X157154761Y-66038095D01*
X157107142Y-66133333D01*
X157059523Y-66180952D01*
X156964285Y-66228571D01*
X156630952Y-66228571D01*
X157488095Y-65752380D02*
X158059523Y-65752380D01*
X157773809Y-66752380D02*
X157773809Y-65752380D01*
X158916666Y-66752380D02*
X158345238Y-66752380D01*
X158630952Y-66752380D02*
X158630952Y-65752380D01*
X158535714Y-65895238D01*
X158440476Y-65990476D01*
X158345238Y-66038095D01*
X162788095Y-104252380D02*
X163407142Y-104252380D01*
X163073809Y-104633333D01*
X163216666Y-104633333D01*
X163311904Y-104680952D01*
X163359523Y-104728571D01*
X163407142Y-104823809D01*
X163407142Y-105061904D01*
X163359523Y-105157142D01*
X163311904Y-105204761D01*
X163216666Y-105252380D01*
X162930952Y-105252380D01*
X162835714Y-105204761D01*
X162788095Y-105157142D01*
X163835714Y-105157142D02*
X163883333Y-105204761D01*
X163835714Y-105252380D01*
X163788095Y-105204761D01*
X163835714Y-105157142D01*
X163835714Y-105252380D01*
X164216666Y-104252380D02*
X164883333Y-104252380D01*
X164454761Y-105252380D01*
X165121428Y-104252380D02*
X165454761Y-105252380D01*
X165788095Y-104252380D01*
X167359523Y-105252380D02*
X166883333Y-105252380D01*
X166883333Y-104252380D01*
X167692857Y-105252380D02*
X167692857Y-104585714D01*
X167692857Y-104252380D02*
X167645238Y-104300000D01*
X167692857Y-104347619D01*
X167740476Y-104300000D01*
X167692857Y-104252380D01*
X167692857Y-104347619D01*
X168169047Y-104871428D02*
X168930952Y-104871428D01*
X169407142Y-105252380D02*
X169407142Y-104585714D01*
X169407142Y-104252380D02*
X169359523Y-104300000D01*
X169407142Y-104347619D01*
X169454761Y-104300000D01*
X169407142Y-104252380D01*
X169407142Y-104347619D01*
X170026190Y-105252380D02*
X169930952Y-105204761D01*
X169883333Y-105157142D01*
X169835714Y-105061904D01*
X169835714Y-104776190D01*
X169883333Y-104680952D01*
X169930952Y-104633333D01*
X170026190Y-104585714D01*
X170169047Y-104585714D01*
X170264285Y-104633333D01*
X170311904Y-104680952D01*
X170359523Y-104776190D01*
X170359523Y-105061904D01*
X170311904Y-105157142D01*
X170264285Y-105204761D01*
X170169047Y-105252380D01*
X170026190Y-105252380D01*
X170788095Y-104585714D02*
X170788095Y-105252380D01*
X170788095Y-104680952D02*
X170835714Y-104633333D01*
X170930952Y-104585714D01*
X171073809Y-104585714D01*
X171169047Y-104633333D01*
X171216666Y-104728571D01*
X171216666Y-105252380D01*
X166978571Y-137219047D02*
X166978571Y-137980952D01*
X166978571Y-71719047D02*
X166978571Y-72480952D01*
X166597619Y-72100000D02*
X167359523Y-72100000D01*
%TO.C,C2*%
X122223333Y-88557142D02*
X122175714Y-88604761D01*
X122032857Y-88652380D01*
X121937619Y-88652380D01*
X121794761Y-88604761D01*
X121699523Y-88509523D01*
X121651904Y-88414285D01*
X121604285Y-88223809D01*
X121604285Y-88080952D01*
X121651904Y-87890476D01*
X121699523Y-87795238D01*
X121794761Y-87700000D01*
X121937619Y-87652380D01*
X122032857Y-87652380D01*
X122175714Y-87700000D01*
X122223333Y-87747619D01*
X122604285Y-87747619D02*
X122651904Y-87700000D01*
X122747142Y-87652380D01*
X122985238Y-87652380D01*
X123080476Y-87700000D01*
X123128095Y-87747619D01*
X123175714Y-87842857D01*
X123175714Y-87938095D01*
X123128095Y-88080952D01*
X122556666Y-88652380D01*
X123175714Y-88652380D01*
X127223333Y-88752380D02*
X126651904Y-88752380D01*
X126937619Y-88752380D02*
X126937619Y-87752380D01*
X126842380Y-87895238D01*
X126747142Y-87990476D01*
X126651904Y-88038095D01*
X128080476Y-88085714D02*
X128080476Y-88752380D01*
X127651904Y-88085714D02*
X127651904Y-88609523D01*
X127699523Y-88704761D01*
X127794761Y-88752380D01*
X127937619Y-88752380D01*
X128032857Y-88704761D01*
X128080476Y-88657142D01*
%TO.C,U4*%
X121428095Y-81952380D02*
X121428095Y-82761904D01*
X121475714Y-82857142D01*
X121523333Y-82904761D01*
X121618571Y-82952380D01*
X121809047Y-82952380D01*
X121904285Y-82904761D01*
X121951904Y-82857142D01*
X121999523Y-82761904D01*
X121999523Y-81952380D01*
X122904285Y-82285714D02*
X122904285Y-82952380D01*
X122666190Y-81904761D02*
X122428095Y-82619047D01*
X123047142Y-82619047D01*
%TO.C,U6*%
X142428095Y-120552380D02*
X142428095Y-121361904D01*
X142475714Y-121457142D01*
X142523333Y-121504761D01*
X142618571Y-121552380D01*
X142809047Y-121552380D01*
X142904285Y-121504761D01*
X142951904Y-121457142D01*
X142999523Y-121361904D01*
X142999523Y-120552380D01*
X143904285Y-120552380D02*
X143713809Y-120552380D01*
X143618571Y-120600000D01*
X143570952Y-120647619D01*
X143475714Y-120790476D01*
X143428095Y-120980952D01*
X143428095Y-121361904D01*
X143475714Y-121457142D01*
X143523333Y-121504761D01*
X143618571Y-121552380D01*
X143809047Y-121552380D01*
X143904285Y-121504761D01*
X143951904Y-121457142D01*
X143999523Y-121361904D01*
X143999523Y-121123809D01*
X143951904Y-121028571D01*
X143904285Y-120980952D01*
X143809047Y-120933333D01*
X143618571Y-120933333D01*
X143523333Y-120980952D01*
X143475714Y-121028571D01*
X143428095Y-121123809D01*
X147985238Y-134552380D02*
X147509047Y-134552380D01*
X147509047Y-133552380D01*
X148318571Y-134552380D02*
X148318571Y-133552380D01*
X148747142Y-134504761D02*
X148890000Y-134552380D01*
X149128095Y-134552380D01*
X149223333Y-134504761D01*
X149270952Y-134457142D01*
X149318571Y-134361904D01*
X149318571Y-134266666D01*
X149270952Y-134171428D01*
X149223333Y-134123809D01*
X149128095Y-134076190D01*
X148937619Y-134028571D01*
X148842380Y-133980952D01*
X148794761Y-133933333D01*
X148747142Y-133838095D01*
X148747142Y-133742857D01*
X148794761Y-133647619D01*
X148842380Y-133600000D01*
X148937619Y-133552380D01*
X149175714Y-133552380D01*
X149318571Y-133600000D01*
X149651904Y-133552380D02*
X150270952Y-133552380D01*
X149937619Y-133933333D01*
X150080476Y-133933333D01*
X150175714Y-133980952D01*
X150223333Y-134028571D01*
X150270952Y-134123809D01*
X150270952Y-134361904D01*
X150223333Y-134457142D01*
X150175714Y-134504761D01*
X150080476Y-134552380D01*
X149794761Y-134552380D01*
X149699523Y-134504761D01*
X149651904Y-134457142D01*
X150699523Y-134552380D02*
X150699523Y-133552380D01*
X150937619Y-133552380D01*
X151080476Y-133600000D01*
X151175714Y-133695238D01*
X151223333Y-133790476D01*
X151270952Y-133980952D01*
X151270952Y-134123809D01*
X151223333Y-134314285D01*
X151175714Y-134409523D01*
X151080476Y-134504761D01*
X150937619Y-134552380D01*
X150699523Y-134552380D01*
X151699523Y-134552380D02*
X151699523Y-133552380D01*
X151699523Y-134028571D02*
X152270952Y-134028571D01*
X152270952Y-134552380D02*
X152270952Y-133552380D01*
%TO.C,U2*%
X125578095Y-118652380D02*
X125578095Y-119461904D01*
X125625714Y-119557142D01*
X125673333Y-119604761D01*
X125768571Y-119652380D01*
X125959047Y-119652380D01*
X126054285Y-119604761D01*
X126101904Y-119557142D01*
X126149523Y-119461904D01*
X126149523Y-118652380D01*
X126578095Y-118747619D02*
X126625714Y-118700000D01*
X126720952Y-118652380D01*
X126959047Y-118652380D01*
X127054285Y-118700000D01*
X127101904Y-118747619D01*
X127149523Y-118842857D01*
X127149523Y-118938095D01*
X127101904Y-119080952D01*
X126530476Y-119652380D01*
X127149523Y-119652380D01*
X129824857Y-129759071D02*
X129967714Y-129806690D01*
X130015333Y-129854309D01*
X130062952Y-129949547D01*
X130062952Y-130092404D01*
X130015333Y-130187642D01*
X129967714Y-130235261D01*
X129872476Y-130282880D01*
X129491523Y-130282880D01*
X129491523Y-129282880D01*
X129824857Y-129282880D01*
X129920095Y-129330500D01*
X129967714Y-129378119D01*
X130015333Y-129473357D01*
X130015333Y-129568595D01*
X129967714Y-129663833D01*
X129920095Y-129711452D01*
X129824857Y-129759071D01*
X129491523Y-129759071D01*
X130491523Y-130282880D02*
X130491523Y-129282880D01*
X130491523Y-129759071D02*
X131062952Y-129759071D01*
X131062952Y-130282880D02*
X131062952Y-129282880D01*
X132062952Y-130282880D02*
X131491523Y-130282880D01*
X131777238Y-130282880D02*
X131777238Y-129282880D01*
X131682000Y-129425738D01*
X131586761Y-129520976D01*
X131491523Y-129568595D01*
X132396285Y-129282880D02*
X133062952Y-129282880D01*
X132634380Y-130282880D01*
X133920095Y-129282880D02*
X133443904Y-129282880D01*
X133396285Y-129759071D01*
X133443904Y-129711452D01*
X133539142Y-129663833D01*
X133777238Y-129663833D01*
X133872476Y-129711452D01*
X133920095Y-129759071D01*
X133967714Y-129854309D01*
X133967714Y-130092404D01*
X133920095Y-130187642D01*
X133872476Y-130235261D01*
X133777238Y-130282880D01*
X133539142Y-130282880D01*
X133443904Y-130235261D01*
X133396285Y-130187642D01*
X134586761Y-129282880D02*
X134682000Y-129282880D01*
X134777238Y-129330500D01*
X134824857Y-129378119D01*
X134872476Y-129473357D01*
X134920095Y-129663833D01*
X134920095Y-129901928D01*
X134872476Y-130092404D01*
X134824857Y-130187642D01*
X134777238Y-130235261D01*
X134682000Y-130282880D01*
X134586761Y-130282880D01*
X134491523Y-130235261D01*
X134443904Y-130187642D01*
X134396285Y-130092404D01*
X134348666Y-129901928D01*
X134348666Y-129663833D01*
X134396285Y-129473357D01*
X134443904Y-129378119D01*
X134491523Y-129330500D01*
X134586761Y-129282880D01*
%TO.C,R2*%
X143423333Y-119352380D02*
X143090000Y-118876190D01*
X142851904Y-119352380D02*
X142851904Y-118352380D01*
X143232857Y-118352380D01*
X143328095Y-118400000D01*
X143375714Y-118447619D01*
X143423333Y-118542857D01*
X143423333Y-118685714D01*
X143375714Y-118780952D01*
X143328095Y-118828571D01*
X143232857Y-118876190D01*
X142851904Y-118876190D01*
X143804285Y-118447619D02*
X143851904Y-118400000D01*
X143947142Y-118352380D01*
X144185238Y-118352380D01*
X144280476Y-118400000D01*
X144328095Y-118447619D01*
X144375714Y-118542857D01*
X144375714Y-118638095D01*
X144328095Y-118780952D01*
X143756666Y-119352380D01*
X144375714Y-119352380D01*
X147575428Y-118573714D02*
X147575428Y-119240380D01*
X147337333Y-118192761D02*
X147099238Y-118907047D01*
X147718285Y-118907047D01*
X148099238Y-119145142D02*
X148146857Y-119192761D01*
X148099238Y-119240380D01*
X148051619Y-119192761D01*
X148099238Y-119145142D01*
X148099238Y-119240380D01*
X148480190Y-118240380D02*
X149146857Y-118240380D01*
X148718285Y-119240380D01*
X149527809Y-119240380D02*
X149527809Y-118240380D01*
X149623047Y-118859428D02*
X149908761Y-119240380D01*
X149908761Y-118573714D02*
X149527809Y-118954666D01*
%TO.C,R4*%
X134723333Y-93052380D02*
X134390000Y-92576190D01*
X134151904Y-93052380D02*
X134151904Y-92052380D01*
X134532857Y-92052380D01*
X134628095Y-92100000D01*
X134675714Y-92147619D01*
X134723333Y-92242857D01*
X134723333Y-92385714D01*
X134675714Y-92480952D01*
X134628095Y-92528571D01*
X134532857Y-92576190D01*
X134151904Y-92576190D01*
X135580476Y-92385714D02*
X135580476Y-93052380D01*
X135342380Y-92004761D02*
X135104285Y-92719047D01*
X135723333Y-92719047D01*
X134242857Y-94975904D02*
X133785714Y-94975904D01*
X134014285Y-94975904D02*
X134014285Y-94175904D01*
X133938095Y-94290190D01*
X133861904Y-94366380D01*
X133785714Y-94404476D01*
X134738095Y-94175904D02*
X134814285Y-94175904D01*
X134890476Y-94214000D01*
X134928571Y-94252095D01*
X134966666Y-94328285D01*
X135004761Y-94480666D01*
X135004761Y-94671142D01*
X134966666Y-94823523D01*
X134928571Y-94899714D01*
X134890476Y-94937809D01*
X134814285Y-94975904D01*
X134738095Y-94975904D01*
X134661904Y-94937809D01*
X134623809Y-94899714D01*
X134585714Y-94823523D01*
X134547619Y-94671142D01*
X134547619Y-94480666D01*
X134585714Y-94328285D01*
X134623809Y-94252095D01*
X134661904Y-94214000D01*
X134738095Y-94175904D01*
X135500000Y-94175904D02*
X135576190Y-94175904D01*
X135652380Y-94214000D01*
X135690476Y-94252095D01*
X135728571Y-94328285D01*
X135766666Y-94480666D01*
X135766666Y-94671142D01*
X135728571Y-94823523D01*
X135690476Y-94899714D01*
X135652380Y-94937809D01*
X135576190Y-94975904D01*
X135500000Y-94975904D01*
X135423809Y-94937809D01*
X135385714Y-94899714D01*
X135347619Y-94823523D01*
X135309523Y-94671142D01*
X135309523Y-94480666D01*
X135347619Y-94328285D01*
X135385714Y-94252095D01*
X135423809Y-94214000D01*
X135500000Y-94175904D01*
X136109523Y-94975904D02*
X136109523Y-94175904D01*
X136185714Y-94671142D02*
X136414285Y-94975904D01*
X136414285Y-94442571D02*
X136109523Y-94747333D01*
%TO.C,R3*%
X127423333Y-93252380D02*
X127090000Y-92776190D01*
X126851904Y-93252380D02*
X126851904Y-92252380D01*
X127232857Y-92252380D01*
X127328095Y-92300000D01*
X127375714Y-92347619D01*
X127423333Y-92442857D01*
X127423333Y-92585714D01*
X127375714Y-92680952D01*
X127328095Y-92728571D01*
X127232857Y-92776190D01*
X126851904Y-92776190D01*
X127756666Y-92252380D02*
X128375714Y-92252380D01*
X128042380Y-92633333D01*
X128185238Y-92633333D01*
X128280476Y-92680952D01*
X128328095Y-92728571D01*
X128375714Y-92823809D01*
X128375714Y-93061904D01*
X128328095Y-93157142D01*
X128280476Y-93204761D01*
X128185238Y-93252380D01*
X127899523Y-93252380D01*
X127804285Y-93204761D01*
X127756666Y-93157142D01*
X126912857Y-95061904D02*
X126455714Y-95061904D01*
X126684285Y-95061904D02*
X126684285Y-94261904D01*
X126608095Y-94376190D01*
X126531904Y-94452380D01*
X126455714Y-94490476D01*
X127408095Y-94261904D02*
X127484285Y-94261904D01*
X127560476Y-94300000D01*
X127598571Y-94338095D01*
X127636666Y-94414285D01*
X127674761Y-94566666D01*
X127674761Y-94757142D01*
X127636666Y-94909523D01*
X127598571Y-94985714D01*
X127560476Y-95023809D01*
X127484285Y-95061904D01*
X127408095Y-95061904D01*
X127331904Y-95023809D01*
X127293809Y-94985714D01*
X127255714Y-94909523D01*
X127217619Y-94757142D01*
X127217619Y-94566666D01*
X127255714Y-94414285D01*
X127293809Y-94338095D01*
X127331904Y-94300000D01*
X127408095Y-94261904D01*
X128170000Y-94261904D02*
X128246190Y-94261904D01*
X128322380Y-94300000D01*
X128360476Y-94338095D01*
X128398571Y-94414285D01*
X128436666Y-94566666D01*
X128436666Y-94757142D01*
X128398571Y-94909523D01*
X128360476Y-94985714D01*
X128322380Y-95023809D01*
X128246190Y-95061904D01*
X128170000Y-95061904D01*
X128093809Y-95023809D01*
X128055714Y-94985714D01*
X128017619Y-94909523D01*
X127979523Y-94757142D01*
X127979523Y-94566666D01*
X128017619Y-94414285D01*
X128055714Y-94338095D01*
X128093809Y-94300000D01*
X128170000Y-94261904D01*
X128779523Y-95061904D02*
X128779523Y-94261904D01*
X128855714Y-94757142D02*
X129084285Y-95061904D01*
X129084285Y-94528571D02*
X128779523Y-94833333D01*
%TO.C,U5*%
X112128095Y-97052380D02*
X112128095Y-97861904D01*
X112175714Y-97957142D01*
X112223333Y-98004761D01*
X112318571Y-98052380D01*
X112509047Y-98052380D01*
X112604285Y-98004761D01*
X112651904Y-97957142D01*
X112699523Y-97861904D01*
X112699523Y-97052380D01*
X113651904Y-97052380D02*
X113175714Y-97052380D01*
X113128095Y-97528571D01*
X113175714Y-97480952D01*
X113270952Y-97433333D01*
X113509047Y-97433333D01*
X113604285Y-97480952D01*
X113651904Y-97528571D01*
X113699523Y-97623809D01*
X113699523Y-97861904D01*
X113651904Y-97957142D01*
X113604285Y-98004761D01*
X113509047Y-98052380D01*
X113270952Y-98052380D01*
X113175714Y-98004761D01*
X113128095Y-97957142D01*
X121912952Y-106306380D02*
X121912952Y-105306380D01*
X122484380Y-106306380D01*
X122484380Y-105306380D01*
X123532000Y-106306380D02*
X123198666Y-105830190D01*
X122960571Y-106306380D02*
X122960571Y-105306380D01*
X123341523Y-105306380D01*
X123436761Y-105354000D01*
X123484380Y-105401619D01*
X123532000Y-105496857D01*
X123532000Y-105639714D01*
X123484380Y-105734952D01*
X123436761Y-105782571D01*
X123341523Y-105830190D01*
X122960571Y-105830190D01*
X124293904Y-105782571D02*
X123960571Y-105782571D01*
X123960571Y-106306380D02*
X123960571Y-105306380D01*
X124436761Y-105306380D01*
X125293904Y-105306380D02*
X124817714Y-105306380D01*
X124770095Y-105782571D01*
X124817714Y-105734952D01*
X124912952Y-105687333D01*
X125151047Y-105687333D01*
X125246285Y-105734952D01*
X125293904Y-105782571D01*
X125341523Y-105877809D01*
X125341523Y-106115904D01*
X125293904Y-106211142D01*
X125246285Y-106258761D01*
X125151047Y-106306380D01*
X124912952Y-106306380D01*
X124817714Y-106258761D01*
X124770095Y-106211142D01*
X125722476Y-105401619D02*
X125770095Y-105354000D01*
X125865333Y-105306380D01*
X126103428Y-105306380D01*
X126198666Y-105354000D01*
X126246285Y-105401619D01*
X126293904Y-105496857D01*
X126293904Y-105592095D01*
X126246285Y-105734952D01*
X125674857Y-106306380D01*
X126293904Y-106306380D01*
X126865333Y-105734952D02*
X126770095Y-105687333D01*
X126722476Y-105639714D01*
X126674857Y-105544476D01*
X126674857Y-105496857D01*
X126722476Y-105401619D01*
X126770095Y-105354000D01*
X126865333Y-105306380D01*
X127055809Y-105306380D01*
X127151047Y-105354000D01*
X127198666Y-105401619D01*
X127246285Y-105496857D01*
X127246285Y-105544476D01*
X127198666Y-105639714D01*
X127151047Y-105687333D01*
X127055809Y-105734952D01*
X126865333Y-105734952D01*
X126770095Y-105782571D01*
X126722476Y-105830190D01*
X126674857Y-105925428D01*
X126674857Y-106115904D01*
X126722476Y-106211142D01*
X126770095Y-106258761D01*
X126865333Y-106306380D01*
X127055809Y-106306380D01*
X127151047Y-106258761D01*
X127198666Y-106211142D01*
X127246285Y-106115904D01*
X127246285Y-105925428D01*
X127198666Y-105830190D01*
X127151047Y-105782571D01*
X127055809Y-105734952D01*
X128103428Y-105639714D02*
X128103428Y-106306380D01*
X127865333Y-105258761D02*
X127627238Y-105973047D01*
X128246285Y-105973047D01*
X128817714Y-105306380D02*
X128912952Y-105306380D01*
X129008190Y-105354000D01*
X129055809Y-105401619D01*
X129103428Y-105496857D01*
X129151047Y-105687333D01*
X129151047Y-105925428D01*
X129103428Y-106115904D01*
X129055809Y-106211142D01*
X129008190Y-106258761D01*
X128912952Y-106306380D01*
X128817714Y-106306380D01*
X128722476Y-106258761D01*
X128674857Y-106211142D01*
X128627238Y-106115904D01*
X128579619Y-105925428D01*
X128579619Y-105687333D01*
X128627238Y-105496857D01*
X128674857Y-105401619D01*
X128722476Y-105354000D01*
X128817714Y-105306380D01*
X129579619Y-105925428D02*
X130341523Y-105925428D01*
X130817714Y-106306380D02*
X130817714Y-105306380D01*
X131055809Y-105306380D01*
X131198666Y-105354000D01*
X131293904Y-105449238D01*
X131341523Y-105544476D01*
X131389142Y-105734952D01*
X131389142Y-105877809D01*
X131341523Y-106068285D01*
X131293904Y-106163523D01*
X131198666Y-106258761D01*
X131055809Y-106306380D01*
X130817714Y-106306380D01*
X132008190Y-105306380D02*
X132198666Y-105306380D01*
X132293904Y-105354000D01*
X132389142Y-105449238D01*
X132436761Y-105639714D01*
X132436761Y-105973047D01*
X132389142Y-106163523D01*
X132293904Y-106258761D01*
X132198666Y-106306380D01*
X132008190Y-106306380D01*
X131912952Y-106258761D01*
X131817714Y-106163523D01*
X131770095Y-105973047D01*
X131770095Y-105639714D01*
X131817714Y-105449238D01*
X131912952Y-105354000D01*
X132008190Y-105306380D01*
X132865333Y-106306380D02*
X132865333Y-105306380D01*
X133436761Y-106306380D01*
X133436761Y-105306380D01*
X134436761Y-105354000D02*
X134341523Y-105306380D01*
X134198666Y-105306380D01*
X134055809Y-105354000D01*
X133960571Y-105449238D01*
X133912952Y-105544476D01*
X133865333Y-105734952D01*
X133865333Y-105877809D01*
X133912952Y-106068285D01*
X133960571Y-106163523D01*
X134055809Y-106258761D01*
X134198666Y-106306380D01*
X134293904Y-106306380D01*
X134436761Y-106258761D01*
X134484380Y-106211142D01*
X134484380Y-105877809D01*
X134293904Y-105877809D01*
X135389142Y-106306380D02*
X134912952Y-106306380D01*
X134912952Y-105306380D01*
X135722476Y-105782571D02*
X136055809Y-105782571D01*
X136198666Y-106306380D02*
X135722476Y-106306380D01*
X135722476Y-105306380D01*
X136198666Y-105306380D01*
%TO.C,U3*%
X102028095Y-119102380D02*
X102028095Y-119911904D01*
X102075714Y-120007142D01*
X102123333Y-120054761D01*
X102218571Y-120102380D01*
X102409047Y-120102380D01*
X102504285Y-120054761D01*
X102551904Y-120007142D01*
X102599523Y-119911904D01*
X102599523Y-119102380D01*
X102980476Y-119102380D02*
X103599523Y-119102380D01*
X103266190Y-119483333D01*
X103409047Y-119483333D01*
X103504285Y-119530952D01*
X103551904Y-119578571D01*
X103599523Y-119673809D01*
X103599523Y-119911904D01*
X103551904Y-120007142D01*
X103504285Y-120054761D01*
X103409047Y-120102380D01*
X103123333Y-120102380D01*
X103028095Y-120054761D01*
X102980476Y-120007142D01*
X108899047Y-130898571D02*
X109041904Y-130946190D01*
X109089523Y-130993809D01*
X109137142Y-131089047D01*
X109137142Y-131231904D01*
X109089523Y-131327142D01*
X109041904Y-131374761D01*
X108946666Y-131422380D01*
X108565714Y-131422380D01*
X108565714Y-130422380D01*
X108899047Y-130422380D01*
X108994285Y-130470000D01*
X109041904Y-130517619D01*
X109089523Y-130612857D01*
X109089523Y-130708095D01*
X109041904Y-130803333D01*
X108994285Y-130850952D01*
X108899047Y-130898571D01*
X108565714Y-130898571D01*
X109565714Y-131422380D02*
X109565714Y-130422380D01*
X109899047Y-131136666D01*
X110232380Y-130422380D01*
X110232380Y-131422380D01*
X110708571Y-130898571D02*
X111041904Y-130898571D01*
X111184761Y-131422380D02*
X110708571Y-131422380D01*
X110708571Y-130422380D01*
X111184761Y-130422380D01*
X112041904Y-130422380D02*
X111851428Y-130422380D01*
X111756190Y-130470000D01*
X111708571Y-130517619D01*
X111613333Y-130660476D01*
X111565714Y-130850952D01*
X111565714Y-131231904D01*
X111613333Y-131327142D01*
X111660952Y-131374761D01*
X111756190Y-131422380D01*
X111946666Y-131422380D01*
X112041904Y-131374761D01*
X112089523Y-131327142D01*
X112137142Y-131231904D01*
X112137142Y-130993809D01*
X112089523Y-130898571D01*
X112041904Y-130850952D01*
X111946666Y-130803333D01*
X111756190Y-130803333D01*
X111660952Y-130850952D01*
X111613333Y-130898571D01*
X111565714Y-130993809D01*
X112708571Y-130850952D02*
X112613333Y-130803333D01*
X112565714Y-130755714D01*
X112518095Y-130660476D01*
X112518095Y-130612857D01*
X112565714Y-130517619D01*
X112613333Y-130470000D01*
X112708571Y-130422380D01*
X112899047Y-130422380D01*
X112994285Y-130470000D01*
X113041904Y-130517619D01*
X113089523Y-130612857D01*
X113089523Y-130660476D01*
X113041904Y-130755714D01*
X112994285Y-130803333D01*
X112899047Y-130850952D01*
X112708571Y-130850952D01*
X112613333Y-130898571D01*
X112565714Y-130946190D01*
X112518095Y-131041428D01*
X112518095Y-131231904D01*
X112565714Y-131327142D01*
X112613333Y-131374761D01*
X112708571Y-131422380D01*
X112899047Y-131422380D01*
X112994285Y-131374761D01*
X113041904Y-131327142D01*
X113089523Y-131231904D01*
X113089523Y-131041428D01*
X113041904Y-130946190D01*
X112994285Y-130898571D01*
X112899047Y-130850952D01*
X113660952Y-130850952D02*
X113565714Y-130803333D01*
X113518095Y-130755714D01*
X113470476Y-130660476D01*
X113470476Y-130612857D01*
X113518095Y-130517619D01*
X113565714Y-130470000D01*
X113660952Y-130422380D01*
X113851428Y-130422380D01*
X113946666Y-130470000D01*
X113994285Y-130517619D01*
X114041904Y-130612857D01*
X114041904Y-130660476D01*
X113994285Y-130755714D01*
X113946666Y-130803333D01*
X113851428Y-130850952D01*
X113660952Y-130850952D01*
X113565714Y-130898571D01*
X113518095Y-130946190D01*
X113470476Y-131041428D01*
X113470476Y-131231904D01*
X113518095Y-131327142D01*
X113565714Y-131374761D01*
X113660952Y-131422380D01*
X113851428Y-131422380D01*
X113946666Y-131374761D01*
X113994285Y-131327142D01*
X114041904Y-131231904D01*
X114041904Y-131041428D01*
X113994285Y-130946190D01*
X113946666Y-130898571D01*
X113851428Y-130850952D01*
%TO.C,U1*%
X132938095Y-61052380D02*
X132938095Y-61861904D01*
X132985714Y-61957142D01*
X133033333Y-62004761D01*
X133128571Y-62052380D01*
X133319047Y-62052380D01*
X133414285Y-62004761D01*
X133461904Y-61957142D01*
X133509523Y-61861904D01*
X133509523Y-61052380D01*
X134509523Y-62052380D02*
X133938095Y-62052380D01*
X134223809Y-62052380D02*
X134223809Y-61052380D01*
X134128571Y-61195238D01*
X134033333Y-61290476D01*
X133938095Y-61338095D01*
X141287023Y-73002880D02*
X141858452Y-73002880D01*
X141572738Y-74002880D02*
X141572738Y-73002880D01*
X142191785Y-74002880D02*
X142191785Y-73002880D01*
X142572738Y-73002880D01*
X142667976Y-73050500D01*
X142715595Y-73098119D01*
X142763214Y-73193357D01*
X142763214Y-73336214D01*
X142715595Y-73431452D01*
X142667976Y-73479071D01*
X142572738Y-73526690D01*
X142191785Y-73526690D01*
X143620357Y-73336214D02*
X143620357Y-74002880D01*
X143382261Y-72955261D02*
X143144166Y-73669547D01*
X143763214Y-73669547D01*
X144334642Y-73002880D02*
X144429880Y-73002880D01*
X144525119Y-73050500D01*
X144572738Y-73098119D01*
X144620357Y-73193357D01*
X144667976Y-73383833D01*
X144667976Y-73621928D01*
X144620357Y-73812404D01*
X144572738Y-73907642D01*
X144525119Y-73955261D01*
X144429880Y-74002880D01*
X144334642Y-74002880D01*
X144239404Y-73955261D01*
X144191785Y-73907642D01*
X144144166Y-73812404D01*
X144096547Y-73621928D01*
X144096547Y-73383833D01*
X144144166Y-73193357D01*
X144191785Y-73098119D01*
X144239404Y-73050500D01*
X144334642Y-73002880D01*
X145572738Y-73002880D02*
X145096547Y-73002880D01*
X145048928Y-73479071D01*
X145096547Y-73431452D01*
X145191785Y-73383833D01*
X145429880Y-73383833D01*
X145525119Y-73431452D01*
X145572738Y-73479071D01*
X145620357Y-73574309D01*
X145620357Y-73812404D01*
X145572738Y-73907642D01*
X145525119Y-73955261D01*
X145429880Y-74002880D01*
X145191785Y-74002880D01*
X145096547Y-73955261D01*
X145048928Y-73907642D01*
X146477500Y-73002880D02*
X146287023Y-73002880D01*
X146191785Y-73050500D01*
X146144166Y-73098119D01*
X146048928Y-73240976D01*
X146001309Y-73431452D01*
X146001309Y-73812404D01*
X146048928Y-73907642D01*
X146096547Y-73955261D01*
X146191785Y-74002880D01*
X146382261Y-74002880D01*
X146477500Y-73955261D01*
X146525119Y-73907642D01*
X146572738Y-73812404D01*
X146572738Y-73574309D01*
X146525119Y-73479071D01*
X146477500Y-73431452D01*
X146382261Y-73383833D01*
X146191785Y-73383833D01*
X146096547Y-73431452D01*
X146048928Y-73479071D01*
X146001309Y-73574309D01*
X142428095Y-61252380D02*
X142428095Y-62061904D01*
X142475714Y-62157142D01*
X142523333Y-62204761D01*
X142618571Y-62252380D01*
X142809047Y-62252380D01*
X142904285Y-62204761D01*
X142951904Y-62157142D01*
X142999523Y-62061904D01*
X142999523Y-61252380D01*
X143428095Y-62204761D02*
X143570952Y-62252380D01*
X143809047Y-62252380D01*
X143904285Y-62204761D01*
X143951904Y-62157142D01*
X143999523Y-62061904D01*
X143999523Y-61966666D01*
X143951904Y-61871428D01*
X143904285Y-61823809D01*
X143809047Y-61776190D01*
X143618571Y-61728571D01*
X143523333Y-61680952D01*
X143475714Y-61633333D01*
X143428095Y-61538095D01*
X143428095Y-61442857D01*
X143475714Y-61347619D01*
X143523333Y-61300000D01*
X143618571Y-61252380D01*
X143856666Y-61252380D01*
X143999523Y-61300000D01*
X144761428Y-61728571D02*
X144904285Y-61776190D01*
X144951904Y-61823809D01*
X144999523Y-61919047D01*
X144999523Y-62061904D01*
X144951904Y-62157142D01*
X144904285Y-62204761D01*
X144809047Y-62252380D01*
X144428095Y-62252380D01*
X144428095Y-61252380D01*
X144761428Y-61252380D01*
X144856666Y-61300000D01*
X144904285Y-61347619D01*
X144951904Y-61442857D01*
X144951904Y-61538095D01*
X144904285Y-61633333D01*
X144856666Y-61680952D01*
X144761428Y-61728571D01*
X144428095Y-61728571D01*
%TO.C,C1*%
X128923333Y-78485142D02*
X128875714Y-78532761D01*
X128732857Y-78580380D01*
X128637619Y-78580380D01*
X128494761Y-78532761D01*
X128399523Y-78437523D01*
X128351904Y-78342285D01*
X128304285Y-78151809D01*
X128304285Y-78008952D01*
X128351904Y-77818476D01*
X128399523Y-77723238D01*
X128494761Y-77628000D01*
X128637619Y-77580380D01*
X128732857Y-77580380D01*
X128875714Y-77628000D01*
X128923333Y-77675619D01*
X129875714Y-78580380D02*
X129304285Y-78580380D01*
X129590000Y-78580380D02*
X129590000Y-77580380D01*
X129494761Y-77723238D01*
X129399523Y-77818476D01*
X129304285Y-77866095D01*
X128923333Y-83152380D02*
X128351904Y-83152380D01*
X128637619Y-83152380D02*
X128637619Y-82152380D01*
X128542380Y-82295238D01*
X128447142Y-82390476D01*
X128351904Y-82438095D01*
X129780476Y-82485714D02*
X129780476Y-83152380D01*
X129351904Y-82485714D02*
X129351904Y-83009523D01*
X129399523Y-83104761D01*
X129494761Y-83152380D01*
X129637619Y-83152380D01*
X129732857Y-83104761D01*
X129780476Y-83057142D01*
%TO.C,R1*%
X143723333Y-116452380D02*
X143390000Y-115976190D01*
X143151904Y-116452380D02*
X143151904Y-115452380D01*
X143532857Y-115452380D01*
X143628095Y-115500000D01*
X143675714Y-115547619D01*
X143723333Y-115642857D01*
X143723333Y-115785714D01*
X143675714Y-115880952D01*
X143628095Y-115928571D01*
X143532857Y-115976190D01*
X143151904Y-115976190D01*
X144675714Y-116452380D02*
X144104285Y-116452380D01*
X144390000Y-116452380D02*
X144390000Y-115452380D01*
X144294761Y-115595238D01*
X144199523Y-115690476D01*
X144104285Y-115738095D01*
X147561428Y-115973714D02*
X147561428Y-116640380D01*
X147323333Y-115592761D02*
X147085238Y-116307047D01*
X147704285Y-116307047D01*
X148085238Y-116545142D02*
X148132857Y-116592761D01*
X148085238Y-116640380D01*
X148037619Y-116592761D01*
X148085238Y-116545142D01*
X148085238Y-116640380D01*
X148466190Y-115640380D02*
X149132857Y-115640380D01*
X148704285Y-116640380D01*
X149513809Y-116640380D02*
X149513809Y-115640380D01*
X149609047Y-116259428D02*
X149894761Y-116640380D01*
X149894761Y-115973714D02*
X149513809Y-116354666D01*
%TO.C,D1*%
X114211904Y-89292380D02*
X114211904Y-88292380D01*
X114450000Y-88292380D01*
X114592857Y-88340000D01*
X114688095Y-88435238D01*
X114735714Y-88530476D01*
X114783333Y-88720952D01*
X114783333Y-88863809D01*
X114735714Y-89054285D01*
X114688095Y-89149523D01*
X114592857Y-89244761D01*
X114450000Y-89292380D01*
X114211904Y-89292380D01*
X115735714Y-89292380D02*
X115164285Y-89292380D01*
X115450000Y-89292380D02*
X115450000Y-88292380D01*
X115354761Y-88435238D01*
X115259523Y-88530476D01*
X115164285Y-88578095D01*
X115268095Y-84152380D02*
X115268095Y-83152380D01*
X115839523Y-84152380D02*
X115410952Y-83580952D01*
X115839523Y-83152380D02*
X115268095Y-83723809D01*
D11*
%TO.C,BT1*%
X156550000Y-142600000D02*
X177550000Y-142600000D01*
X156550000Y-67100000D02*
X156550000Y-142600000D01*
X156550000Y-67100000D02*
X177550000Y-67100000D01*
X177550000Y-67100000D02*
X177550000Y-142600000D01*
%TO.C,C2*%
X124720000Y-86579000D02*
X130060000Y-86579000D01*
X124720000Y-89355000D02*
X124720000Y-90021000D01*
X124720000Y-86579000D02*
X124720000Y-87245000D01*
X130060000Y-89355000D02*
X130060000Y-90021000D01*
X124720000Y-90021000D02*
X130060000Y-90021000D01*
X130060000Y-86579000D02*
X130060000Y-87245000D01*
%TO.C,U4*%
X126750000Y-84100000D02*
X126750000Y-82300000D01*
X123630000Y-84100000D02*
X123630000Y-83300000D01*
X126750000Y-84100000D02*
X126750000Y-84900000D01*
X123630000Y-84100000D02*
X123630000Y-84900000D01*
%TO.C,U6*%
X144495000Y-148595000D02*
X153195000Y-148595000D01*
X144495000Y-120595000D02*
X144495000Y-148595000D01*
X153195000Y-120595000D02*
X153195000Y-148595000D01*
X153195000Y-120595000D02*
X144495000Y-120595000D01*
%TO.C,U2*%
X125645000Y-139239500D02*
X125645000Y-120570500D01*
X139545000Y-139239500D02*
X139545000Y-120570500D01*
X139545000Y-139239500D02*
X125645000Y-139239500D01*
X139545000Y-120570500D02*
X125645000Y-120570500D01*
%TO.C,R2*%
X150410000Y-119720000D02*
X146570000Y-119720000D01*
X150410000Y-117880000D02*
X146570000Y-117880000D01*
%TO.C,R4*%
X137110000Y-93730000D02*
X133270000Y-93730000D01*
X137110000Y-95570000D02*
X133270000Y-95570000D01*
%TO.C,R3*%
X125870000Y-95570000D02*
X129710000Y-95570000D01*
X125870000Y-93730000D02*
X129710000Y-93730000D01*
D12*
%TO.C,U5*%
X146210000Y-98234000D02*
X141840000Y-98234000D01*
D11*
X116205000Y-113474000D02*
X114554000Y-111823000D01*
D12*
X146210000Y-113474000D02*
X146210000Y-98234000D01*
D11*
X116205000Y-98234000D02*
X114554000Y-99885000D01*
D12*
X141840000Y-113474000D02*
X146210000Y-113474000D01*
D11*
%TO.C,U3*%
X120940000Y-121000000D02*
X101940000Y-121000000D01*
X120940000Y-140000000D02*
X101940000Y-140000000D01*
X120940000Y-140000000D02*
X120940000Y-121000000D01*
X101940000Y-140000000D02*
X101940000Y-121000000D01*
D10*
%TO.C,U1*%
X137390000Y-88600000D02*
X137090000Y-88600000D01*
X150290000Y-86300000D02*
X137390000Y-86300000D01*
X141790000Y-63100000D02*
X141790000Y-60600000D01*
X145590000Y-60600000D02*
X145590000Y-63100000D01*
X134990000Y-88600000D02*
X134990000Y-60200000D01*
X152790000Y-86500000D02*
X152790000Y-88600000D01*
X152790000Y-60200000D02*
X152790000Y-86500000D01*
X152790000Y-88600000D02*
X150290000Y-88600000D01*
X150290000Y-88600000D02*
X150290000Y-86300000D01*
X137090000Y-88600000D02*
X134990000Y-88600000D01*
X145590000Y-63100000D02*
X141790000Y-63100000D01*
X137390000Y-86300000D02*
X137390000Y-86600000D01*
X134990000Y-60200000D02*
X152790000Y-60200000D01*
X137390000Y-86500000D02*
X137390000Y-88600000D01*
X141790000Y-60600000D02*
X145490000Y-60600000D01*
D11*
%TO.C,C1*%
X130811000Y-85370000D02*
X130811000Y-80030000D01*
X127369000Y-80030000D02*
X128035000Y-80030000D01*
X127369000Y-85370000D02*
X127369000Y-80030000D01*
X127369000Y-85370000D02*
X128035000Y-85370000D01*
X130145000Y-80030000D02*
X130811000Y-80030000D01*
X130145000Y-85370000D02*
X130811000Y-85370000D01*
%TO.C,R1*%
X146570000Y-117120000D02*
X150410000Y-117120000D01*
X146570000Y-115280000D02*
X150410000Y-115280000D01*
%TO.C,D1*%
X117690000Y-84960000D02*
X117690000Y-85980000D01*
X116220000Y-91420000D02*
X119160000Y-91420000D01*
X119160000Y-86760000D02*
X116220000Y-86760000D01*
X119160000Y-85980000D02*
X116220000Y-85980000D01*
X119160000Y-87000000D02*
X116220000Y-87000000D01*
X119160000Y-86880000D02*
X116220000Y-86880000D01*
X116220000Y-85980000D02*
X116220000Y-91420000D01*
X117690000Y-92440000D02*
X117690000Y-91420000D01*
X119160000Y-91420000D02*
X119160000Y-85980000D01*
%TD*%
%LPC*%
D13*
%TO.C,BT1*%
X167050000Y-140550000D03*
X167050000Y-69150000D03*
%TD*%
D14*
%TO.C,H4*%
X103902000Y-145854000D03*
%TD*%
%TO.C,H1*%
X103902000Y-63854000D03*
%TD*%
D15*
%TO.C,C2*%
X124890000Y-88300000D03*
X129890000Y-88300000D03*
%TD*%
D16*
%TO.C,U4*%
X126140000Y-82962500D03*
X125190000Y-82962500D03*
X124240000Y-82962500D03*
X124240000Y-85237500D03*
X126140000Y-85237500D03*
%TD*%
D17*
%TO.C,U6*%
X145945000Y-121992000D03*
D18*
X145945000Y-124532000D03*
X145945000Y-127072000D03*
X145945000Y-129612000D03*
X145945000Y-132152000D03*
X145945000Y-134692000D03*
X145945000Y-137232000D03*
X145945000Y-139772000D03*
X145945000Y-142312000D03*
X145945000Y-144852000D03*
X145945000Y-147392000D03*
%TD*%
D19*
%TO.C,U2*%
X137652000Y-122289500D03*
D20*
X135112000Y-122289500D03*
X132572000Y-122289500D03*
X130032000Y-122289500D03*
X127492000Y-122289500D03*
%TD*%
D14*
%TO.C,H3*%
X180902000Y-145854000D03*
%TD*%
D21*
%TO.C,R2*%
X151030000Y-118800000D03*
D22*
X145950000Y-118800000D03*
%TD*%
D14*
%TO.C,H2*%
X180902000Y-63854000D03*
%TD*%
D21*
%TO.C,R4*%
X137730000Y-94650000D03*
D22*
X132650000Y-94650000D03*
%TD*%
D21*
%TO.C,R3*%
X125250000Y-94650000D03*
D22*
X130330000Y-94650000D03*
%TD*%
D23*
%TO.C,U5*%
X130335000Y-98234000D03*
X135415000Y-113474000D03*
X137955000Y-113474000D03*
X117635000Y-113474000D03*
X120175000Y-113474000D03*
X122715000Y-113474000D03*
X125255000Y-113474000D03*
X127795000Y-113474000D03*
X130335000Y-113474000D03*
X127795000Y-98234000D03*
X125255000Y-98234000D03*
X132875000Y-113474000D03*
X137955000Y-98234000D03*
X135415000Y-98234000D03*
X132875000Y-98234000D03*
X140495000Y-113474000D03*
X140495000Y-98234000D03*
X122715000Y-98234000D03*
X120175000Y-98234000D03*
X112555000Y-100294000D03*
X112555000Y-111414000D03*
X117635000Y-98234000D03*
%TD*%
D19*
%TO.C,U3*%
X116520000Y-122250000D03*
D20*
X113980000Y-122250000D03*
X111440000Y-122250000D03*
X108900000Y-122250000D03*
X106360000Y-122250000D03*
%TD*%
D24*
%TO.C,U1*%
X151090000Y-61900000D03*
X136890000Y-61900000D03*
X151090000Y-84800000D03*
X147590000Y-84800000D03*
X139990000Y-84800000D03*
X136590000Y-84800000D03*
%TD*%
D15*
%TO.C,C1*%
X129090000Y-85200000D03*
X129090000Y-80200000D03*
%TD*%
D21*
%TO.C,R1*%
X145950000Y-116200000D03*
D22*
X151030000Y-116200000D03*
%TD*%
D25*
%TO.C,D1*%
X117690000Y-83620000D03*
D26*
X117690000Y-93780000D03*
%TD*%
M02*
