%TF.GenerationSoftware,KiCad,Pcbnew,(6.0.9)*%
%TF.CreationDate,2023-01-30T01:20:46+02:00*%
%TF.ProjectId,Schematics,53636865-6d61-4746-9963-732e6b696361,rev?*%
%TF.SameCoordinates,Original*%
%TF.FileFunction,Copper,L1,Top*%
%TF.FilePolarity,Positive*%
%FSLAX46Y46*%
G04 Gerber Fmt 4.6, Leading zero omitted, Abs format (unit mm)*
G04 Created by KiCad (PCBNEW (6.0.9)) date 2023-01-30 01:20:46*
%MOMM*%
%LPD*%
G01*
G04 APERTURE LIST*
G04 Aperture macros list*
%AMRoundRect*
0 Rectangle with rounded corners*
0 $1 Rounding radius*
0 $2 $3 $4 $5 $6 $7 $8 $9 X,Y pos of 4 corners*
0 Add a 4 corners polygon primitive as box body*
4,1,4,$2,$3,$4,$5,$6,$7,$8,$9,$2,$3,0*
0 Add four circle primitives for the rounded corners*
1,1,$1+$1,$2,$3*
1,1,$1+$1,$4,$5*
1,1,$1+$1,$6,$7*
1,1,$1+$1,$8,$9*
0 Add four rect primitives between the rounded corners*
20,1,$1+$1,$2,$3,$4,$5,0*
20,1,$1+$1,$4,$5,$6,$7,0*
20,1,$1+$1,$6,$7,$8,$9,0*
20,1,$1+$1,$8,$9,$2,$3,0*%
G04 Aperture macros list end*
%ADD10C,0.300000*%
%TA.AperFunction,NonConductor*%
%ADD11C,0.300000*%
%TD*%
%TA.AperFunction,ComponentPad*%
%ADD12C,1.600000*%
%TD*%
%TA.AperFunction,SMDPad,CuDef*%
%ADD13RoundRect,0.150000X-0.150000X0.512500X-0.150000X-0.512500X0.150000X-0.512500X0.150000X0.512500X0*%
%TD*%
%TA.AperFunction,ComponentPad*%
%ADD14C,1.900000*%
%TD*%
%TA.AperFunction,ComponentPad*%
%ADD15R,1.900000X1.900000*%
%TD*%
%TA.AperFunction,ComponentPad*%
%ADD16O,2.000000X2.000000*%
%TD*%
%TA.AperFunction,ComponentPad*%
%ADD17R,2.000000X2.000000*%
%TD*%
%TA.AperFunction,ComponentPad*%
%ADD18O,3.500000X3.500000*%
%TD*%
%TA.AperFunction,ComponentPad*%
%ADD19O,1.400000X1.400000*%
%TD*%
%TA.AperFunction,ComponentPad*%
%ADD20C,1.400000*%
%TD*%
%TA.AperFunction,ComponentPad*%
%ADD21C,2.000000*%
%TD*%
%TA.AperFunction,ComponentPad*%
%ADD22R,2.800000X2.800000*%
%TD*%
%TA.AperFunction,ComponentPad*%
%ADD23O,2.200000X2.200000*%
%TD*%
%TA.AperFunction,ComponentPad*%
%ADD24R,2.200000X2.200000*%
%TD*%
%TA.AperFunction,ViaPad*%
%ADD25C,0.800000*%
%TD*%
%TA.AperFunction,Conductor*%
%ADD26C,0.500000*%
%TD*%
%TA.AperFunction,Conductor*%
%ADD27C,1.000000*%
%TD*%
%TA.AperFunction,Conductor*%
%ADD28C,0.800000*%
%TD*%
G04 APERTURE END LIST*
D10*
D11*
X109034562Y-67874571D02*
X109222062Y-66374571D01*
X109793491Y-66374571D01*
X109927419Y-66446000D01*
X109989919Y-66517428D01*
X110043491Y-66660285D01*
X110016705Y-66874571D01*
X109927419Y-67017428D01*
X109847062Y-67088857D01*
X109695276Y-67160285D01*
X109123848Y-67160285D01*
X111409562Y-67731714D02*
X111329205Y-67803142D01*
X111105991Y-67874571D01*
X110963133Y-67874571D01*
X110757776Y-67803142D01*
X110632776Y-67660285D01*
X110579205Y-67517428D01*
X110543491Y-67231714D01*
X110570276Y-67017428D01*
X110677419Y-66731714D01*
X110766705Y-66588857D01*
X110927419Y-66446000D01*
X111150633Y-66374571D01*
X111293491Y-66374571D01*
X111498848Y-66446000D01*
X111561348Y-66517428D01*
X112632776Y-67088857D02*
X112838133Y-67160285D01*
X112900633Y-67231714D01*
X112954205Y-67374571D01*
X112927419Y-67588857D01*
X112838133Y-67731714D01*
X112757776Y-67803142D01*
X112605991Y-67874571D01*
X112034562Y-67874571D01*
X112222062Y-66374571D01*
X112722062Y-66374571D01*
X112855991Y-66446000D01*
X112918491Y-66517428D01*
X112972062Y-66660285D01*
X112954205Y-66803142D01*
X112864919Y-66946000D01*
X112784562Y-67017428D01*
X112632776Y-67088857D01*
X112132776Y-67088857D01*
X114659562Y-66874571D02*
X114891705Y-67874571D01*
X115373848Y-66874571D01*
X116605991Y-67874571D02*
X115748848Y-67874571D01*
X116177419Y-67874571D02*
X116364919Y-66374571D01*
X116195276Y-66588857D01*
X116034562Y-66731714D01*
X115882776Y-66803142D01*
X117266705Y-67731714D02*
X117329205Y-67803142D01*
X117248848Y-67874571D01*
X117186348Y-67803142D01*
X117266705Y-67731714D01*
X117248848Y-67874571D01*
X118436348Y-66374571D02*
X118579205Y-66374571D01*
X118713133Y-66446000D01*
X118775633Y-66517428D01*
X118829205Y-66660285D01*
X118864919Y-66946000D01*
X118820276Y-67303142D01*
X118713133Y-67588857D01*
X118623848Y-67731714D01*
X118543491Y-67803142D01*
X118391705Y-67874571D01*
X118248848Y-67874571D01*
X118114919Y-67803142D01*
X118052419Y-67731714D01*
X117998848Y-67588857D01*
X117963133Y-67303142D01*
X118007776Y-66946000D01*
X118114919Y-66660285D01*
X118204205Y-66517428D01*
X118284562Y-66446000D01*
X118436348Y-66374571D01*
D10*
D11*
X109970276Y-64674571D02*
X109255991Y-64674571D01*
X109443491Y-63174571D01*
X110452419Y-63674571D02*
X110684562Y-64674571D01*
X111166705Y-63674571D02*
X110684562Y-64674571D01*
X110497062Y-65031714D01*
X110416705Y-65103142D01*
X110264919Y-65174571D01*
X112380991Y-63674571D02*
X112255991Y-64674571D01*
X111738133Y-63674571D02*
X111639919Y-64460285D01*
X111693491Y-64603142D01*
X111827419Y-64674571D01*
X112041705Y-64674571D01*
X112193491Y-64603142D01*
X112273848Y-64531714D01*
X112970276Y-64674571D02*
X113157776Y-63174571D01*
X113086348Y-63746000D02*
X113238133Y-63674571D01*
X113523848Y-63674571D01*
X113657776Y-63746000D01*
X113720276Y-63817428D01*
X113773848Y-63960285D01*
X113720276Y-64388857D01*
X113630991Y-64531714D01*
X113550633Y-64603142D01*
X113398848Y-64674571D01*
X113113133Y-64674571D01*
X112979205Y-64603142D01*
X114541705Y-64674571D02*
X114407776Y-64603142D01*
X114345276Y-64531714D01*
X114291705Y-64388857D01*
X114345276Y-63960285D01*
X114434562Y-63817428D01*
X114514919Y-63746000D01*
X114666705Y-63674571D01*
X114880991Y-63674571D01*
X115014919Y-63746000D01*
X115077419Y-63817428D01*
X115130991Y-63960285D01*
X115077419Y-64388857D01*
X114988133Y-64531714D01*
X114907776Y-64603142D01*
X114755991Y-64674571D01*
X114541705Y-64674571D01*
X115684562Y-64674571D02*
X115809562Y-63674571D01*
X115791705Y-63817428D02*
X115872062Y-63746000D01*
X116023848Y-63674571D01*
X116238133Y-63674571D01*
X116372062Y-63746000D01*
X116425633Y-63888857D01*
X116327419Y-64674571D01*
X116425633Y-63888857D02*
X116514919Y-63746000D01*
X116666705Y-63674571D01*
X116880991Y-63674571D01*
X117014919Y-63746000D01*
X117068491Y-63888857D01*
X116970276Y-64674571D01*
X117684562Y-64674571D02*
X117809562Y-63674571D01*
X117872062Y-63174571D02*
X117791705Y-63246000D01*
X117854205Y-63317428D01*
X117934562Y-63246000D01*
X117872062Y-63174571D01*
X117854205Y-63317428D01*
X118398848Y-64674571D02*
X118523848Y-63674571D01*
X118488133Y-63960285D02*
X118577419Y-63817428D01*
X118657776Y-63746000D01*
X118809562Y-63674571D01*
X118952419Y-63674571D01*
X120470276Y-64674571D02*
X120657776Y-63174571D01*
X121327419Y-64674571D01*
X121514919Y-63174571D01*
X122684562Y-64674571D02*
X122782776Y-63888857D01*
X122729205Y-63746000D01*
X122595276Y-63674571D01*
X122309562Y-63674571D01*
X122157776Y-63746000D01*
X122693491Y-64603142D02*
X122541705Y-64674571D01*
X122184562Y-64674571D01*
X122050633Y-64603142D01*
X121997062Y-64460285D01*
X122014919Y-64317428D01*
X122104205Y-64174571D01*
X122255991Y-64103142D01*
X122613133Y-64103142D01*
X122764919Y-64031714D01*
X124050633Y-64603142D02*
X123898848Y-64674571D01*
X123613133Y-64674571D01*
X123479205Y-64603142D01*
X123416705Y-64531714D01*
X123363133Y-64388857D01*
X123416705Y-63960285D01*
X123505991Y-63817428D01*
X123586348Y-63746000D01*
X123738133Y-63674571D01*
X124023848Y-63674571D01*
X124157776Y-63746000D01*
X124684562Y-64674571D02*
X124872062Y-63174571D01*
X125327419Y-64674571D02*
X125425633Y-63888857D01*
X125372062Y-63746000D01*
X125238133Y-63674571D01*
X125023848Y-63674571D01*
X124872062Y-63746000D01*
X124791705Y-63817428D01*
X126622062Y-64603142D02*
X126470276Y-64674571D01*
X126184562Y-64674571D01*
X126050633Y-64603142D01*
X125997062Y-64460285D01*
X126068491Y-63888857D01*
X126157776Y-63746000D01*
X126309562Y-63674571D01*
X126595276Y-63674571D01*
X126729205Y-63746000D01*
X126782776Y-63888857D01*
X126764919Y-64031714D01*
X126032776Y-64174571D01*
X127309562Y-63674571D02*
X127541705Y-64674571D01*
X128023848Y-63674571D01*
D12*
%TO.P,C2,1*%
%TO.N,+3V0*%
X124988000Y-88446000D03*
%TO.P,C2,2*%
%TO.N,GND*%
X129988000Y-88446000D03*
%TD*%
D13*
%TO.P,U4,5,VOUT*%
%TO.N,+3V0*%
X126238000Y-85383500D03*
%TO.P,U4,4,N.C.*%
%TO.N,unconnected-(U4-Pad4)*%
X124338000Y-85383500D03*
%TO.P,U4,3,STBY*%
%TO.N,VCC*%
X124338000Y-83108500D03*
%TO.P,U4,2,GND*%
%TO.N,GND*%
X125288000Y-83108500D03*
%TO.P,U4,1,VIN*%
%TO.N,VCC*%
X126238000Y-83108500D03*
%TD*%
D14*
%TO.P,U6,11,A3*%
%TO.N,unconnected-(U6-Pad11)*%
X146043000Y-147538000D03*
%TO.P,U6,10,A2*%
%TO.N,unconnected-(U6-Pad10)*%
X146043000Y-144998000D03*
%TO.P,U6,9,A1*%
%TO.N,unconnected-(U6-Pad9)*%
X146043000Y-142458000D03*
%TO.P,U6,8,INT1*%
%TO.N,/INT1*%
X146043000Y-139918000D03*
%TO.P,U6,7,INT2*%
%TO.N,unconnected-(U6-Pad7)*%
X146043000Y-137378000D03*
%TO.P,U6,6,CS*%
%TO.N,unconnected-(U6-Pad6)*%
X146043000Y-134838000D03*
%TO.P,U6,5,SDO*%
%TO.N,unconnected-(U6-Pad5)*%
X146043000Y-132298000D03*
%TO.P,U6,4,SDA*%
%TO.N,/SDA*%
X146043000Y-129758000D03*
%TO.P,U6,3,SCL*%
%TO.N,/SCL*%
X146043000Y-127218000D03*
%TO.P,U6,2,GND*%
%TO.N,GND*%
X146043000Y-124678000D03*
D15*
%TO.P,U6,1,VCC*%
%TO.N,+3V0*%
X146043000Y-122138000D03*
%TD*%
D16*
%TO.P,U2,5,VCC*%
%TO.N,+3V0*%
X127590000Y-122435500D03*
%TO.P,U2,4,GND*%
%TO.N,GND*%
X130130000Y-122435500D03*
%TO.P,U2,3,SCL*%
%TO.N,/SCL*%
X132670000Y-122435500D03*
%TO.P,U2,2,SDA*%
%TO.N,/SDA*%
X135210000Y-122435500D03*
D17*
%TO.P,U2,1,ADDR*%
%TO.N,unconnected-(U2-Pad1)*%
X137750000Y-122435500D03*
%TD*%
D18*
%TO.P,BT1,2,-*%
%TO.N,Net-(BT1-Pad2)*%
X167148000Y-140696000D03*
%TO.P,BT1,1,+*%
%TO.N,Net-(BT1-Pad1)*%
X167148000Y-69296000D03*
%TD*%
D19*
%TO.P,R2,2*%
%TO.N,+3V0*%
X146048000Y-118946000D03*
D20*
%TO.P,R2,1*%
%TO.N,/SCL*%
X151128000Y-118946000D03*
%TD*%
D19*
%TO.P,R4,2*%
%TO.N,Net-(R3-Pad2)*%
X132748000Y-94796000D03*
D20*
%TO.P,R4,1*%
%TO.N,GND*%
X137828000Y-94796000D03*
%TD*%
D19*
%TO.P,R3,2*%
%TO.N,Net-(R3-Pad2)*%
X130428000Y-94796000D03*
D20*
%TO.P,R3,1*%
%TO.N,VCC*%
X125348000Y-94796000D03*
%TD*%
D21*
%TO.P,U5,0.02,0.02*%
%TO.N,Net-(R3-Pad2)*%
X130433000Y-98380000D03*
%TO.P,U5,0.09,0.09*%
%TO.N,unconnected-(U5-Pad0.09)*%
X135513000Y-113620000D03*
%TO.P,U5,0.10,0.10*%
%TO.N,unconnected-(U5-Pad0.10)*%
X138053000Y-113620000D03*
%TO.P,U5,0.13,0.13*%
%TO.N,/SDA*%
X117733000Y-113620000D03*
%TO.P,U5,0.15,0.15*%
%TO.N,/SCL*%
X120273000Y-113620000D03*
%TO.P,U5,0.17,0.17*%
%TO.N,unconnected-(U5-Pad0.17)*%
X122813000Y-113620000D03*
%TO.P,U5,0.20,0.20*%
%TO.N,unconnected-(U5-Pad0.20)*%
X125353000Y-113620000D03*
%TO.P,U5,0.22,0.22*%
%TO.N,unconnected-(U5-Pad0.22)*%
X127893000Y-113620000D03*
%TO.P,U5,0.24,0.24*%
%TO.N,unconnected-(U5-Pad0.24)*%
X130433000Y-113620000D03*
%TO.P,U5,0.29,0.29*%
%TO.N,unconnected-(U5-Pad0.29)*%
X127893000Y-98380000D03*
%TO.P,U5,0.31,0.31*%
%TO.N,unconnected-(U5-Pad0.31)*%
X125353000Y-98380000D03*
%TO.P,U5,1.00,1.00*%
%TO.N,unconnected-(U5-Pad1.00)*%
X132973000Y-113620000D03*
%TO.P,U5,1.10,1.10*%
%TO.N,/INT1*%
X138053000Y-98380000D03*
%TO.P,U5,1.13,1.13*%
%TO.N,unconnected-(U5-Pad1.13)*%
X135513000Y-98380000D03*
%TO.P,U5,1.15,1.15*%
%TO.N,unconnected-(U5-Pad1.15)*%
X132973000Y-98380000D03*
%TO.P,U5,G1,GND*%
%TO.N,GND*%
X140593000Y-113620000D03*
%TO.P,U5,G2,GND*%
X140593000Y-98380000D03*
%TO.P,U5,G3,GND*%
X122813000Y-98380000D03*
%TO.P,U5,OUT,OUT*%
%TO.N,+3V0*%
X120273000Y-98380000D03*
%TO.P,U5,SWDCLK,SWDCLK*%
%TO.N,unconnected-(U5-PadSWDCLK)*%
X112653000Y-100440000D03*
%TO.P,U5,SWDIO,SWDIO*%
%TO.N,unconnected-(U5-PadSWDIO)*%
X112653000Y-111560000D03*
%TO.P,U5,VBUS,VBUS*%
%TO.N,VBUS*%
X117733000Y-98380000D03*
%TD*%
D16*
%TO.P,U3,5,GND*%
%TO.N,GND*%
X106458000Y-122396000D03*
%TO.P,U3,4,N/C*%
%TO.N,unconnected-(U3-Pad4)*%
X108998000Y-122396000D03*
%TO.P,U3,3,SCL*%
%TO.N,/SCL*%
X111538000Y-122396000D03*
%TO.P,U3,2,SDA*%
%TO.N,/SDA*%
X114078000Y-122396000D03*
D17*
%TO.P,U3,1,2-6V*%
%TO.N,+3V0*%
X116618000Y-122396000D03*
%TD*%
D22*
%TO.P,U1,6,OUT-*%
%TO.N,GND*%
X136688000Y-84946000D03*
%TO.P,U1,5,B-*%
%TO.N,Net-(BT1-Pad2)*%
X140088000Y-84946000D03*
%TO.P,U1,4,B+*%
%TO.N,Net-(BT1-Pad1)*%
X147688000Y-84946000D03*
%TO.P,U1,3,OUT+*%
%TO.N,VCC*%
X151188000Y-84946000D03*
%TO.P,U1,2,IN-*%
%TO.N,GND*%
X136988000Y-62046000D03*
%TO.P,U1,1,IN+*%
%TO.N,Net-(D1-Pad1)*%
X151188000Y-62046000D03*
%TD*%
D12*
%TO.P,C1,2*%
%TO.N,GND*%
X129188000Y-80346000D03*
%TO.P,C1,1*%
%TO.N,VCC*%
X129188000Y-85346000D03*
%TD*%
D19*
%TO.P,R1,2*%
%TO.N,/SDA*%
X151128000Y-116346000D03*
D20*
%TO.P,R1,1*%
%TO.N,+3V0*%
X146048000Y-116346000D03*
%TD*%
D23*
%TO.P,D1,2,A*%
%TO.N,VBUS*%
X117788000Y-93926000D03*
D24*
%TO.P,D1,1,K*%
%TO.N,Net-(D1-Pad1)*%
X117788000Y-83766000D03*
%TD*%
D25*
%TO.N,GND*%
X125288000Y-81546000D03*
%TO.N,+3V0*%
X128488000Y-118746000D03*
%TD*%
D26*
%TO.N,/INT1*%
X150500000Y-112500000D02*
X154500000Y-112500000D01*
X138053000Y-98380000D02*
X138053000Y-100701000D01*
X138898000Y-101546000D02*
X146296000Y-101546000D01*
X138053000Y-100701000D02*
X138898000Y-101546000D01*
X146296000Y-101546000D02*
X148500000Y-103750000D01*
X154500000Y-112500000D02*
X156000000Y-114000000D01*
X148500000Y-110500000D02*
X150500000Y-112500000D01*
X148500000Y-103750000D02*
X148500000Y-110500000D01*
X156000000Y-114000000D02*
X156000000Y-134844000D01*
X156000000Y-134844000D02*
X150926000Y-139918000D01*
X150926000Y-139918000D02*
X146043000Y-139918000D01*
%TO.N,/SDA*%
X152198000Y-116346000D02*
X151128000Y-116346000D01*
X148686000Y-129758000D02*
X153500000Y-124944000D01*
X153500000Y-124944000D02*
X153500000Y-117648000D01*
X153500000Y-117648000D02*
X152198000Y-116346000D01*
X146043000Y-129758000D02*
X148686000Y-129758000D01*
%TO.N,/SCL*%
X131498000Y-120146000D02*
X123396000Y-120146000D01*
X123396000Y-120146000D02*
X120273000Y-117023000D01*
X120273000Y-117023000D02*
X120273000Y-113620000D01*
%TO.N,/SDA*%
X117733000Y-117017000D02*
X117733000Y-113620000D01*
X114078000Y-122396000D02*
X114078000Y-120672000D01*
X114078000Y-120672000D02*
X117733000Y-117017000D01*
D27*
%TO.N,Net-(BT1-Pad2)*%
X140088000Y-91136000D02*
X140088000Y-84946000D01*
X143598000Y-94646000D02*
X140088000Y-91136000D01*
X156598000Y-94646000D02*
X143598000Y-94646000D01*
X160698000Y-98746000D02*
X156598000Y-94646000D01*
X160698000Y-137146000D02*
X160698000Y-98746000D01*
X167148000Y-140696000D02*
X164248000Y-140696000D01*
X164248000Y-140696000D02*
X160698000Y-137146000D01*
%TO.N,Net-(BT1-Pad1)*%
X160748000Y-85596000D02*
X160748000Y-72696000D01*
X164148000Y-69296000D02*
X167148000Y-69296000D01*
X156698000Y-89646000D02*
X160748000Y-85596000D01*
X150078000Y-89646000D02*
X156698000Y-89646000D01*
X160748000Y-72696000D02*
X164148000Y-69296000D01*
X147688000Y-87256000D02*
X150078000Y-89646000D01*
X147688000Y-84946000D02*
X147688000Y-87256000D01*
D26*
%TO.N,Net-(R3-Pad2)*%
X130433000Y-94801000D02*
X130428000Y-94796000D01*
X130433000Y-98380000D02*
X130433000Y-94801000D01*
X132748000Y-94796000D02*
X130428000Y-94796000D01*
%TO.N,VCC*%
X127398000Y-88446000D02*
X127398000Y-90546000D01*
X129188000Y-85346000D02*
X129188000Y-86656000D01*
X129188000Y-86656000D02*
X127398000Y-88446000D01*
X127398000Y-90546000D02*
X125348000Y-92596000D01*
X125348000Y-92596000D02*
X125348000Y-94796000D01*
D28*
X151188000Y-82336000D02*
X151188000Y-84946000D01*
X149938000Y-81086000D02*
X151188000Y-82336000D01*
X134858000Y-81086000D02*
X149938000Y-81086000D01*
X133498000Y-84046000D02*
X133498000Y-82446000D01*
X133498000Y-82446000D02*
X134858000Y-81086000D01*
X129188000Y-85346000D02*
X132198000Y-85346000D01*
X132198000Y-85346000D02*
X133498000Y-84046000D01*
D26*
X129188000Y-83836000D02*
X129188000Y-85346000D01*
X126238000Y-83108500D02*
X128460500Y-83108500D01*
X128460500Y-83108500D02*
X129188000Y-83836000D01*
D28*
%TO.N,+3V0*%
X122598000Y-88446000D02*
X124988000Y-88446000D01*
X120273000Y-90771000D02*
X122598000Y-88446000D01*
X120273000Y-98380000D02*
X120273000Y-90771000D01*
X120273000Y-100591000D02*
X120273000Y-98380000D01*
X141898000Y-103746000D02*
X123428000Y-103746000D01*
X123428000Y-103746000D02*
X120273000Y-100591000D01*
X146048000Y-107896000D02*
X141898000Y-103746000D01*
X146048000Y-116346000D02*
X146048000Y-107896000D01*
%TO.N,Net-(D1-Pad1)*%
X145798000Y-69746000D02*
X151188000Y-64356000D01*
X151188000Y-64356000D02*
X151188000Y-62046000D01*
X122098000Y-69746000D02*
X145798000Y-69746000D01*
X117788000Y-74056000D02*
X122098000Y-69746000D01*
X117788000Y-83766000D02*
X117788000Y-74056000D01*
D26*
%TO.N,/SCL*%
X148126000Y-127218000D02*
X146043000Y-127218000D01*
X151128000Y-124216000D02*
X148126000Y-127218000D01*
X151128000Y-118946000D02*
X151128000Y-124216000D01*
X143770000Y-127218000D02*
X146043000Y-127218000D01*
X141898000Y-122646000D02*
X141898000Y-125346000D01*
X139398000Y-120146000D02*
X141898000Y-122646000D01*
X131498000Y-120146000D02*
X139398000Y-120146000D01*
X141898000Y-125346000D02*
X143770000Y-127218000D01*
D28*
%TO.N,+3V0*%
X143590000Y-122138000D02*
X146043000Y-122138000D01*
X140198000Y-118746000D02*
X143590000Y-122138000D01*
X128488000Y-118746000D02*
X140198000Y-118746000D01*
D26*
%TO.N,/SCL*%
X131898000Y-120146000D02*
X131498000Y-120146000D01*
X132670000Y-120918000D02*
X131898000Y-120146000D01*
X132670000Y-122435500D02*
X132670000Y-120918000D01*
%TO.N,/SDA*%
X114078000Y-123826000D02*
X114078000Y-122396000D01*
X135210000Y-124768000D02*
X115020000Y-124768000D01*
X115020000Y-124768000D02*
X114078000Y-123826000D01*
%TO.N,/SCL*%
X120273000Y-112121000D02*
X120273000Y-113620000D01*
X119598000Y-111446000D02*
X120273000Y-112121000D01*
X111538000Y-122396000D02*
X111538000Y-117006000D01*
X111538000Y-117006000D02*
X117098000Y-111446000D01*
X117098000Y-111446000D02*
X119598000Y-111446000D01*
%TO.N,VCC*%
X124888000Y-80446000D02*
X125688000Y-80446000D01*
X126238000Y-80996000D02*
X126238000Y-83108500D01*
X124338000Y-83108500D02*
X124338000Y-80996000D01*
X124338000Y-80996000D02*
X124888000Y-80446000D01*
X125688000Y-80446000D02*
X126238000Y-80996000D01*
%TO.N,GND*%
X125288000Y-83108500D02*
X125288000Y-81546000D01*
D28*
%TO.N,+3V0*%
X127590000Y-122435500D02*
X116657500Y-122435500D01*
X146048000Y-118946000D02*
X146048000Y-122133000D01*
D26*
X126238000Y-85383500D02*
X126238000Y-87196000D01*
D28*
X146048000Y-122133000D02*
X146043000Y-122138000D01*
D26*
X126238000Y-87196000D02*
X124988000Y-88446000D01*
D28*
X116657500Y-122435500D02*
X116618000Y-122396000D01*
X146048000Y-116346000D02*
X146048000Y-118946000D01*
%TO.N,VBUS*%
X117733000Y-93981000D02*
X117788000Y-93926000D01*
X117733000Y-98380000D02*
X117733000Y-93981000D01*
D26*
%TO.N,/SDA*%
X135210000Y-122435500D02*
X135210000Y-124768000D01*
X140200000Y-129758000D02*
X146043000Y-129758000D01*
X135210000Y-124768000D02*
X140200000Y-129758000D01*
%TD*%
M02*
