%TF.GenerationSoftware,KiCad,Pcbnew,(6.0.9)*%
%TF.CreationDate,2023-01-27T22:10:23+02:00*%
%TF.ProjectId,Schematics,53636865-6d61-4746-9963-732e6b696361,rev?*%
%TF.SameCoordinates,Original*%
%TF.FileFunction,Drillmap*%
%TF.FilePolarity,Positive*%
%FSLAX45Y45*%
G04 Gerber Fmt 4.5, Leading zero omitted, Abs format (unit mm)*
G04 Created by KiCad (PCBNEW (6.0.9)) date 2023-01-27 22:10:23*
%MOMM*%
%LPD*%
G01*
G04 APERTURE LIST*
%ADD10C,0.100000*%
%ADD11C,0.200000*%
%ADD12C,0.250000*%
G04 APERTURE END LIST*
D10*
X10390200Y-5985400D02*
G75*
G03*
X9990200Y-6385400I0J-400000D01*
G01*
X18490200Y-6385400D02*
G75*
G03*
X18090200Y-5985400I-400000J0D01*
G01*
X18490200Y-6385400D02*
X18490200Y-14585400D01*
X11069000Y-9690000D02*
G75*
G03*
X10869000Y-9490000I-200000J0D01*
G01*
X11069000Y-9690000D02*
X11069000Y-11490000D01*
X9990200Y-14585400D02*
X9990000Y-11890000D01*
X10190000Y-11690000D02*
G75*
G03*
X9990000Y-11890000I0J-200000D01*
G01*
X10190000Y-11690000D02*
X10869000Y-11690000D01*
X18090200Y-14985400D02*
G75*
G03*
X18490200Y-14585400I0J400000D01*
G01*
X9990000Y-9290000D02*
G75*
G03*
X10190000Y-9490000I200000J0D01*
G01*
X9990200Y-6385400D02*
X9990000Y-9290000D01*
X10190000Y-9490000D02*
X10869000Y-9490000D01*
X10390200Y-5985400D02*
X18090200Y-5985400D01*
X18090200Y-14985400D02*
X10390200Y-14985400D01*
X10869000Y-11690000D02*
G75*
G03*
X11069000Y-11490000I0J200000D01*
G01*
X9990200Y-14585400D02*
G75*
G03*
X10390200Y-14985400I400000J0D01*
G01*
D11*
D12*
X10265200Y-6260400D02*
X10515200Y-6510400D01*
X10515200Y-6260400D02*
X10265200Y-6510400D01*
X10265200Y-14460400D02*
X10515200Y-14710400D01*
X10515200Y-14460400D02*
X10265200Y-14710400D01*
X17965200Y-6260400D02*
X18215200Y-6510400D01*
X18215200Y-6260400D02*
X17965200Y-6510400D01*
X17965200Y-14460400D02*
X18215200Y-14710400D01*
X18215200Y-14460400D02*
X17965200Y-14710400D01*
D11*
X10242619Y-15300876D02*
X10242619Y-15100876D01*
X10290238Y-15100876D01*
X10318810Y-15110400D01*
X10337857Y-15129448D01*
X10347381Y-15148495D01*
X10356905Y-15186590D01*
X10356905Y-15215162D01*
X10347381Y-15253257D01*
X10337857Y-15272305D01*
X10318810Y-15291352D01*
X10290238Y-15300876D01*
X10242619Y-15300876D01*
X10442619Y-15300876D02*
X10442619Y-15167543D01*
X10442619Y-15205638D02*
X10452143Y-15186590D01*
X10461667Y-15177067D01*
X10480714Y-15167543D01*
X10499762Y-15167543D01*
X10566429Y-15300876D02*
X10566429Y-15167543D01*
X10566429Y-15100876D02*
X10556905Y-15110400D01*
X10566429Y-15119924D01*
X10575952Y-15110400D01*
X10566429Y-15100876D01*
X10566429Y-15119924D01*
X10690238Y-15300876D02*
X10671190Y-15291352D01*
X10661667Y-15272305D01*
X10661667Y-15100876D01*
X10795000Y-15300876D02*
X10775952Y-15291352D01*
X10766429Y-15272305D01*
X10766429Y-15100876D01*
X11023571Y-15300876D02*
X11023571Y-15100876D01*
X11090238Y-15243733D01*
X11156905Y-15100876D01*
X11156905Y-15300876D01*
X11337857Y-15300876D02*
X11337857Y-15196114D01*
X11328333Y-15177067D01*
X11309286Y-15167543D01*
X11271190Y-15167543D01*
X11252143Y-15177067D01*
X11337857Y-15291352D02*
X11318809Y-15300876D01*
X11271190Y-15300876D01*
X11252143Y-15291352D01*
X11242619Y-15272305D01*
X11242619Y-15253257D01*
X11252143Y-15234209D01*
X11271190Y-15224686D01*
X11318809Y-15224686D01*
X11337857Y-15215162D01*
X11433095Y-15167543D02*
X11433095Y-15367543D01*
X11433095Y-15177067D02*
X11452143Y-15167543D01*
X11490238Y-15167543D01*
X11509286Y-15177067D01*
X11518809Y-15186590D01*
X11528333Y-15205638D01*
X11528333Y-15262781D01*
X11518809Y-15281828D01*
X11509286Y-15291352D01*
X11490238Y-15300876D01*
X11452143Y-15300876D01*
X11433095Y-15291352D01*
X11614048Y-15281828D02*
X11623571Y-15291352D01*
X11614048Y-15300876D01*
X11604524Y-15291352D01*
X11614048Y-15281828D01*
X11614048Y-15300876D01*
X11614048Y-15177067D02*
X11623571Y-15186590D01*
X11614048Y-15196114D01*
X11604524Y-15186590D01*
X11614048Y-15177067D01*
X11614048Y-15196114D01*
X9785000Y-15530400D02*
X9985000Y-15730400D01*
X9985000Y-15530400D02*
X9785000Y-15730400D01*
X10233095Y-15539924D02*
X10242619Y-15530400D01*
X10261667Y-15520876D01*
X10309286Y-15520876D01*
X10328333Y-15530400D01*
X10337857Y-15539924D01*
X10347381Y-15558971D01*
X10347381Y-15578019D01*
X10337857Y-15606590D01*
X10223571Y-15720876D01*
X10347381Y-15720876D01*
X10433095Y-15701828D02*
X10442619Y-15711352D01*
X10433095Y-15720876D01*
X10423571Y-15711352D01*
X10433095Y-15701828D01*
X10433095Y-15720876D01*
X10623571Y-15520876D02*
X10528333Y-15520876D01*
X10518810Y-15616114D01*
X10528333Y-15606590D01*
X10547381Y-15597067D01*
X10595000Y-15597067D01*
X10614048Y-15606590D01*
X10623571Y-15616114D01*
X10633095Y-15635162D01*
X10633095Y-15682781D01*
X10623571Y-15701828D01*
X10614048Y-15711352D01*
X10595000Y-15720876D01*
X10547381Y-15720876D01*
X10528333Y-15711352D01*
X10518810Y-15701828D01*
X10756905Y-15520876D02*
X10775952Y-15520876D01*
X10795000Y-15530400D01*
X10804524Y-15539924D01*
X10814048Y-15558971D01*
X10823571Y-15597067D01*
X10823571Y-15644686D01*
X10814048Y-15682781D01*
X10804524Y-15701828D01*
X10795000Y-15711352D01*
X10775952Y-15720876D01*
X10756905Y-15720876D01*
X10737857Y-15711352D01*
X10728333Y-15701828D01*
X10718810Y-15682781D01*
X10709286Y-15644686D01*
X10709286Y-15597067D01*
X10718810Y-15558971D01*
X10728333Y-15539924D01*
X10737857Y-15530400D01*
X10756905Y-15520876D01*
X10947381Y-15520876D02*
X10966429Y-15520876D01*
X10985476Y-15530400D01*
X10995000Y-15539924D01*
X11004524Y-15558971D01*
X11014048Y-15597067D01*
X11014048Y-15644686D01*
X11004524Y-15682781D01*
X10995000Y-15701828D01*
X10985476Y-15711352D01*
X10966429Y-15720876D01*
X10947381Y-15720876D01*
X10928333Y-15711352D01*
X10918810Y-15701828D01*
X10909286Y-15682781D01*
X10899762Y-15644686D01*
X10899762Y-15597067D01*
X10909286Y-15558971D01*
X10918810Y-15539924D01*
X10928333Y-15530400D01*
X10947381Y-15520876D01*
X11099762Y-15720876D02*
X11099762Y-15587543D01*
X11099762Y-15606590D02*
X11109286Y-15597067D01*
X11128333Y-15587543D01*
X11156905Y-15587543D01*
X11175952Y-15597067D01*
X11185476Y-15616114D01*
X11185476Y-15720876D01*
X11185476Y-15616114D02*
X11195000Y-15597067D01*
X11214048Y-15587543D01*
X11242619Y-15587543D01*
X11261667Y-15597067D01*
X11271190Y-15616114D01*
X11271190Y-15720876D01*
X11366428Y-15720876D02*
X11366428Y-15587543D01*
X11366428Y-15606590D02*
X11375952Y-15597067D01*
X11395000Y-15587543D01*
X11423571Y-15587543D01*
X11442619Y-15597067D01*
X11452143Y-15616114D01*
X11452143Y-15720876D01*
X11452143Y-15616114D02*
X11461667Y-15597067D01*
X11480714Y-15587543D01*
X11509286Y-15587543D01*
X11528333Y-15597067D01*
X11537857Y-15616114D01*
X11537857Y-15720876D01*
X11928333Y-15511352D02*
X11756905Y-15768495D01*
X12185476Y-15520876D02*
X12204524Y-15520876D01*
X12223571Y-15530400D01*
X12233095Y-15539924D01*
X12242619Y-15558971D01*
X12252143Y-15597067D01*
X12252143Y-15644686D01*
X12242619Y-15682781D01*
X12233095Y-15701828D01*
X12223571Y-15711352D01*
X12204524Y-15720876D01*
X12185476Y-15720876D01*
X12166428Y-15711352D01*
X12156905Y-15701828D01*
X12147381Y-15682781D01*
X12137857Y-15644686D01*
X12137857Y-15597067D01*
X12147381Y-15558971D01*
X12156905Y-15539924D01*
X12166428Y-15530400D01*
X12185476Y-15520876D01*
X12337857Y-15701828D02*
X12347381Y-15711352D01*
X12337857Y-15720876D01*
X12328333Y-15711352D01*
X12337857Y-15701828D01*
X12337857Y-15720876D01*
X12471190Y-15520876D02*
X12490238Y-15520876D01*
X12509286Y-15530400D01*
X12518809Y-15539924D01*
X12528333Y-15558971D01*
X12537857Y-15597067D01*
X12537857Y-15644686D01*
X12528333Y-15682781D01*
X12518809Y-15701828D01*
X12509286Y-15711352D01*
X12490238Y-15720876D01*
X12471190Y-15720876D01*
X12452143Y-15711352D01*
X12442619Y-15701828D01*
X12433095Y-15682781D01*
X12423571Y-15644686D01*
X12423571Y-15597067D01*
X12433095Y-15558971D01*
X12442619Y-15539924D01*
X12452143Y-15530400D01*
X12471190Y-15520876D01*
X12633095Y-15720876D02*
X12671190Y-15720876D01*
X12690238Y-15711352D01*
X12699762Y-15701828D01*
X12718809Y-15673257D01*
X12728333Y-15635162D01*
X12728333Y-15558971D01*
X12718809Y-15539924D01*
X12709286Y-15530400D01*
X12690238Y-15520876D01*
X12652143Y-15520876D01*
X12633095Y-15530400D01*
X12623571Y-15539924D01*
X12614048Y-15558971D01*
X12614048Y-15606590D01*
X12623571Y-15625638D01*
X12633095Y-15635162D01*
X12652143Y-15644686D01*
X12690238Y-15644686D01*
X12709286Y-15635162D01*
X12718809Y-15625638D01*
X12728333Y-15606590D01*
X12842619Y-15606590D02*
X12823571Y-15597067D01*
X12814048Y-15587543D01*
X12804524Y-15568495D01*
X12804524Y-15558971D01*
X12814048Y-15539924D01*
X12823571Y-15530400D01*
X12842619Y-15520876D01*
X12880714Y-15520876D01*
X12899762Y-15530400D01*
X12909286Y-15539924D01*
X12918809Y-15558971D01*
X12918809Y-15568495D01*
X12909286Y-15587543D01*
X12899762Y-15597067D01*
X12880714Y-15606590D01*
X12842619Y-15606590D01*
X12823571Y-15616114D01*
X12814048Y-15625638D01*
X12804524Y-15644686D01*
X12804524Y-15682781D01*
X12814048Y-15701828D01*
X12823571Y-15711352D01*
X12842619Y-15720876D01*
X12880714Y-15720876D01*
X12899762Y-15711352D01*
X12909286Y-15701828D01*
X12918809Y-15682781D01*
X12918809Y-15644686D01*
X12909286Y-15625638D01*
X12899762Y-15616114D01*
X12880714Y-15606590D01*
X13090238Y-15587543D02*
X13090238Y-15720876D01*
X13042619Y-15511352D02*
X12995000Y-15654209D01*
X13118809Y-15654209D01*
X13185476Y-15520876D02*
X13185476Y-15558971D01*
X13261667Y-15520876D02*
X13261667Y-15558971D01*
X13556905Y-15797067D02*
X13547381Y-15787543D01*
X13528333Y-15758971D01*
X13518809Y-15739924D01*
X13509286Y-15711352D01*
X13499762Y-15663733D01*
X13499762Y-15625638D01*
X13509286Y-15578019D01*
X13518809Y-15549448D01*
X13528333Y-15530400D01*
X13547381Y-15501828D01*
X13556905Y-15492305D01*
X13718809Y-15587543D02*
X13718809Y-15720876D01*
X13671190Y-15511352D02*
X13623571Y-15654209D01*
X13747381Y-15654209D01*
X13975952Y-15720876D02*
X13975952Y-15520876D01*
X14061667Y-15720876D02*
X14061667Y-15616114D01*
X14052143Y-15597067D01*
X14033095Y-15587543D01*
X14004524Y-15587543D01*
X13985476Y-15597067D01*
X13975952Y-15606590D01*
X14185476Y-15720876D02*
X14166428Y-15711352D01*
X14156905Y-15701828D01*
X14147381Y-15682781D01*
X14147381Y-15625638D01*
X14156905Y-15606590D01*
X14166428Y-15597067D01*
X14185476Y-15587543D01*
X14214048Y-15587543D01*
X14233095Y-15597067D01*
X14242619Y-15606590D01*
X14252143Y-15625638D01*
X14252143Y-15682781D01*
X14242619Y-15701828D01*
X14233095Y-15711352D01*
X14214048Y-15720876D01*
X14185476Y-15720876D01*
X14366428Y-15720876D02*
X14347381Y-15711352D01*
X14337857Y-15692305D01*
X14337857Y-15520876D01*
X14518809Y-15711352D02*
X14499762Y-15720876D01*
X14461667Y-15720876D01*
X14442619Y-15711352D01*
X14433095Y-15692305D01*
X14433095Y-15616114D01*
X14442619Y-15597067D01*
X14461667Y-15587543D01*
X14499762Y-15587543D01*
X14518809Y-15597067D01*
X14528333Y-15616114D01*
X14528333Y-15635162D01*
X14433095Y-15654209D01*
X14604524Y-15711352D02*
X14623571Y-15720876D01*
X14661667Y-15720876D01*
X14680714Y-15711352D01*
X14690238Y-15692305D01*
X14690238Y-15682781D01*
X14680714Y-15663733D01*
X14661667Y-15654209D01*
X14633095Y-15654209D01*
X14614048Y-15644686D01*
X14604524Y-15625638D01*
X14604524Y-15616114D01*
X14614048Y-15597067D01*
X14633095Y-15587543D01*
X14661667Y-15587543D01*
X14680714Y-15597067D01*
X14756905Y-15797067D02*
X14766428Y-15787543D01*
X14785476Y-15758971D01*
X14795000Y-15739924D01*
X14804524Y-15711352D01*
X14814048Y-15663733D01*
X14814048Y-15625638D01*
X14804524Y-15578019D01*
X14795000Y-15549448D01*
X14785476Y-15530400D01*
X14766428Y-15501828D01*
X14756905Y-15492305D01*
X15118809Y-15797067D02*
X15109286Y-15787543D01*
X15090238Y-15758971D01*
X15080714Y-15739924D01*
X15071190Y-15711352D01*
X15061667Y-15663733D01*
X15061667Y-15625638D01*
X15071190Y-15578019D01*
X15080714Y-15549448D01*
X15090238Y-15530400D01*
X15109286Y-15501828D01*
X15118809Y-15492305D01*
X15195000Y-15587543D02*
X15195000Y-15720876D01*
X15195000Y-15606590D02*
X15204524Y-15597067D01*
X15223571Y-15587543D01*
X15252143Y-15587543D01*
X15271190Y-15597067D01*
X15280714Y-15616114D01*
X15280714Y-15720876D01*
X15404524Y-15720876D02*
X15385476Y-15711352D01*
X15375952Y-15701828D01*
X15366428Y-15682781D01*
X15366428Y-15625638D01*
X15375952Y-15606590D01*
X15385476Y-15597067D01*
X15404524Y-15587543D01*
X15433095Y-15587543D01*
X15452143Y-15597067D01*
X15461667Y-15606590D01*
X15471190Y-15625638D01*
X15471190Y-15682781D01*
X15461667Y-15701828D01*
X15452143Y-15711352D01*
X15433095Y-15720876D01*
X15404524Y-15720876D01*
X15528333Y-15587543D02*
X15604524Y-15587543D01*
X15556905Y-15520876D02*
X15556905Y-15692305D01*
X15566428Y-15711352D01*
X15585476Y-15720876D01*
X15604524Y-15720876D01*
X15823571Y-15587543D02*
X15823571Y-15787543D01*
X15823571Y-15597067D02*
X15842619Y-15587543D01*
X15880714Y-15587543D01*
X15899762Y-15597067D01*
X15909286Y-15606590D01*
X15918809Y-15625638D01*
X15918809Y-15682781D01*
X15909286Y-15701828D01*
X15899762Y-15711352D01*
X15880714Y-15720876D01*
X15842619Y-15720876D01*
X15823571Y-15711352D01*
X16033095Y-15720876D02*
X16014048Y-15711352D01*
X16004524Y-15692305D01*
X16004524Y-15520876D01*
X16195000Y-15720876D02*
X16195000Y-15616114D01*
X16185476Y-15597067D01*
X16166428Y-15587543D01*
X16128333Y-15587543D01*
X16109286Y-15597067D01*
X16195000Y-15711352D02*
X16175952Y-15720876D01*
X16128333Y-15720876D01*
X16109286Y-15711352D01*
X16099762Y-15692305D01*
X16099762Y-15673257D01*
X16109286Y-15654209D01*
X16128333Y-15644686D01*
X16175952Y-15644686D01*
X16195000Y-15635162D01*
X16261667Y-15587543D02*
X16337857Y-15587543D01*
X16290238Y-15520876D02*
X16290238Y-15692305D01*
X16299762Y-15711352D01*
X16318809Y-15720876D01*
X16337857Y-15720876D01*
X16480714Y-15711352D02*
X16461667Y-15720876D01*
X16423571Y-15720876D01*
X16404524Y-15711352D01*
X16395000Y-15692305D01*
X16395000Y-15616114D01*
X16404524Y-15597067D01*
X16423571Y-15587543D01*
X16461667Y-15587543D01*
X16480714Y-15597067D01*
X16490238Y-15616114D01*
X16490238Y-15635162D01*
X16395000Y-15654209D01*
X16661667Y-15720876D02*
X16661667Y-15520876D01*
X16661667Y-15711352D02*
X16642619Y-15720876D01*
X16604524Y-15720876D01*
X16585476Y-15711352D01*
X16575952Y-15701828D01*
X16566428Y-15682781D01*
X16566428Y-15625638D01*
X16575952Y-15606590D01*
X16585476Y-15597067D01*
X16604524Y-15587543D01*
X16642619Y-15587543D01*
X16661667Y-15597067D01*
X16737857Y-15797067D02*
X16747381Y-15787543D01*
X16766428Y-15758971D01*
X16775952Y-15739924D01*
X16785476Y-15711352D01*
X16795000Y-15663733D01*
X16795000Y-15625638D01*
X16785476Y-15578019D01*
X16775952Y-15549448D01*
X16766428Y-15530400D01*
X16747381Y-15501828D01*
X16737857Y-15492305D01*
M02*
