M48
; DRILL file {KiCad (6.0.9)} date Mon Feb 13 20:08:35 2023
; FORMAT={-:-/ absolute / metric / decimal}
; #@! TF.CreationDate,2023-02-13T20:08:35+02:00
; #@! TF.GenerationSoftware,Kicad,Pcbnew,(6.0.9)
; #@! TF.FileFunction,Plated,1,2,PTH
FMAT,2
METRIC
; #@! TA.AperFunction,Plated,PTH,ComponentDrill
T1C1.000
%
G90
G05
T1
X141.0Y-94.69
X141.0Y-97.23
X141.0Y-99.77
X141.0Y-102.31
X147.07Y-79.26
X147.07Y-81.8
X147.07Y-84.34
X147.07Y-86.88
X147.07Y-89.42
X147.07Y-91.96
X147.07Y-94.5
X147.07Y-97.04
X147.07Y-99.58
X147.07Y-102.12
X147.07Y-104.66
X147.07Y-107.2
X147.07Y-109.74
X147.07Y-112.28
X147.07Y-114.82
X147.07Y-117.36
X147.07Y-119.9
X147.07Y-122.44
X147.07Y-124.98
X169.93Y-79.3
X169.93Y-81.84
X169.93Y-84.38
X169.93Y-86.92
X169.93Y-89.46
X169.93Y-92.0
X169.93Y-94.54
X169.93Y-97.08
X169.93Y-99.62
X169.93Y-102.16
X169.93Y-104.7
X169.93Y-107.24
X169.93Y-109.78
X169.93Y-112.32
X169.93Y-114.86
X169.93Y-117.4
X169.93Y-119.94
X169.93Y-122.48
X169.93Y-125.02
X176.88Y-85.695
X176.88Y-88.235
X176.88Y-90.775
X176.88Y-93.315
X176.88Y-95.855
X176.88Y-98.395
X176.88Y-100.935
X176.88Y-103.475
X176.88Y-106.015
X176.88Y-108.555
X178.94Y-113.635
X190.06Y-113.635
X192.12Y-85.695
X192.12Y-88.235
X192.12Y-90.775
X192.12Y-93.315
X192.12Y-95.855
X192.12Y-98.395
X192.12Y-100.935
X192.12Y-103.475
X192.12Y-106.015
X192.12Y-108.555
T0
M30
