%TF.GenerationSoftware,KiCad,Pcbnew,(6.0.9)*%
%TF.CreationDate,2023-03-03T00:05:26+02:00*%
%TF.ProjectId,vodesht_vyzel,766f6465-7368-4745-9f76-797a656c2e6b,rev?*%
%TF.SameCoordinates,Original*%
%TF.FileFunction,Drillmap*%
%TF.FilePolarity,Positive*%
%FSLAX45Y45*%
G04 Gerber Fmt 4.5, Leading zero omitted, Abs format (unit mm)*
G04 Created by KiCad (PCBNEW (6.0.9)) date 2023-03-03 00:05:26*
%MOMM*%
%LPD*%
G01*
G04 APERTURE LIST*
%ADD10C,0.100000*%
%ADD11C,0.200000*%
G04 APERTURE END LIST*
D10*
X11500000Y-7000000D02*
X11500000Y-12400000D01*
X17450000Y-12400000D02*
X17450000Y-11850000D01*
X17150000Y-12700000D02*
G75*
G03*
X17450000Y-12400000I0J300000D01*
G01*
X11800000Y-12700000D02*
X17150000Y-12700000D01*
X11800000Y-6700000D02*
G75*
G03*
X11500000Y-7000000I0J-300000D01*
G01*
X19200000Y-11550000D02*
X17750000Y-11550000D01*
X19200000Y-11550000D02*
G75*
G03*
X19500000Y-11250000I0J300000D01*
G01*
X19500000Y-7000000D02*
G75*
G03*
X19200000Y-6700000I-300000J0D01*
G01*
X17750000Y-11550000D02*
G75*
G03*
X17450000Y-11850000I0J-300000D01*
G01*
X19500000Y-11250000D02*
X19500000Y-7000000D01*
X11500000Y-12400000D02*
G75*
G03*
X11800000Y-12700000I300000J0D01*
G01*
X19200000Y-6700000D02*
X11800000Y-6700000D01*
D11*
D10*
X14050000Y-9419000D02*
X14150000Y-9519000D01*
X14150000Y-9419000D02*
X14050000Y-9519000D01*
X14050000Y-9673000D02*
X14150000Y-9773000D01*
X14150000Y-9673000D02*
X14050000Y-9773000D01*
X14050000Y-9927000D02*
X14150000Y-10027000D01*
X14150000Y-9927000D02*
X14050000Y-10027000D01*
X14050000Y-10181000D02*
X14150000Y-10281000D01*
X14150000Y-10181000D02*
X14050000Y-10281000D01*
X14657000Y-7876000D02*
X14757000Y-7976000D01*
X14757000Y-7876000D02*
X14657000Y-7976000D01*
X14657000Y-8130000D02*
X14757000Y-8230000D01*
X14757000Y-8130000D02*
X14657000Y-8230000D01*
X14657000Y-8384000D02*
X14757000Y-8484000D01*
X14757000Y-8384000D02*
X14657000Y-8484000D01*
X14657000Y-8638000D02*
X14757000Y-8738000D01*
X14757000Y-8638000D02*
X14657000Y-8738000D01*
X14657000Y-8892000D02*
X14757000Y-8992000D01*
X14757000Y-8892000D02*
X14657000Y-8992000D01*
X14657000Y-9146000D02*
X14757000Y-9246000D01*
X14757000Y-9146000D02*
X14657000Y-9246000D01*
X14657000Y-9400000D02*
X14757000Y-9500000D01*
X14757000Y-9400000D02*
X14657000Y-9500000D01*
X14657000Y-9654000D02*
X14757000Y-9754000D01*
X14757000Y-9654000D02*
X14657000Y-9754000D01*
X14657000Y-9908000D02*
X14757000Y-10008000D01*
X14757000Y-9908000D02*
X14657000Y-10008000D01*
X14657000Y-10162000D02*
X14757000Y-10262000D01*
X14757000Y-10162000D02*
X14657000Y-10262000D01*
X14657000Y-10416000D02*
X14757000Y-10516000D01*
X14757000Y-10416000D02*
X14657000Y-10516000D01*
X14657000Y-10670000D02*
X14757000Y-10770000D01*
X14757000Y-10670000D02*
X14657000Y-10770000D01*
X14657000Y-10924000D02*
X14757000Y-11024000D01*
X14757000Y-10924000D02*
X14657000Y-11024000D01*
X14657000Y-11178000D02*
X14757000Y-11278000D01*
X14757000Y-11178000D02*
X14657000Y-11278000D01*
X14657000Y-11432000D02*
X14757000Y-11532000D01*
X14757000Y-11432000D02*
X14657000Y-11532000D01*
X14657000Y-11686000D02*
X14757000Y-11786000D01*
X14757000Y-11686000D02*
X14657000Y-11786000D01*
X14657000Y-11940000D02*
X14757000Y-12040000D01*
X14757000Y-11940000D02*
X14657000Y-12040000D01*
X14657000Y-12194000D02*
X14757000Y-12294000D01*
X14757000Y-12194000D02*
X14657000Y-12294000D01*
X14657000Y-12448000D02*
X14757000Y-12548000D01*
X14757000Y-12448000D02*
X14657000Y-12548000D01*
X16943000Y-7880000D02*
X17043000Y-7980000D01*
X17043000Y-7880000D02*
X16943000Y-7980000D01*
X16943000Y-8134000D02*
X17043000Y-8234000D01*
X17043000Y-8134000D02*
X16943000Y-8234000D01*
X16943000Y-8388000D02*
X17043000Y-8488000D01*
X17043000Y-8388000D02*
X16943000Y-8488000D01*
X16943000Y-8642000D02*
X17043000Y-8742000D01*
X17043000Y-8642000D02*
X16943000Y-8742000D01*
X16943000Y-8896000D02*
X17043000Y-8996000D01*
X17043000Y-8896000D02*
X16943000Y-8996000D01*
X16943000Y-9150000D02*
X17043000Y-9250000D01*
X17043000Y-9150000D02*
X16943000Y-9250000D01*
X16943000Y-9404000D02*
X17043000Y-9504000D01*
X17043000Y-9404000D02*
X16943000Y-9504000D01*
X16943000Y-9658000D02*
X17043000Y-9758000D01*
X17043000Y-9658000D02*
X16943000Y-9758000D01*
X16943000Y-9912000D02*
X17043000Y-10012000D01*
X17043000Y-9912000D02*
X16943000Y-10012000D01*
X16943000Y-10166000D02*
X17043000Y-10266000D01*
X17043000Y-10166000D02*
X16943000Y-10266000D01*
X16943000Y-10420000D02*
X17043000Y-10520000D01*
X17043000Y-10420000D02*
X16943000Y-10520000D01*
X16943000Y-10674000D02*
X17043000Y-10774000D01*
X17043000Y-10674000D02*
X16943000Y-10774000D01*
X16943000Y-10928000D02*
X17043000Y-11028000D01*
X17043000Y-10928000D02*
X16943000Y-11028000D01*
X16943000Y-11182000D02*
X17043000Y-11282000D01*
X17043000Y-11182000D02*
X16943000Y-11282000D01*
X16943000Y-11436000D02*
X17043000Y-11536000D01*
X17043000Y-11436000D02*
X16943000Y-11536000D01*
X16943000Y-11690000D02*
X17043000Y-11790000D01*
X17043000Y-11690000D02*
X16943000Y-11790000D01*
X16943000Y-11944000D02*
X17043000Y-12044000D01*
X17043000Y-11944000D02*
X16943000Y-12044000D01*
X16943000Y-12198000D02*
X17043000Y-12298000D01*
X17043000Y-12198000D02*
X16943000Y-12298000D01*
X16943000Y-12452000D02*
X17043000Y-12552000D01*
X17043000Y-12452000D02*
X16943000Y-12552000D01*
X17638000Y-8519500D02*
X17738000Y-8619500D01*
X17738000Y-8519500D02*
X17638000Y-8619500D01*
X17638000Y-8773500D02*
X17738000Y-8873500D01*
X17738000Y-8773500D02*
X17638000Y-8873500D01*
X17638000Y-9027500D02*
X17738000Y-9127500D01*
X17738000Y-9027500D02*
X17638000Y-9127500D01*
X17638000Y-9281500D02*
X17738000Y-9381500D01*
X17738000Y-9281500D02*
X17638000Y-9381500D01*
X17638000Y-9535500D02*
X17738000Y-9635500D01*
X17738000Y-9535500D02*
X17638000Y-9635500D01*
X17638000Y-9789500D02*
X17738000Y-9889500D01*
X17738000Y-9789500D02*
X17638000Y-9889500D01*
X17638000Y-10043500D02*
X17738000Y-10143500D01*
X17738000Y-10043500D02*
X17638000Y-10143500D01*
X17638000Y-10297500D02*
X17738000Y-10397500D01*
X17738000Y-10297500D02*
X17638000Y-10397500D01*
X17638000Y-10551500D02*
X17738000Y-10651500D01*
X17738000Y-10551500D02*
X17638000Y-10651500D01*
X17638000Y-10805500D02*
X17738000Y-10905500D01*
X17738000Y-10805500D02*
X17638000Y-10905500D01*
X17844000Y-11313500D02*
X17944000Y-11413500D01*
X17944000Y-11313500D02*
X17844000Y-11413500D01*
X18956000Y-11313500D02*
X19056000Y-11413500D01*
X19056000Y-11313500D02*
X18956000Y-11413500D01*
X19162000Y-8519500D02*
X19262000Y-8619500D01*
X19262000Y-8519500D02*
X19162000Y-8619500D01*
X19162000Y-8773500D02*
X19262000Y-8873500D01*
X19262000Y-8773500D02*
X19162000Y-8873500D01*
X19162000Y-9027500D02*
X19262000Y-9127500D01*
X19262000Y-9027500D02*
X19162000Y-9127500D01*
X19162000Y-9281500D02*
X19262000Y-9381500D01*
X19262000Y-9281500D02*
X19162000Y-9381500D01*
X19162000Y-9535500D02*
X19262000Y-9635500D01*
X19262000Y-9535500D02*
X19162000Y-9635500D01*
X19162000Y-9789500D02*
X19262000Y-9889500D01*
X19262000Y-9789500D02*
X19162000Y-9889500D01*
X19162000Y-10043500D02*
X19262000Y-10143500D01*
X19262000Y-10043500D02*
X19162000Y-10143500D01*
X19162000Y-10297500D02*
X19262000Y-10397500D01*
X19262000Y-10297500D02*
X19162000Y-10397500D01*
X19162000Y-10551500D02*
X19262000Y-10651500D01*
X19262000Y-10551500D02*
X19162000Y-10651500D01*
X19162000Y-10805500D02*
X19262000Y-10905500D01*
X19262000Y-10805500D02*
X19162000Y-10905500D01*
D11*
X11752619Y-13015476D02*
X11752619Y-12815476D01*
X11800238Y-12815476D01*
X11828809Y-12825000D01*
X11847857Y-12844048D01*
X11857381Y-12863095D01*
X11866905Y-12901190D01*
X11866905Y-12929762D01*
X11857381Y-12967857D01*
X11847857Y-12986905D01*
X11828809Y-13005952D01*
X11800238Y-13015476D01*
X11752619Y-13015476D01*
X11952619Y-13015476D02*
X11952619Y-12882143D01*
X11952619Y-12920238D02*
X11962143Y-12901190D01*
X11971667Y-12891667D01*
X11990714Y-12882143D01*
X12009762Y-12882143D01*
X12076428Y-13015476D02*
X12076428Y-12882143D01*
X12076428Y-12815476D02*
X12066905Y-12825000D01*
X12076428Y-12834524D01*
X12085952Y-12825000D01*
X12076428Y-12815476D01*
X12076428Y-12834524D01*
X12200238Y-13015476D02*
X12181190Y-13005952D01*
X12171667Y-12986905D01*
X12171667Y-12815476D01*
X12305000Y-13015476D02*
X12285952Y-13005952D01*
X12276428Y-12986905D01*
X12276428Y-12815476D01*
X12533571Y-13015476D02*
X12533571Y-12815476D01*
X12600238Y-12958333D01*
X12666905Y-12815476D01*
X12666905Y-13015476D01*
X12847857Y-13015476D02*
X12847857Y-12910714D01*
X12838333Y-12891667D01*
X12819286Y-12882143D01*
X12781190Y-12882143D01*
X12762143Y-12891667D01*
X12847857Y-13005952D02*
X12828809Y-13015476D01*
X12781190Y-13015476D01*
X12762143Y-13005952D01*
X12752619Y-12986905D01*
X12752619Y-12967857D01*
X12762143Y-12948809D01*
X12781190Y-12939286D01*
X12828809Y-12939286D01*
X12847857Y-12929762D01*
X12943095Y-12882143D02*
X12943095Y-13082143D01*
X12943095Y-12891667D02*
X12962143Y-12882143D01*
X13000238Y-12882143D01*
X13019286Y-12891667D01*
X13028809Y-12901190D01*
X13038333Y-12920238D01*
X13038333Y-12977381D01*
X13028809Y-12996428D01*
X13019286Y-13005952D01*
X13000238Y-13015476D01*
X12962143Y-13015476D01*
X12943095Y-13005952D01*
X13124048Y-12996428D02*
X13133571Y-13005952D01*
X13124048Y-13015476D01*
X13114524Y-13005952D01*
X13124048Y-12996428D01*
X13124048Y-13015476D01*
X13124048Y-12891667D02*
X13133571Y-12901190D01*
X13124048Y-12910714D01*
X13114524Y-12901190D01*
X13124048Y-12891667D01*
X13124048Y-12910714D01*
D10*
X11395000Y-13295000D02*
X11495000Y-13395000D01*
X11495000Y-13295000D02*
X11395000Y-13395000D01*
D11*
X11857381Y-13435476D02*
X11743095Y-13435476D01*
X11800238Y-13435476D02*
X11800238Y-13235476D01*
X11781190Y-13264048D01*
X11762143Y-13283095D01*
X11743095Y-13292619D01*
X11943095Y-13416428D02*
X11952619Y-13425952D01*
X11943095Y-13435476D01*
X11933571Y-13425952D01*
X11943095Y-13416428D01*
X11943095Y-13435476D01*
X12076428Y-13235476D02*
X12095476Y-13235476D01*
X12114524Y-13245000D01*
X12124048Y-13254524D01*
X12133571Y-13273571D01*
X12143095Y-13311667D01*
X12143095Y-13359286D01*
X12133571Y-13397381D01*
X12124048Y-13416428D01*
X12114524Y-13425952D01*
X12095476Y-13435476D01*
X12076428Y-13435476D01*
X12057381Y-13425952D01*
X12047857Y-13416428D01*
X12038333Y-13397381D01*
X12028809Y-13359286D01*
X12028809Y-13311667D01*
X12038333Y-13273571D01*
X12047857Y-13254524D01*
X12057381Y-13245000D01*
X12076428Y-13235476D01*
X12266905Y-13235476D02*
X12285952Y-13235476D01*
X12305000Y-13245000D01*
X12314524Y-13254524D01*
X12324048Y-13273571D01*
X12333571Y-13311667D01*
X12333571Y-13359286D01*
X12324048Y-13397381D01*
X12314524Y-13416428D01*
X12305000Y-13425952D01*
X12285952Y-13435476D01*
X12266905Y-13435476D01*
X12247857Y-13425952D01*
X12238333Y-13416428D01*
X12228809Y-13397381D01*
X12219286Y-13359286D01*
X12219286Y-13311667D01*
X12228809Y-13273571D01*
X12238333Y-13254524D01*
X12247857Y-13245000D01*
X12266905Y-13235476D01*
X12457381Y-13235476D02*
X12476428Y-13235476D01*
X12495476Y-13245000D01*
X12505000Y-13254524D01*
X12514524Y-13273571D01*
X12524048Y-13311667D01*
X12524048Y-13359286D01*
X12514524Y-13397381D01*
X12505000Y-13416428D01*
X12495476Y-13425952D01*
X12476428Y-13435476D01*
X12457381Y-13435476D01*
X12438333Y-13425952D01*
X12428809Y-13416428D01*
X12419286Y-13397381D01*
X12409762Y-13359286D01*
X12409762Y-13311667D01*
X12419286Y-13273571D01*
X12428809Y-13254524D01*
X12438333Y-13245000D01*
X12457381Y-13235476D01*
X12609762Y-13435476D02*
X12609762Y-13302143D01*
X12609762Y-13321190D02*
X12619286Y-13311667D01*
X12638333Y-13302143D01*
X12666905Y-13302143D01*
X12685952Y-13311667D01*
X12695476Y-13330714D01*
X12695476Y-13435476D01*
X12695476Y-13330714D02*
X12705000Y-13311667D01*
X12724048Y-13302143D01*
X12752619Y-13302143D01*
X12771667Y-13311667D01*
X12781190Y-13330714D01*
X12781190Y-13435476D01*
X12876428Y-13435476D02*
X12876428Y-13302143D01*
X12876428Y-13321190D02*
X12885952Y-13311667D01*
X12905000Y-13302143D01*
X12933571Y-13302143D01*
X12952619Y-13311667D01*
X12962143Y-13330714D01*
X12962143Y-13435476D01*
X12962143Y-13330714D02*
X12971667Y-13311667D01*
X12990714Y-13302143D01*
X13019286Y-13302143D01*
X13038333Y-13311667D01*
X13047857Y-13330714D01*
X13047857Y-13435476D01*
X13438333Y-13225952D02*
X13266905Y-13483095D01*
X13695476Y-13235476D02*
X13714524Y-13235476D01*
X13733571Y-13245000D01*
X13743095Y-13254524D01*
X13752619Y-13273571D01*
X13762143Y-13311667D01*
X13762143Y-13359286D01*
X13752619Y-13397381D01*
X13743095Y-13416428D01*
X13733571Y-13425952D01*
X13714524Y-13435476D01*
X13695476Y-13435476D01*
X13676428Y-13425952D01*
X13666905Y-13416428D01*
X13657381Y-13397381D01*
X13647857Y-13359286D01*
X13647857Y-13311667D01*
X13657381Y-13273571D01*
X13666905Y-13254524D01*
X13676428Y-13245000D01*
X13695476Y-13235476D01*
X13847857Y-13416428D02*
X13857381Y-13425952D01*
X13847857Y-13435476D01*
X13838333Y-13425952D01*
X13847857Y-13416428D01*
X13847857Y-13435476D01*
X13981190Y-13235476D02*
X14000238Y-13235476D01*
X14019286Y-13245000D01*
X14028809Y-13254524D01*
X14038333Y-13273571D01*
X14047857Y-13311667D01*
X14047857Y-13359286D01*
X14038333Y-13397381D01*
X14028809Y-13416428D01*
X14019286Y-13425952D01*
X14000238Y-13435476D01*
X13981190Y-13435476D01*
X13962143Y-13425952D01*
X13952619Y-13416428D01*
X13943095Y-13397381D01*
X13933571Y-13359286D01*
X13933571Y-13311667D01*
X13943095Y-13273571D01*
X13952619Y-13254524D01*
X13962143Y-13245000D01*
X13981190Y-13235476D01*
X14114524Y-13235476D02*
X14238333Y-13235476D01*
X14171667Y-13311667D01*
X14200238Y-13311667D01*
X14219286Y-13321190D01*
X14228809Y-13330714D01*
X14238333Y-13349762D01*
X14238333Y-13397381D01*
X14228809Y-13416428D01*
X14219286Y-13425952D01*
X14200238Y-13435476D01*
X14143095Y-13435476D01*
X14124048Y-13425952D01*
X14114524Y-13416428D01*
X14333571Y-13435476D02*
X14371667Y-13435476D01*
X14390714Y-13425952D01*
X14400238Y-13416428D01*
X14419286Y-13387857D01*
X14428809Y-13349762D01*
X14428809Y-13273571D01*
X14419286Y-13254524D01*
X14409762Y-13245000D01*
X14390714Y-13235476D01*
X14352619Y-13235476D01*
X14333571Y-13245000D01*
X14324048Y-13254524D01*
X14314524Y-13273571D01*
X14314524Y-13321190D01*
X14324048Y-13340238D01*
X14333571Y-13349762D01*
X14352619Y-13359286D01*
X14390714Y-13359286D01*
X14409762Y-13349762D01*
X14419286Y-13340238D01*
X14428809Y-13321190D01*
X14600238Y-13302143D02*
X14600238Y-13435476D01*
X14552619Y-13225952D02*
X14505000Y-13368809D01*
X14628809Y-13368809D01*
X14695476Y-13235476D02*
X14695476Y-13273571D01*
X14771667Y-13235476D02*
X14771667Y-13273571D01*
X15066905Y-13511667D02*
X15057381Y-13502143D01*
X15038333Y-13473571D01*
X15028809Y-13454524D01*
X15019286Y-13425952D01*
X15009762Y-13378333D01*
X15009762Y-13340238D01*
X15019286Y-13292619D01*
X15028809Y-13264048D01*
X15038333Y-13245000D01*
X15057381Y-13216428D01*
X15066905Y-13206905D01*
X15228809Y-13235476D02*
X15190714Y-13235476D01*
X15171667Y-13245000D01*
X15162143Y-13254524D01*
X15143095Y-13283095D01*
X15133571Y-13321190D01*
X15133571Y-13397381D01*
X15143095Y-13416428D01*
X15152619Y-13425952D01*
X15171667Y-13435476D01*
X15209762Y-13435476D01*
X15228809Y-13425952D01*
X15238333Y-13416428D01*
X15247857Y-13397381D01*
X15247857Y-13349762D01*
X15238333Y-13330714D01*
X15228809Y-13321190D01*
X15209762Y-13311667D01*
X15171667Y-13311667D01*
X15152619Y-13321190D01*
X15143095Y-13330714D01*
X15133571Y-13349762D01*
X15419286Y-13302143D02*
X15419286Y-13435476D01*
X15371667Y-13225952D02*
X15324048Y-13368809D01*
X15447857Y-13368809D01*
X15676428Y-13435476D02*
X15676428Y-13235476D01*
X15762143Y-13435476D02*
X15762143Y-13330714D01*
X15752619Y-13311667D01*
X15733571Y-13302143D01*
X15705000Y-13302143D01*
X15685952Y-13311667D01*
X15676428Y-13321190D01*
X15885952Y-13435476D02*
X15866905Y-13425952D01*
X15857381Y-13416428D01*
X15847857Y-13397381D01*
X15847857Y-13340238D01*
X15857381Y-13321190D01*
X15866905Y-13311667D01*
X15885952Y-13302143D01*
X15914524Y-13302143D01*
X15933571Y-13311667D01*
X15943095Y-13321190D01*
X15952619Y-13340238D01*
X15952619Y-13397381D01*
X15943095Y-13416428D01*
X15933571Y-13425952D01*
X15914524Y-13435476D01*
X15885952Y-13435476D01*
X16066905Y-13435476D02*
X16047857Y-13425952D01*
X16038333Y-13406905D01*
X16038333Y-13235476D01*
X16219286Y-13425952D02*
X16200238Y-13435476D01*
X16162143Y-13435476D01*
X16143095Y-13425952D01*
X16133571Y-13406905D01*
X16133571Y-13330714D01*
X16143095Y-13311667D01*
X16162143Y-13302143D01*
X16200238Y-13302143D01*
X16219286Y-13311667D01*
X16228809Y-13330714D01*
X16228809Y-13349762D01*
X16133571Y-13368809D01*
X16305000Y-13425952D02*
X16324048Y-13435476D01*
X16362143Y-13435476D01*
X16381190Y-13425952D01*
X16390714Y-13406905D01*
X16390714Y-13397381D01*
X16381190Y-13378333D01*
X16362143Y-13368809D01*
X16333571Y-13368809D01*
X16314524Y-13359286D01*
X16305000Y-13340238D01*
X16305000Y-13330714D01*
X16314524Y-13311667D01*
X16333571Y-13302143D01*
X16362143Y-13302143D01*
X16381190Y-13311667D01*
X16457381Y-13511667D02*
X16466905Y-13502143D01*
X16485952Y-13473571D01*
X16495476Y-13454524D01*
X16505000Y-13425952D01*
X16514524Y-13378333D01*
X16514524Y-13340238D01*
X16505000Y-13292619D01*
X16495476Y-13264048D01*
X16485952Y-13245000D01*
X16466905Y-13216428D01*
X16457381Y-13206905D01*
M02*
