G04 #@! TF.GenerationSoftware,KiCad,Pcbnew,(6.0.9)*
G04 #@! TF.CreationDate,2023-02-06T23:42:05+02:00*
G04 #@! TF.ProjectId,vodesht_vyzel,766f6465-7368-4745-9f76-797a656c2e6b,rev?*
G04 #@! TF.SameCoordinates,Original*
G04 #@! TF.FileFunction,Legend,Top*
G04 #@! TF.FilePolarity,Positive*
%FSLAX46Y46*%
G04 Gerber Fmt 4.6, Leading zero omitted, Abs format (unit mm)*
G04 Created by KiCad (PCBNEW (6.0.9)) date 2023-02-06 23:42:05*
%MOMM*%
%LPD*%
G01*
G04 APERTURE LIST*
%ADD10C,0.150000*%
%ADD11C,0.100000*%
%ADD12C,0.120000*%
%ADD13C,0.127000*%
%ADD14C,2.500000*%
%ADD15C,2.000000*%
G04 APERTURE END LIST*
D10*
X169238095Y-75952380D02*
X169238095Y-76761904D01*
X169285714Y-76857142D01*
X169333333Y-76904761D01*
X169428571Y-76952380D01*
X169619047Y-76952380D01*
X169714285Y-76904761D01*
X169761904Y-76857142D01*
X169809523Y-76761904D01*
X169809523Y-75952380D01*
X170238095Y-76047619D02*
X170285714Y-76000000D01*
X170380952Y-75952380D01*
X170619047Y-75952380D01*
X170714285Y-76000000D01*
X170761904Y-76047619D01*
X170809523Y-76142857D01*
X170809523Y-76238095D01*
X170761904Y-76380952D01*
X170190476Y-76952380D01*
X170809523Y-76952380D01*
X153714285Y-98952380D02*
X153714285Y-97952380D01*
X154285714Y-98952380D01*
X154285714Y-97952380D01*
X154952380Y-97952380D02*
X155142857Y-97952380D01*
X155238095Y-98000000D01*
X155333333Y-98095238D01*
X155380952Y-98285714D01*
X155380952Y-98619047D01*
X155333333Y-98809523D01*
X155238095Y-98904761D01*
X155142857Y-98952380D01*
X154952380Y-98952380D01*
X154857142Y-98904761D01*
X154761904Y-98809523D01*
X154714285Y-98619047D01*
X154714285Y-98285714D01*
X154761904Y-98095238D01*
X154857142Y-98000000D01*
X154952380Y-97952380D01*
X155809523Y-98952380D02*
X155809523Y-97952380D01*
X156047619Y-97952380D01*
X156190476Y-98000000D01*
X156285714Y-98095238D01*
X156333333Y-98190476D01*
X156380952Y-98380952D01*
X156380952Y-98523809D01*
X156333333Y-98714285D01*
X156285714Y-98809523D01*
X156190476Y-98904761D01*
X156047619Y-98952380D01*
X155809523Y-98952380D01*
X156809523Y-98428571D02*
X157142857Y-98428571D01*
X157285714Y-98952380D02*
X156809523Y-98952380D01*
X156809523Y-97952380D01*
X157285714Y-97952380D01*
X157714285Y-98952380D02*
X157714285Y-97952380D01*
X158047619Y-98666666D01*
X158380952Y-97952380D01*
X158380952Y-98952380D01*
X159428571Y-98857142D02*
X159380952Y-98904761D01*
X159238095Y-98952380D01*
X159142857Y-98952380D01*
X159000000Y-98904761D01*
X158904761Y-98809523D01*
X158857142Y-98714285D01*
X158809523Y-98523809D01*
X158809523Y-98380952D01*
X158857142Y-98190476D01*
X158904761Y-98095238D01*
X159000000Y-98000000D01*
X159142857Y-97952380D01*
X159238095Y-97952380D01*
X159380952Y-98000000D01*
X159428571Y-98047619D01*
X159857142Y-97952380D02*
X159857142Y-98761904D01*
X159904761Y-98857142D01*
X159952380Y-98904761D01*
X160047619Y-98952380D01*
X160238095Y-98952380D01*
X160333333Y-98904761D01*
X160380952Y-98857142D01*
X160428571Y-98761904D01*
X160428571Y-97952380D01*
X160809523Y-97952380D02*
X161428571Y-97952380D01*
X161095238Y-98333333D01*
X161238095Y-98333333D01*
X161333333Y-98380952D01*
X161380952Y-98428571D01*
X161428571Y-98523809D01*
X161428571Y-98761904D01*
X161380952Y-98857142D01*
X161333333Y-98904761D01*
X161238095Y-98952380D01*
X160952380Y-98952380D01*
X160857142Y-98904761D01*
X160809523Y-98857142D01*
X161809523Y-98047619D02*
X161857142Y-98000000D01*
X161952380Y-97952380D01*
X162190476Y-97952380D01*
X162285714Y-98000000D01*
X162333333Y-98047619D01*
X162380952Y-98142857D01*
X162380952Y-98238095D01*
X162333333Y-98380952D01*
X161761904Y-98952380D01*
X162380952Y-98952380D01*
X162761904Y-98904761D02*
X162904761Y-98952380D01*
X163142857Y-98952380D01*
X163238095Y-98904761D01*
X163285714Y-98857142D01*
X163333333Y-98761904D01*
X163333333Y-98666666D01*
X163285714Y-98571428D01*
X163238095Y-98523809D01*
X163142857Y-98476190D01*
X162952380Y-98428571D01*
X162857142Y-98380952D01*
X162809523Y-98333333D01*
X162761904Y-98238095D01*
X162761904Y-98142857D01*
X162809523Y-98047619D01*
X162857142Y-98000000D01*
X162952380Y-97952380D01*
X163190476Y-97952380D01*
X163333333Y-98000000D01*
X140738095Y-83952380D02*
X140738095Y-84761904D01*
X140785714Y-84857142D01*
X140833333Y-84904761D01*
X140928571Y-84952380D01*
X141119047Y-84952380D01*
X141214285Y-84904761D01*
X141261904Y-84857142D01*
X141309523Y-84761904D01*
X141309523Y-83952380D01*
X142309523Y-84952380D02*
X141738095Y-84952380D01*
X142023809Y-84952380D02*
X142023809Y-83952380D01*
X141928571Y-84095238D01*
X141833333Y-84190476D01*
X141738095Y-84238095D01*
X125833333Y-98904761D02*
X125976190Y-98952380D01*
X126214285Y-98952380D01*
X126309523Y-98904761D01*
X126357142Y-98857142D01*
X126404761Y-98761904D01*
X126404761Y-98666666D01*
X126357142Y-98571428D01*
X126309523Y-98523809D01*
X126214285Y-98476190D01*
X126023809Y-98428571D01*
X125928571Y-98380952D01*
X125880952Y-98333333D01*
X125833333Y-98238095D01*
X125833333Y-98142857D01*
X125880952Y-98047619D01*
X125928571Y-98000000D01*
X126023809Y-97952380D01*
X126261904Y-97952380D01*
X126404761Y-98000000D01*
X126785714Y-98904761D02*
X126928571Y-98952380D01*
X127166666Y-98952380D01*
X127261904Y-98904761D01*
X127309523Y-98857142D01*
X127357142Y-98761904D01*
X127357142Y-98666666D01*
X127309523Y-98571428D01*
X127261904Y-98523809D01*
X127166666Y-98476190D01*
X126976190Y-98428571D01*
X126880952Y-98380952D01*
X126833333Y-98333333D01*
X126785714Y-98238095D01*
X126785714Y-98142857D01*
X126833333Y-98047619D01*
X126880952Y-98000000D01*
X126976190Y-97952380D01*
X127214285Y-97952380D01*
X127357142Y-98000000D01*
X127785714Y-98952380D02*
X127785714Y-97952380D01*
X128023809Y-97952380D01*
X128166666Y-98000000D01*
X128261904Y-98095238D01*
X128309523Y-98190476D01*
X128357142Y-98380952D01*
X128357142Y-98523809D01*
X128309523Y-98714285D01*
X128261904Y-98809523D01*
X128166666Y-98904761D01*
X128023809Y-98952380D01*
X127785714Y-98952380D01*
X129309523Y-98952380D02*
X128738095Y-98952380D01*
X129023809Y-98952380D02*
X129023809Y-97952380D01*
X128928571Y-98095238D01*
X128833333Y-98190476D01*
X128738095Y-98238095D01*
X129642857Y-97952380D02*
X130261904Y-97952380D01*
X129928571Y-98333333D01*
X130071428Y-98333333D01*
X130166666Y-98380952D01*
X130214285Y-98428571D01*
X130261904Y-98523809D01*
X130261904Y-98761904D01*
X130214285Y-98857142D01*
X130166666Y-98904761D01*
X130071428Y-98952380D01*
X129785714Y-98952380D01*
X129690476Y-98904761D01*
X129642857Y-98857142D01*
X130880952Y-97952380D02*
X130976190Y-97952380D01*
X131071428Y-98000000D01*
X131119047Y-98047619D01*
X131166666Y-98142857D01*
X131214285Y-98333333D01*
X131214285Y-98571428D01*
X131166666Y-98761904D01*
X131119047Y-98857142D01*
X131071428Y-98904761D01*
X130976190Y-98952380D01*
X130880952Y-98952380D01*
X130785714Y-98904761D01*
X130738095Y-98857142D01*
X130690476Y-98761904D01*
X130642857Y-98571428D01*
X130642857Y-98333333D01*
X130690476Y-98142857D01*
X130738095Y-98047619D01*
X130785714Y-98000000D01*
X130880952Y-97952380D01*
X132071428Y-97952380D02*
X131880952Y-97952380D01*
X131785714Y-98000000D01*
X131738095Y-98047619D01*
X131642857Y-98190476D01*
X131595238Y-98380952D01*
X131595238Y-98761904D01*
X131642857Y-98857142D01*
X131690476Y-98904761D01*
X131785714Y-98952380D01*
X131976190Y-98952380D01*
X132071428Y-98904761D01*
X132119047Y-98857142D01*
X132166666Y-98761904D01*
X132166666Y-98523809D01*
X132119047Y-98428571D01*
X132071428Y-98380952D01*
X131976190Y-98333333D01*
X131785714Y-98333333D01*
X131690476Y-98380952D01*
X131642857Y-98428571D01*
X131595238Y-98523809D01*
X191238095Y-77952380D02*
X191238095Y-78761904D01*
X191285714Y-78857142D01*
X191333333Y-78904761D01*
X191428571Y-78952380D01*
X191619047Y-78952380D01*
X191714285Y-78904761D01*
X191761904Y-78857142D01*
X191809523Y-78761904D01*
X191809523Y-77952380D01*
X192190476Y-77952380D02*
X192809523Y-77952380D01*
X192476190Y-78333333D01*
X192619047Y-78333333D01*
X192714285Y-78380952D01*
X192761904Y-78428571D01*
X192809523Y-78523809D01*
X192809523Y-78761904D01*
X192761904Y-78857142D01*
X192714285Y-78904761D01*
X192619047Y-78952380D01*
X192333333Y-78952380D01*
X192238095Y-78904761D01*
X192190476Y-78857142D01*
X178804761Y-98861904D02*
X178804761Y-98061904D01*
X179261904Y-98861904D01*
X179261904Y-98061904D01*
X180100000Y-98861904D02*
X179833333Y-98480952D01*
X179642857Y-98861904D02*
X179642857Y-98061904D01*
X179947619Y-98061904D01*
X180023809Y-98100000D01*
X180061904Y-98138095D01*
X180100000Y-98214285D01*
X180100000Y-98328571D01*
X180061904Y-98404761D01*
X180023809Y-98442857D01*
X179947619Y-98480952D01*
X179642857Y-98480952D01*
X180709523Y-98442857D02*
X180442857Y-98442857D01*
X180442857Y-98861904D02*
X180442857Y-98061904D01*
X180823809Y-98061904D01*
X181509523Y-98061904D02*
X181128571Y-98061904D01*
X181090476Y-98442857D01*
X181128571Y-98404761D01*
X181204761Y-98366666D01*
X181395238Y-98366666D01*
X181471428Y-98404761D01*
X181509523Y-98442857D01*
X181547619Y-98519047D01*
X181547619Y-98709523D01*
X181509523Y-98785714D01*
X181471428Y-98823809D01*
X181395238Y-98861904D01*
X181204761Y-98861904D01*
X181128571Y-98823809D01*
X181090476Y-98785714D01*
X181852380Y-98138095D02*
X181890476Y-98100000D01*
X181966666Y-98061904D01*
X182157142Y-98061904D01*
X182233333Y-98100000D01*
X182271428Y-98138095D01*
X182309523Y-98214285D01*
X182309523Y-98290476D01*
X182271428Y-98404761D01*
X181814285Y-98861904D01*
X182309523Y-98861904D01*
X182766666Y-98404761D02*
X182690476Y-98366666D01*
X182652380Y-98328571D01*
X182614285Y-98252380D01*
X182614285Y-98214285D01*
X182652380Y-98138095D01*
X182690476Y-98100000D01*
X182766666Y-98061904D01*
X182919047Y-98061904D01*
X182995238Y-98100000D01*
X183033333Y-98138095D01*
X183071428Y-98214285D01*
X183071428Y-98252380D01*
X183033333Y-98328571D01*
X182995238Y-98366666D01*
X182919047Y-98404761D01*
X182766666Y-98404761D01*
X182690476Y-98442857D01*
X182652380Y-98480952D01*
X182614285Y-98557142D01*
X182614285Y-98709523D01*
X182652380Y-98785714D01*
X182690476Y-98823809D01*
X182766666Y-98861904D01*
X182919047Y-98861904D01*
X182995238Y-98823809D01*
X183033333Y-98785714D01*
X183071428Y-98709523D01*
X183071428Y-98557142D01*
X183033333Y-98480952D01*
X182995238Y-98442857D01*
X182919047Y-98404761D01*
X183757142Y-98328571D02*
X183757142Y-98861904D01*
X183566666Y-98023809D02*
X183376190Y-98595238D01*
X183871428Y-98595238D01*
X184328571Y-98061904D02*
X184404761Y-98061904D01*
X184480952Y-98100000D01*
X184519047Y-98138095D01*
X184557142Y-98214285D01*
X184595238Y-98366666D01*
X184595238Y-98557142D01*
X184557142Y-98709523D01*
X184519047Y-98785714D01*
X184480952Y-98823809D01*
X184404761Y-98861904D01*
X184328571Y-98861904D01*
X184252380Y-98823809D01*
X184214285Y-98785714D01*
X184176190Y-98709523D01*
X184138095Y-98557142D01*
X184138095Y-98366666D01*
X184176190Y-98214285D01*
X184214285Y-98138095D01*
X184252380Y-98100000D01*
X184328571Y-98061904D01*
X184938095Y-98557142D02*
X185547619Y-98557142D01*
X185928571Y-98861904D02*
X185928571Y-98061904D01*
X186119047Y-98061904D01*
X186233333Y-98100000D01*
X186309523Y-98176190D01*
X186347619Y-98252380D01*
X186385714Y-98404761D01*
X186385714Y-98519047D01*
X186347619Y-98671428D01*
X186309523Y-98747619D01*
X186233333Y-98823809D01*
X186119047Y-98861904D01*
X185928571Y-98861904D01*
X186880952Y-98061904D02*
X187033333Y-98061904D01*
X187109523Y-98100000D01*
X187185714Y-98176190D01*
X187223809Y-98328571D01*
X187223809Y-98595238D01*
X187185714Y-98747619D01*
X187109523Y-98823809D01*
X187033333Y-98861904D01*
X186880952Y-98861904D01*
X186804761Y-98823809D01*
X186728571Y-98747619D01*
X186690476Y-98595238D01*
X186690476Y-98328571D01*
X186728571Y-98176190D01*
X186804761Y-98100000D01*
X186880952Y-98061904D01*
X187566666Y-98861904D02*
X187566666Y-98061904D01*
X188023809Y-98861904D01*
X188023809Y-98061904D01*
X188823809Y-98100000D02*
X188747619Y-98061904D01*
X188633333Y-98061904D01*
X188519047Y-98100000D01*
X188442857Y-98176190D01*
X188404761Y-98252380D01*
X188366666Y-98404761D01*
X188366666Y-98519047D01*
X188404761Y-98671428D01*
X188442857Y-98747619D01*
X188519047Y-98823809D01*
X188633333Y-98861904D01*
X188709523Y-98861904D01*
X188823809Y-98823809D01*
X188861904Y-98785714D01*
X188861904Y-98519047D01*
X188709523Y-98519047D01*
X189585714Y-98861904D02*
X189204761Y-98861904D01*
X189204761Y-98061904D01*
X189852380Y-98442857D02*
X190119047Y-98442857D01*
X190233333Y-98861904D02*
X189852380Y-98861904D01*
X189852380Y-98061904D01*
X190233333Y-98061904D01*
D11*
X171200000Y-78000000D02*
X171200000Y-126260000D01*
X171200000Y-126260000D02*
X145800000Y-126260000D01*
X171200000Y-78000000D02*
X145800000Y-78000000D01*
D12*
X149500000Y-72400000D02*
X167500000Y-72400000D01*
X167500000Y-72400000D02*
X167500000Y-78000000D01*
D11*
X145800000Y-126260000D02*
X145800000Y-78000000D01*
D12*
X149500000Y-72400000D02*
X149500000Y-78000000D01*
X115500000Y-111000000D02*
X142500000Y-111000000D01*
X137350000Y-86000000D02*
X137350000Y-111000000D01*
X120650000Y-86000000D02*
X120650000Y-111000000D01*
X142500000Y-86000000D02*
X142500000Y-111000000D01*
X115500000Y-86000000D02*
X142500000Y-86000000D01*
X115500000Y-86000000D02*
X115500000Y-111000000D01*
X115500000Y-111000000D02*
X142500000Y-111000000D01*
D13*
X192120000Y-84350000D02*
X192120000Y-79980000D01*
D12*
X192120000Y-109985000D02*
X190469000Y-111636000D01*
D13*
X192120000Y-79980000D02*
X176880000Y-79980000D01*
D12*
X176880000Y-109985000D02*
X178531000Y-111636000D01*
D13*
X176880000Y-79980000D02*
X176880000Y-84350000D01*
%LPC*%
D14*
X119000000Y-123000000D03*
D15*
X147070000Y-79260000D03*
X147070000Y-81800000D03*
X147070000Y-84340000D03*
X147070000Y-86880000D03*
X147070000Y-89420000D03*
X147070000Y-91960000D03*
X147070000Y-94500000D03*
X147070000Y-97040000D03*
X147070000Y-99580000D03*
X147070000Y-102120000D03*
X147070000Y-104660000D03*
X147070000Y-107200000D03*
X147070000Y-109740000D03*
X147070000Y-112280000D03*
X147070000Y-114820000D03*
X147070000Y-117360000D03*
X147070000Y-119900000D03*
X147070000Y-122440000D03*
X147070000Y-124980000D03*
X169930000Y-79300000D03*
X169930000Y-81840000D03*
X169930000Y-84380000D03*
X169930000Y-86920000D03*
X169930000Y-89460000D03*
X169930000Y-92000000D03*
X169930000Y-94540000D03*
X169930000Y-97080000D03*
X169930000Y-99620000D03*
X169930000Y-102160000D03*
X169930000Y-104700000D03*
X169930000Y-107240000D03*
X169930000Y-109780000D03*
X169930000Y-112320000D03*
X169930000Y-114860000D03*
X169930000Y-117400000D03*
X169930000Y-119940000D03*
X169930000Y-122480000D03*
X169930000Y-125020000D03*
X141000000Y-94690000D03*
X141000000Y-97230000D03*
X141000000Y-99770000D03*
X141000000Y-102310000D03*
X190060000Y-113635000D03*
X192120000Y-108555000D03*
X192120000Y-106015000D03*
X192120000Y-103475000D03*
X192120000Y-100935000D03*
X192120000Y-98395000D03*
X192120000Y-95855000D03*
X192120000Y-93315000D03*
X192120000Y-90775000D03*
X192120000Y-88235000D03*
X192120000Y-85695000D03*
X178940000Y-113635000D03*
X176880000Y-108555000D03*
X176880000Y-106015000D03*
X176880000Y-103475000D03*
X176880000Y-100935000D03*
X176880000Y-98395000D03*
X176880000Y-95855000D03*
X176880000Y-93315000D03*
X176880000Y-90775000D03*
X176880000Y-88235000D03*
X176880000Y-85695000D03*
D14*
X119000000Y-72000000D03*
X192500000Y-72000000D03*
M02*
